<?xml version="1.0" standalone="no"?>
  <!DOCTYPE svg PUBLIC "-//W3C//DTD SVG 1.1//EN" 
    "http://www.w3.org/Graphics/SVG/1.1/DTD/svg11.dtd">
  <svg width="21.59cm" height="27.94cm"
       xmlns="http://www.w3.org/2000/svg" version="1.1" viewBox="0 0 764.99998 989.99998">
   <g>
     <path d="M 166.18824 165.93331 L 168.95215 89.00219 L 174.41312 78.52764 L 97.79357 77.79100 L 118.54698 171.97795 L 107.54153 136.23118 L 177.59680 80.95480 L 137.81693 133.45300 L 72.40880 115.75377 L 183.45789 69.82751 L 184.16511 110.91380 L 160.31254 157.49326 L 180.97067 135.49611 L 79.30611 89.99507 L 101.04739 143.14477 L 131.50913 96.46391 L 157.29876 160.80820 L 150.13583 126.20849 L 109.73073 169.79437 L 135.32311 172.49450 L 166.18824 165.93331 M 338.03863 165.93331 L 340.80254 89.00219 L 346.26351 78.52764 L 269.64396 77.79100 L 290.39737 171.97795 L 279.39192 136.23118 L 349.44719 80.95480 L 309.66732 133.45300 L 244.25919 115.75377 L 355.30828 69.82751 L 356.01550 110.91380 L 332.16293 157.49326 L 352.82106 135.49611 L 251.15650 89.99507 L 272.89778 143.14477 L 303.35952 96.46391 L 329.14915 160.80820 L 321.98622 126.20849 L 281.58112 169.79437 L 307.17350 172.49450 L 338.03863 165.93331 L 338.03863 165.93331 M 509.88902 165.93331 L 512.65293 89.00219 L 441.49435 77.79100 L 518.11390 78.52764 L 462.24776 171.97795 L 451.24231 136.23118 L 521.29758 80.95480 L 481.51771 133.45300 L 416.10958 115.75377 L 527.15867 69.82751 L 527.86589 110.91380 L 504.01332 157.49326 L 524.67145 135.49611 L 423.00689 89.99507 L 444.74817 143.14477 L 475.20991 96.46391 L 500.99954 160.80820 L 493.83661 126.20849 L 453.43151 169.79437 L 479.02389 172.49450 L 509.88902 165.93331 L 509.88902 165.93331 M 681.73941 165.93331 L 684.50332 89.00219 L 634.09815 171.97795 L 689.96429 78.52764 L 613.34474 77.79100 L 623.09270 136.23118 L 693.14797 80.95480 L 653.36810 133.45300 L 587.95997 115.75377 L 699.00906 69.82751 L 699.71628 110.91380 L 675.86371 157.49326 L 696.52184 135.49611 L 594.85728 89.99507 L 616.59856 143.14477 L 647.06030 96.46391 L 672.84993 160.80820 L 665.68700 126.20849 L 625.28190 169.79437 L 650.87428 172.49450 L 681.73941 165.93331 L 681.73941 165.93331 M 166.18824 344.87031 L 168.95215 267.93919 L 107.54153 315.16819 L 174.41312 257.46464 L 97.79357 256.72800 L 118.54698 350.91495 L 177.59680 259.89180 L 137.81693 312.39000 L 72.40880 294.69077 L 183.45789 248.76451 L 184.16511 289.85080 L 160.31254 336.43027 L 180.97067 314.43311 L 79.30611 268.93207 L 101.04739 322.08178 L 131.50913 275.40091 L 157.29876 339.74520 L 150.13583 305.14549 L 109.73073 348.73137 L 135.32311 351.43150 L 166.18824 344.87031 L 166.18824 344.87031 M 338.03863 344.87031 L 340.80254 267.93919 L 349.44719 259.89180 L 346.26351 257.46464 L 269.64396 256.72800 L 290.39737 350.91495 L 279.39192 315.16819 L 309.66732 312.39000 L 244.25919 294.69077 L 355.30828 248.76451 L 356.01550 289.85080 L 332.16293 336.43027 L 352.82106 314.43311 L 251.15650 268.93207 L 272.89778 322.08178 L 303.35952 275.40091 L 329.14915 339.74520 L 321.98622 305.14549 L 281.58112 348.73137 L 307.17350 351.43150 L 338.03863 344.87031 L 338.03863 344.87031 M 509.88902 344.87031 L 512.65293 267.93919 L 481.51771 312.39000 L 518.11390 257.46464 L 441.49435 256.72800 L 462.24776 350.91495 L 451.24231 315.16819 L 521.29758 259.89180 L 416.10958 294.69077 L 527.15867 248.76451 L 527.86589 289.85080 L 504.01332 336.43027 L 524.67145 314.43311 L 423.00689 268.93207 L 444.74817 322.08178 L 475.20991 275.40091 L 500.99954 339.74520 L 493.83661 305.14549 L 453.43151 348.73137 L 479.02389 351.43150 L 509.88902 344.87031 L 509.88902 344.87031 M 681.73941 344.87031 L 684.50332 267.93919 L 587.95997 294.69077 L 689.96429 257.46464 L 613.34474 256.72800 L 634.09815 350.91495 L 623.09270 315.16819 L 693.14797 259.89180 L 653.36810 312.39000 L 699.00906 248.76451 L 699.71628 289.85080 L 675.86371 336.43027 L 696.52184 314.43311 L 594.85728 268.93207 L 616.59856 322.08178 L 647.06030 275.40091 L 672.84993 339.74520 L 665.68700 305.14549 L 625.28190 348.73137 L 650.87428 351.43150 L 681.73941 344.87031 L 681.73941 344.87031 M 166.18824 523.80731 L 168.95215 446.87620 L 183.45789 427.70151 L 174.41312 436.40164 L 97.79357 435.66500 L 118.54698 529.85196 L 107.54153 494.10519 L 177.59680 438.82880 L 137.81693 491.32700 L 72.40880 473.62777 L 184.16511 468.78780 L 160.31254 515.36727 L 180.97067 493.37012 L 79.30611 447.86908 L 101.04739 501.01878 L 131.50913 454.33791 L 157.29876 518.68221 L 150.13583 484.08250 L 109.73073 527.66837 L 135.32311 530.36851 L 166.18824 523.80731 L 166.18824 523.80731 M 338.03863 523.80731 L 340.80254 446.87620 L 356.01550 468.78780 L 346.26351 436.40164 L 269.64396 435.66500 L 290.39737 529.85196 L 279.39192 494.10519 L 349.44719 438.82880 L 309.66732 491.32700 L 244.25919 473.62777 L 355.30828 427.70151 L 332.16293 515.36727 L 352.82106 493.37012 L 251.15650 447.86908 L 272.89778 501.01878 L 303.35952 454.33791 L 329.14915 518.68221 L 321.98622 484.08250 L 281.58112 527.66837 L 307.17350 530.36851 L 338.03863 523.80731 L 338.03863 523.80731 M 509.88902 523.80731 L 512.65293 446.87620 L 504.01332 515.36727 L 518.11390 436.40164 L 441.49435 435.66500 L 462.24776 529.85196 L 451.24231 494.10519 L 521.29758 438.82880 L 481.51771 491.32700 L 416.10958 473.62777 L 527.15867 427.70151 L 527.86589 468.78780 L 524.67145 493.37012 L 423.00689 447.86908 L 444.74817 501.01878 L 475.20991 454.33791 L 500.99954 518.68221 L 493.83661 484.08250 L 453.43151 527.66837 L 479.02389 530.36851 L 509.88902 523.80731 L 509.88902 523.80731 M 681.73941 523.80731 L 684.50332 446.87620 L 696.52184 493.37012 L 689.96429 436.40164 L 613.34474 435.66500 L 634.09815 529.85196 L 623.09270 494.10519 L 693.14797 438.82880 L 653.36810 491.32700 L 587.95997 473.62777 L 699.00906 427.70151 L 699.71628 468.78780 L 675.86371 515.36727 L 594.85728 447.86908 L 616.59856 501.01878 L 647.06030 454.33791 L 672.84993 518.68221 L 665.68700 484.08250 L 625.28190 527.66837 L 650.87428 530.36851 L 681.73941 523.80731 L 681.73941 523.80731 M 166.18824 702.74432 L 168.95215 625.81320 L 79.30611 626.80608 L 174.41312 615.33865 L 97.79357 614.60201 L 118.54698 708.78896 L 107.54153 673.04219 L 177.59680 617.76581 L 137.81693 670.26401 L 72.40880 652.56478 L 183.45789 606.63852 L 184.16511 647.72481 L 160.31254 694.30427 L 180.97067 672.30712 L 101.04739 679.95578 L 131.50913 633.27492 L 157.29876 697.61921 L 150.13583 663.01950 L 109.73073 706.60538 L 135.32311 709.30551 L 166.18824 702.74432 L 166.18824 702.74432 M 338.03863 702.74432 L 340.80254 625.81320 L 272.89778 679.95578 L 346.26351 615.33865 L 269.64396 614.60201 L 290.39737 708.78896 L 279.39192 673.04219 L 349.44719 617.76581 L 309.66732 670.26401 L 244.25919 652.56478 L 355.30828 606.63852 L 356.01550 647.72481 L 332.16293 694.30427 L 352.82106 672.30712 L 251.15650 626.80608 L 303.35952 633.27492 L 329.14915 697.61921 L 321.98622 663.01950 L 281.58112 706.60538 L 307.17350 709.30551 L 338.03863 702.74432 L 338.03863 702.74432 M 509.88902 702.74432 L 512.65293 625.81320 L 475.20991 633.27492 L 518.11390 615.33865 L 441.49435 614.60201 L 462.24776 708.78896 L 451.24231 673.04219 L 521.29758 617.76581 L 481.51771 670.26401 L 416.10958 652.56478 L 527.15867 606.63852 L 527.86589 647.72481 L 504.01332 694.30427 L 524.67145 672.30712 L 423.00689 626.80608 L 444.74817 679.95578 L 500.99954 697.61921 L 493.83661 663.01950 L 453.43151 706.60538 L 479.02389 709.30551 L 509.88902 702.74432 L 509.88902 702.74432 M 681.73941 702.74432 L 684.50332 625.81320 L 672.84993 697.61921 L 689.96429 615.33865 L 613.34474 614.60201 L 634.09815 708.78896 L 623.09270 673.04219 L 693.14797 617.76581 L 653.36810 670.26401 L 587.95997 652.56478 L 699.00906 606.63852 L 699.71628 647.72481 L 675.86371 694.30427 L 696.52184 672.30712 L 594.85728 626.80608 L 616.59856 679.95578 L 647.06030 633.27492 L 665.68700 663.01950 L 625.28190 706.60538 L 650.87428 709.30551 L 681.73941 702.74432 L 681.73941 702.74432 M 166.18824 881.68132 L 168.95215 804.75021 L 150.13583 841.95650 L 174.41312 794.27565 L 97.79357 793.53901 L 118.54698 887.72596 L 107.54153 851.97920 L 177.59680 796.70281 L 137.81693 849.20101 L 72.40880 831.50178 L 183.45789 785.57552 L 184.16511 826.66181 L 160.31254 873.24128 L 180.97067 851.24412 L 79.30611 805.74308 L 101.04739 858.89279 L 131.50913 812.21192 L 157.29876 876.55621 L 109.73073 885.54238 L 135.32311 888.24251 L 166.18824 881.68132 L 166.18824 881.68132 M 338.03863 881.68132 L 340.80254 804.75021 L 281.58112 885.54238 L 346.26351 794.27565 L 269.64396 793.53901 L 290.39737 887.72596 L 279.39192 851.97920 L 349.44719 796.70281 L 309.66732 849.20101 L 244.25919 831.50178 L 355.30828 785.57552 L 356.01550 826.66181 L 332.16293 873.24128 L 352.82106 851.24412 L 251.15650 805.74308 L 272.89778 858.89279 L 303.35952 812.21192 L 329.14915 876.55621 L 321.98622 841.95650 L 307.17350 888.24251 L 338.03863 881.68132 L 338.03863 881.68132 M 509.88902 881.68132 L 512.65293 804.75021 L 479.02389 888.24251 L 518.11390 794.27565 L 441.49435 793.53901 L 462.24776 887.72596 L 451.24231 851.97920 L 521.29758 796.70281 L 481.51771 849.20101 L 416.10958 831.50178 L 527.15867 785.57552 L 527.86589 826.66181 L 504.01332 873.24128 L 524.67145 851.24412 L 423.00689 805.74308 L 444.74817 858.89279 L 475.20991 812.21192 L 500.99954 876.55621 L 493.83661 841.95650 L 453.43151 885.54238 L 509.88902 881.68132 L 509.88902 881.68132 M 681.73941 881.68132 L 684.50332 804.75021 L 681.73941 881.68132 L 689.96429 794.27565 L 613.34474 793.53901 L 634.09815 887.72596 L 623.09270 851.97920 L 693.14797 796.70281 L 653.36810 849.20101 L 587.95997 831.50178 L 699.00906 785.57552 L 699.71628 826.66181 L 675.86371 873.24128 L 696.52184 851.24412 L 594.85728 805.74308 L 616.59856 858.89279 L 647.06030 812.21192 L 672.84993 876.55621 L 665.68700 841.95650 L 625.28190 885.54238 L 650.87428 888.24251 L 681.73941 881.68132" fill="none" stroke="black" stroke-width="0.03cm" />
   </g>
</svg>