<?xml version="1.0" standalone="no"?>
  <!DOCTYPE svg PUBLIC "-//W3C//DTD SVG 1.1//EN" 
    "http://www.w3.org/Graphics/SVG/1.1/DTD/svg11.dtd">
  <svg width="21.59cm" height="27.94cm"
       xmlns="http://www.w3.org/2000/svg" version="1.1" viewBox="0 0 764.99998 989.99998">
   <g>
     <path d="M 53.14961 53.14961 L 194.88189 53.14961 L 194.88189 194.88189 L 53.14961 194.88189 L 53.14961 53.14961 M 103.58194 137.08410 L 106.57325 103.34945 L 99.71420 84.51970 L 134.59785 104.99183 L 103.58194 137.08410 M 224.99999 53.14961 L 366.73227 53.14961 L 366.73227 194.88189 L 224.99999 194.88189 L 224.99999 53.14961 M 289.60376 157.16693 L 255.17877 85.55345 L 283.37052 143.43589 L 273.79334 132.43427 L 289.60376 157.16693 M 396.85038 53.14961 L 538.58266 53.14961 L 538.58266 194.88189 L 396.85038 194.88189 L 396.85038 53.14961 M 512.11042 122.75212 L 438.38490 75.12852 L 484.05893 93.40721 L 478.96966 115.01029 L 512.11042 122.75212 M 568.70077 53.14961 L 710.43305 53.14961 L 710.43305 194.88189 L 568.70077 194.88189 L 568.70077 53.14961 M 668.12156 145.07906 L 664.03201 66.02027 L 641.47041 126.90698 L 615.18697 158.15045 L 668.12156 145.07906 M 53.14961 230.31495 L 194.88189 230.31495 L 194.88189 372.04724 L 53.14961 372.04724 L 53.14961 230.31495 M 152.85807 342.46291 L 67.25534 259.93764 L 176.82790 316.74973 L 69.88120 323.12896 L 152.85807 342.46291 M 224.99999 230.31495 L 366.73227 230.31495 L 366.73227 372.04724 L 224.99999 372.04724 L 224.99999 230.31495 M 263.06545 322.19674 L 243.99206 312.94656 L 238.45903 300.62997 L 291.65622 253.61310 L 263.06545 322.19674 M 396.85038 230.31495 L 538.58266 230.31495 L 538.58266 372.04724 L 396.85038 372.04724 L 396.85038 230.31495 M 408.19997 340.42197 L 444.49677 355.56386 L 510.81270 258.55275 L 491.62013 287.30546 L 408.19997 340.42197 M 568.70077 230.31495 L 710.43305 230.31495 L 710.43305 372.04724 L 568.70077 372.04724 L 568.70077 230.31495 M 666.54358 249.88532 L 587.99466 350.14190 L 660.35722 328.86150 L 619.80601 256.86285 L 666.54358 249.88532 M 53.14961 407.48030 L 194.88189 407.48030 L 194.88189 549.21258 L 53.14961 549.21258 L 53.14961 407.48030 M 165.25199 467.90624 L 108.85541 508.52615 L 129.53889 485.05679 L 117.11194 520.42214 L 165.25199 467.90624 M 224.99999 407.48030 L 366.73227 407.48030 L 366.73227 549.21258 L 224.99999 549.21258 L 224.99999 407.48030 M 347.78276 487.25517 L 250.24506 445.12509 L 348.19068 496.93098 L 307.99898 493.75013 L 347.78276 487.25517 M 396.85038 407.48030 L 538.58266 407.48030 L 538.58266 549.21258 L 396.85038 549.21258 L 396.85038 407.48030 M 498.60544 469.14381 L 429.62589 533.03420 L 450.15869 485.38978 L 500.15046 457.54841 L 498.60544 469.14381 M 568.70077 407.48030 L 710.43305 407.48030 L 710.43305 549.21258 L 568.70077 549.21258 L 568.70077 407.48030 M 673.93976 475.62401 L 668.38451 487.15231 L 675.51799 445.00483 L 625.10588 471.36108 L 673.93976 475.62401 M 53.14961 584.64566 L 194.88189 584.64566 L 194.88189 726.37793 L 53.14961 726.37793 L 53.14961 584.64566 M 153.92917 595.48059 L 160.36257 622.28931 L 81.82737 610.14359 L 105.15276 642.95641 L 153.92917 595.48059 M 224.99999 584.64566 L 366.73227 584.64566 L 366.73227 726.37793 L 224.99999 726.37793 L 224.99999 584.64566 M 278.41698 640.69368 L 245.76836 708.80989 L 305.15386 620.87754 L 289.99501 710.75075 L 278.41698 640.69368 M 396.85038 584.64566 L 538.58266 584.64566 L 538.58266 726.37793 L 396.85038 726.37793 L 396.85038 584.64566 M 466.92008 645.35149 L 527.54509 611.27896 L 427.49255 635.69384 L 472.53203 673.17582 L 466.92008 645.35149 M 568.70077 584.64566 L 710.43305 584.64566 L 710.43305 726.37793 L 568.70077 726.37793 L 568.70077 584.64566 M 687.17001 648.67855 L 674.06980 690.66098 L 647.72321 626.22905 L 691.28380 600.15995 L 687.17001 648.67855 M 53.14961 761.81101 L 194.88189 761.81101 L 194.88189 903.54328 L 53.14961 903.54328 L 53.14961 761.81101 M 96.71955 810.82869 L 124.52174 851.80837 L 132.68459 808.91108 L 92.65110 864.36536 L 96.71955 810.82869 M 224.99999 761.81101 L 366.73227 761.81101 L 366.73227 903.54328 L 224.99999 903.54328 L 224.99999 761.81101 M 352.75086 889.21621 L 248.84657 815.85226 L 285.07276 822.80954 L 354.57656 783.26983 L 352.75086 889.21621 M 396.85038 761.81101 L 538.58266 761.81101 L 538.58266 903.54328 L 396.85038 903.54328 L 396.85038 761.81101 M 473.57458 777.50701 L 485.00410 811.46652 L 449.47207 857.82883 L 437.05455 809.90587 L 473.57458 777.50701 M 568.70077 761.81101 L 710.43305 761.81101 L 710.43305 903.54328 L 568.70077 903.54328 L 568.70077 761.81101 M 652.79538 861.74133 L 607.90964 862.19389 L 581.98634 780.58625 L 662.04728 806.56610 L 652.79538 861.74133" fill="none" stroke="black" stroke-width="0.03cm" />
   </g>
</svg>