<?xml version="1.0" standalone="no"?>
  <!DOCTYPE svg PUBLIC "-//W3C//DTD SVG 1.1//EN" 
    "http://www.w3.org/Graphics/SVG/1.1/DTD/svg11.dtd">
  <svg width="21.59cm" height="27.94cm"
       xmlns="http://www.w3.org/2000/svg" version="1.1" viewBox="0 0 764.99998 989.99998">
   <g>
     <path d="M 136.71141 99.49856 L 143.74351 119.44070 L 108.12396 120.88244 L 132.97844 105.87868 L 172.25662 80.95635 L 177.83188 165.23871 L 70.91141 128.00887 L 136.71141 99.49856 M 279.97435 120.88244 L 315.59390 119.44070 L 308.56180 99.49856 L 304.82883 105.87868 L 344.10700 80.95635 L 349.68227 165.23871 L 242.76180 128.00887 L 308.56180 99.49856 L 279.97435 120.88244 M 480.41219 99.49856 L 451.82474 120.88244 L 487.44429 119.44070 L 476.67922 105.87868 L 515.95739 80.95635 L 521.53266 165.23871 L 414.61219 128.00887 L 480.41219 99.49856 L 480.41219 99.49856 M 652.26258 99.49856 L 623.67513 120.88244 L 659.29468 119.44070 L 648.52961 105.87868 L 687.80778 80.95635 L 693.38305 165.23871 L 586.46258 128.00887 L 652.26258 99.49856 L 652.26258 99.49856 M 136.71141 278.43556 L 108.12396 299.81944 L 143.74351 298.37770 L 132.97844 284.81568 L 172.25662 259.89335 L 177.83188 344.17571 L 70.91141 306.94588 L 136.71141 278.43556 L 136.71141 278.43556 M 308.56180 278.43556 L 315.59390 298.37770 L 279.97435 299.81944 L 304.82883 284.81568 L 344.10700 259.89335 L 349.68227 344.17571 L 242.76180 306.94588 L 308.56180 278.43556 L 308.56180 278.43556 M 480.41219 278.43556 L 487.44429 298.37770 L 451.82474 299.81944 L 476.67922 284.81568 L 515.95739 259.89335 L 521.53266 344.17571 L 414.61219 306.94588 L 480.41219 278.43556 L 480.41219 278.43556 M 652.26258 278.43556 L 659.29468 298.37770 L 623.67513 299.81944 L 648.52961 284.81568 L 687.80778 259.89335 L 693.38305 344.17571 L 586.46258 306.94588 L 652.26258 278.43556 L 652.26258 278.43556 M 136.71141 457.37257 L 143.74351 477.31471 L 132.97844 463.75269 L 108.12396 478.75645 L 172.25662 438.83035 L 177.83188 523.11271 L 70.91141 485.88288 L 136.71141 457.37257 L 136.71141 457.37257 M 308.56180 457.37257 L 315.59390 477.31471 L 304.82883 463.75269 L 279.97435 478.75645 L 344.10700 438.83035 L 349.68227 523.11271 L 242.76180 485.88288 L 308.56180 457.37257 L 308.56180 457.37257 M 480.41219 457.37257 L 487.44429 477.31471 L 476.67922 463.75269 L 451.82474 478.75645 L 515.95739 438.83035 L 521.53266 523.11271 L 414.61219 485.88288 L 480.41219 457.37257 L 480.41219 457.37257 M 652.26258 457.37257 L 659.29468 477.31471 L 687.80778 438.83035 L 648.52961 463.75269 L 623.67513 478.75645 L 693.38305 523.11271 L 586.46258 485.88288 L 652.26258 457.37257 L 652.26258 457.37257 M 136.71141 636.30957 L 143.74351 656.25171 L 172.25662 617.76736 L 132.97844 642.68969 L 108.12396 657.69345 L 177.83188 702.04972 L 70.91141 664.81988 L 136.71141 636.30957 L 136.71141 636.30957 M 308.56180 636.30957 L 315.59390 656.25171 L 344.10700 617.76736 L 304.82883 642.68969 L 279.97435 657.69345 L 349.68227 702.04972 L 242.76180 664.81988 L 308.56180 636.30957 L 308.56180 636.30957 M 480.41219 636.30957 L 487.44429 656.25171 L 521.53266 702.04972 L 476.67922 642.68969 L 515.95739 617.76736 L 451.82474 657.69345 L 414.61219 664.81988 L 480.41219 636.30957 L 480.41219 636.30957 M 652.26258 636.30957 L 659.29468 656.25171 L 693.38305 702.04972 L 648.52961 642.68969 L 687.80778 617.76736 L 623.67513 657.69345 L 586.46258 664.81988 L 652.26258 636.30957 L 652.26258 636.30957 M 136.71141 815.24657 L 143.74351 835.18871 L 177.83188 880.98672 L 132.97844 821.62669 L 172.25662 796.70436 L 108.12396 836.63046 L 70.91141 843.75689 L 136.71141 815.24657 L 136.71141 815.24657 M 308.56180 815.24657 L 315.59390 835.18871 L 242.76180 843.75689 L 304.82883 821.62669 L 344.10700 796.70436 L 349.68227 880.98672 L 279.97435 836.63046 L 308.56180 815.24657 L 308.56180 815.24657 M 480.41219 815.24657 L 487.44429 835.18871 L 414.61219 843.75689 L 476.67922 821.62669 L 515.95739 796.70436 L 521.53266 880.98672 L 451.82474 836.63046 L 480.41219 815.24657 L 480.41219 815.24657 M 652.26258 815.24657 L 659.29468 835.18871 L 586.46258 843.75689 L 648.52961 821.62669 L 687.80778 796.70436 L 693.38305 880.98672 L 623.67513 836.63046 L 652.26258 815.24657 L 652.26258 815.24657" fill="none" stroke="black" stroke-width="0.03cm" />
   </g>
</svg>