<?xml version="1.0" standalone="no"?>
  <!DOCTYPE svg PUBLIC "-//W3C//DTD SVG 1.1//EN" 
    "http://www.w3.org/Graphics/SVG/1.1/DTD/svg11.dtd">
  <svg width="21.59cm" height="27.94cm"
       xmlns="http://www.w3.org/2000/svg" version="1.1" viewBox="0 0 764.99998 989.99998">
   <g>
     <path d="M 138.13873 149.07091 L 69.62908 110.52523 L 69.16930 177.26742 L 176.21816 175.70045 L 132.44142 108.50066 L 139.74521 115.06373 L 153.12761 87.26532 L 138.13873 149.07091 M 348.06855 175.70045 L 241.01969 177.26742 L 311.59560 115.06373 L 241.47947 110.52523 L 304.29181 108.50066 L 324.97799 87.26532 L 309.98912 149.07091 L 309.98912 149.07091 L 348.06855 175.70045 M 519.91894 175.70045 L 476.14219 108.50066 L 483.44599 115.06373 L 496.82838 87.26532 L 413.32986 110.52523 L 412.87008 177.26742 L 481.83951 149.07091 L 481.83951 149.07091 L 519.91894 175.70045 M 653.68990 149.07091 L 653.68990 149.07091 L 584.72047 177.26742 L 668.67877 87.26532 L 647.99258 108.50066 L 585.18025 110.52523 L 655.29638 115.06373 L 691.76933 175.70045 L 653.68990 149.07091 M 176.21816 354.63746 L 69.16930 356.20443 L 138.13873 328.00791 L 138.13873 328.00791 L 139.74521 294.00073 L 153.12761 266.20233 L 69.62908 289.46223 L 132.44142 287.43766 L 176.21816 354.63746 M 311.59560 294.00073 L 309.98912 328.00791 L 348.06855 354.63746 L 304.29181 287.43766 L 241.47947 289.46223 L 309.98912 328.00791 L 324.97799 266.20233 L 241.01969 356.20443 L 311.59560 294.00073 M 412.87008 356.20443 L 476.14219 287.43766 L 481.83951 328.00791 L 481.83951 328.00791 L 413.32986 289.46223 L 483.44599 294.00073 L 496.82838 266.20233 L 519.91894 354.63746 L 412.87008 356.20443 M 691.76933 354.63746 L 668.67877 266.20233 L 653.68990 328.00791 L 655.29638 294.00073 L 584.72047 356.20443 L 653.68990 328.00791 L 647.99258 287.43766 L 585.18025 289.46223 L 691.76933 354.63746 M 139.74521 472.93774 L 138.13873 506.94492 L 69.62908 468.39923 L 176.21816 533.57446 L 153.12761 445.13933 L 132.44142 466.37467 L 69.16930 535.14143 L 138.13873 506.94492 L 139.74521 472.93774 M 324.97799 445.13933 L 348.06855 533.57446 L 304.29181 466.37467 L 309.98912 506.94492 L 309.98912 506.94492 L 241.47947 468.39923 L 241.01969 535.14143 L 311.59560 472.93774 L 324.97799 445.13933 M 496.82838 445.13933 L 483.44599 472.93774 L 412.87008 535.14143 L 413.32986 468.39923 L 481.83951 506.94492 L 519.91894 533.57446 L 476.14219 466.37467 L 481.83951 506.94492 L 496.82838 445.13933 M 668.67877 445.13933 L 653.68990 506.94492 L 653.68990 506.94492 L 655.29638 472.93774 L 647.99258 466.37467 L 691.76933 533.57446 L 584.72047 535.14143 L 585.18025 468.39923 L 668.67877 445.13933 M 138.13873 685.88192 L 69.62908 647.33624 L 138.13873 685.88192 L 139.74521 651.87474 L 132.44142 645.31167 L 69.16930 714.07843 L 176.21816 712.51146 L 153.12761 624.07633 L 138.13873 685.88192 M 304.29181 645.31167 L 348.06855 712.51146 L 324.97799 624.07633 L 309.98912 685.88192 L 311.59560 651.87474 L 241.01969 714.07843 L 309.98912 685.88192 L 241.47947 647.33624 L 304.29181 645.31167 M 496.82838 624.07633 L 519.91894 712.51146 L 413.32986 647.33624 L 481.83951 685.88192 L 412.87008 714.07843 L 483.44599 651.87474 L 481.83951 685.88192 L 476.14219 645.31167 L 496.82838 624.07633 M 585.18025 647.33624 L 655.29638 651.87474 L 653.68990 685.88192 L 668.67877 624.07633 L 647.99258 645.31167 L 584.72047 714.07843 L 691.76933 712.51146 L 653.68990 685.88192 L 585.18025 647.33624 M 139.74521 830.81174 L 138.13873 864.81892 L 176.21816 891.44847 L 138.13873 864.81892 L 69.16930 893.01544 L 69.62908 826.27324 L 132.44142 824.24867 L 153.12761 803.01334 L 139.74521 830.81174 M 324.97799 803.01334 L 348.06855 891.44847 L 304.29181 824.24867 L 241.01969 893.01544 L 241.47947 826.27324 L 311.59560 830.81174 L 309.98912 864.81892 L 309.98912 864.81892 L 324.97799 803.01334 M 481.83951 864.81892 L 519.91894 891.44847 L 412.87008 893.01544 L 476.14219 824.24867 L 483.44599 830.81174 L 413.32986 826.27324 L 496.82838 803.01334 L 481.83951 864.81892 L 481.83951 864.81892 M 668.67877 803.01334 L 585.18025 826.27324 L 647.99258 824.24867 L 691.76933 891.44847 L 655.29638 830.81174 L 653.68990 864.81892 L 584.72047 893.01544 L 653.68990 864.81892 L 668.67877 803.01334" fill="none" stroke="black" stroke-width="0.03cm" />
   </g>
</svg>