<?xml version="1.0" standalone="no"?>
  <!DOCTYPE svg PUBLIC "-//W3C//DTD SVG 1.1//EN" 
    "http://www.w3.org/Graphics/SVG/1.1/DTD/svg11.dtd">
  <svg width="21.59cm" height="27.94cm"
       xmlns="http://www.w3.org/2000/svg" version="1.1" viewBox="0 0 764.99998 989.99998">
   <g>
     <path d="M 109.84252 74.40945 L 109.84252 145.27559 L 109.84252 145.27559 L 74.40945 109.84252 L 145.27559 145.27559 L 74.40945 145.27559 L 145.27559 74.40945 L 74.40945 109.84252 L 109.84252 145.27559 L 74.40945 145.27559 L 109.84252 74.40945 M 246.25984 145.27559 L 281.69291 145.27559 L 281.69291 74.40945 L 246.25984 109.84252 L 281.69291 74.40945 L 317.12598 74.40945 L 281.69291 145.27559 L 281.69291 145.27559 L 246.25984 145.27559 L 317.12598 145.27559 L 246.25984 109.84252 M 453.54330 145.27559 L 453.54330 74.40945 L 488.97637 145.27559 L 418.11023 145.27559 L 453.54330 145.27559 L 453.54330 145.27559 L 418.11023 109.84252 L 453.54330 74.40945 L 418.11023 109.84252 L 488.97637 74.40945 L 418.11023 145.27559 M 589.96062 145.27559 L 625.39369 74.40945 L 589.96062 109.84252 L 589.96062 145.27559 L 660.82676 74.40945 L 625.39369 145.27559 L 625.39369 74.40945 L 589.96062 109.84252 L 625.39369 145.27559 L 625.39369 145.27559 L 660.82676 145.27559 M 145.27559 253.34645 L 109.84252 324.21259 L 109.84252 324.21259 L 74.40945 324.21259 L 74.40945 288.77952 L 109.84252 324.21259 L 145.27559 324.21259 L 74.40945 288.77952 L 109.84252 253.34645 L 74.40945 324.21259 L 109.84252 253.34645 M 317.12598 253.34645 L 281.69291 324.21259 L 246.25984 288.77952 L 317.12598 324.21259 L 281.69291 253.34645 L 246.25984 288.77952 L 281.69291 324.21259 L 246.25984 324.21259 L 281.69291 253.34645 L 281.69291 324.21259 L 246.25984 324.21259 M 418.11023 288.77952 L 488.97637 253.34645 L 453.54330 324.21259 L 418.11023 324.21259 L 453.54330 253.34645 L 453.54330 324.21259 L 453.54330 324.21259 L 418.11023 288.77952 L 488.97637 324.21259 L 453.54330 253.34645 L 418.11023 324.21259 M 625.39369 253.34645 L 660.82676 253.34645 L 589.96062 288.77952 L 660.82676 324.21259 L 589.96062 324.21259 L 589.96062 288.77952 L 625.39369 324.21259 L 625.39369 324.21259 L 589.96062 324.21259 L 625.39369 253.34645 L 625.39369 324.21259 M 53.14961 407.48030 L 194.88189 407.48030 L 194.88189 549.21258 L 53.14961 549.21258 L 53.14961 407.48030 M 74.40945 503.14959 L 145.27559 432.28345 L 109.84252 503.14959 L 109.84252 503.14959 L 74.40945 467.71652 L 109.84252 432.28345 L 145.27559 503.14959 L 109.84252 432.28345 L 74.40945 467.71652 L 109.84252 503.14959 L 74.40945 503.14959 M 281.69291 432.28345 L 281.69291 503.14959 L 246.25984 503.14959 L 246.25984 467.71652 L 281.69291 432.28345 L 281.69291 503.14959 L 246.25984 467.71652 L 317.12598 432.28345 L 317.12598 503.14959 L 246.25984 503.14959 L 281.69291 503.14959 M 488.97637 503.14959 L 453.54330 503.14959 L 453.54330 503.14959 L 418.11023 503.14959 L 418.11023 503.14959 L 488.97637 432.28345 L 453.54330 503.14959 L 418.11023 467.71652 L 453.54330 432.28345 L 453.54330 432.28345 L 418.11023 467.71652 M 625.39369 503.14959 L 589.96062 503.14959 L 660.82676 432.28345 L 589.96062 503.14959 L 625.39369 503.14959 L 660.82676 503.14959 L 625.39369 503.14959 L 589.96062 467.71652 L 625.39369 432.28345 L 625.39369 432.28345 L 589.96062 467.71652 M 109.84252 611.22046 L 74.40945 646.65353 L 74.40945 682.08660 L 109.84252 682.08660 L 74.40945 682.08660 L 109.84252 682.08660 L 109.84252 682.08660 L 145.27559 611.22046 L 109.84252 611.22046 L 145.27559 682.08660 L 74.40945 646.65353 M 281.69291 682.08660 L 281.69291 611.22046 L 317.12598 682.08660 L 246.25984 682.08660 L 281.69291 611.22046 L 281.69291 682.08660 L 246.25984 682.08660 L 246.25984 646.65353 L 317.12598 611.22046 L 246.25984 646.65353 L 281.69291 682.08660 M 453.54330 682.08660 L 418.11023 646.65353 L 418.11023 682.08660 L 488.97637 611.22046 L 453.54330 682.08660 L 453.54330 682.08660 L 488.97637 682.08660 L 418.11023 646.65353 L 453.54330 611.22046 L 453.54330 611.22046 L 418.11023 682.08660 M 589.96062 682.08660 L 589.96062 646.65353 L 589.96062 682.08660 L 589.96062 646.65353 L 625.39369 682.08660 L 625.39369 611.22046 L 625.39369 682.08660 L 625.39369 611.22046 L 625.39369 682.08660 L 660.82676 682.08660 L 660.82676 611.22046 M 145.27559 861.02360 L 74.40945 825.59053 L 109.84252 861.02360 L 74.40945 825.59053 L 109.84252 861.02360 L 109.84252 861.02360 L 109.84252 790.15746 L 74.40945 861.02360 L 74.40945 861.02360 L 145.27559 790.15746 L 109.84252 790.15746 M 224.99999 761.81101 L 366.73227 761.81101 L 366.73227 903.54328 L 224.99999 903.54328 L 224.99999 761.81101 M 281.69291 861.02360 L 317.12598 790.15746 L 246.25984 861.02360 L 281.69291 861.02360 L 246.25984 825.59053 L 281.69291 790.15746 L 246.25984 825.59053 L 317.12598 861.02360 L 281.69291 861.02360 L 281.69291 790.15746 L 246.25984 861.02360 M 488.97637 790.15746 L 418.11023 861.02360 L 453.54330 861.02360 L 418.11023 825.59053 L 453.54330 790.15746 L 418.11023 861.02360 L 488.97637 861.02360 L 453.54330 861.02360 L 418.11023 825.59053 L 453.54330 790.15746 L 453.54330 861.02360 M 625.39369 861.02360 L 625.39369 790.15746 L 660.82676 790.15746 L 589.96062 825.59053 L 589.96062 861.02360 L 660.82676 861.02360 L 625.39369 861.02360 L 589.96062 825.59053 L 625.39369 790.15746 L 625.39369 861.02360 L 589.96062 861.02360" fill="none" stroke="black" stroke-width="0.03cm" />
   </g>
</svg>