<?xml version="1.0" standalone="no"?>
  <!DOCTYPE svg PUBLIC "-//W3C//DTD SVG 1.1//EN" 
    "http://www.w3.org/Graphics/SVG/1.1/DTD/svg11.dtd">
  <svg width="21.59cm" height="27.94cm"
       xmlns="http://www.w3.org/2000/svg" version="1.1" viewBox="0 0 764.99998 989.99998">
   <g>
     <path d="M 53.14961 53.14961 L 194.88189 53.14961 L 194.88189 194.88189 L 53.14961 194.88189 L 53.14961 53.14961 M 172.17084 154.97541 L 84.21472 93.86910 L 129.96596 124.94308 L 65.68117 123.87729 L 160.84633 109.40988 L 75.53916 164.55829 L 172.17084 154.97541 M 224.99999 53.14961 L 366.73227 53.14961 L 366.73227 194.88189 L 224.99999 194.88189 L 224.99999 53.14961 M 295.42320 95.13998 L 320.26409 74.53757 L 280.83599 155.22968 L 239.38458 95.14148 L 340.45292 184.00748 L 352.64964 91.80171 L 327.26552 100.44870 L 295.42320 95.13998 M 396.85038 53.14961 L 538.58266 53.14961 L 538.58266 194.88189 L 396.85038 194.88189 L 396.85038 53.14961 M 443.21148 176.61933 L 436.11505 171.93642 L 515.75888 171.12649 L 493.59717 160.46266 L 448.99920 68.89768 L 457.59903 136.74698 L 447.46610 80.09550 L 465.48628 122.63848 L 443.21148 176.61933 M 568.70077 53.14961 L 710.43305 53.14961 L 710.43305 194.88189 L 568.70077 194.88189 L 568.70077 53.14961 M 595.79948 126.43423 L 695.44388 159.69595 L 621.19840 144.82589 L 672.58792 79.35677 L 694.54041 143.33721 L 596.26126 181.81067 L 673.88040 81.64530 L 599.18627 129.73082 L 623.71146 84.99296 L 595.79948 126.43423 M 53.14961 230.31495 L 194.88189 230.31495 L 194.88189 372.04724 L 53.14961 372.04724 L 53.14961 230.31495 M 76.71462 306.82400 L 111.98159 304.17908 L 134.24756 331.17576 L 130.02620 301.57789 L 147.18250 265.77345 L 172.86400 344.76764 L 101.96806 258.44172 L 152.97779 285.43534 L 97.45887 320.20602 L 100.03432 292.44488 L 76.71462 306.82400 M 224.99999 230.31495 L 366.73227 230.31495 L 366.73227 372.04724 L 224.99999 372.04724 L 224.99999 230.31495 M 297.79396 274.87792 L 325.05017 241.10758 L 298.55354 282.92162 L 300.75308 341.52679 L 247.28108 273.18981 L 297.60664 267.41091 L 270.94467 309.07554 L 293.44477 301.54299 L 333.06212 250.85723 L 352.61521 336.84666 L 296.48262 241.57280 L 297.79396 274.87792 M 396.85038 230.31495 L 538.58266 230.31495 L 538.58266 372.04724 L 396.85038 372.04724 L 396.85038 230.31495 M 450.54024 306.66796 L 420.34831 266.00058 L 493.80518 310.45094 L 479.26074 249.78056 L 452.18372 282.27797 L 467.22843 356.11584 L 439.16652 261.72079 L 454.71467 281.11410 L 500.23371 339.74205 L 511.29011 260.61809 L 514.17503 342.18229 L 509.75368 329.60308 L 450.54024 306.66796 M 568.70077 230.31495 L 710.43305 230.31495 L 710.43305 372.04724 L 568.70077 372.04724 L 568.70077 230.31495 M 617.61289 285.39867 L 590.76915 345.38100 L 586.82239 309.01623 L 591.62541 358.88058 L 640.68912 333.59145 L 667.76063 329.27810 L 699.62688 348.73607 L 581.15255 338.31493 L 646.54085 333.98887 L 673.57478 301.96980 L 621.34002 292.93231 L 669.63843 250.24125 L 664.06894 304.93435 L 617.61289 285.39867 M 53.14961 407.48030 L 194.88189 407.48030 L 194.88189 549.21258 L 53.14961 549.21258 L 53.14961 407.48030 M 180.70599 499.99718 L 140.94700 444.89506 L 79.11823 449.66924 L 140.14162 502.48363 L 142.74108 489.07407 L 155.91583 455.55548 L 144.09518 494.25236 L 164.50577 478.47563 L 152.25519 435.94238 L 91.76463 447.38942 L 117.97326 512.25891 L 104.58511 486.43296 L 180.90766 519.49270 L 72.19695 465.08652 L 180.70599 499.99718 M 224.99999 407.48030 L 366.73227 407.48030 L 366.73227 549.21258 L 224.99999 549.21258 L 224.99999 407.48030 M 349.05706 510.19278 L 256.29381 460.37038 L 336.14003 534.01436 L 329.19444 470.88430 L 270.24451 473.51868 L 305.79526 430.58891 L 280.99929 536.25246 L 274.91597 421.31861 L 304.08029 507.04312 L 314.86370 493.79812 L 252.27971 464.98345 L 353.39120 501.00205 L 236.01636 511.45066 L 296.71139 446.51801 L 321.50069 489.87628 L 349.05706 510.19278 M 396.85038 407.48030 L 538.58266 407.48030 L 538.58266 549.21258 L 396.85038 549.21258 L 396.85038 407.48030 M 517.90859 454.77630 L 451.19833 492.73703 L 430.27150 505.69413 L 505.54274 473.84395 L 462.76414 450.96562 L 470.31708 491.47696 L 433.82556 453.36489 L 447.94155 492.47268 L 476.47406 441.90264 L 413.79580 525.40728 L 446.11628 430.03944 L 435.37214 450.27700 L 461.60082 508.44320 L 491.75114 514.79972 L 433.46813 470.55069 L 413.42564 418.35381 L 517.90859 454.77630 M 568.70077 407.48030 L 710.43305 407.48030 L 710.43305 549.21258 L 568.70077 549.21258 L 568.70077 407.48030 M 619.40302 510.02091 L 586.81415 529.41169 L 675.03318 421.78800 L 607.95870 526.01889 L 583.69390 498.17991 L 624.05505 436.92688 L 626.03135 436.44937 L 646.67599 489.82520 L 695.94959 469.35115 L 681.11990 491.58808 L 613.84231 449.75534 L 586.86663 523.83942 L 670.28555 434.39579 L 670.04325 504.68520 L 644.87976 524.06715 L 689.28650 509.13000 L 684.19549 489.75761 L 619.40302 510.02091 M 53.14961 584.64566 L 194.88189 584.64566 L 194.88189 726.37793 L 53.14961 726.37793 L 53.14961 584.64566 M 164.95408 611.49843 L 169.08580 689.96256 L 80.80938 605.06155 L 149.58588 702.01663 L 119.80864 663.71479 L 111.54183 657.54306 L 69.27541 652.66971 L 120.23952 707.38584 L 155.09032 703.93589 L 161.53659 598.17811 L 149.08937 661.67173 L 144.47027 698.85179 L 143.74664 667.60189 L 93.14673 621.62866 L 133.57626 679.61200 L 170.29813 666.03079 L 142.58341 714.23196 L 140.85802 597.24938 L 164.95408 611.49843 M 224.99999 584.64566 L 366.73227 584.64566 L 366.73227 726.37793 L 224.99999 726.37793 L 224.99999 584.64566 M 338.39525 687.98877 L 254.25962 624.62886 L 287.52730 632.59754 L 331.45915 681.85382 L 245.12542 699.20028 L 269.41485 598.02865 L 273.48965 711.23519 L 316.48574 682.91520 L 323.94416 649.36526 L 296.96997 629.92054 L 294.70463 701.62145 L 241.33274 609.81654 L 330.46905 653.34959 L 257.16644 693.29892 L 251.00747 694.14123 L 278.90975 648.97524 L 275.34970 627.32721 L 330.42500 671.10814 L 256.72012 613.09124 L 338.39525 687.98877 M 396.85038 584.64566 L 538.58266 584.64566 L 538.58266 726.37793 L 396.85038 726.37793 L 396.85038 584.64566 M 502.58331 630.98388 L 466.36935 703.82651 L 408.35963 618.01105 L 472.88521 678.94903 L 473.98856 672.07423 L 499.30442 667.39624 L 463.73854 620.07530 L 415.86406 702.71310 L 456.08651 711.89955 L 484.53307 696.79010 L 437.41251 682.02062 L 525.74679 605.60526 L 408.18802 609.40487 L 449.27449 610.83679 L 460.90128 676.40003 L 430.74149 629.25352 L 424.90322 670.07274 L 507.04338 708.73675 L 449.30224 663.22410 L 469.65415 679.97414 L 502.58331 630.98388 M 568.70077 584.64566 L 710.43305 584.64566 L 710.43305 726.37793 L 568.70077 726.37793 L 568.70077 584.64566 M 677.21857 699.45630 L 594.32194 650.85176 L 665.86942 619.85132 L 602.52872 633.61895 L 671.58424 632.18555 L 666.71297 652.51550 L 696.27264 634.20440 L 616.42061 608.78537 L 639.00726 621.46891 L 624.44787 701.29176 L 688.99285 704.09971 L 615.63093 709.22689 L 686.51971 652.11447 L 614.80077 622.36303 L 635.21809 654.97184 L 617.95895 603.88014 L 649.45368 657.35663 L 682.04538 701.02323 L 642.70759 691.65584 L 615.90807 655.19431 L 695.12949 667.88756 L 677.21857 699.45630 M 53.14961 761.81101 L 194.88189 761.81101 L 194.88189 903.54328 L 53.14961 903.54328 L 53.14961 761.81101 M 121.09868 821.19931 L 78.57278 871.67479 L 162.53812 826.45555 L 122.66394 856.09603 L 153.75878 801.85908 L 166.94246 821.76773 L 127.07981 888.03373 L 71.84794 795.40582 L 121.66006 811.79704 L 147.42250 855.06074 L 103.61811 824.25687 L 83.48156 816.40552 L 159.81557 802.00540 L 90.18067 818.47400 L 93.99063 861.86296 L 73.31937 812.70865 L 135.96789 875.03003 L 111.74364 875.28721 L 84.13579 828.32651 L 134.24106 889.83147 L 166.38623 833.04732 L 111.12157 788.69301 L 121.09868 821.19931 M 224.99999 761.81101 L 366.73227 761.81101 L 366.73227 903.54328 L 224.99999 903.54328 L 224.99999 761.81101 M 331.00312 846.71940 L 325.07967 854.22641 L 329.74988 892.73536 L 299.70194 808.84817 L 287.99428 823.09244 L 307.21345 792.47247 L 352.26986 776.05144 L 252.56925 855.02740 L 311.14585 817.41664 L 305.64145 847.37832 L 238.66875 869.25012 L 308.76621 861.12935 L 254.39011 799.11754 L 328.27341 782.30991 L 318.15259 825.94620 L 316.82067 820.30465 L 288.94285 840.24876 L 338.05199 819.83923 L 277.47787 866.29293 L 297.50463 784.33328 L 306.15198 787.35451 L 290.70253 795.21686 L 280.61661 787.42205 L 331.00312 846.71940 M 396.85038 761.81101 L 538.58266 761.81101 L 538.58266 903.54328 L 396.85038 903.54328 L 396.85038 761.81101 M 415.26655 818.30735 L 527.90040 823.13145 L 474.97531 843.98817 L 448.86150 832.53324 L 491.58774 834.48301 L 505.52149 783.69005 L 437.23733 800.19616 L 426.43931 878.96530 L 430.91833 853.10771 L 515.84219 863.90609 L 439.52535 821.36281 L 427.21058 774.37290 L 408.09457 825.79534 L 457.88383 808.04654 L 454.87517 845.95567 L 476.92735 780.92372 L 516.77531 791.08001 L 524.24554 805.68810 L 426.41287 875.00874 L 469.13557 832.91735 L 464.27083 802.64805 L 426.03975 793.91983 L 492.83127 793.84031 L 456.78535 777.58817 L 415.26655 818.30735 M 568.70077 761.81101 L 710.43305 761.81101 L 710.43305 903.54328 L 568.70077 903.54328 L 568.70077 761.81101 M 649.63475 867.30681 L 691.18439 781.25780 L 611.52316 867.58573 L 580.39338 864.03360 L 677.21834 879.30254 L 627.35575 837.00676 L 634.03469 868.97554 L 583.07530 882.42334 L 670.04030 789.87447 L 669.20186 863.39826 L 693.76374 839.85979 L 673.93222 804.15792 L 676.30281 789.29840 L 583.65112 779.40004 L 589.52516 884.19025 L 611.45196 798.92432 L 583.43248 860.59280 L 642.47754 815.46802 L 649.37923 866.84291 L 585.50326 832.45096 L 637.13552 866.39188 L 620.60117 820.47999 L 604.05218 824.57564 L 697.05873 870.32423 L 582.76508 821.37779 L 649.63475 867.30681" fill="none" stroke="black" stroke-width="0.03cm" />
   </g>
</svg>