<?xml version="1.0" standalone="no"?>
  <!DOCTYPE svg PUBLIC "-//W3C//DTD SVG 1.1//EN" 
    "http://www.w3.org/Graphics/SVG/1.1/DTD/svg11.dtd">
  <svg width="21.59cm" height="27.94cm"
       xmlns="http://www.w3.org/2000/svg" version="1.1" viewBox="0 0 764.99998 989.99998">
   <g>
     <path d="M 169.47871 160.61687 L 167.69637 88.94978 L 89.21544 93.09963 L 157.39666 85.26917 L 98.40040 74.81992 L 87.22780 156.60611 L 90.92569 76.03785 L 169.47871 160.61687 M 341.32910 160.61687 L 262.77608 76.03785 L 339.54676 88.94978 L 261.06583 93.09963 L 270.25079 74.81992 L 341.32910 160.61687 L 329.24705 85.26917 L 259.07819 156.60611 L 341.32910 160.61687 M 432.91622 93.09963 L 430.92858 156.60611 L 511.39715 88.94978 L 513.17949 160.61687 L 501.09744 85.26917 L 442.10118 74.81992 L 513.17949 160.61687 L 434.62647 76.03785 L 432.91622 93.09963 M 602.77897 156.60611 L 683.24754 88.94978 L 604.76661 93.09963 L 685.02988 160.61687 L 606.47686 76.03785 L 613.95157 74.81992 L 685.02988 160.61687 L 672.94783 85.26917 L 602.77897 156.60611 M 169.47871 339.55387 L 169.47871 339.55387 L 89.21544 272.03664 L 167.69637 267.88678 L 87.22780 335.54312 L 90.92569 254.97486 L 157.39666 264.20617 L 98.40040 253.75692 L 169.47871 339.55387 M 270.25079 253.75692 L 329.24705 264.20617 L 341.32910 339.55387 L 262.77608 254.97486 L 341.32910 339.55387 L 339.54676 267.88678 L 261.06583 272.03664 L 259.07819 335.54312 L 270.25079 253.75692 M 434.62647 254.97486 L 513.17949 339.55387 L 513.17949 339.55387 L 501.09744 264.20617 L 442.10118 253.75692 L 511.39715 267.88678 L 432.91622 272.03664 L 430.92858 335.54312 L 434.62647 254.97486 M 685.02988 339.55387 L 606.47686 254.97486 L 613.95157 253.75692 L 672.94783 264.20617 L 604.76661 272.03664 L 683.24754 267.88678 L 602.77897 335.54312 L 685.02988 339.55387 L 685.02988 339.55387 M 98.40040 432.69392 L 87.22780 514.48012 L 167.69637 446.82378 L 169.47871 518.49087 L 157.39666 443.14318 L 169.47871 518.49087 L 90.92569 433.91186 L 89.21544 450.97364 L 98.40040 432.69392 M 339.54676 446.82378 L 262.77608 433.91186 L 270.25079 432.69392 L 261.06583 450.97364 L 329.24705 443.14318 L 341.32910 518.49087 L 259.07819 514.48012 L 341.32910 518.49087 L 339.54676 446.82378 M 430.92858 514.48012 L 434.62647 433.91186 L 501.09744 443.14318 L 513.17949 518.49087 L 442.10118 432.69392 L 511.39715 446.82378 L 432.91622 450.97364 L 513.17949 518.49087 L 430.92858 514.48012 M 685.02988 518.49087 L 685.02988 518.49087 L 606.47686 433.91186 L 683.24754 446.82378 L 602.77897 514.48012 L 672.94783 443.14318 L 613.95157 432.69392 L 604.76661 450.97364 L 685.02988 518.49087 M 98.40040 611.63093 L 167.69637 625.76079 L 157.39666 622.08018 L 169.47871 697.42788 L 89.21544 629.91065 L 87.22780 693.41712 L 169.47871 697.42788 L 90.92569 612.84887 L 98.40040 611.63093 M 341.32910 697.42788 L 270.25079 611.63093 L 259.07819 693.41712 L 339.54676 625.76079 L 261.06583 629.91065 L 341.32910 697.42788 L 329.24705 622.08018 L 262.77608 612.84887 L 341.32910 697.42788 M 430.92858 693.41712 L 513.17949 697.42788 L 442.10118 611.63093 L 511.39715 625.76079 L 434.62647 612.84887 L 513.17949 697.42788 L 501.09744 622.08018 L 432.91622 629.91065 L 430.92858 693.41712 M 685.02988 697.42788 L 685.02988 697.42788 L 672.94783 622.08018 L 604.76661 629.91065 L 613.95157 611.63093 L 683.24754 625.76079 L 606.47686 612.84887 L 602.77897 693.41712 L 685.02988 697.42788 M 89.21544 808.84765 L 157.39666 801.01718 L 98.40040 790.56793 L 167.69637 804.69779 L 169.47871 876.36488 L 87.22780 872.35413 L 90.92569 791.78587 L 169.47871 876.36488 L 89.21544 808.84765 M 259.07819 872.35413 L 341.32910 876.36488 L 262.77608 791.78587 L 261.06583 808.84765 L 329.24705 801.01718 L 341.32910 876.36488 L 339.54676 804.69779 L 270.25079 790.56793 L 259.07819 872.35413 M 432.91622 808.84765 L 501.09744 801.01718 L 442.10118 790.56793 L 511.39715 804.69779 L 513.17949 876.36488 L 513.17949 876.36488 L 430.92858 872.35413 L 434.62647 791.78587 L 432.91622 808.84765 M 613.95157 790.56793 L 602.77897 872.35413 L 606.47686 791.78587 L 685.02988 876.36488 L 672.94783 801.01718 L 683.24754 804.69779 L 685.02988 876.36488 L 604.76661 808.84765 L 613.95157 790.56793" fill="none" stroke="black" stroke-width="0.03cm" />
   </g>
</svg>