<?xml version="1.0" standalone="no"?>
  <!DOCTYPE svg PUBLIC "-//W3C//DTD SVG 1.1//EN" 
    "http://www.w3.org/Graphics/SVG/1.1/DTD/svg11.dtd">
  <svg width="21.59cm" height="27.94cm"
       xmlns="http://www.w3.org/2000/svg" version="1.1" viewBox="0 0 764.99998 989.99998">
   <g>
     <path d="M 74.40945 109.84252 L 109.84252 145.27559 L 74.40945 74.40945 L 109.84252 145.27559 L 74.40945 109.84252 L 145.27559 109.84252 L 74.40945 74.40945 L 145.27559 145.27559 L 145.27559 74.40945 L 145.27559 74.40945 L 74.40945 109.84252 M 246.25984 109.84252 L 246.25984 74.40945 L 317.12598 109.84252 L 281.69291 145.27559 L 317.12598 74.40945 L 281.69291 145.27559 L 317.12598 145.27559 L 246.25984 74.40945 L 246.25984 109.84252 L 246.25984 109.84252 L 317.12598 74.40945 M 488.97637 145.27559 L 418.11023 74.40945 L 488.97637 74.40945 L 418.11023 109.84252 L 453.54330 145.27559 L 488.97637 74.40945 L 418.11023 109.84252 L 418.11023 74.40945 L 488.97637 109.84252 L 453.54330 145.27559 L 418.11023 109.84252 M 660.82676 109.84252 L 589.96062 109.84252 L 625.39369 145.27559 L 589.96062 109.84252 L 589.96062 109.84252 L 660.82676 145.27559 L 660.82676 74.40945 L 589.96062 74.40945 L 589.96062 74.40945 L 625.39369 145.27559 L 660.82676 74.40945 M 145.27559 288.77952 L 74.40945 253.34645 L 74.40945 288.77952 L 109.84252 324.21259 L 145.27559 324.21259 L 145.27559 253.34645 L 74.40945 253.34645 L 109.84252 324.21259 L 74.40945 288.77952 L 145.27559 253.34645 L 74.40945 288.77952 M 246.25984 288.77952 L 281.69291 324.21259 L 317.12598 288.77952 L 317.12598 253.34645 L 246.25984 253.34645 L 317.12598 324.21259 L 317.12598 253.34645 L 246.25984 288.77952 L 246.25984 288.77952 L 246.25984 253.34645 L 281.69291 324.21259 M 488.97637 253.34645 L 488.97637 253.34645 L 488.97637 324.21259 L 453.54330 324.21259 L 418.11023 288.77952 L 453.54330 324.21259 L 418.11023 253.34645 L 418.11023 288.77952 L 418.11023 288.77952 L 418.11023 253.34645 L 488.97637 288.77952 M 589.96062 288.77952 L 625.39369 324.21259 L 660.82676 324.21259 L 589.96062 253.34645 L 589.96062 288.77952 L 625.39369 324.21259 L 589.96062 288.77952 L 589.96062 253.34645 L 660.82676 288.77952 L 660.82676 253.34645 L 660.82676 253.34645 M 109.84252 503.14959 L 109.84252 503.14959 L 74.40945 467.71652 L 74.40945 467.71652 L 145.27559 503.14959 L 74.40945 432.28345 L 74.40945 432.28345 L 145.27559 432.28345 L 145.27559 467.71652 L 74.40945 467.71652 L 145.27559 432.28345 M 224.99999 407.48030 L 366.73227 407.48030 L 366.73227 549.21258 L 224.99999 549.21258 L 224.99999 407.48030 M 317.12598 467.71652 L 246.25984 467.71652 L 317.12598 503.14959 L 317.12598 432.28345 L 246.25984 467.71652 L 281.69291 503.14959 L 246.25984 467.71652 L 246.25984 432.28345 L 281.69291 503.14959 L 246.25984 432.28345 L 317.12598 432.28345 M 418.11023 467.71652 L 488.97637 432.28345 L 418.11023 432.28345 L 418.11023 432.28345 L 418.11023 467.71652 L 488.97637 467.71652 L 488.97637 503.14959 L 453.54330 503.14959 L 453.54330 503.14959 L 418.11023 467.71652 L 488.97637 432.28345 M 625.39369 503.14959 L 660.82676 432.28345 L 589.96062 432.28345 L 660.82676 467.71652 L 660.82676 432.28345 L 589.96062 467.71652 L 589.96062 467.71652 L 589.96062 432.28345 L 660.82676 503.14959 L 625.39369 503.14959 L 589.96062 467.71652 M 145.27559 611.22046 L 145.27559 611.22046 L 74.40945 646.65353 L 74.40945 646.65353 L 109.84252 682.08660 L 74.40945 611.22046 L 145.27559 646.65353 L 74.40945 611.22046 L 145.27559 682.08660 L 74.40945 646.65353 L 109.84252 682.08660 M 281.69291 682.08660 L 246.25984 646.65353 L 317.12598 611.22046 L 246.25984 611.22046 L 317.12598 611.22046 L 317.12598 682.08660 L 281.69291 682.08660 L 246.25984 646.65353 L 317.12598 646.65353 L 246.25984 646.65353 L 246.25984 611.22046 M 418.11023 646.65353 L 453.54330 682.08660 L 488.97637 611.22046 L 488.97637 682.08660 L 418.11023 611.22046 L 418.11023 646.65353 L 453.54330 682.08660 L 418.11023 611.22046 L 488.97637 611.22046 L 418.11023 646.65353 L 488.97637 646.65353 M 589.96062 611.22046 L 660.82676 611.22046 L 660.82676 611.22046 L 589.96062 611.22046 L 625.39369 682.08660 L 589.96062 646.65353 L 589.96062 646.65353 L 660.82676 646.65353 L 660.82676 682.08660 L 589.96062 646.65353 L 625.39369 682.08660 M 145.27559 825.59053 L 74.40945 790.15746 L 145.27559 861.02360 L 74.40945 825.59053 L 145.27559 790.15746 L 145.27559 790.15746 L 74.40945 825.59053 L 74.40945 825.59053 L 74.40945 790.15746 L 109.84252 861.02360 L 109.84252 861.02360 M 317.12598 861.02360 L 246.25984 825.59053 L 246.25984 825.59053 L 281.69291 861.02360 L 246.25984 790.15746 L 246.25984 790.15746 L 246.25984 825.59053 L 281.69291 861.02360 L 317.12598 790.15746 L 317.12598 790.15746 L 317.12598 825.59053 M 418.11023 825.59053 L 418.11023 825.59053 L 488.97637 790.15746 L 488.97637 825.59053 L 488.97637 861.02360 L 453.54330 861.02360 L 488.97637 790.15746 L 418.11023 790.15746 L 418.11023 790.15746 L 418.11023 825.59053 L 453.54330 861.02360 M 568.70077 761.81101 L 710.43305 761.81101 L 710.43305 903.54328 L 568.70077 903.54328 L 568.70077 761.81101 M 660.82676 825.59053 L 589.96062 790.15746 L 589.96062 825.59053 L 589.96062 790.15746 L 589.96062 825.59053 L 660.82676 790.15746 L 625.39369 861.02360 L 589.96062 825.59053 L 660.82676 790.15746 L 625.39369 861.02360 L 660.82676 861.02360" fill="none" stroke="black" stroke-width="0.03cm" />
   </g>
</svg>