<?xml version="1.0" standalone="no"?>
  <!DOCTYPE svg PUBLIC "-//W3C//DTD SVG 1.1//EN" 
    "http://www.w3.org/Graphics/SVG/1.1/DTD/svg11.dtd">
  <svg width="21.59cm" height="27.94cm"
       xmlns="http://www.w3.org/2000/svg" version="1.1" viewBox="0 0 764.99998 989.99998">
   <g>
     <path d="M 118.02168 176.41939 L 112.42377 120.37790 L 78.12918 108.77278 L 117.16853 142.14799 L 115.11227 67.46551 L 175.36582 157.85775 L 88.85907 131.41983 L 118.02168 176.41939 M 289.87207 176.41939 L 284.27416 120.37790 L 249.97957 108.77278 L 289.01892 142.14799 L 286.96266 67.46551 L 347.21621 157.85775 L 260.70946 131.41983 L 289.87207 176.41939 M 461.72246 176.41939 L 456.12455 120.37790 L 421.82996 108.77278 L 460.86931 142.14799 L 458.81304 67.46551 L 519.06660 157.85775 L 432.55985 131.41983 L 461.72246 176.41939 M 633.57284 176.41939 L 627.97494 120.37790 L 593.68034 108.77278 L 632.71970 142.14799 L 630.66343 67.46551 L 690.91699 157.85775 L 604.41024 131.41983 L 633.57284 176.41939 M 118.02168 355.35639 L 112.42377 299.31490 L 78.12918 287.70978 L 117.16853 321.08500 L 115.11227 246.40251 L 175.36582 336.79475 L 88.85907 310.35684 L 118.02168 355.35639 M 289.87207 355.35639 L 284.27416 299.31490 L 249.97957 287.70978 L 289.01892 321.08500 L 286.96266 246.40251 L 347.21621 336.79475 L 260.70946 310.35684 L 289.87207 355.35639 M 461.72246 355.35639 L 456.12455 299.31490 L 421.82996 287.70978 L 460.86931 321.08500 L 458.81304 246.40251 L 519.06660 336.79475 L 432.55985 310.35684 L 461.72246 355.35639 M 633.57284 355.35639 L 627.97494 299.31490 L 593.68034 287.70978 L 632.71970 321.08500 L 630.66343 246.40251 L 690.91699 336.79475 L 604.41024 310.35684 L 633.57284 355.35639 M 118.02168 534.29340 L 112.42377 478.25190 L 78.12918 466.64678 L 117.16853 500.02200 L 115.11227 425.33951 L 175.36582 515.73175 L 88.85907 489.29384 L 118.02168 534.29340 M 289.87207 534.29340 L 284.27416 478.25190 L 249.97957 466.64678 L 289.01892 500.02200 L 286.96266 425.33951 L 347.21621 515.73175 L 260.70946 489.29384 L 289.87207 534.29340 M 461.72246 534.29340 L 456.12455 478.25190 L 421.82996 466.64678 L 460.86931 500.02200 L 458.81304 425.33951 L 519.06660 515.73175 L 432.55985 489.29384 L 461.72246 534.29340 M 633.57284 534.29340 L 627.97494 478.25190 L 593.68034 466.64678 L 632.71970 500.02200 L 630.66343 425.33951 L 690.91699 515.73175 L 604.41024 489.29384 L 633.57284 534.29340 M 118.02168 713.23040 L 112.42377 657.18891 L 78.12918 645.58379 L 117.16853 678.95900 L 115.11227 604.27652 L 175.36582 694.66876 L 88.85907 668.23084 L 118.02168 713.23040 M 289.87207 713.23040 L 284.27416 657.18891 L 249.97957 645.58379 L 289.01892 678.95900 L 286.96266 604.27652 L 347.21621 694.66876 L 260.70946 668.23084 L 289.87207 713.23040 M 461.72246 713.23040 L 456.12455 657.18891 L 421.82996 645.58379 L 460.86931 678.95900 L 458.81304 604.27652 L 519.06660 694.66876 L 432.55985 668.23084 L 461.72246 713.23040 M 633.57284 713.23040 L 627.97494 657.18891 L 593.68034 645.58379 L 632.71970 678.95900 L 630.66343 604.27652 L 690.91699 694.66876 L 604.41024 668.23084 L 633.57284 713.23040 M 118.02168 892.16740 L 112.42377 836.12591 L 78.12918 824.52079 L 117.16853 857.89601 L 115.11227 783.21352 L 175.36582 873.60576 L 88.85907 847.16785 L 118.02168 892.16740 M 289.87207 892.16740 L 284.27416 836.12591 L 249.97957 824.52079 L 289.01892 857.89601 L 286.96266 783.21352 L 347.21621 873.60576 L 260.70946 847.16785 L 289.87207 892.16740 M 461.72246 892.16740 L 456.12455 836.12591 L 421.82996 824.52079 L 460.86931 857.89601 L 458.81304 783.21352 L 519.06660 873.60576 L 432.55985 847.16785 L 461.72246 892.16740 M 633.57284 892.16740 L 627.97494 836.12591 L 593.68034 824.52079 L 632.71970 857.89601 L 630.66343 783.21352 L 690.91699 873.60576 L 604.41024 847.16785 L 633.57284 892.16740" fill="none" stroke="black" stroke-width="0.03cm" />
   </g>
</svg>