<?xml version="1.0" standalone="no"?>
  <!DOCTYPE svg PUBLIC "-//W3C//DTD SVG 1.1//EN" 
    "http://www.w3.org/Graphics/SVG/1.1/DTD/svg11.dtd">
  <svg width="21.59cm" height="27.94cm"
       xmlns="http://www.w3.org/2000/svg" version="1.1" viewBox="0 0 764.99998 989.99998">
   <g>
     <path d="M 170.95093 167.03637 L 168.83730 169.08266 L 86.59840 129.13997 L 158.26652 91.03084 L 170.87750 165.06943 L 170.95093 167.03637 M 258.44879 129.13997 L 340.68769 169.08266 L 342.80132 167.03637 L 330.11691 91.03084 L 342.72789 165.06943 L 342.80132 167.03637 M 501.96730 91.03084 L 512.53808 169.08266 L 514.65171 167.03637 L 430.29918 129.13997 L 514.57828 165.06943 L 514.65171 167.03637 M 686.42867 165.06943 L 684.38847 169.08266 L 686.50210 167.03637 L 602.14957 129.13997 L 673.81769 91.03084 L 686.50210 167.03637 M 170.87750 344.00643 L 168.83730 348.01966 L 170.95093 345.97338 L 86.59840 308.07697 L 158.26652 269.96784 L 170.95093 345.97338 M 342.72789 344.00643 L 342.80132 345.97338 L 340.68769 348.01966 L 258.44879 308.07697 L 330.11691 269.96784 L 342.80132 345.97338 M 514.57828 344.00643 L 430.29918 308.07697 L 512.53808 348.01966 L 514.65171 345.97338 L 501.96730 269.96784 L 514.65171 345.97338 M 686.42867 344.00643 L 673.81769 269.96784 L 684.38847 348.01966 L 686.50210 345.97338 L 602.14957 308.07697 L 686.50210 345.97338 M 170.87750 522.94343 L 158.26652 448.90485 L 168.83730 526.95667 L 170.95093 524.91038 L 86.59840 487.01397 L 170.95093 524.91038 M 342.72789 522.94343 L 330.11691 448.90485 L 340.68769 526.95667 L 342.80132 524.91038 L 258.44879 487.01397 L 342.80132 524.91038 M 514.57828 522.94343 L 501.96730 448.90485 L 514.65171 524.91038 L 512.53808 526.95667 L 430.29918 487.01397 L 514.65171 524.91038 M 686.42867 522.94343 L 673.81769 448.90485 L 602.14957 487.01397 L 684.38847 526.95667 L 686.50210 524.91038 L 686.50210 524.91038 M 170.87750 701.88044 L 86.59840 665.95098 L 158.26652 627.84185 L 168.83730 705.89367 L 170.95093 703.84739 L 170.95093 703.84739 M 342.72789 701.88044 L 258.44879 665.95098 L 330.11691 627.84185 L 340.68769 705.89367 L 342.80132 703.84739 L 342.80132 703.84739 M 514.57828 701.88044 L 430.29918 665.95098 L 501.96730 627.84185 L 512.53808 705.89367 L 514.65171 703.84739 L 514.65171 703.84739 M 686.42867 701.88044 L 602.14957 665.95098 L 673.81769 627.84185 L 686.50210 703.84739 L 684.38847 705.89367 L 686.50210 703.84739 M 170.87750 880.81744 L 170.95093 882.78439 L 158.26652 806.77885 L 86.59840 844.88798 L 168.83730 884.83067 L 170.95093 882.78439 M 342.72789 880.81744 L 342.80132 882.78439 L 258.44879 844.88798 L 330.11691 806.77885 L 340.68769 884.83067 L 342.80132 882.78439 M 514.57828 880.81744 L 514.65171 882.78439 L 430.29918 844.88798 L 501.96730 806.77885 L 512.53808 884.83067 L 514.65171 882.78439 M 686.42867 880.81744 L 686.50210 882.78439 L 602.14957 844.88798 L 673.81769 806.77885 L 684.38847 884.83067 L 686.50210 882.78439" fill="none" stroke="black" stroke-width="0.03cm" />
   </g>
</svg>