<?xml version="1.0" standalone="no"?>
  <!DOCTYPE svg PUBLIC "-//W3C//DTD SVG 1.1//EN" 
    "http://www.w3.org/Graphics/SVG/1.1/DTD/svg11.dtd">
  <svg width="21.59cm" height="27.94cm"
       xmlns="http://www.w3.org/2000/svg" version="1.1" viewBox="0 0 764.99998 989.99998">
   <g>
     <path d="M 109.84252 145.27559 L 145.27559 145.27559 L 109.84252 145.27559 L 109.84252 145.27559 L 145.27559 145.27559 L 145.27559 145.27559 L 145.27559 145.27559 L 109.84252 145.27559 M 281.69291 145.27559 L 281.69291 145.27559 L 317.12598 145.27559 L 281.69291 145.27559 L 317.12598 145.27559 L 317.12598 145.27559 L 317.12598 145.27559 L 281.69291 145.27559 L 281.69291 145.27559 M 453.54330 145.27559 L 453.54330 145.27559 L 488.97637 145.27559 L 488.97637 145.27559 L 453.54330 145.27559 L 488.97637 145.27559 L 453.54330 145.27559 L 453.54330 145.27559 L 488.97637 145.27559 L 453.54330 145.27559 M 625.39369 145.27559 L 625.39369 145.27559 L 660.82676 145.27559 L 625.39369 145.27559 L 625.39369 145.27559 L 660.82676 145.27559 L 660.82676 145.27559 L 625.39369 145.27559 L 625.39369 145.27559 L 660.82676 145.27559 L 625.39369 145.27559 M 109.84252 324.21259 L 145.27559 324.21259 L 109.84252 324.21259 L 109.84252 324.21259 L 145.27559 324.21259 L 145.27559 324.21259 L 109.84252 324.21259 L 109.84252 324.21259 L 109.84252 324.21259 L 145.27559 324.21259 L 109.84252 324.21259 L 109.84252 324.21259 M 224.99999 230.31495 L 366.73227 230.31495 L 366.73227 372.04724 L 224.99999 372.04724 L 224.99999 230.31495 M 281.69291 324.21259 L 281.69291 324.21259 L 317.12598 324.21259 L 317.12598 324.21259 L 317.12598 324.21259 L 317.12598 324.21259 L 281.69291 324.21259 L 281.69291 324.21259 L 281.69291 324.21259 L 281.69291 324.21259 L 281.69291 324.21259 L 281.69291 324.21259 L 281.69291 324.21259 M 488.97637 324.21259 L 453.54330 324.21259 L 453.54330 324.21259 L 488.97637 324.21259 L 453.54330 324.21259 L 453.54330 324.21259 L 488.97637 324.21259 L 453.54330 324.21259 L 453.54330 324.21259 L 453.54330 324.21259 L 453.54330 324.21259 L 453.54330 324.21259 L 488.97637 324.21259 L 488.97637 324.21259 M 625.39369 324.21259 L 660.82676 324.21259 L 625.39369 324.21259 L 625.39369 324.21259 L 660.82676 324.21259 L 625.39369 324.21259 L 625.39369 324.21259 L 625.39369 324.21259 L 625.39369 324.21259 L 660.82676 324.21259 L 625.39369 324.21259 L 625.39369 324.21259 L 660.82676 324.21259 L 660.82676 324.21259 L 625.39369 324.21259 M 109.84252 503.14959 L 145.27559 503.14959 L 109.84252 503.14959 L 145.27559 503.14959 L 109.84252 503.14959 L 145.27559 503.14959 L 109.84252 503.14959 L 109.84252 503.14959 L 109.84252 503.14959 L 109.84252 503.14959 L 109.84252 503.14959 L 109.84252 503.14959 L 109.84252 503.14959 L 145.27559 503.14959 L 145.27559 503.14959 L 109.84252 503.14959 M 317.12598 503.14959 L 317.12598 503.14959 L 281.69291 503.14959 L 281.69291 503.14959 L 317.12598 503.14959 L 281.69291 503.14959 L 317.12598 503.14959 L 281.69291 503.14959 L 281.69291 503.14959 L 281.69291 503.14959 L 281.69291 503.14959 L 281.69291 503.14959 L 281.69291 503.14959 L 281.69291 503.14959 L 281.69291 503.14959 L 317.12598 503.14959 L 317.12598 503.14959 M 453.54330 503.14959 L 488.97637 503.14959 L 453.54330 503.14959 L 453.54330 503.14959 L 453.54330 503.14959 L 453.54330 503.14959 L 488.97637 503.14959 L 453.54330 503.14959 L 453.54330 503.14959 L 453.54330 503.14959 L 453.54330 503.14959 L 488.97637 503.14959 L 488.97637 503.14959 L 453.54330 503.14959 L 453.54330 503.14959 L 488.97637 503.14959 L 488.97637 503.14959 L 453.54330 503.14959 M 568.70077 407.48030 L 710.43305 407.48030 L 710.43305 549.21258 L 568.70077 549.21258 L 568.70077 407.48030 M 660.82676 503.14959 L 625.39369 503.14959 L 660.82676 503.14959 L 660.82676 503.14959 L 625.39369 503.14959 L 625.39369 503.14959 L 625.39369 503.14959 L 660.82676 503.14959 L 625.39369 503.14959 L 625.39369 503.14959 L 625.39369 503.14959 L 625.39369 503.14959 L 625.39369 503.14959 L 660.82676 503.14959 L 660.82676 503.14959 L 625.39369 503.14959 L 625.39369 503.14959 L 625.39369 503.14959 L 660.82676 503.14959 M 145.27559 682.08660 L 109.84252 682.08660 L 145.27559 682.08660 L 109.84252 682.08660 L 109.84252 682.08660 L 145.27559 682.08660 L 109.84252 682.08660 L 109.84252 682.08660 L 109.84252 682.08660 L 145.27559 682.08660 L 145.27559 682.08660 L 109.84252 682.08660 L 109.84252 682.08660 L 109.84252 682.08660 L 109.84252 682.08660 L 109.84252 682.08660 L 145.27559 682.08660 L 109.84252 682.08660 L 145.27559 682.08660 L 145.27559 682.08660 M 317.12598 682.08660 L 317.12598 682.08660 L 317.12598 682.08660 L 281.69291 682.08660 L 281.69291 682.08660 L 317.12598 682.08660 L 281.69291 682.08660 L 317.12598 682.08660 L 281.69291 682.08660 L 281.69291 682.08660 L 317.12598 682.08660 L 281.69291 682.08660 L 281.69291 682.08660 L 281.69291 682.08660 L 317.12598 682.08660 L 281.69291 682.08660 L 281.69291 682.08660 L 317.12598 682.08660 L 281.69291 682.08660 L 281.69291 682.08660 L 317.12598 682.08660 M 453.54330 682.08660 L 488.97637 682.08660 L 453.54330 682.08660 L 488.97637 682.08660 L 453.54330 682.08660 L 488.97637 682.08660 L 453.54330 682.08660 L 488.97637 682.08660 L 488.97637 682.08660 L 488.97637 682.08660 L 488.97637 682.08660 L 453.54330 682.08660 L 453.54330 682.08660 L 488.97637 682.08660 L 453.54330 682.08660 L 453.54330 682.08660 L 453.54330 682.08660 L 488.97637 682.08660 L 453.54330 682.08660 L 453.54330 682.08660 L 453.54330 682.08660 L 453.54330 682.08660 M 660.82676 682.08660 L 625.39369 682.08660 L 625.39369 682.08660 L 660.82676 682.08660 L 625.39369 682.08660 L 660.82676 682.08660 L 625.39369 682.08660 L 625.39369 682.08660 L 660.82676 682.08660 L 625.39369 682.08660 L 660.82676 682.08660 L 625.39369 682.08660 L 625.39369 682.08660 L 660.82676 682.08660 L 660.82676 682.08660 L 660.82676 682.08660 L 625.39369 682.08660 L 625.39369 682.08660 L 660.82676 682.08660 L 625.39369 682.08660 L 625.39369 682.08660 L 625.39369 682.08660 L 660.82676 682.08660 M 109.84252 861.02360 L 145.27559 861.02360 L 145.27559 861.02360 L 145.27559 861.02360 L 145.27559 861.02360 L 109.84252 861.02360 L 145.27559 861.02360 L 109.84252 861.02360 L 145.27559 861.02360 L 109.84252 861.02360 L 109.84252 861.02360 L 109.84252 861.02360 L 109.84252 861.02360 L 145.27559 861.02360 L 109.84252 861.02360 L 109.84252 861.02360 L 109.84252 861.02360 L 109.84252 861.02360 L 145.27559 861.02360 L 109.84252 861.02360 L 109.84252 861.02360 L 145.27559 861.02360 L 145.27559 861.02360 L 109.84252 861.02360 M 224.99999 761.81101 L 366.73227 761.81101 L 366.73227 903.54328 L 224.99999 903.54328 L 224.99999 761.81101 M 317.12598 861.02360 L 317.12598 861.02360 L 281.69291 861.02360 L 317.12598 861.02360 L 281.69291 861.02360 L 317.12598 861.02360 L 317.12598 861.02360 L 317.12598 861.02360 L 281.69291 861.02360 L 281.69291 861.02360 L 317.12598 861.02360 L 281.69291 861.02360 L 317.12598 861.02360 L 281.69291 861.02360 L 281.69291 861.02360 L 281.69291 861.02360 L 281.69291 861.02360 L 317.12598 861.02360 L 281.69291 861.02360 L 281.69291 861.02360 L 281.69291 861.02360 L 281.69291 861.02360 L 281.69291 861.02360 L 317.12598 861.02360 L 317.12598 861.02360 M 488.97637 861.02360 L 488.97637 861.02360 L 488.97637 861.02360 L 453.54330 861.02360 L 453.54330 861.02360 L 488.97637 861.02360 L 453.54330 861.02360 L 453.54330 861.02360 L 453.54330 861.02360 L 488.97637 861.02360 L 488.97637 861.02360 L 453.54330 861.02360 L 453.54330 861.02360 L 488.97637 861.02360 L 453.54330 861.02360 L 453.54330 861.02360 L 488.97637 861.02360 L 453.54330 861.02360 L 488.97637 861.02360 L 453.54330 861.02360 L 453.54330 861.02360 L 453.54330 861.02360 L 488.97637 861.02360 L 488.97637 861.02360 L 453.54330 861.02360 L 488.97637 861.02360 M 660.82676 861.02360 L 625.39369 861.02360 L 625.39369 861.02360 L 625.39369 861.02360 L 660.82676 861.02360 L 625.39369 861.02360 L 625.39369 861.02360 L 660.82676 861.02360 L 660.82676 861.02360 L 625.39369 861.02360 L 625.39369 861.02360 L 625.39369 861.02360 L 660.82676 861.02360 L 660.82676 861.02360 L 625.39369 861.02360 L 660.82676 861.02360 L 660.82676 861.02360 L 625.39369 861.02360 L 660.82676 861.02360 L 660.82676 861.02360 L 625.39369 861.02360 L 660.82676 861.02360 L 625.39369 861.02360 L 660.82676 861.02360 L 625.39369 861.02360 L 625.39369 861.02360 L 660.82676 861.02360" fill="none" stroke="black" stroke-width="0.03cm" />
   </g>
</svg>