<?xml version="1.0" standalone="no"?>
  <!DOCTYPE svg PUBLIC "-//W3C//DTD SVG 1.1//EN" 
    "http://www.w3.org/Graphics/SVG/1.1/DTD/svg11.dtd">
  <svg width="21.59cm" height="27.94cm"
       xmlns="http://www.w3.org/2000/svg" version="1.1" viewBox="0 0 764.99998 989.99998">
   <g>
     <path d="M 149.72198 64.00542 L 180.29097 69.25244 L 96.00658 80.22644 L 75.13193 158.29995 L 171.68770 175.42298 L 149.72198 64.00542 M 267.85697 80.22644 L 352.14136 69.25244 L 321.57237 64.00542 L 246.98232 158.29995 L 343.53809 175.42298 L 321.57237 64.00542 M 418.83271 158.29995 L 523.99175 69.25244 L 493.42276 64.00542 L 439.70736 80.22644 L 515.38848 175.42298 L 493.42276 64.00542 M 687.23887 175.42298 L 695.84214 69.25244 L 665.27315 64.00542 L 611.55775 80.22644 L 590.68309 158.29995 L 665.27315 64.00542 M 171.68770 354.35998 L 180.29097 248.18945 L 149.72198 242.94242 L 96.00658 259.16345 L 75.13193 337.23695 L 149.72198 242.94242 M 343.53809 354.35998 L 321.57237 242.94242 L 352.14136 248.18945 L 267.85697 259.16345 L 246.98232 337.23695 L 321.57237 242.94242 M 515.38848 354.35998 L 439.70736 259.16345 L 523.99175 248.18945 L 493.42276 242.94242 L 418.83271 337.23695 L 493.42276 242.94242 M 687.23887 354.35998 L 590.68309 337.23695 L 695.84214 248.18945 L 665.27315 242.94242 L 611.55775 259.16345 L 665.27315 242.94242 M 171.68770 533.29699 L 75.13193 516.17396 L 180.29097 427.12645 L 149.72198 421.87942 L 96.00658 438.10045 L 149.72198 421.87942 M 343.53809 533.29699 L 246.98232 516.17396 L 352.14136 427.12645 L 321.57237 421.87942 L 267.85697 438.10045 L 321.57237 421.87942 M 515.38848 533.29699 L 418.83271 516.17396 L 493.42276 421.87942 L 523.99175 427.12645 L 439.70736 438.10045 L 493.42276 421.87942 M 687.23887 533.29699 L 590.68309 516.17396 L 611.55775 438.10045 L 695.84214 427.12645 L 665.27315 421.87942 L 665.27315 421.87942 M 171.68770 712.23399 L 96.00658 617.03745 L 75.13193 695.11096 L 180.29097 606.06345 L 149.72198 600.81643 L 149.72198 600.81643 M 343.53809 712.23399 L 267.85697 617.03745 L 246.98232 695.11096 L 352.14136 606.06345 L 321.57237 600.81643 L 321.57237 600.81643 M 515.38848 712.23399 L 439.70736 617.03745 L 418.83271 695.11096 L 523.99175 606.06345 L 493.42276 600.81643 L 493.42276 600.81643 M 687.23887 712.23399 L 611.55775 617.03745 L 590.68309 695.11096 L 665.27315 600.81643 L 695.84214 606.06345 L 665.27315 600.81643 M 171.68770 891.17099 L 149.72198 779.75343 L 75.13193 874.04797 L 96.00658 795.97446 L 180.29097 785.00046 L 149.72198 779.75343 M 343.53809 891.17099 L 321.57237 779.75343 L 267.85697 795.97446 L 246.98232 874.04797 L 352.14136 785.00046 L 321.57237 779.75343 M 515.38848 891.17099 L 493.42276 779.75343 L 439.70736 795.97446 L 418.83271 874.04797 L 523.99175 785.00046 L 493.42276 779.75343 M 687.23887 891.17099 L 665.27315 779.75343 L 611.55775 795.97446 L 590.68309 874.04797 L 695.84214 785.00046 L 665.27315 779.75343" fill="none" stroke="black" stroke-width="0.03cm" />
   </g>
</svg>