<?xml version="1.0" standalone="no"?>
  <!DOCTYPE svg PUBLIC "-//W3C//DTD SVG 1.1//EN" 
    "http://www.w3.org/Graphics/SVG/1.1/DTD/svg11.dtd">
  <svg width="21.59cm" height="27.94cm"
       xmlns="http://www.w3.org/2000/svg" version="1.1" viewBox="0 0 764.99998 989.99998">
   <g>
     <path d="M 53.14961 53.14961 L 194.88189 53.14961 L 194.88189 194.88189 L 53.14961 194.88189 L 53.14961 53.14961 M 152.36220 152.36220 L 81.49606 116.92913 L 81.49606 152.36220 L 116.92913 116.92913 L 152.36220 81.49606 M 224.99999 53.14961 L 366.73227 53.14961 L 366.73227 194.88189 L 224.99999 194.88189 L 224.99999 53.14961 M 324.21259 152.36220 L 324.21259 152.36220 L 324.21259 152.36220 L 253.34645 152.36220 L 288.77952 81.49606 L 253.34645 116.92913 M 396.85038 53.14961 L 538.58266 53.14961 L 538.58266 194.88189 L 396.85038 194.88189 L 396.85038 53.14961 M 496.06298 81.49606 L 496.06298 152.36220 L 425.19684 81.49606 L 460.62991 81.49606 L 496.06298 152.36220 L 496.06298 81.49606 L 425.19684 116.92913 M 568.70077 53.14961 L 710.43305 53.14961 L 710.43305 194.88189 L 568.70077 194.88189 L 568.70077 53.14961 M 632.48030 81.49606 L 597.04723 81.49606 L 667.91337 152.36220 L 632.48030 116.92913 L 632.48030 81.49606 L 597.04723 116.92913 L 632.48030 116.92913 L 632.48030 116.92913 M 53.14961 230.31495 L 194.88189 230.31495 L 194.88189 372.04724 L 53.14961 372.04724 L 53.14961 230.31495 M 152.36220 329.52755 L 152.36220 294.09448 L 152.36220 329.52755 L 116.92913 258.66141 L 81.49606 329.52755 L 152.36220 329.52755 L 81.49606 329.52755 L 116.92913 294.09448 L 116.92913 329.52755 M 224.99999 230.31495 L 366.73227 230.31495 L 366.73227 372.04724 L 224.99999 372.04724 L 224.99999 230.31495 M 324.21259 294.09448 L 253.34645 294.09448 L 324.21259 294.09448 L 324.21259 294.09448 L 288.77952 258.66141 L 253.34645 294.09448 L 324.21259 258.66141 L 324.21259 258.66141 L 288.77952 294.09448 L 253.34645 294.09448 M 396.85038 230.31495 L 538.58266 230.31495 L 538.58266 372.04724 L 396.85038 372.04724 L 396.85038 230.31495 M 425.19684 329.52755 L 496.06298 294.09448 L 496.06298 294.09448 L 496.06298 258.66141 L 425.19684 329.52755 L 425.19684 258.66141 L 496.06298 294.09448 L 496.06298 294.09448 L 496.06298 258.66141 L 460.62991 258.66141 L 496.06298 329.52755 M 568.70077 230.31495 L 710.43305 230.31495 L 710.43305 372.04724 L 568.70077 372.04724 L 568.70077 230.31495 M 667.91337 329.52755 L 597.04723 258.66141 L 667.91337 294.09448 L 597.04723 329.52755 L 632.48030 258.66141 L 632.48030 294.09448 L 597.04723 294.09448 L 597.04723 258.66141 L 632.48030 329.52755 L 632.48030 329.52755 L 632.48030 329.52755 L 667.91337 329.52755 M 53.14961 407.48030 L 194.88189 407.48030 L 194.88189 549.21258 L 53.14961 549.21258 L 53.14961 407.48030 M 81.49606 435.82676 L 116.92913 471.25983 L 81.49606 471.25983 L 152.36220 506.69290 L 81.49606 506.69290 L 116.92913 471.25983 L 81.49606 435.82676 L 152.36220 506.69290 L 116.92913 471.25983 L 81.49606 471.25983 L 81.49606 435.82676 L 116.92913 435.82676 L 81.49606 506.69290 M 224.99999 407.48030 L 366.73227 407.48030 L 366.73227 549.21258 L 224.99999 549.21258 L 224.99999 407.48030 M 324.21259 471.25983 L 288.77952 435.82676 L 288.77952 471.25983 L 324.21259 435.82676 L 324.21259 435.82676 L 324.21259 471.25983 L 288.77952 435.82676 L 288.77952 506.69290 L 253.34645 506.69290 L 324.21259 506.69290 L 253.34645 471.25983 L 253.34645 506.69290 L 288.77952 435.82676 L 253.34645 506.69290 M 396.85038 407.48030 L 538.58266 407.48030 L 538.58266 549.21258 L 396.85038 549.21258 L 396.85038 407.48030 M 460.62991 435.82676 L 460.62991 471.25983 L 460.62991 435.82676 L 496.06298 471.25983 L 425.19684 435.82676 L 425.19684 506.69290 L 496.06298 471.25983 L 496.06298 435.82676 L 496.06298 435.82676 L 425.19684 506.69290 L 496.06298 435.82676 L 460.62991 435.82676 L 460.62991 506.69290 L 460.62991 471.25983 L 425.19684 471.25983 M 568.70077 407.48030 L 710.43305 407.48030 L 710.43305 549.21258 L 568.70077 549.21258 L 568.70077 407.48030 M 632.48030 435.82676 L 597.04723 471.25983 L 667.91337 471.25983 L 597.04723 471.25983 L 632.48030 506.69290 L 597.04723 471.25983 L 597.04723 471.25983 L 597.04723 435.82676 L 667.91337 435.82676 L 597.04723 471.25983 L 597.04723 506.69290 L 597.04723 506.69290 L 597.04723 471.25983 L 597.04723 506.69290 L 667.91337 435.82676 L 597.04723 435.82676 M 53.14961 584.64566 L 194.88189 584.64566 L 194.88189 726.37793 L 53.14961 726.37793 L 53.14961 584.64566 M 116.92913 612.99211 L 81.49606 683.85825 L 81.49606 612.99211 L 116.92913 683.85825 L 81.49606 683.85825 L 81.49606 648.42518 L 116.92913 683.85825 L 152.36220 612.99211 L 81.49606 612.99211 L 116.92913 648.42518 L 116.92913 612.99211 L 81.49606 648.42518 L 152.36220 648.42518 L 81.49606 612.99211 L 116.92913 612.99211 L 116.92913 683.85825 L 152.36220 648.42518 M 224.99999 584.64566 L 366.73227 584.64566 L 366.73227 726.37793 L 224.99999 726.37793 L 224.99999 584.64566 M 288.77952 648.42518 L 253.34645 683.85825 L 288.77952 648.42518 L 253.34645 612.99211 L 324.21259 612.99211 L 288.77952 612.99211 L 324.21259 648.42518 L 324.21259 648.42518 L 288.77952 612.99211 L 253.34645 612.99211 L 288.77952 612.99211 L 324.21259 683.85825 L 288.77952 683.85825 L 288.77952 683.85825 L 253.34645 612.99211 L 324.21259 612.99211 L 324.21259 683.85825 L 253.34645 612.99211 M 396.85038 584.64566 L 538.58266 584.64566 L 538.58266 726.37793 L 396.85038 726.37793 L 396.85038 584.64566 M 496.06298 683.85825 L 425.19684 683.85825 L 460.62991 612.99211 L 496.06298 648.42518 L 425.19684 648.42518 L 425.19684 683.85825 L 460.62991 648.42518 L 496.06298 683.85825 L 460.62991 648.42518 L 460.62991 683.85825 L 460.62991 648.42518 L 425.19684 648.42518 L 425.19684 612.99211 L 425.19684 648.42518 L 425.19684 648.42518 L 460.62991 648.42518 L 460.62991 683.85825 L 460.62991 648.42518 L 460.62991 648.42518 M 568.70077 584.64566 L 710.43305 584.64566 L 710.43305 726.37793 L 568.70077 726.37793 L 568.70077 584.64566 M 597.04723 612.99211 L 667.91337 612.99211 L 597.04723 612.99211 L 667.91337 612.99211 L 597.04723 683.85825 L 632.48030 683.85825 L 597.04723 648.42518 L 597.04723 683.85825 L 632.48030 648.42518 L 632.48030 683.85825 L 597.04723 683.85825 L 632.48030 683.85825 L 667.91337 683.85825 L 667.91337 683.85825 L 597.04723 683.85825 L 667.91337 612.99211 L 632.48030 648.42518 L 597.04723 648.42518 L 597.04723 612.99211 L 667.91337 612.99211 M 53.14961 761.81101 L 194.88189 761.81101 L 194.88189 903.54328 L 53.14961 903.54328 L 53.14961 761.81101 M 152.36220 790.15746 L 116.92913 861.02360 L 152.36220 790.15746 L 116.92913 861.02360 L 152.36220 790.15746 L 116.92913 825.59053 L 81.49606 825.59053 L 116.92913 790.15746 L 116.92913 790.15746 L 81.49606 861.02360 L 152.36220 825.59053 L 116.92913 790.15746 L 81.49606 790.15746 L 152.36220 861.02360 L 116.92913 861.02360 L 116.92913 825.59053 L 152.36220 790.15746 L 81.49606 825.59053 L 116.92913 790.15746 L 116.92913 861.02360 L 116.92913 790.15746 M 224.99999 761.81101 L 366.73227 761.81101 L 366.73227 903.54328 L 224.99999 903.54328 L 224.99999 761.81101 M 324.21259 825.59053 L 324.21259 825.59053 L 324.21259 790.15746 L 288.77952 861.02360 L 253.34645 790.15746 L 324.21259 861.02360 L 324.21259 790.15746 L 288.77952 790.15746 L 324.21259 825.59053 L 288.77952 861.02360 L 324.21259 825.59053 L 288.77952 825.59053 L 324.21259 861.02360 L 288.77952 790.15746 L 324.21259 790.15746 L 288.77952 790.15746 L 324.21259 825.59053 L 253.34645 825.59053 L 324.21259 790.15746 L 324.21259 825.59053 L 288.77952 825.59053 L 253.34645 790.15746 M 396.85038 761.81101 L 538.58266 761.81101 L 538.58266 903.54328 L 396.85038 903.54328 L 396.85038 761.81101 M 425.19684 861.02360 L 425.19684 861.02360 L 460.62991 790.15746 L 496.06298 825.59053 L 460.62991 790.15746 L 496.06298 861.02360 L 460.62991 825.59053 L 496.06298 790.15746 L 460.62991 790.15746 L 425.19684 825.59053 L 496.06298 790.15746 L 496.06298 790.15746 L 460.62991 861.02360 L 460.62991 861.02360 L 496.06298 825.59053 L 425.19684 825.59053 L 460.62991 825.59053 L 496.06298 790.15746 L 460.62991 825.59053 L 460.62991 825.59053 L 425.19684 861.02360 L 460.62991 861.02360 L 425.19684 861.02360 M 568.70077 761.81101 L 710.43305 761.81101 L 710.43305 903.54328 L 568.70077 903.54328 L 568.70077 761.81101 M 632.48030 790.15746 L 597.04723 861.02360 L 597.04723 790.15746 L 667.91337 790.15746 L 597.04723 790.15746 L 632.48030 861.02360 L 667.91337 825.59053 L 597.04723 825.59053 L 667.91337 861.02360 L 632.48030 790.15746 L 667.91337 790.15746 L 597.04723 861.02360 L 667.91337 861.02360 L 632.48030 861.02360 L 597.04723 861.02360 L 597.04723 825.59053 L 597.04723 825.59053 L 632.48030 861.02360 L 597.04723 861.02360 L 667.91337 861.02360 L 597.04723 825.59053 L 667.91337 790.15746 L 597.04723 861.02360 L 632.48030 861.02360" fill="none" stroke="black" stroke-width="0.03cm" />
   </g>
</svg>