<?xml version="1.0" standalone="no"?>
  <!DOCTYPE svg PUBLIC "-//W3C//DTD SVG 1.1//EN" 
    "http://www.w3.org/Graphics/SVG/1.1/DTD/svg11.dtd">
  <svg width="21.59cm" height="27.94cm"
       xmlns="http://www.w3.org/2000/svg" version="1.1" viewBox="0 0 764.99998 989.99998">
   <g>
     <path d="M 148.94106 170.01297 L 117.16449 97.22944 L 169.46901 76.55399 L 73.61033 89.40877 L 181.87088 174.53374 L 170.12773 180.42083 L 148.94106 170.01297 M 353.03864 143.95791 L 294.58368 177.24770 L 284.87801 184.16911 L 294.99756 181.23155 L 294.51436 107.24484 L 296.21415 181.37098 L 255.73903 78.18246 L 353.03864 143.95791 M 428.61512 127.52397 L 444.98715 118.65643 L 443.80879 157.00100 L 451.22139 76.88804 L 502.40439 77.41160 L 527.83751 120.02408 L 409.23184 164.70157 L 445.40813 98.94204 L 428.61512 127.52397 M 649.19354 157.88850 L 584.19091 142.44500 L 627.68493 141.27409 L 625.22232 118.86226 L 631.17132 134.30523 L 656.73367 172.67147 L 644.04003 82.23018 L 637.95846 135.04292 L 699.17024 110.63314 L 649.19354 157.88850 M 132.76775 291.45293 L 81.48510 265.15371 L 150.72676 298.25058 L 163.94021 328.87551 L 82.06777 288.73280 L 149.44610 333.10178 L 139.30204 331.30534 L 111.13137 354.14243 L 123.30600 283.15171 L 172.68893 286.63610 L 132.76775 291.45293 M 302.66162 283.31505 L 252.47642 298.47435 L 325.14365 277.47003 L 265.85492 337.45346 L 355.41564 262.63824 L 300.62538 258.31132 L 261.32522 240.96826 L 240.28695 351.81815 L 276.05323 306.80288 L 263.91560 311.00265 L 282.20919 342.63407 L 302.66162 283.31505 M 416.37826 342.93513 L 503.88941 311.47663 L 498.43417 252.71239 L 478.27741 284.34555 L 443.29780 286.62202 L 482.96447 276.58707 L 461.76242 294.73555 L 418.65094 333.58458 L 448.21640 329.32030 L 490.06532 359.23870 L 433.96115 309.29524 L 495.84879 312.96802 L 416.37826 342.93513 M 682.17039 321.28032 L 585.16502 314.74918 L 647.13741 276.42506 L 643.83172 347.16723 L 642.37288 326.31389 L 669.12144 249.67642 L 610.22853 287.24531 L 654.44229 266.88248 L 640.84471 278.73626 L 669.19180 331.14212 L 699.50565 297.75999 L 645.75357 341.92737 L 644.34506 335.57955 L 682.17039 321.28032 M 131.15165 470.45351 L 68.34429 428.25056 L 126.15438 479.04677 L 151.09275 451.87786 L 181.54530 456.02810 L 148.15631 534.11036 L 113.08352 510.40777 L 98.17700 517.19165 L 106.79597 478.27866 L 96.35120 467.93257 L 177.02917 478.52625 L 118.28862 474.09495 L 183.04508 518.17191 L 134.46233 520.32911 L 131.15165 470.45351 M 330.57178 518.21804 L 326.84946 518.05229 L 302.98244 522.85883 L 254.15047 474.82903 L 332.03099 529.48676 L 342.61137 468.62042 L 335.20944 483.71045 L 277.08984 457.24115 L 352.11476 424.51468 L 285.44248 427.08326 L 318.59418 529.19927 L 298.11219 530.78521 L 356.05197 421.38282 L 237.81641 444.00693 L 242.65635 466.33227 L 330.57178 518.21804 M 449.27714 453.59027 L 484.62344 536.24495 L 455.00604 459.05580 L 453.17384 492.12589 L 463.53522 453.99034 L 481.06430 442.51810 L 511.47457 433.42806 L 428.25749 421.93423 L 505.78790 429.16979 L 502.02359 430.60844 L 494.30746 468.49856 L 474.05319 520.83949 L 454.39372 442.63122 L 414.33897 514.28783 L 517.09788 466.64418 L 480.77232 435.24194 L 449.27714 453.59027 M 585.99393 518.64303 L 684.99504 433.23807 L 584.33541 442.42823 L 661.45121 474.23138 L 604.65896 431.15790 L 594.23856 520.12084 L 665.97656 538.44530 L 625.57076 485.62772 L 698.92048 495.79649 L 695.54063 489.83475 L 672.00730 529.14050 L 687.95131 512.78642 L 597.18504 448.99261 L 628.17248 526.56298 L 624.34519 458.42360 L 600.04696 431.36356 L 694.87215 423.15957 L 585.99393 518.64303 M 65.66548 683.44042 L 67.90718 599.24520 L 159.94166 655.01188 L 90.72104 649.38847 L 183.26238 600.34581 L 152.82225 691.63588 L 164.20418 666.07047 L 87.75888 600.44229 L 153.09464 636.13384 L 157.46399 677.90394 L 175.23338 697.97155 L 101.74651 689.35786 L 142.41410 596.39839 L 89.62340 607.85087 L 125.72024 669.70778 L 175.05358 630.26974 L 144.55659 628.98655 L 125.59217 616.88868 L 65.66548 683.44042 M 333.94158 698.98467 L 240.14545 700.21141 L 350.33011 654.19713 L 356.01956 707.41590 L 236.20878 704.54183 L 345.67599 682.59675 L 346.71513 597.62407 L 294.28742 685.00392 L 283.63255 664.05291 L 295.92757 708.00861 L 241.94462 630.84709 L 280.46235 712.96225 L 353.60373 704.90152 L 239.57855 685.69006 L 250.47565 665.64010 L 336.79429 611.56306 L 304.39352 656.09454 L 265.64217 649.96712 L 320.10298 708.70101 L 333.94158 698.98467 M 443.05732 664.97454 L 511.47940 682.52388 L 516.15204 663.72641 L 501.06320 653.00331 L 522.99158 624.29155 L 495.93621 683.75256 L 492.25740 631.18950 L 481.68848 702.36279 L 451.74923 654.61877 L 516.10297 626.93451 L 521.19615 692.31312 L 479.53008 642.24799 L 467.53771 616.71631 L 478.87312 695.67040 L 489.32631 600.83266 L 457.31117 654.30526 L 527.42043 675.63999 L 478.83789 640.37056 L 426.16773 698.88960 L 411.70665 672.55504 L 443.05732 664.97454 M 686.29456 608.76102 L 698.98298 658.24729 L 607.21073 651.95717 L 625.03339 624.84742 L 639.93169 632.34372 L 676.13727 661.65570 L 620.24729 689.46788 L 642.80852 623.21618 L 585.28445 680.33619 L 662.23577 683.10499 L 632.54529 640.78339 L 683.90294 646.21397 L 640.96694 715.12188 L 683.09101 668.25268 L 626.42057 699.29248 L 658.92652 689.95735 L 623.37982 672.43668 L 698.19118 595.69342 L 699.73401 670.24630 L 653.43138 701.32005 L 674.33108 643.68743 L 686.29456 608.76102 M 168.63268 851.57677 L 90.34097 791.12824 L 145.77981 823.88136 L 68.32554 865.77579 L 143.35978 827.41505 L 72.47869 778.57743 L 80.55693 869.86299 L 105.17903 869.10303 L 148.64984 788.92353 L 105.43294 778.88637 L 78.33996 835.49069 L 156.99643 779.91994 L 87.79353 891.52806 L 171.49257 822.35473 L 107.69506 824.33523 L 115.10817 824.35917 L 101.10306 874.25971 L 135.88705 782.71066 L 68.73680 811.28111 L 102.36609 850.49542 L 182.90121 873.33756 L 175.41171 865.26976 L 168.63268 851.57677 M 305.42195 850.93441 L 336.34835 877.99868 L 261.22822 776.82676 L 345.90371 887.60130 L 327.21960 846.59377 L 280.95404 825.41105 L 276.51303 796.54893 L 314.23194 881.23722 L 326.74210 861.23115 L 352.27410 793.66351 L 236.26302 800.62155 L 326.93780 810.42124 L 303.71978 814.09042 L 298.57301 797.19739 L 285.86992 854.93084 L 263.54837 889.91907 L 247.84685 796.65078 L 275.35579 810.32691 L 276.54176 803.30690 L 352.16404 793.70383 L 350.94747 829.10370 L 331.05734 881.07406 L 288.18046 852.89166 L 305.42195 850.93441 M 441.47761 884.82953 L 467.27972 818.34598 L 494.57253 827.47379 L 456.64928 883.27028 L 492.09678 810.24871 L 467.18355 842.38668 L 514.77809 866.32157 L 464.81419 822.08173 L 473.16275 854.43282 L 490.41572 798.10222 L 480.67839 806.10690 L 442.51398 844.65816 L 463.19599 788.10911 L 441.53904 819.21111 L 439.04080 841.45740 L 426.12790 864.07903 L 467.87673 849.12251 L 466.82851 790.49080 L 429.58592 889.01439 L 507.37048 884.57016 L 481.53250 849.24123 L 466.76637 892.88788 L 420.86860 864.76697 L 468.42426 869.94301 L 441.47761 884.82953 M 681.78035 850.84194 L 634.42372 777.85842 L 663.54236 858.30537 L 672.13496 882.98572 L 600.72012 804.07487 L 592.86595 777.33548 L 579.37100 811.70665 L 699.74624 811.71147 L 588.27230 812.79470 L 653.61782 811.18493 L 663.69789 786.41683 L 608.32723 829.76526 L 607.62364 855.63382 L 686.36263 887.65684 L 636.29026 842.07300 L 600.25204 836.01309 L 698.54445 829.68189 L 633.34477 793.43026 L 617.82512 823.45766 L 612.42357 811.77614 L 685.50405 802.41330 L 580.64972 879.96414 L 614.45048 852.03545 L 673.79767 838.74362 L 658.13872 875.41015 L 681.78035 850.84194" fill="none" stroke="black" stroke-width="0.03cm" />
   </g>
</svg>