<?xml version="1.0" standalone="no"?>
  <!DOCTYPE svg PUBLIC "-//W3C//DTD SVG 1.1//EN" 
    "http://www.w3.org/Graphics/SVG/1.1/DTD/svg11.dtd">
  <svg width="21.59cm" height="27.94cm"
       xmlns="http://www.w3.org/2000/svg" version="1.1" viewBox="0 0 764.99998 989.99998">
   <g>
     <path d="M 176.84695 165.25638 L 175.98632 119.69778 L 114.22061 145.72871 L 143.99380 91.27891 L 178.55501 176.25893 L 176.84695 165.25638 M 350.40540 176.25893 L 286.07100 145.72871 L 348.69734 165.25638 L 348.69734 165.25638 L 347.83671 119.69778 L 315.84419 91.27891 L 350.40540 176.25893 M 522.25579 176.25893 L 520.54773 165.25638 L 520.54773 165.25638 L 487.69458 91.27891 L 457.92139 145.72871 L 519.68710 119.69778 L 522.25579 176.25893 M 694.10618 176.25893 L 659.54497 91.27891 L 692.39812 165.25638 L 691.53749 119.69778 L 692.39812 165.25638 L 629.77178 145.72871 L 694.10618 176.25893 M 82.09476 279.03699 L 70.79377 329.05001 L 175.23087 359.76802 L 169.98858 339.81987 L 148.26048 312.32939 L 156.38843 241.21591 L 82.09476 279.03699 M 328.23882 241.21591 L 320.11086 312.32939 L 341.83897 339.81987 L 253.94515 279.03699 L 253.94515 279.03699 L 242.64415 329.05001 L 347.08126 359.76802 L 328.23882 241.21591 M 500.08921 241.21591 L 425.79553 279.03699 L 414.49454 329.05001 L 425.79553 279.03699 L 491.96125 312.32939 L 518.93165 359.76802 L 513.68936 339.81987 L 500.08921 241.21591 M 690.78204 359.76802 L 597.64592 279.03699 L 685.53975 339.81987 L 663.81164 312.32939 L 671.93960 241.21591 L 586.34493 329.05001 L 597.64592 279.03699 L 690.78204 359.76802 M 184.06030 425.04684 L 169.54344 510.32972 L 138.87385 433.88824 L 79.97649 536.66652 L 78.51533 537.78885 L 108.32270 498.65267 L 182.14318 525.82011 L 81.59488 507.85707 L 184.06030 425.04684 M 353.99357 525.82011 L 341.39383 510.32972 L 280.17309 498.65267 L 355.91069 425.04684 L 253.44527 507.85707 L 251.82688 536.66652 L 250.36572 537.78885 L 310.72424 433.88824 L 355.91069 425.04684 L 353.99357 525.82011 M 527.76108 425.04684 L 527.76108 425.04684 L 422.21611 537.78885 L 525.84396 525.82011 L 423.67727 536.66652 L 452.02348 498.65267 L 482.57463 433.88824 L 513.24422 510.32972 L 425.29566 507.85707 L 527.76108 425.04684 M 699.61147 425.04684 L 594.06650 537.78885 L 623.87387 498.65267 L 595.52766 536.66652 L 697.69435 525.82011 L 597.14605 507.85707 L 685.09461 510.32972 L 654.42502 433.88824 L 699.61147 425.04684 L 699.61147 425.04684 M 157.05207 681.58934 L 78.83532 711.02116 L 98.99449 711.56012 L 137.19389 682.63429 L 72.20870 615.98856 L 164.22254 614.15483 L 151.77368 597.93882 L 135.65414 655.65674 L 109.63801 601.62380 L 157.05207 681.58934 M 328.90246 681.58934 L 323.62407 597.93882 L 281.48840 601.62380 L 309.04428 682.63429 L 250.68571 711.02116 L 336.07293 614.15483 L 244.05909 615.98856 L 270.84488 711.56012 L 307.50453 655.65674 L 328.90246 681.58934 L 328.90246 681.58934 M 422.53610 711.02116 L 453.33879 601.62380 L 495.47446 597.93882 L 500.75285 681.58934 L 479.35492 655.65674 L 500.75285 681.58934 L 442.69527 711.56012 L 415.90948 615.98856 L 507.92332 614.15483 L 480.89467 682.63429 L 422.53610 711.02116 M 587.75987 615.98856 L 625.18918 601.62380 L 672.60324 681.58934 L 679.77371 614.15483 L 614.54566 711.56012 L 594.38649 711.02116 L 672.60324 681.58934 L 667.32485 597.93882 L 651.20531 655.65674 L 652.74506 682.63429 L 587.75987 615.98856 M 148.75970 784.59092 L 136.20924 885.11567 L 71.59295 878.61015 L 169.90374 780.02447 L 85.77391 878.47854 L 118.17768 868.90427 L 184.06410 879.93160 L 156.99144 829.85118 L 177.98825 833.17215 L 95.17466 868.28814 L 148.75970 784.59092 M 267.02505 868.28814 L 257.62430 878.47854 L 349.83864 833.17215 L 308.05963 885.11567 L 320.61009 784.59092 L 355.91449 879.93160 L 341.75413 780.02447 L 243.44334 878.61015 L 290.02807 868.90427 L 328.84183 829.85118 L 320.61009 784.59092 L 267.02505 868.28814 M 500.69222 829.85118 L 521.68903 833.17215 L 513.60452 780.02447 L 461.87846 868.90427 L 429.47469 878.47854 L 492.46048 784.59092 L 415.29373 878.61015 L 527.76488 879.93160 L 438.87544 868.28814 L 479.91002 885.11567 L 492.46048 784.59092 L 500.69222 829.85118 M 664.31087 784.59092 L 672.54261 829.85118 L 587.14412 878.61015 L 685.45491 780.02447 L 693.53942 833.17215 L 699.61527 879.93160 L 651.76041 885.11567 L 664.31087 784.59092 L 601.32508 878.47854 L 610.72583 868.28814 L 633.72885 868.90427 L 664.31087 784.59092" fill="none" stroke="black" stroke-width="0.03cm" />
   </g>
</svg>