<?xml version="1.0" encoding="UTF-8" standalone="no"?>
<svg
   xmlns:dc="http://purl.org/dc/elements/1.1/"
   xmlns:cc="http://creativecommons.org/ns#"
   xmlns:rdf="http://www.w3.org/1999/02/22-rdf-syntax-ns#"
   xmlns:svg="http://www.w3.org/2000/svg"
   xmlns="http://www.w3.org/2000/svg"
   xmlns:sodipodi="http://sodipodi.sourceforge.net/DTD/sodipodi-0.dtd"
   xmlns:inkscape="http://www.inkscape.org/namespaces/inkscape"
   width="21.59cm"
   height="27.94cm"
   version="1.1"
   viewBox="0 0 764.99998 989.99998"
   id="svg2"
   inkscape:version="0.91 r13725"
   sodipodi:docname="PlotTest.svg.2018_05_16_22_40_40.0.svg">
  <sodipodi:namedview
     pagecolor="#ffffff"
     bordercolor="#666666"
     borderopacity="1"
     objecttolerance="10"
     gridtolerance="10"
     guidetolerance="10"
     inkscape:pageopacity="0"
     inkscape:pageshadow="2"
     inkscape:window-width="1440"
     inkscape:window-height="856"
     id="namedview8"
     showgrid="false"
     inkscape:zoom="0.47676767"
     inkscape:cx="573.77619"
     inkscape:cy="541.45192"
     inkscape:window-x="0"
     inkscape:window-y="0"
     inkscape:window-maximized="0"
     inkscape:current-layer="svg2" />
  <metadata
     id="metadata12">
    <rdf:RDF>
      <cc:Work
         rdf:about="">
        <dc:format>image/svg+xml</dc:format>
        <dc:type
           rdf:resource="http://purl.org/dc/dcmitype/StillImage" />
      </cc:Work>
    </rdf:RDF>
  </metadata>
  <defs
     id="defs10" />
  <WCB
     layer="0"
     node="0"
     lastpath="0"
     lastpathnc="0"
     lastknownposx="0"
     lastknownposy="0"
     pausedposx="0"
     pausedposy="0" />
  <g
     transform="matrix(640.51501,0,0,1054.5,65.877185,98.423164)"
     inkscape:label="0-layer"
     id="g3412">
    <g
       id="g3625"
       inkscape:label="0-layer"
       transform="matrix(1.0174087,0,0,0.78857106,-0.00105973,-0.03530379)">
      <path
         id="path3627"
         style="fill:none;stroke:#000000;stroke-width:0.00376191"
         d="m 0,0.02627174 0.02040816,-7.327e-4 0.02040817,-0.0020061 0.02040816,-0.0030657 0.02040816,-0.0038443 0.02040817,-0.0047259 0.0204082,-0.00433756 0.0204082,-0.0040087 0.0204082,-0.003308305 0.0204082,-0.002264015 0.0204082,-9.609e-4 0.0204082,6.9367e-4 0.0204082,0.002183409 0.0204082,0.003476991 0.0204082,0.00438273 0.0204082,0.00523381 0.0204082,0.0044967 0.0204082,0.0036976 0.0204082,0.002544 0.0204082,0.0012438 0.0204082,-6.17e-6 0.0204082,-9.6824e-4 0.0204082,-0.0015105 0.0204082,-0.0017117 0.0204082,-0.0016099 0.0204082,-0.0013598 0.0204082,-6.3546e-4 0.0204082,1.312e-4 0.0204082,0.0010504 0.0204082,0.0020214 0.0204082,0.0032307 0.0204082,0.0035618 0.0204082,0.0036989 0.0204082,0.0033127 0.0204082,0.0023914 0.0204082,0.0010874 0.0204082,-6.6412e-4 0.0204082,-0.0022552 0.0204082,-0.0036697 0.0204082,-0.0047485 0.0204082,-0.0059765 0.0204082,-0.0056443 0.0204082,-0.00542238 0.0204082,-0.00487908 0.0204082,-0.004122108 0.0204082,-0.003543222 0.0204082,-0.00232315 0.0204082,-0.00154998 0.0204082,-8.8264e-4 M 0,0.03930964 l 0.02040816,-7.2316e-4 0.02040817,-0.0019807 0.02040816,-0.0030291 0.02040816,-0.0038022 0.02040817,-0.0046791 0.0204082,-0.004298 0.0204082,-0.0039727 0.0204082,-0.0032749 0.0204082,-0.0022322 0.0204082,-9.2711e-4 0.0204082,7.2217e-4 0.0204082,0.0022078 0.0204082,0.0034953 0.0204082,0.004394 0.0204082,0.0052389 0.0204082,0.0044973 0.0204082,0.0036977 0.0204082,0.0025458 0.0204082,0.0012483 0.0204082,1.19e-6 0.0204082,-9.6075e-4 0.0204082,-0.0015035 0.0204082,-0.0017055 0.0204082,-0.0016041 0.0204082,-0.0013541 0.0204082,-6.3255e-4 0.0204082,1.2822e-4 0.0204082,0.0010363 0.0204082,0.0019916 0.0204082,0.003177 0.0204082,0.0034962 0.0204082,0.0036239 0.0204082,0.0032378 0.0204082,0.002327 0.0204082,0.0010398 0.0204082,-6.7982e-4 0.0204082,-0.0022423 0.0204082,-0.0036296 0.0204082,-0.0046856 0.0204082,-0.005888 0.0204082,-0.0055538 0.0204082,-0.0053293 0.0204082,-0.0047896 0.0204082,-0.0040412 0.0204082,-0.0034685 0.0204082,-0.00227043 0.0204082,-0.00151251 0.0204082,-8.6022e-4 M 0,0.05125664 l 0.02040816,-6.9263e-4 0.02040817,-0.0018995 0.02040816,-0.0029117 0.02040816,-0.0036667 0.02040817,-0.0045274 0.0204082,-0.0041691 0.0204082,-0.0038547 0.0204082,-0.0031654 0.0204082,-0.0021278 0.0204082,-8.1697e-4 0.0204082,8.1438e-4 0.0204082,0.0022861 0.0204082,0.0035534 0.0204082,0.0044292 0.0204082,0.0052542 0.0204082,0.0044986 0.0204082,0.0036971 0.0204082,0.002551 0.0204082,0.0012624 0.0204082,2.459e-5 0.0204082,-9.3679e-4 0.0204082,-0.0014812 0.0204082,-0.0016854 0.0204082,-0.0015853 0.0204082,-0.0013352 0.0204082,-6.2259e-4 0.0204082,1.1909e-4 0.0204082,9.9114e-4 0.0204082,0.0018953 0.0204082,0.0030039 0.0204082,0.003284 0.0204082,0.0033809 0.0204082,0.0029947 0.0204082,0.0021174 0.0204082,8.8361e-4 0.0204082,-7.3326e-4 0.0204082,-0.0022037 0.0204082,-0.0035036 0.0204082,-0.004486 0.0204082,-0.0056064 0.0204082,-0.0052652 0.0204082,-0.0050319 0.0204082,-0.0045033 0.0204082,-0.0037822 0.0204082,-0.0032292 0.0204082,-0.0021017 0.0204082,-0.0013926 0.0204082,-7.8848e-4 M 0,0.06223871 0.02040816,0.06159483 0.04081633,0.05982535 0.06122449,0.05710203 0.08163265,0.0536539 0.10204082,0.0493731 l 0.0204082,-0.0039572 0.0204082,-0.0036587 0.0204082,-0.0029819 0.0204082,-0.0019527 0.0204082,-6.3262e-4 0.0204082,9.6777e-4 0.0204082,0.0024154 0.0204082,0.0036484 0.0204082,0.0044858 0.0204082,0.0052772 0.0204082,0.004498 0.0204082,0.0036925 0.0204082,0.0025546 0.0204082,0.0012796 0.0204082,5.549e-5 0.0204082,-9.0453e-4 0.0204082,-0.0014513 0.0204082,-0.0016581 0.0204082,-0.0015585 0.0204082,-0.0013069 0.0204082,-6.0702e-4 0.0204082,1.0472e-4 0.0204082,9.1878e-4 0.0204082,0.0017399 0.0204082,0.0027229 0.0204082,0.0029388 0.0204082,0.0029848 0.0204082,0.0025976 0.0204082,0.0017743 0.0204082,6.2653e-4 0.0204082,-8.2343e-4 0.0204082,-0.0021445 0.0204082,-0.0033029 0.0204082,-0.0041665 0.0204082,-0.0051545 0.0204082,-0.0048015 0.0204082,-0.004554 0.0204082,-0.004043 0.0204082,-0.0033658 0.0204082,-0.0028442 0.0204082,-0.00183 0.0204082,-0.0011994 0.0204082,-6.7283e-4 M 0,0.07245879 0.02040816,0.0718777 0.04081633,0.070276 0.06122449,0.0677972 0.08163265,0.0646352 0.10204082,0.0606812 0.12244902,0.057009 l 0.0204082,-0.0033913 0.0204082,-0.0027294 0.0204082,-0.0017114 0.0204082,-3.8064e-4 0.0204082,0.0011749 0.0204082,0.0025874 0.0204082,0.0037723 0.0204082,0.0045569 0.0204082,0.0053017 0.0204082,0.0044906 0.0204082,0.0036786 0.0204082,0.0025503 0.0204082,0.0012917 0.0204082,8.332e-5 0.0204082,-8.7405e-4 0.0204082,-0.0014231 0.0204082,-0.0016313 0.0204082,-0.0015298 0.0204082,-0.0012734 0.0204082,-5.8695e-4 0.0204082,8.731e-5 0.0204082,8.2598e-4 0.0204082,0.0015375 0.0204082,0.002354 0.0204082,0.0024832 0.0204082,0.0024601 0.0204082,0.0020699 0.0204082,0.0013164 0.0204082,2.804e-4 0.0204082,-9.4949e-4 0.0204082,-0.0020743 0.0204082,-0.0030467 0.0204082,-0.0037541 0.0204082,-0.0045694 0.0204082,-0.0042007 0.0204082,-0.0039346 0.0204082,-0.0034469 0.0204082,-0.0028266 0.0204082,-0.0023461 0.0204082,-0.0014788 0.0204082,-9.4984e-4 0.0204082,-5.2353e-4 M 0,0.08215355 0.02040816,0.08164475 0.04081633,0.080237 0.06122449,0.0780429 0.08163265,0.0752179 0.10204082,0.0716553 0.12244902,0.0683312 0.14285722,0.065272 0.16326542,0.0628592 0.18367362,0.06145 l 0.0204082,-6.869e-5 0.0204082,0.0014266 0.0204082,0.0027918 0.0204082,0.003915 0.0204082,0.0046336 0.0204082,0.00532 0.0204082,0.0044704 0.0204082,0.0036493 0.0204082,0.0025306 0.0204082,0.0012898 0.0204082,9.7e-5 0.0204082,-8.5566e-4 0.0204082,-0.001406 0.0204082,-0.0016133 0.0204082,-0.0015055 0.0204082,-0.0012393 0.0204082,-5.6415e-4 0.0204082,6.878e-5 0.0204082,7.2003e-4 0.0204082,0.0013021 0.0204082,0.0019209 0.0204082,0.0019451 0.0204082,0.0018377 0.0204082,0.0014411 0.0204082,7.6776e-4 0.0204082,-1.3935e-4 0.0204082,-0.0011099 0.0204082,-0.0020042 0.0204082,-0.0027583 0.0204082,-0.0032828 0.0204082,-0.0038972 0.0204082,-0.0035095 0.0204082,-0.0032223 0.0204082,-0.0027618 0.0204082,-0.002208 0.0204082,-0.0017757 0.0204082,-0.0010775 0.0204082,-6.6526e-4 0.0204082,-3.536e-4 M 0,0.09208366 l 0.02040816,-4.4104e-4 0.02040817,-0.0012252 0.02040816,-0.0019237 0.02040816,-0.0025002 0.02040817,-0.0031784 0.0204082,-0.0029753 0.0204082,-0.002721 0.0204082,-0.002088 0.0204082,-0.0011005 0.0204082,2.45e-4 0.0204082,0.0016739 0.0204082,0.0029869 0.0204082,0.0040453 0.0204082,0.004697 0.0204082,0.005324 0.0204082,0.0044375 0.0204082,0.0036066 0.0204082,0.002496 0.0204082,0.001271 0.0204082,8.958e-5 0.0204082,-8.5677e-4 0.0204082,-0.001407 0.0204082,-0.00161 0.0204082,-0.0014925 0.0204082,-0.0012128 0.0204082,-5.432e-4 0.0204082,5.369e-5 0.0204082,6.2368e-4 0.0204082,0.0010828 0.0204082,0.0015125 0.0204082,0.001434 0.0204082,0.001243 0.0204082,8.3691e-4 0.0204082,2.3694e-4 0.0204082,-5.51e-4 0.0204082,-0.001275 0.0204082,-0.001951 0.0204082,-0.0024984 0.0204082,-0.0028497 0.0204082,-0.0032759 0.0204082,-0.0028698 0.0204082,-0.0025639 0.0204082,-0.0021304 0.0204082,-0.0016401 0.0204082,-0.0012548 0.0204082,-7.1309e-4 0.0204082,-4.0823e-4 0.0204082,-2.0086e-4 M 0,0.10142789 0.02040816,0.10106593 0.04081633,0.100055 0.06122449,0.0984524 0.08163265,0.0963442 0.10204082,0.0936398 l 0.0204082,-0.0025352 0.0204082,-0.0022871 0.0204082,-0.0016687 0.0204082,-7.0488e-4 0.0204082,6.3915e-4 0.0204082,0.0019755 0.0204082,0.0032156 0.0204082,0.0041885 0.0204082,0.0047551 0.0204082,0.005307 0.0204082,0.004377 0.0204082,0.003534 0.0204082,0.002432 0.0204082,0.001224 0.0204082,5.371e-5 0.0204082,-8.8265e-4 0.0204082,-0.001431 0.0204082,-0.001626 0.0204082,-0.001491 0.0204082,-0.00119 0.0204082,-5.2054e-4 0.0204082,3.851e-5 0.0204082,5.1591e-4 0.0204082,8.3131e-4 0.0204082,0.001038 0.0204082,8.3469e-4 0.0204082,5.4158e-4 0.0204082,1.1937e-4 0.0204082,-3.9874e-4 0.0204082,-0.001052 0.0204082,-0.001487 0.0204082,-0.001908 0.0204082,-0.002213 0.0204082,-0.002361 0.0204082,-0.00257 0.0204082,-0.002142 0.0204082,-0.0018177 0.0204082,-0.0014188 0.0204082,-0.0010051 0.0204082,-6.7851e-4 0.0204082,-3.1486e-4 0.0204082,-1.3054e-4 0.0204082,-3.748e-5 M 0,0.11087591 l 0.02040816,-2.837e-4 0.02040817,-7.9748e-4 0.02040816,-0.001278 0.02040816,-0.001704 0.02040817,-0.002204 0.0204082,-0.00206 0.0204082,-0.001811 0.0204082,-0.0012079 0.0204082,-2.7504e-4 0.0204082,0.0010559 0.0204082,0.002282 0.0204082,0.003434 0.0204082,0.004311 0.0204082,0.004786 0.0204082,0.005257 0.0204082,0.004288 0.0204082,0.003434 0.0204082,0.002341 0.0204082,0.001151 0.0204082,-1.093e-5 0.0204082,-9.3359e-4 0.0204082,-0.001478 0.0204082,-0.001661 0.0204082,-0.001504 0.0204082,-0.001176 0.0204082,-4.9943e-4 0.0204082,2.741e-5 0.0204082,4.1757e-4 0.0204082,5.9356e-4 0.0204082,5.8142e-4 0.0204082,2.5213e-4 0.0204082,-1.4633e-4 0.0204082,-5.905e-4 0.0204082,-0.001035 0.0204082,-0.001563 0.0204082,-0.001717 0.0204082,-0.00189 0.0204082,-0.001958 0.0204082,-0.001909 0.0204082,-0.001909 0.0204082,-0.001461 0.0204082,-0.001123 0.0204082,-7.6244e-4 0.0204082,-4.2775e-4 0.0204082,-1.6461e-4 0.0204082,3.219e-5 0.0204082,1.0612e-4 0.0204082,9.895e-5 M 0,0.12056342 0.02040816,0.12035521 0.04081633,0.11976519 0.06122449,0.1188072 l 0.02040816,-0.001297 0.02040817,-0.001687 0.0204082,-0.001558 0.0204082,-0.001303 0.0204082,-7.1573e-4 0.0204082,1.7723e-4 0.0204082,0.001481 0.0204082,0.002577 0.0204082,0.003629 0.0204082,0.004399 0.0204082,0.004779 0.0204082,0.005167 0.0204082,0.004165 0.0204082,0.003305 0.0204082,0.002225 0.0204082,0.001055 0.0204082,-9.87e-5 0.0204082,-0.001003 0.0204082,-0.00154 0.0204082,-0.001709 0.0204082,-0.001527 0.0204082,-0.00117 0.0204082,-4.8089e-4 0.0204082,2.019e-5 0.0204082,3.3261e-4 0.0204082,3.8082e-4 0.0204082,1.6597e-4 0.0204082,-2.8416e-4 0.0204082,-7.8577e-4 0.0204082,-0.001258 0.0204082,-0.00164 0.0204082,-0.002062 0.0204082,-0.001958 0.0204082,-0.001901 0.0204082,-0.001749 0.0204082,-0.001516 0.0204082,-0.001326 0.0204082,-8.5926e-4 0.0204082,-5.1335e-4 0.0204082,-1.9558e-4 0.0204082,5.987e-5 0.0204082,2.5598e-4 0.0204082,3.0513e-4 0.0204082,2.8462e-4 0.0204082,1.9786e-4 M 0,0.13057952 l 0.02040816,-1.3706e-4 0.02040817,-3.9297e-4 0.02040816,-6.4864e-4 0.02040816,-8.9434e-4 0.02040817,-0.001165 0.0204082,-0.001041 0.0204082,-7.7399e-4 0.0204082,-2.0491e-4 0.0204082,6.3879e-4 0.0204082,0.001898 0.0204082,0.002851 0.0204082,0.003787 0.0204082,0.004444 0.0204082,0.004727 0.0204082,0.005031 0.0204082,0.004007 0.0204082,0.003146 0.0204082,0.002085 0.0204082,9.4071e-4 0.0204082,-2.0103e-4 0.0204082,-0.001081 0.0204082,-0.001608 0.0204082,-0.001759 0.0204082,-0.001552 0.0204082,-0.001167 0.0204082,-4.6428e-4 0.0204082,1.634e-5 0.0204082,2.625e-4 0.0204082,1.9965e-4 0.0204082,-1.9286e-4 0.0204082,-7.5222e-4 0.0204082,-0.00135 0.0204082,-0.001853 0.0204082,-0.002191 0.0204082,-0.002529 0.0204082,-0.0022 0.0204082,-0.001944 0.0204082,-0.001597 0.0204082,-0.001199 0.0204082,-8.4343e-4 0.0204082,-3.5932e-4 0.0204082,-1.155e-5 0.0204082,2.6233e-4 0.0204082,4.4135e-4 0.0204082,5.6919e-4 0.0204082,4.9483e-4 0.0204082,3.9901e-4 0.0204082,2.5593e-4 M 0,0.14133051 l 0.02040816,-7.934e-5 0.02040817,-2.3181e-4 0.02040816,-3.9148e-4 0.02040816,-5.5306e-4 0.02040817,-7.1212e-4 0.0204082,-5.854e-4 0.0204082,-3.0473e-4 0.0204082,2.4669e-4 0.0204082,0.00104 0.0204082,0.002248 0.0204082,0.003063 0.0204082,0.00389 0.0204082,0.004443 0.0204082,0.00464 0.0204082,0.004871 0.0204082,0.003839 0.0204082,0.002985 0.0204082,0.001948 0.0204082,8.3219e-4 0.0204082,-2.9262e-4 0.0204082,-0.001146 0.0204082,-0.00166 0.0204082,-0.001796 0.0204082,-0.001569 0.0204082,-0.001162 0.0204082,-4.5062e-4 0.0204082,1.437e-5 0.0204082,2.12e-4 0.0204082,6.821e-5 0.0204082,-4.5413e-4 0.0204082,-0.001095 0.0204082,-0.001766 0.0204082,-0.002299 0.0204082,-0.002611 0.0204082,-0.002899 0.0204082,-0.002407 0.0204082,-0.002007 0.0204082,-0.001515 0.0204082,-9.9324e-4 0.0204082,-5.141e-4 0.0204082,-1.354e-5 0.0204082,3.3362e-4 0.0204082,5.7112e-4 0.0204082,6.8899e-4 0.0204082,7.5956e-4 0.0204082,5.9828e-4 0.0204082,4.5233e-4 0.0204082,2.7762e-4 M 0,0.15203731 l 0.02040816,-2.021e-5 0.02040817,-6.529e-5 0.02040816,-1.2104e-4 0.02040816,-1.8644e-4 0.02040817,-2.1574e-4 0.0204082,-7.754e-5 0.0204082,2.2323e-4 0.0204082,7.5386e-4 0.0204082,0.001484 0.0204082,0.002622 0.0204082,0.003271 0.0204082,0.003965 0.0204082,0.004396 0.0204082,0.004496 0.0204082,0.004646 0.0204082,0.003616 0.0204082,0.002779 0.0204082,0.001778 0.0204082,7.0469e-4 0.0204082,-3.8975e-4 0.0204082,-0.001204 0.0204082,-0.001698 0.0204082,-0.001816 0.0204082,-0.001572 0.0204082,-0.001149 0.0204082,-4.3628e-4 0.0204082,9.87e-6 0.0204082,1.613e-4 0.0204082,-5.553e-5 0.0204082,-6.9366e-4 0.0204082,-0.001407 0.0204082,-0.002146 0.0204082,-0.002712 0.0204082,-0.003009 0.0204082,-0.003265 0.0204082,-0.002632 0.0204082,-0.002105 0.0204082,-0.00148 0.0204082,-8.4068e-4 0.0204082,-2.4551e-4 0.0204082,2.784e-4 0.0204082,6.2731e-4 0.0204082,8.3135e-4 0.0204082,8.9119e-4 0.0204082,9.0501e-4 0.0204082,6.6717e-4 0.0204082,4.7911e-4 0.0204082,2.8246e-4 M 0,0.16310591 l 0.02040816,2.988e-5 0.02040817,7.737e-5 0.02040816,1.159e-4 0.02040816,1.4329e-4 0.02040817,2.4227e-4 0.0204082,4.0072e-4 0.0204082,7.2635e-4 0.0204082,0.001238 0.0204082,0.001903 0.0204082,0.002962 0.0204082,0.003442 0.0204082,0.003996 0.0204082,0.004303 0.0204082,0.004308 0.0204082,0.004378 0.0204082,0.003361 0.0204082,0.00255 0.0204082,0.001597 0.0204082,5.798e-4 0.0204082,-4.6854e-4 0.0204082,-0.001234 0.0204082,-0.001701 0.0204082,-0.001802 0.0204082,-0.001548 0.0204082,-0.001122 0.0204082,-4.2244e-4 0.0204082,-2.7e-7 0.0204082,1.1202e-4 0.0204082,-1.5789e-4 0.0204082,-8.7624e-4 0.0204082,-0.001635 0.0204082,-0.002422 0.0204082,-0.003017 0.0204082,-0.003313 0.0204082,-0.003564 0.0204082,-0.002838 0.0204082,-0.002227 0.0204082,-0.001507 0.0204082,-7.7518e-4 0.0204082,-8.763e-5 0.0204082,4.6919e-4 0.0204082,8.2946e-4 0.0204082,0.001016 0.0204082,0.001038 0.0204082,0.001012 0.0204082,7.1799e-4 0.0204082,4.9902e-4 0.0204082,2.8621e-4 M 0,0.17451393 l 0.02040816,6.854e-5 0.02040817,1.8947e-4 0.02040816,3.083e-4 0.02040816,4.2118e-4 0.02040817,6.4235e-4 0.0204082,8.3082e-4 0.0204082,0.001188 0.0204082,0.001686 0.0204082,0.002289 0.0204082,0.003266 0.0204082,0.003579 0.0204082,0.003993 0.0204082,0.004174 0.0204082,0.004084 0.0204082,0.004074 0.0204082,0.003079 0.0204082,0.002302 0.0204082,0.001408 0.0204082,4.6052e-4 0.0204082,-5.2388e-4 0.0204082,-0.001229 0.0204082,-0.001661 0.0204082,-0.001746 0.0204082,-0.001492 0.0204082,-0.001077 0.0204082,-4.0904e-4 0.0204082,-1.976e-5 0.0204082,5.716e-5 0.0204082,-2.4781e-4 0.0204082,-0.001012 0.0204082,-0.001788 0.0204082,-0.002599 0.0204082,-0.003213 0.0204082,-0.00352 0.0204082,-0.003788 0.0204082,-0.003019 0.0204082,-0.002366 0.0204082,-0.001587 0.0204082,-7.8874e-4 0.0204082,-2.825e-5 0.0204082,5.7556e-4 0.0204082,9.639e-4 0.0204082,0.001158 0.0204082,0.001166 0.0204082,0.001125 0.0204082,7.9079e-4 0.0204082,5.4566e-4 0.0204082,3.1156e-4 M 0,0.18621397 l 0.02040816,9.343e-5 0.02040817,2.6447e-4 0.02040816,4.4555e-4 0.02040816,6.3316e-4 0.02040817,9.6681e-4 0.0204082,0.001197 0.0204082,0.001595 0.0204082,0.00209 0.0204082,0.002642 0.0204082,0.003543 0.0204082,0.003695 0.0204082,0.003969 0.0204082,0.004023 0.0204082,0.003837 0.0204082,0.003743 0.0204082,0.002775 0.0204082,0.002038 0.0204082,0.001211 0.0204082,3.4646e-4 0.0204082,-5.5557e-4 0.0204082,-0.001187 0.0204082,-0.001576 0.0204082,-0.001645 0.0204082,-0.001401 0.0204082,-0.001013 0.0204082,-3.9725e-4 0.0204082,-5.221e-5 0.0204082,-9.63e-6 0.0204082,-3.341e-4 0.0204082,-0.001112 0.0204082,-0.001876 0.0204082,-0.002685 0.0204082,-0.003306 0.0204082,-0.00363 0.0204082,-0.003934 0.0204082,-0.003167 0.0204082,-0.002513 0.0204082,-0.001711 0.0204082,-8.6922e-4 0.0204082,-5.076e-5 0.0204082,6.1715e-4 0.0204082,0.001056 0.0204082,0.001286 0.0204082,0.001312 0.0204082,0.001286 0.0204082,9.2113e-4 0.0204082,6.4854e-4 0.0204082,3.7821e-4 M 0,0.19815306 l 0.02040816,1.0287e-4 0.02040817,2.9779e-4 0.02040816,5.2019e-4 0.02040816,7.6945e-4 0.02040817,0.001204 0.0204082,0.001489 0.0204082,0.00194 0.0204082,0.002449 0.0204082,0.002966 0.0204082,0.003802 0.0204082,0.003804 0.0204082,0.003941 0.0204082,0.003866 0.0204082,0.00358 0.0204082,0.003396 0.0204082,0.002453 0.0204082,0.001756 0.0204082,0.001004 0.0204082,2.3378e-4 0.0204082,-5.6887e-4 0.0204082,-0.001114 0.0204082,-0.001451 0.0204082,-0.001503 0.0204082,-0.001278 0.0204082,-9.3269e-4 0.0204082,-3.8903e-4 0.0204082,-9.982e-5 0.0204082,-9.191e-5 0.0204082,-4.225e-4 0.0204082,-0.001186 0.0204082,-0.001908 0.0204082,-0.002689 0.0204082,-0.003304 0.0204082,-0.003647 0.0204082,-0.004 0.0204082,-0.003276 0.0204082,-0.002657 0.0204082,-0.001864 0.0204082,-9.9859e-4 0.0204082,-1.3277e-4 0.0204082,6.1663e-4 0.0204082,0.00113 0.0204082,0.001428 0.0204082,0.001503 0.0204082,0.001525 0.0204082,0.001133 0.0204082,8.2635e-4 0.0204082,4.9829e-4 M 0,0.21042346 l 0.02040816,9.793e-5 0.02040817,2.9119e-4 0.02040816,5.3152e-4 0.02040816,8.2312e-4 0.02040817,0.001335 0.0204082,0.001682 0.0204082,0.002193 0.0204082,0.00273 0.0204082,0.003234 0.0204082,0.004029 0.0204082,0.003909 0.0204082,0.003929 0.0204082,0.003739 0.0204082,0.003358 0.0204082,0.003087 0.0204082,0.00216 0.0204082,0.001497 0.0204082,8.1201e-4 0.0204082,1.3075e-4 0.0204082,-5.739e-4 0.0204082,-0.001034 0.0204082,-0.001319 0.0204082,-0.001356 0.0204082,-0.001153 0.0204082,-8.5551e-4 0.0204082,-3.8781e-4 0.0204082,-1.5487e-4 0.0204082,-1.7675e-4 0.0204082,-5.0231e-4 0.0204082,-0.001231 0.0204082,-0.001895 0.0204082,-0.002631 0.0204082,-0.003229 0.0204082,-0.003587 0.0204082,-0.00399 0.0204082,-0.003332 0.0204082,-0.002769 0.0204082,-0.002007 0.0204082,-0.001137 0.0204082,-2.3648e-4 0.0204082,5.9564e-4 0.0204082,0.001192 0.0204082,0.001572 0.0204082,0.001713 0.0204082,0.0018 0.0204082,0.001385 0.0204082,0.001043 0.0204082,6.4646e-4 M 0,0.22259777 l 0.02040816,7.77e-5 0.02040817,2.4421e-4 0.02040816,4.8471e-4 0.02040816,8.1185e-4 0.02040817,0.001402 0.0204082,0.001835 0.0204082,0.00243 0.0204082,0.003022 0.0204082,0.003535 0.0204082,0.004304 0.0204082,0.004056 0.0204082,0.003945 0.0204082,0.003618 0.0204082,0.003119 0.0204082,0.002735 0.0204082,0.001816 0.0204082,0.001184 0.0204082,5.7663e-4 0.0204082,2.18e-6 0.0204082,-5.819e-4 0.0204082,-9.3635e-4 0.0204082,-0.001156 0.0204082,-0.001175 0.0204082,-0.001002 0.0204082,-7.6831e-4 0.0204082,-3.9639e-4 0.0204082,-2.3229e-4 0.0204082,-2.857e-4 0.0204082,-5.9437e-4 0.0204082,-0.001263 0.0204082,-0.001839 0.0204082,-0.002504 0.0204082,-0.003068 0.0204082,-0.003442 0.0204082,-0.003903 0.0204082,-0.003345 0.0204082,-0.002869 0.0204082,-0.002162 0.0204082,-0.001301 0.0204082,-3.686e-4 0.0204082,5.648e-4 0.0204082,0.001271 0.0204082,0.001763 0.0204082,0.001997 0.0204082,0.002178 0.0204082,0.001737 0.0204082,0.001347 0.0204082,8.5502e-4 M 0,0.23478305 l 0.02040816,4.389e-5 0.02040817,1.6048e-4 0.02040816,3.8201e-4 0.02040816,7.3249e-4 0.02040817,0.001392 0.0204082,0.001926 0.0204082,0.002625 0.0204082,0.003297 0.0204082,0.003844 0.0204082,0.004613 0.0204082,0.004246 0.0204082,0.004006 0.0204082,0.003535 0.0204082,0.002905 0.0204082,0.002393 0.0204082,0.001466 0.0204082,8.5658e-4 0.0204082,3.2234e-4 0.0204082,-1.4372e-4 0.0204082,-6.0376e-4 0.0204082,-8.4587e-4 0.0204082,-9.9752e-4 0.0204082,-9.9851e-4 0.0204082,-8.5937e-4 0.0204082,-6.9484e-4 0.0204082,-4.2003e-4 0.0204082,-3.2343e-4 0.0204082,-4.019e-4 0.0204082,-6.8158e-4 0.0204082,-0.001271 0.0204082,-0.001743 0.0204082,-0.00232 0.0204082,-0.002839 0.0204082,-0.003225 0.0204082,-0.003741 0.0204082,-0.003301 0.0204082,-0.002926 0.0204082,-0.00229 0.0204082,-0.001451 0.0204082,-4.9315e-4 0.0204082,5.4003e-4 0.0204082,0.00136 0.0204082,0.001972 0.0204082,0.002309 0.0204082,0.002595 0.0204082,0.002125 0.0204082,0.001682 0.0204082,0.001085 M 0,0.24691535 l 0.02040816,-3e-8 0.02040817,4.926e-5 0.02040816,2.3714e-4 0.02040816,6.0144e-4 0.02040817,0.001323 0.0204082,0.001973 0.0204082,0.002791 0.0204082,0.003565 0.0204082,0.00417 0.0204082,0.004962 0.0204082,0.004485 0.0204082,0.004117 0.0204082,0.003493 0.0204082,0.002718 0.0204082,0.002063 0.0204082,0.001113 0.0204082,5.1729e-4 0.0204082,5.176e-5 0.0204082,-3.0758e-4 0.0204082,-6.4555e-4 0.0204082,-7.7425e-4 0.0204082,-8.5967e-4 0.0204082,-8.4536e-4 0.0204082,-7.4103e-4 0.0204082,-6.4713e-4 0.0204082,-4.6229e-4 0.0204082,-4.2526e-4 0.0204082,-5.183e-4 0.0204082,-7.5699e-4 0.0204082,-0.001251 0.0204082,-0.00161 0.0204082,-0.00209 0.0204082,-0.002557 0.0204082,-0.00295 0.0204082,-0.003514 0.0204082,-0.0032 0.0204082,-0.002931 0.0204082,-0.002373 0.0204082,-0.001565 0.0204082,-5.8927e-4 0.0204082,5.319e-4 0.0204082,0.001458 0.0204082,0.002184 0.0204082,0.00262 0.0204082,0.003006 0.0204082,0.002507 0.0204082,0.002012 0.0204082,0.001312 M 0,0.25895813 l 0.02040816,-4.945e-5 0.02040817,-7.701e-5 0.02040816,6.837e-5 0.02040816,4.4018e-4 0.02040817,0.001219 0.0204082,0.001993 0.0204082,0.002944 0.0204082,0.003836 0.0204082,0.004517 0.0204082,0.005351 0.0204082,0.004768 0.0204082,0.004272 0.0204082,0.003488 0.0204082,0.002556 0.0204082,0.001747 0.0204082,7.6269e-4 0.0204082,1.732e-4 0.0204082,-2.2785e-4 0.0204082,-4.8399e-4 0.0204082,-7.064e-4 0.0204082,-7.2655e-4 0.0204082,-7.5266e-4 0.0204082,-7.2824e-4 0.0204082,-6.5984e-4 0.0204082,-6.35e-4 0.0204082,-5.2613e-4 0.0204082,-5.3538e-4 0.0204082,-6.2976e-4 0.0204082,-8.1659e-4 0.0204082,-0.001207 0.0204082,-0.00145 0.0204082,-0.001832 0.0204082,-0.002244 0.0204082,-0.002639 0.0204082,-0.003239 0.0204082,-0.003049 0.0204082,-0.00288 0.0204082,-0.002399 0.0204082,-0.001626 0.0204082,-6.3932e-4 0.0204082,5.4947e-4 0.0204082,0.001564 0.0204082,0.002385 0.0204082,0.002902 0.0204082,0.003374 0.0204082,0.002844 0.0204082,0.002302 0.0204082,0.001509 M 0,0.27113295 l 0.02040816,-9.361e-5 0.02040817,-1.9047e-4 0.02040816,-8.524e-5 0.02040816,2.8972e-4 0.02040817,0.001115 0.0204082,0.002 0.0204082,0.00307 0.0204082,0.004074 0.0204082,0.00483 0.0204082,0.005711 0.0204082,0.005038 0.0204082,0.00443 0.0204082,0.003503 0.0204082,0.00243 0.0204082,0.001482 0.0204082,4.6358e-4 0.0204082,-1.2158e-4 0.0204082,-4.6794e-4 0.0204082,-6.3762e-4 0.0204082,-7.6696e-4 0.0204082,-7.017e-4 0.0204082,-6.8611e-4 0.0204082,-6.6012e-4 0.0204082,-6.2478e-4 0.0204082,-6.5783e-4 0.0204082,-6.0061e-4 0.0204082,-6.3689e-4 0.0204082,-7.207e-4 0.0204082,-8.5496e-4 0.0204082,-0.00115 0.0204082,-0.001298 0.0204082,-0.001596 0.0204082,-0.001962 0.0204082,-0.002355 0.0204082,-0.002976 0.0204082,-0.002883 0.0204082,-0.002791 0.0204082,-0.002371 0.0204082,-0.001629 0.0204082,-6.3676e-4 0.0204082,5.9006e-4 0.0204082,0.00166 0.0204082,0.002541 0.0204082,0.00311 0.0204082,0.003635 0.0204082,0.003079 0.0204082,0.002501 0.0204082,0.001645 M 0,0.28310242 l 0.02040816,-1.4087e-4 0.02040817,-3.1216e-4 0.02040816,-2.5133e-4 0.02040816,1.2522e-4 0.02040817,9.9987e-4 0.0204082,0.002005 0.0204082,0.003208 0.0204082,0.004337 0.0204082,0.005181 0.0204082,0.006117 0.0204082,0.005344 0.0204082,0.00461 0.0204082,0.003522 0.0204082,0.002291 0.0204082,0.00119 0.0204082,1.3749e-4 0.0204082,-4.3785e-4 0.0204082,-7.1999e-4 0.0204082,-7.9463e-4 0.0204082,-8.2749e-4 0.0204082,-6.8088e-4 0.0204082,-6.3316e-4 0.0204082,-6.1657e-4 0.0204082,-6.2242e-4 0.0204082,-7.1859e-4 0.0204082,-7.0344e-4 0.0204082,-7.5566e-4 0.0204082,-8.1585e-4 0.0204082,-8.8569e-4 0.0204082,-0.001076 0.0204082,-0.001124 0.0204082,-0.001337 0.0204082,-0.001653 0.0204082,-0.00204 0.0204082,-0.002671 0.0204082,-0.002672 0.0204082,-0.002648 0.0204082,-0.002284 0.0204082,-0.001573 0.0204082,-5.7816e-4 0.0204082,6.6704e-4 0.0204082,0.001774 0.0204082,0.002693 0.0204082,0.003293 0.0204082,0.003851 0.0204082,0.003267 0.0204082,0.002656 0.0204082,0.001748 M 0,0.29516781 l 0.02040816,-1.8136e-4 0.02040817,-4.1668e-4 0.02040816,-3.9515e-4 0.02040816,-1.857e-5 0.02040817,8.9783e-4 0.0204082,0.002009 0.0204082,0.003331 0.0204082,0.004575 0.0204082,0.005497 0.0204082,0.00648 0.0204082,0.005611 0.0204082,0.004758 0.0204082,0.003518 0.0204082,0.002142 0.0204082,9.0648e-4 0.0204082,-1.6361e-4 0.0204082,-7.1584e-4 0.0204082,-9.2713e-4 0.0204082,-9.0921e-4 0.0204082,-8.5502e-4 0.0204082,-6.4925e-4 0.0204082,-5.889e-4 0.0204082,-5.9633e-4 0.0204082,-6.492e-4 0.0204082,-8.0645e-4 0.0204082,-8.1867e-4 0.0204082,-8.7398e-4 0.0204082,-9.0232e-4 0.0204082,-9.0797e-4 0.0204082,-0.001003 0.0204082,-9.6548e-4 0.0204082,-0.001107 0.0204082,-0.001379 0.0204082,-0.001756 0.0204082,-0.002383 0.0204082,-0.002453 0.0204082,-0.002475 0.0204082,-0.002149 0.0204082,-0.001462 0.0204082,-4.6497e-4 0.0204082,7.7501e-4 0.0204082,0.001892 0.0204082,0.002819 0.0204082,0.003422 0.0204082,0.003985 0.0204082,0.003371 0.0204082,0.002736 0.0204082,0.001799 M 0,0.30746882 l 0.02040816,-2.1266e-4 0.02040817,-4.9785e-4 0.02040816,-5.0837e-4 0.02040816,-1.3391e-4 0.02040817,8.1313e-4 0.0204082,0.002008 0.0204082,0.003426 0.0204082,0.00476 0.0204082,0.005742 0.0204082,0.006754 0.0204082,0.005798 0.0204082,0.004834 0.0204082,0.003462 0.0204082,0.001967 0.0204082,6.279e-4 0.0204082,-4.3165e-4 0.0204082,-9.3939e-4 0.0204082,-0.001068 0.0204082,-9.5749e-4 0.0204082,-8.2217e-4 0.0204082,-5.8174e-4 0.0204082,-5.2866e-4 0.0204082,-5.7578e-4 0.0204082,-6.8363e-4 0.0204082,-9.0213e-4 0.0204082,-9.3456e-4 0.0204082,-9.8678e-4 0.0204082,-9.8192e-4 0.0204082,-9.298e-4 0.0204082,-9.4568e-4 0.0204082,-8.3859e-4 0.0204082,-9.219e-4 0.0204082,-0.001157 0.0204082,-0.001519 0.0204082,-0.002131 0.0204082,-0.002245 0.0204082,-0.00229 0.0204082,-0.001986 0.0204082,-0.001313 0.0204082,-3.1222e-4 0.0204082,9.0641e-4 0.0204082,0.002014 0.0204082,0.002926 0.0204082,0.003509 0.0204082,0.004053 0.0204082,0.00341 0.0204082,0.002756 0.0204082,0.001807 M 0,0.32013791 l 0.02040816,-2.3377e-4 0.02040817,-5.5321e-4 0.02040816,-5.8811e-4 0.02040816,-2.1905e-4 0.02040817,7.434e-4 0.0204082,0.001993 0.0204082,0.003474 0.0204082,0.004867 0.0204082,0.005884 0.0204082,0.006898 0.0204082,0.005867 0.0204082,0.004809 0.0204082,0.003333 0.0204082,0.001755 0.0204082,3.5337e-4 0.0204082,-6.5873e-4 0.0204082,-0.001095 0.0204082,-0.001126 0.0204082,-9.2031e-4 0.0204082,-7.0583e-4 0.0204082,-4.5525e-4 0.0204082,-4.2741e-4 0.0204082,-5.289e-4 0.0204082,-7.0066e-4 0.0204082,-9.8228e-4 0.0204082,-0.001036 0.0204082,-0.001087 0.0204082,-0.001055 0.0204082,-9.5704e-4 0.0204082,-9.1321e-4 0.0204082,-7.5247e-4 0.0204082,-7.9117e-4 0.0204082,-9.9395e-4 0.0204082,-0.001339 0.0204082,-0.001927 0.0204082,-0.002064 0.0204082,-0.002116 0.0204082,-0.001819 0.0204082,-0.001152 0.0204082,-1.428e-4 0.0204082,0.001048 0.0204082,0.002138 0.0204082,0.003021 0.0204082,0.003571 0.0204082,0.004083 0.0204082,0.003408 0.0204082,0.00274 0.0204082,0.001789 M 0,0.33330284 l 0.02040816,-2.4381e-4 0.02040817,-5.8041e-4 0.02040816,-6.3065e-4 0.02040816,-2.7012e-4 0.02040817,6.9057e-4 0.0204082,0.001962 0.0204082,0.003466 0.0204082,0.00488 0.0204082,0.005902 0.0204082,0.006893 0.0204082,0.00581 0.0204082,0.004688 0.0204082,0.003149 0.0204082,0.001534 0.0204082,1.1568e-4 0.0204082,-8.2127e-4 0.0204082,-0.001171 0.0204082,-0.001103 0.0204082,-8.1091e-4 0.0204082,-5.2526e-4 0.0204082,-2.8321e-4 0.0204082,-2.8855e-4 0.0204082,-4.4706e-4 0.0204082,-6.8169e-4 0.0204082,-0.001021 0.0204082,-0.001102 0.0204082,-0.001158 0.0204082,-0.001112 0.0204082,-9.8675e-4 0.0204082,-9.0732e-4 0.0204082,-7.1036e-4 0.0204082,-7.1833e-4 0.0204082,-8.9612e-4 0.0204082,-0.001223 0.0204082,-0.001789 0.0204082,-0.001936 0.0204082,-0.001987 0.0204082,-0.00169 0.0204082,-0.001024 0.0204082,-5.71e-6 0.0204082,0.001164 0.0204082,0.002238 0.0204082,0.003097 0.0204082,0.003618 0.0204082,0.004098 0.0204082,0.003396 0.0204082,0.002715 0.0204082,0.001765 M 0,0.34691569 l 0.02040816,-2.4634e-4 0.02040817,-5.892e-4 0.02040816,-6.5113e-4 0.02040816,-3.0565e-4 0.02040817,6.337e-4 0.0204082,0.001897 0.0204082,0.003391 0.0204082,0.004791 0.0204082,0.005791 0.0204082,0.006725 0.0204082,0.005603 0.0204082,0.004429 0.0204082,0.002855 0.0204082,0.00124 0.0204082,-1.5019e-4 0.0204082,-9.6405e-4 0.0204082,-0.00119 0.0204082,-9.9493e-4 0.0204082,-6.0001e-4 0.0204082,-2.2813e-4 0.0204082,-1.087e-5 0.0204082,-6.11e-5 0.0204082,-2.9083e-4 0.0204082,-6.0284e-4 0.0204082,-0.00101 0.0204082,-0.001136 0.0204082,-0.00121 0.0204082,-0.001164 0.0204082,-0.001025 0.0204082,-9.229e-4 0.0204082,-6.9451e-4 0.0204082,-6.7406e-4 0.0204082,-8.2563e-4 0.0204082,-0.001133 0.0204082,-0.001677 0.0204082,-0.00183 0.0204082,-0.001881 0.0204082,-0.001587 0.0204082,-9.1993e-4 0.0204082,1.0987e-4 0.0204082,0.001267 0.0204082,0.002335 0.0204082,0.003176 0.0204082,0.003672 0.0204082,0.004123 0.0204082,0.003391 0.0204082,0.002695 0.0204082,0.001745 M 0,0.36107097 0.02040816,0.3608307 l 0.02040817,-5.7655e-4 0.02040816,-6.4489e-4 0.02040816,-3.2037e-4 0.02040817,5.7686e-4 0.0204082,0.001798 0.0204082,0.003242 0.0204082,0.004589 0.0204082,0.005537 0.0204082,0.006386 0.0204082,0.00525 0.0204082,0.00405 0.0204082,0.002481 0.0204082,9.119e-4 0.0204082,-4.068e-4 0.0204082,-0.001064 0.0204082,-0.001145 0.0204082,-8.1331e-4 0.0204082,-3.1279e-4 0.0204082,1.5204e-4 0.0204082,3.3586e-4 0.0204082,2.4066e-4 0.0204082,-6.005e-5 0.0204082,-4.509e-4 0.0204082,-9.2415e-4 0.0204082,-0.001114 0.0204082,-0.001223 0.0204082,-0.001194 0.0204082,-0.001058 0.0204082,-9.4899e-4 0.0204082,-6.974e-4 0.0204082,-6.5285e-4 0.0204082,-7.8055e-4 0.0204082,-0.00107 0.0204082,-0.001603 0.0204082,-0.001771 0.0204082,-0.001834 0.0204082,-0.001551 0.0204082,-8.8934e-4 0.0204082,1.493e-4 0.0204082,0.001315 0.0204082,0.002393 0.0204082,0.003238 0.0204082,0.003729 0.0204082,0.004168 0.0204082,0.003412 0.0204082,0.0027 0.0204082,0.001742 M 0,0.37572109 l 0.02040816,-2.2652e-4 0.02040817,-5.4476e-4 0.02040816,-6.1457e-4 0.02040816,-3.1615e-4 0.02040817,5.2019e-4 0.0204082,0.001669 0.0204082,0.003027 0.0204082,0.004287 0.0204082,0.005156 0.0204082,0.005898 0.0204082,0.004772 0.0204082,0.003575 0.0204082,0.002049 0.0204082,5.642e-4 0.0204082,-6.4658e-4 0.0204082,-0.001127 0.0204082,-0.001052 0.0204082,-5.8076e-4 0.0204082,2.436e-5 0.0204082,5.8725e-4 0.0204082,7.3669e-4 0.0204082,6.0376e-4 0.0204082,2.3987e-4 0.0204082,-2.2499e-4 0.0204082,-7.5893e-4 0.0204082,-0.001028 0.0204082,-0.001186 0.0204082,-0.001191 0.0204082,-0.001073 0.0204082,-9.6761e-4 0.0204082,-6.9983e-4 0.0204082,-6.3407e-4 0.0204082,-7.412e-4 0.0204082,-0.001021 0.0204082,-0.001559 0.0204082,-0.001757 0.0204082,-0.001853 0.0204082,-0.001601 0.0204082,-9.5335e-4 0.0204082,8.654e-5 0.0204082,0.001283 0.0204082,0.002397 0.0204082,0.003273 0.0204082,0.003785 0.0204082,0.004235 0.0204082,0.003464 0.0204082,0.002737 0.0204082,0.001763 M 0,0.39075548 l 0.02040816,-2.054e-4 0.02040817,-4.9432e-4 0.02040816,-5.5988e-4 0.02040816,-2.9063e-4 0.02040817,4.7037e-4 0.0204082,0.00152 0.0204082,0.002761 0.0204082,0.003905 0.0204082,0.004676 0.0204082,0.005296 0.0204082,0.004205 0.0204082,0.003038 0.0204082,0.001588 0.0204082,2.1728e-4 0.0204082,-8.617e-4 0.0204082,-0.001158 0.0204082,-9.3e-4 0.0204082,-3.2683e-4 0.0204082,3.7645e-4 0.0204082,0.001038 0.0204082,0.00116 0.0204082,0.001003 0.0204082,5.9135e-4 0.0204082,6.477e-5 0.0204082,-5.172e-4 0.0204082,-8.7596e-4 0.0204082,-0.001091 0.0204082,-0.001142 0.0204082,-0.001053 0.0204082,-9.5712e-4 0.0204082,-6.8094e-4 0.0204082,-5.9768e-4 0.0204082,-6.9044e-4 0.0204082,-9.7109e-4 0.0204082,-0.001536 0.0204082,-0.001789 0.0204082,-0.001944 0.0204082,-0.001744 0.0204082,-0.001125 0.0204082,-9.522e-5 0.0204082,0.001157 0.0204082,0.00233 0.0204082,0.003267 0.0204082,0.003829 0.0204082,0.004317 0.0204082,0.003544 0.0204082,0.002805 0.0204082,0.001808 M 0,0.40604133 l 0.02040816,-1.7759e-4 0.02040817,-4.2655e-4 0.02040816,-4.8135e-4 0.02040816,-2.4162e-4 0.02040817,4.354e-4 0.0204082,0.001366 0.0204082,0.002467 0.0204082,0.003473 0.0204082,0.004134 0.0204082,0.004626 0.0204082,0.003592 0.0204082,0.002478 0.0204082,0.00113 0.0204082,-1.061e-4 0.0204082,-0.001042 0.0204082,-0.001164 0.0204082,-7.9855e-4 0.0204082,-8.145e-5 0.0204082,7.0701e-4 0.0204082,0.001463 0.0204082,0.001568 0.0204082,0.001406 0.0204082,9.6806e-4 0.0204082,3.9923e-4 0.0204082,-2.1139e-4 0.0204082,-6.6045e-4 0.0204082,-9.3491e-4 0.0204082,-0.001037 0.0204082,-9.8471e-4 0.0204082,-8.9932e-4 0.0204082,-6.2475e-4 0.0204082,-5.3026e-4 0.0204082,-6.1857e-4 0.0204082,-9.1564e-4 0.0204082,-0.001531 0.0204082,-0.001864 0.0204082,-0.002106 0.0204082,-0.001981 0.0204082,-0.001404 0.0204082,-3.9817e-4 0.0204082,9.3306e-4 0.0204082,0.002186 0.0204082,0.003212 0.0204082,0.003853 0.0204082,0.004404 0.0204082,0.003645 0.0204082,0.002898 0.0204082,0.001873 M 0,0.42118022 0.02040816,0.42103284 0.04081633,0.4206812 l 0.02040816,-3.8982e-4 0.02040816,-1.732e-4 0.02040817,4.289e-4 0.0204082,0.001243 0.0204082,0.002209 0.0204082,0.003083 0.0204082,0.003639 0.0204082,0.00402 0.0204082,0.003049 0.0204082,0.002 0.0204082,7.5568e-4 0.0204082,-3.5457e-4 0.0204082,-0.001167 0.0204082,-0.001154 0.0204082,-6.9009e-4 0.0204082,1.0458e-4 0.0204082,9.5177e-4 0.0204082,0.00178 0.0204082,0.001884 0.0204082,0.001733 0.0204082,0.001294 0.0204082,7.093e-4 0.0204082,9.461e-5 0.0204082,-4.259e-4 0.0204082,-7.4746e-4 0.0204082,-8.9354e-4 0.0204082,-8.7496e-4 0.0204082,-7.9874e-4 0.0204082,-5.3647e-4 0.0204082,-4.4045e-4 0.0204082,-5.3633e-4 0.0204082,-8.6242e-4 0.0204082,-0.001542 0.0204082,-0.001964 0.0204082,-0.0023 0.0204082,-0.002256 0.0204082,-0.001728 0.0204082,-7.5229e-4 0.0204082,6.6256e-4 0.0204082,0.001999 0.0204082,0.003122 0.0204082,0.003851 0.0204082,0.004475 0.0204082,0.003741 0.0204082,0.002993 0.0204082,0.001941 M 0,0.4364887 0.02040816,0.43638272 0.04081633,0.43613535 0.06122449,0.4358789 l 0.02040816,-5.973e-5 0.02040817,4.6156e-4 0.0204082,0.001134 0.0204082,0.001937 0.0204082,0.002651 0.0204082,0.003085 0.0204082,0.003345 0.0204082,0.002457 0.0204082,0.001495 0.0204082,3.8101e-4 0.0204082,-5.8442e-4 0.0204082,-0.001264 0.0204082,-0.001129 0.0204082,-5.8503e-4 0.0204082,2.6616e-4 0.0204082,0.001157 0.0204082,0.002049 0.0204082,0.002167 0.0204082,0.002049 0.0204082,0.001634 0.0204082,0.001059 0.0204082,4.6766e-4 0.0204082,-1.1648e-4 0.0204082,-4.7896e-4 0.0204082,-6.6878e-4 0.0204082,-6.8726e-4 0.0204082,-6.2013e-4 0.0204082,-3.8768e-4 0.0204082,-3.0338e-4 0.0204082,-4.2447e-4 0.0204082,-8.0177e-4 0.0204082,-0.001575 0.0204082,-0.002114 0.0204082,-0.002573 0.0204082,-0.002634 0.0204082,-0.002167 0.0204082,-0.001236 0.0204082,2.8576e-4 0.0204082,0.001727 0.0204082,0.002973 0.0204082,0.00382 0.0204082,0.00454 0.0204082,0.003848 0.0204082,0.003104 0.0204082,0.002023 M 0,0.45159264 l 0.02040816,-5.709e-5 0.02040817,-1.2228e-4 0.02040816,-8.964e-5 0.02040816,9.749e-5 0.02040817,5.4953e-4 0.0204082,0.001077 0.0204082,0.001714 0.0204082,0.002265 0.0204082,0.002575 0.0204082,0.002724 0.0204082,0.001922 0.0204082,0.001057 0.0204082,7.844e-5 0.0204082,-7.4753e-4 0.0204082,-0.001311 0.0204082,-0.001091 0.0204082,-5.0649e-4 0.0204082,3.6294e-4 0.0204082,0.001268 0.0204082,0.002198 0.0204082,0.002343 0.0204082,0.002276 0.0204082,0.001913 0.0204082,0.001378 0.0204082,8.4278e-4 0.0204082,2.217e-4 0.0204082,-1.6235e-4 0.0204082,-3.8382e-4 0.0204082,-4.3519e-4 0.0204082,-3.7571e-4 0.0204082,-1.919e-4 0.0204082,-1.366e-4 0.0204082,-3.0228e-4 0.0204082,-7.4884e-4 0.0204082,-0.001633 0.0204082,-0.002297 0.0204082,-0.002883 0.0204082,-0.003052 0.0204082,-0.002649 0.0204082,-0.001769 0.0204082,-1.3565e-4 0.0204082,0.001412 0.0204082,0.002786 0.0204082,0.003755 0.0204082,0.004578 0.0204082,0.003939 0.0204082,0.003206 0.0204082,0.002102 M 0,0.46638369 l 0.02040816,-9.4e-7 0.02040817,2.337e-5 0.02040816,1.114e-4 0.02040816,3.0183e-4 0.02040817,7.0155e-4 0.0204082,0.001086 0.0204082,0.001559 0.0204082,0.001948 0.0204082,0.002134 0.0204082,0.002179 0.0204082,0.001462 0.0204082,6.9841e-4 0.0204082,-1.4583e-4 0.0204082,-8.4132e-4 0.0204082,-0.001305 0.0204082,-0.001039 0.0204082,-4.5279e-4 0.0204082,3.962e-4 0.0204082,0.001284 0.0204082,0.002221 0.0204082,0.002403 0.0204082,0.002399 0.0204082,0.00211 0.0204082,0.001644 0.0204082,0.001194 0.0204082,5.6849e-4 0.0204082,1.8655e-4 0.0204082,-5.024e-5 0.0204082,-1.2728e-4 0.0204082,-7.368e-5 0.0204082,4.273e-5 0.0204082,5.048e-5 0.0204082,-1.7911e-4 0.0204082,-7.1022e-4 0.0204082,-0.001716 0.0204082,-0.002501 0.0204082,-0.003211 0.0204082,-0.00348 0.0204082,-0.003137 0.0204082,-0.002309 0.0204082,-5.6919e-4 0.0204082,0.001077 0.0204082,0.002571 0.0204082,0.003658 0.0204082,0.004579 0.0204082,0.004 0.0204082,0.003284 0.0204082,0.002165 M 0,0.4807986 l 0.02040816,6.162e-5 0.02040817,1.8754e-4 0.02040816,3.4461e-4 0.02040816,5.5273e-4 0.02040817,9.2074e-4 0.0204082,0.001167 0.0204082,0.001484 0.0204082,0.001713 0.0204082,0.001776 0.0204082,0.001726 0.0204082,0.001084 0.0204082,4.2011e-4 0.0204082,-2.9397e-4 0.0204082,-8.6933e-4 0.0204082,-0.001248 0.0204082,-9.7013e-4 0.0204082,-4.1616e-4 0.0204082,3.7704e-4 0.0204082,0.001216 0.0204082,0.002129 0.0204082,0.002349 0.0204082,0.002412 0.0204082,0.002213 0.0204082,0.001839 0.0204082,0.001499 0.0204082,9.0169e-4 0.0204082,5.4662e-4 0.0204082,3.1298e-4 0.0204082,2.1976e-4 0.0204082,2.6966e-4 0.0204082,3.0297e-4 0.0204082,2.4638e-4 0.0204082,-6.327e-5 0.0204082,-6.8892e-4 0.0204082,-0.001817 0.0204082,-0.002712 0.0204082,-0.003529 0.0204082,-0.003885 0.0204082,-0.003592 0.0204082,-0.002816 0.0204082,-9.8328e-4 0.0204082,7.4346e-4 0.0204082,0.00234 0.0204082,0.003528 0.0204082,0.004534 0.0204082,0.004018 0.0204082,0.003325 0.0204082,0.002203 M 0,0.49478175 l 0.02040816,1.2038e-4 0.02040817,3.4317e-4 0.02040816,5.706e-4 0.02040816,8.0596e-4 0.02040817,0.001164 0.0204082,0.001298 0.0204082,0.001486 0.0204082,0.00158 0.0204082,0.001536 0.0204082,0.001408 0.0204082,8.1992e-4 0.0204082,2.3836e-4 0.0204082,-3.6746e-4 0.0204082,-8.4552e-4 0.0204082,-0.00116 0.0204082,-8.9161e-4 0.0204082,-3.8751e-4 0.0204082,3.3267e-4 0.0204082,0.001106 0.0204082,0.001969 0.0204082,0.002218 0.0204082,0.002337 0.0204082,0.002222 0.0204082,0.001941 0.0204082,0.001711 0.0204082,0.001164 0.0204082,8.516e-4 0.0204082,6.3637e-4 0.0204082,5.3838e-4 0.0204082,5.8784e-4 0.0204082,5.4015e-4 0.0204082,4.1707e-4 0.0204082,2.854e-5 0.0204082,-6.8276e-4 0.0204082,-0.001912 0.0204082,-0.002887 0.0204082,-0.00378 0.0204082,-0.004194 0.0204082,-0.003938 0.0204082,-0.003204 0.0204082,-0.001309 0.0204082,4.6747e-4 0.0204082,0.00213 0.0204082,0.003387 0.0204082,0.00445 0.0204082,0.003988 0.0204082,0.003321 0.0204082,0.002209 M 0,0.50851984 l 0.02040816,1.8946e-4 0.02040817,5.2758e-4 0.02040816,8.4321e-4 0.02040816,0.001121 0.02040817,0.001487 0.0204082,0.001503 0.0204082,0.001558 0.0204082,0.001504 0.0204082,0.001339 0.0204082,0.001125 0.0204082,5.8445e-4 0.0204082,8.924e-5 0.0204082,-4.002e-4 0.0204082,-7.7363e-4 0.0204082,-0.001017 0.0204082,-7.7553e-4 0.0204082,-3.4319e-4 0.0204082,2.7438e-4 0.0204082,9.5078e-4 0.0204082,0.00173 0.0204082,0.001997 0.0204082,0.00217 0.0204082,0.002147 0.0204082,0.001976 0.0204082,0.001875 0.0204082,0.00141 0.0204082,0.001165 0.0204082,9.8767e-4 0.0204082,8.9626e-4 0.0204082,9.4996e-4 0.0204082,8.0761e-4 0.0204082,6.0312e-4 0.0204082,1.2126e-4 0.0204082,-6.8423e-4 0.0204082,-0.002014 0.0204082,-0.003058 0.0204082,-0.004013 0.0204082,-0.004475 0.0204082,-0.004251 0.0204082,-0.003563 0.0204082,-0.001627 0.0204082,1.7627e-4 0.0204082,0.001881 0.0204082,0.003189 0.0204082,0.00429 0.0204082,0.00389 0.0204082,0.003259 0.0204082,0.002176 M 0,0.5220289 l 0.02040816,2.5707e-4 0.02040817,7.0939e-4 0.02040816,0.001116 0.02040816,0.001445 0.02040817,0.001836 0.0204082,0.001749 0.0204082,0.001684 0.0204082,0.001495 0.0204082,0.001213 0.0204082,9.165e-4 0.0204082,4.0793e-4 0.0204082,-1.033e-5 0.0204082,-3.9076e-4 0.0204082,-6.6349e-4 0.0204082,-8.3442e-4 0.0204082,-6.2416e-4 0.0204082,-2.69e-4 0.0204082,2.3467e-4 0.0204082,7.9657e-4 0.0204082,0.001467 0.0204082,0.001731 0.0204082,0.001937 0.0204082,0.001992 0.0204082,0.001925 0.0204082,0.001947 0.0204082,0.001582 0.0204082,0.001418 0.0204082,0.001294 0.0204082,0.001223 0.0204082,0.001287 0.0204082,0.001056 0.0204082,7.7145e-4 0.0204082,2.0081e-4 0.0204082,-6.8761e-4 0.0204082,-0.002095 0.0204082,-0.003181 0.0204082,-0.00417 0.0204082,-0.004659 0.0204082,-0.004461 0.0204082,-0.003823 0.0204082,-0.001883 0.0204082,-9.001e-5 0.0204082,0.001618 0.0204082,0.002941 0.0204082,0.00405 0.0204082,0.003713 0.0204082,0.003128 0.0204082,0.002094 M 0,0.53544976 l 0.02040816,3.1876e-4 0.02040817,8.7641e-4 0.02040816,0.001371 0.02040816,0.001754 0.02040817,0.00218 0.0204082,0.002007 0.0204082,0.001842 0.0204082,0.001531 0.0204082,0.001141 0.0204082,7.6694e-4 0.0204082,2.7781e-4 0.0204082,-7.257e-5 0.0204082,-3.5078e-4 0.0204082,-5.2445e-4 0.0204082,-6.1539e-4 0.0204082,-4.3325e-4 0.0204082,-1.5106e-4 0.0204082,2.3681e-4 0.0204082,6.7384e-4 0.0204082,0.001216 0.0204082,0.001451 0.0204082,0.001664 0.0204082,0.001774 0.0204082,0.001794 0.0204082,0.001922 0.0204082,0.001667 0.0204082,0.001593 0.0204082,0.001534 0.0204082,0.001495 0.0204082,0.001578 0.0204082,0.001272 0.0204082,9.1703e-4 0.0204082,2.7017e-4 0.0204082,-6.8312e-4 0.0204082,-0.002138 0.0204082,-0.003242 0.0204082,-0.00424 0.0204082,-0.00474 0.0204082,-0.004566 0.0204082,-0.003986 0.0204082,-0.002083 0.0204082,-3.4028e-4 0.0204082,0.00133 0.0204082,0.002635 0.0204082,0.003722 0.0204082,0.00345 0.0204082,0.002921 0.0204082,0.001961 M 0,0.54892628 l 0.02040816,3.6982e-4 0.02040817,0.001016 0.02040816,0.001586 0.02040816,0.002021 0.02040817,0.002487 0.0204082,0.002249 0.0204082,0.002003 0.0204082,0.00159 0.0204082,0.001104 0.0204082,6.6094e-4 0.0204082,1.8305e-4 0.0204082,-1.0747e-4 0.0204082,-2.899e-4 0.0204082,-3.6531e-4 0.0204082,-3.666e-4 0.0204082,-2.0296e-4 0.0204082,1.815e-5 0.0204082,2.9691e-4 0.0204082,6.0648e-4 0.0204082,0.001011 0.0204082,0.001188 0.0204082,0.00138 0.0204082,0.001517 0.0204082,0.001599 0.0204082,0.001809 0.0204082,0.001665 0.0204082,0.001682 0.0204082,0.001695 0.0204082,0.001698 0.0204082,0.001805 0.0204082,0.001444 0.0204082,0.001034 0.0204082,3.2931e-4 0.0204082,-6.6618e-4 0.0204082,-0.002138 0.0204082,-0.003236 0.0204082,-0.004222 0.0204082,-0.004724 0.0204082,-0.004578 0.0204082,-0.004069 0.0204082,-0.002243 0.0204082,-5.8938e-4 0.0204082,0.001005 0.0204082,0.002263 0.0204082,0.003301 0.0204082,0.003099 0.0204082,0.002639 0.0204082,0.001777 M 0,0.5625572 l 0.02040816,4.0218e-4 0.02040817,0.001105 0.02040816,0.001728 0.02040816,0.0022 0.02040817,0.0027 0.0204082,0.002423 0.0204082,0.002125 0.0204082,0.001642 0.0204082,0.001088 0.0204082,5.9502e-4 0.0204082,1.2404e-4 0.0204082,-1.1981e-4 0.0204082,-2.2438e-4 0.0204082,-2.1584e-4 0.0204082,-1.3235e-4 0.0204082,2.466e-5 0.0204082,2.0509e-4 0.0204082,3.9874e-4 0.0204082,6.0037e-4 0.0204082,8.8255e-4 0.0204082,9.8875e-4 0.0204082,0.001141 0.0204082,0.001277 0.0204082,0.001393 0.0204082,0.001651 0.0204082,0.001599 0.0204082,0.001691 0.0204082,0.001768 0.0204082,0.001814 0.0204082,0.001947 0.0204082,0.001554 0.0204082,0.00111 0.0204082,3.7301e-4 0.0204082,-6.392e-4 0.0204082,-0.002101 0.0204082,-0.003177 0.0204082,-0.004142 0.0204082,-0.004642 0.0204082,-0.004527 0.0204082,-0.004093 0.0204082,-0.002367 0.0204082,-8.1858e-4 0.0204082,6.8389e-4 0.0204082,0.001879 0.0204082,0.002856 0.0204082,0.002723 0.0204082,0.002334 0.0204082,0.001577 M 0,0.57644224 l 0.02040816,4.2163e-4 0.02040817,0.001161 0.02040816,0.00182 0.02040816,0.002325 0.02040817,0.002857 0.0204082,0.002559 0.0204082,0.002226 0.0204082,0.00169 0.0204082,0.001081 0.0204082,5.4683e-4 0.0204082,8.379e-5 0.0204082,-1.1306e-4 0.0204082,-1.3788e-4 0.0204082,-3.982e-5 0.0204082,1.4234e-4 0.0204082,3.012e-4 0.0204082,4.503e-4 0.0204082,5.6234e-4 0.0204082,6.5104e-4 0.0204082,8.0037e-4 0.0204082,8.0877e-4 0.0204082,8.9605e-4 0.0204082,0.001007 0.0204082,0.001137 0.0204082,0.001424 0.0204082,0.001465 0.0204082,0.001634 0.0204082,0.001782 0.0204082,0.001878 0.0204082,0.00204 0.0204082,0.001631 0.0204082,0.001165 0.0204082,4.1159e-4 0.0204082,-5.9685e-4 0.0204082,-0.002021 0.0204082,-0.003059 0.0204082,-0.00399 0.0204082,-0.004489 0.0204082,-0.004421 0.0204082,-0.004092 0.0204082,-0.002507 0.0204082,-0.001105 0.0204082,2.6876e-4 0.0204082,0.001376 0.0204082,0.002269 0.0204082,0.002226 0.0204082,0.00193 0.0204082,0.001311 M 0,0.59057264 l 0.02040816,4.2033e-4 0.02040817,0.001161 0.02040816,0.00183 0.02040816,0.002353 0.02040817,0.002908 0.0204082,0.002616 0.0204082,0.002275 0.0204082,0.001719 0.0204082,0.001083 0.0204082,5.3168e-4 0.0204082,7.879e-5 0.0204082,-7.844e-5 0.0204082,-3.73e-5 0.0204082,1.3685e-4 0.0204082,4.1043e-4 0.0204082,5.7586e-4 0.0204082,7.0673e-4 0.0204082,7.5491e-4 0.0204082,7.4697e-4 0.0204082,7.7862e-4 0.0204082,6.8256e-4 0.0204082,6.941e-4 0.0204082,7.6252e-4 0.0204082,8.8593e-4 0.0204082,0.001179 0.0204082,0.001296 0.0204082,0.001529 0.0204082,0.001737 0.0204082,0.001879 0.0204082,0.002066 0.0204082,0.001655 0.0204082,0.001183 0.0204082,4.3406e-4 0.0204082,-5.4903e-4 0.0204082,-0.001913 0.0204082,-0.002902 0.0204082,-0.003795 0.0204082,-0.004298 0.0204082,-0.00429 0.0204082,-0.004083 0.0204082,-0.002662 0.0204082,-0.001425 0.0204082,-1.9386e-4 0.0204082,8.167e-4 0.0204082,0.001618 0.0204082,0.001675 0.0204082,0.001483 0.0204082,0.001018 M 0,0.60487599 l 0.02040816,3.978e-4 0.02040817,0.001104 0.02040816,0.001756 0.02040816,0.002281 0.02040817,0.00285 0.0204082,0.00259 0.0204082,0.002273 0.0204082,0.001731 0.0204082,0.001102 0.0204082,5.5935e-4 0.0204082,1.1911e-4 0.0204082,-7.75e-6 0.0204082,8.035e-5 0.0204082,3.0907e-4 0.0204082,6.5533e-4 0.0204082,8.2443e-4 0.0204082,9.4463e-4 0.0204082,9.4579e-4 0.0204082,8.6156e-4 0.0204082,7.9789e-4 0.0204082,6.0416e-4 0.0204082,5.4061e-4 0.0204082,5.5867e-4 0.0204082,6.6226e-4 0.0204082,9.4501e-4 0.0204082,0.00112 0.0204082,0.0014 0.0204082,0.001656 0.0204082,0.001833 0.0204082,0.002036 0.0204082,0.001632 0.0204082,0.001165 0.0204082,4.3658e-4 0.0204082,-5.04e-4 0.0204082,-0.001792 0.0204082,-0.002727 0.0204082,-0.003582 0.0204082,-0.004096 0.0204082,-0.004158 0.0204082,-0.004086 0.0204082,-0.00284 0.0204082,-0.001776 0.0204082,-6.9319e-4 0.0204082,2.1981e-4 0.0204082,9.2846e-4 0.0204082,0.001094 0.0204082,0.001014 0.0204082,7.1019e-4 M 0,0.6192085 l 0.02040816,3.5554e-4 0.02040817,9.9508e-4 0.02040816,0.001603 0.02040816,0.002116 0.02040817,0.002693 0.0204082,0.002493 0.0204082,0.002228 0.0204082,0.001738 0.0204082,0.001149 0.0204082,6.4432e-4 0.0204082,2.177e-4 0.0204082,1.0959e-4 0.0204082,2.2031e-4 0.0204082,4.7395e-4 0.0204082,8.6239e-4 0.0204082,0.001023 0.0204082,0.001133 0.0204082,0.001101 0.0204082,9.6294e-4 0.0204082,8.3136e-4 0.0204082,5.6057e-4 0.0204082,4.351e-4 0.0204082,4.0709e-4 0.0204082,4.8733e-4 0.0204082,7.5325e-4 0.0204082,9.6688e-4 0.0204082,0.001277 0.0204082,0.001562 0.0204082,0.001759 0.0204082,0.001964 0.0204082,0.001569 0.0204082,0.001113 0.0204082,4.1425e-4 0.0204082,-4.723e-4 0.0204082,-0.001676 0.0204082,-0.002552 0.0204082,-0.003372 0.0204082,-0.003903 0.0204082,-0.004043 0.0204082,-0.004115 0.0204082,-0.003043 0.0204082,-0.00215 0.0204082,-0.00121 0.0204082,-3.8895e-4 0.0204082,2.3269e-4 0.0204082,5.1317e-4 0.0204082,5.4663e-4 0.0204082,4.0487e-4 M 0,0.63339033 l 0.02040816,2.9724e-4 0.02040817,8.4302e-4 0.02040816,0.001386 0.02040816,0.001878 0.02040817,0.002457 0.0204082,0.002342 0.0204082,0.00216 0.0204082,0.001755 0.0204082,0.001238 0.0204082,7.9927e-4 0.0204082,3.8433e-4 0.0204082,2.8108e-4 0.0204082,3.8626e-4 0.0204082,6.2945e-4 0.0204082,0.001021 0.0204082,0.001154 0.0204082,0.001247 0.0204082,0.001191 0.0204082,0.001022 0.0204082,8.5225e-4 0.0204082,5.3627e-4 0.0204082,3.7248e-4 0.0204082,3.1317e-4 0.0204082,3.7533e-4 0.0204082,6.2573e-4 0.0204082,8.5938e-4 0.0204082,0.001182 0.0204082,0.001476 0.0204082,0.001674 0.0204082,0.001863 0.0204082,0.001472 0.0204082,0.001026 0.0204082,3.6259e-4 0.0204082,-4.6414e-4 0.0204082,-0.001581 0.0204082,-0.002396 0.0204082,-0.003185 0.0204082,-0.003736 0.0204082,-0.003955 0.0204082,-0.004171 0.0204082,-0.003263 0.0204082,-0.00253 0.0204082,-0.001722 0.0204082,-9.8041e-4 0.0204082,-4.3534e-4 0.0204082,-3.999e-5 0.0204082,1.044e-4 0.0204082,1.1688e-4 M 0,0.64723726 l 0.02040816,2.3655e-4 0.02040817,6.842e-4 0.02040816,0.001159 0.02040816,0.001626 0.02040817,0.002208 0.0204082,0.002185 0.0204082,0.002096 0.0204082,0.001789 0.0204082,0.001358 0.0204082,9.9915e-4 0.0204082,5.9125e-4 0.0204082,4.8052e-4 0.0204082,5.5705e-4 0.0204082,7.6033e-4 0.0204082,0.001118 0.0204082,0.001207 0.0204082,0.001274 0.0204082,0.001202 0.0204082,0.001021 0.0204082,8.4179e-4 0.0204082,5.1753e-4 0.0204082,3.4479e-4 0.0204082,2.7623e-4 0.0204082,3.3231e-4 0.0204082,5.7547e-4 0.0204082,8.1333e-4 0.0204082,0.001133 0.0204082,0.001419 0.0204082,0.001601 0.0204082,0.001761 0.0204082,0.001366 0.0204082,9.2475e-4 0.0204082,2.9145e-4 0.0204082,-4.8244e-4 0.0204082,-0.001526 0.0204082,-0.002286 0.0204082,-0.003049 0.0204082,-0.003618 0.0204082,-0.003903 0.0204082,-0.004237 0.0204082,-0.003458 0.0204082,-0.002851 0.0204082,-0.002142 0.0204082,-0.00146 0.0204082,-9.7153e-4 0.0204082,-4.804e-4 0.0204082,-2.4573e-4 0.0204082,-1.1036e-4 M 0,0.66074078 l 0.02040816,1.6077e-4 0.02040817,4.855e-4 0.02040816,8.747e-4 0.02040816,0.00131 0.02040817,0.001897 0.0204082,0.001994 0.0204082,0.00203 0.0204082,0.001859 0.0204082,0.001547 0.0204082,0.0013 0.0204082,8.9576e-4 0.0204082,7.6473e-4 0.0204082,7.839e-4 0.0204082,9.0867e-4 0.0204082,0.001188 0.0204082,0.001199 0.0204082,0.001222 0.0204082,0.00113 0.0204082,9.5084e-4 0.0204082,7.826e-4 0.0204082,4.8575e-4 0.0204082,3.3313e-4 0.0204082,2.785e-4 0.0204082,3.4322e-4 0.0204082,5.8976e-4 0.0204082,8.206e-4 0.0204082,0.001125 0.0204082,0.001384 0.0204082,0.00153 0.0204082,0.00164 0.0204082,0.001227 0.0204082,7.8293e-4 0.0204082,1.7825e-4 0.0204082,-5.3921e-4 0.0204082,-0.001505 0.0204082,-0.002202 0.0204082,-0.002933 0.0204082,-0.003517 0.0204082,-0.003868 0.0204082,-0.004321 0.0204082,-0.003669 0.0204082,-0.003184 0.0204082,-0.002572 0.0204082,-0.001944 0.0204082,-0.001507 0.0204082,-9.1727e-4 0.0204082,-5.9124e-4 0.0204082,-3.3386e-4 M 0,0.6738061 l 0.02040816,8.244e-5 0.02040817,2.7988e-4 0.02040816,5.8023e-4 0.02040816,9.843e-4 0.02040817,0.001579 0.0204082,0.001805 0.0204082,0.001979 0.0204082,0.00196 0.0204082,0.001782 0.0204082,0.001666 0.0204082,0.001262 0.0204082,0.001102 0.0204082,0.001044 0.0204082,0.001062 0.0204082,0.001227 0.0204082,0.001134 0.0204082,0.001094 0.0204082,9.7603e-4 0.0204082,8.0778e-4 0.0204082,6.6831e-4 0.0204082,4.3408e-4 0.0204082,3.3167e-4 0.0204082,3.1699e-4 0.0204082,4.085e-4 0.0204082,6.7319e-4 0.0204082,8.8897e-4 0.0204082,0.001169 0.0204082,0.001387 0.0204082,0.001482 0.0204082,0.001525 0.0204082,0.001078 0.0204082,6.1837e-4 0.0204082,3.096e-5 0.0204082,-6.3943e-4 0.0204082,-0.00154 0.0204082,-0.002169 0.0204082,-0.002865 0.0204082,-0.003454 0.0204082,-0.003852 0.0204082,-0.004401 0.0204082,-0.00385 0.0204082,-0.003462 0.0204082,-0.002928 0.0204082,-0.002341 0.0204082,-0.001944 0.0204082,-0.001271 0.0204082,-8.6975e-4 0.0204082,-5.1355e-4 M 0,0.68651479 l 0.02040816,4.82e-6 0.02040817,7.587e-5 0.02040816,2.8811e-4 0.02040816,6.6155e-4 0.02040817,0.001266 0.0204082,0.001625 0.0204082,0.001943 0.0204082,0.002083 0.0204082,0.00205 0.0204082,0.002075 0.0204082,0.001673 0.0204082,0.001481 0.0204082,0.001334 0.0204082,0.001226 0.0204082,0.001251 0.0204082,0.001031 0.0204082,9.1059e-4 0.0204082,7.5916e-4 0.0204082,6.0346e-4 0.0204082,5.0116e-4 0.0204082,3.5581e-4 0.0204082,3.2742e-4 0.0204082,3.7529e-4 0.0204082,5.1125e-4 0.0204082,8.0992e-4 0.0204082,0.001009 0.0204082,0.00126 0.0204082,0.001432 0.0204082,0.001464 0.0204082,0.001429 0.0204082,9.3067e-4 0.0204082,4.3897e-4 0.0204082,-1.4759e-4 0.0204082,-7.8531e-4 0.0204082,-0.001635 0.0204082,-0.002193 0.0204082,-0.002848 0.0204082,-0.003425 0.0204082,-0.003849 0.0204082,-0.004463 0.0204082,-0.003985 0.0204082,-0.003672 0.0204082,-0.003197 0.0204082,-0.002643 0.0204082,-0.002276 0.0204082,-0.00154 0.0204082,-0.001081 0.0204082,-6.4991e-4 M 0,0.69905477 l 0.02040816,-7.088e-5 0.02040817,-1.2354e-4 0.02040816,2.26e-6 0.02040816,3.451e-4 0.02040817,9.5839e-4 0.0204082,0.001447 0.0204082,0.001908 0.0204082,0.002209 0.0204082,0.002323 0.0204082,0.002498 0.0204082,0.002101 0.0204082,0.001881 0.0204082,0.001645 0.0204082,0.001406 0.0204082,0.001279 0.0204082,9.1625e-4 0.0204082,7.0063e-4 0.0204082,5.0431e-4 0.0204082,3.5665e-4 0.0204082,2.9101e-4 0.0204082,2.4933e-4 0.0204082,3.0991e-4 0.0204082,4.3682e-4 0.0204082,6.3227e-4 0.0204082,9.8039e-4 0.0204082,0.001168 0.0204082,0.001395 0.0204082,0.001519 0.0204082,0.001486 0.0204082,0.001367 0.0204082,7.9966e-4 0.0204082,2.5651e-4 0.0204082,-3.5091e-4 0.0204082,-9.7588e-4 0.0204082,-0.001795 0.0204082,-0.002279 0.0204082,-0.002882 0.0204082,-0.003428 0.0204082,-0.003851 0.0204082,-0.004498 0.0204082,-0.004067 0.0204082,-0.003807 0.0204082,-0.003377 0.0204082,-0.002851 0.0204082,-0.002509 0.0204082,-0.00173 0.0204082,-0.001232 0.0204082,-7.4738e-4 M 0,0.71178262 0.02040816,0.71164641 0.04081633,0.71135025 0.06122449,0.7111042 l 0.02040816,6.827e-5 0.02040817,6.8541e-4 0.0204082,0.001283 0.0204082,0.001865 0.0204082,0.002303 0.0204082,0.002547 0.0204082,0.002855 0.0204082,0.002472 0.0204082,0.002235 0.0204082,0.001927 0.0204082,0.001578 0.0204082,0.001319 0.0204082,8.234e-4 0.0204082,5.161e-4 0.0204082,2.7086e-4 0.0204082,1.2216e-4 0.0204082,8.146e-5 0.0204082,1.3293e-4 0.0204082,2.7574e-4 0.0204082,4.7951e-4 0.0204082,7.3667e-4 0.0204082,0.00114 0.0204082,0.001327 0.0204082,0.001544 0.0204082,0.001634 0.0204082,0.001546 0.0204082,0.001355 0.0204082,7.124e-4 0.0204082,1.0658e-4 0.0204082,-5.4068e-4 0.0204082,-0.001175 0.0204082,-0.001988 0.0204082,-0.002406 0.0204082,-0.002957 0.0204082,-0.003458 0.0204082,-0.003857 0.0204082,-0.004503 0.0204082,-0.004093 0.0204082,-0.003864 0.0204082,-0.003465 0.0204082,-0.002962 0.0204082,-0.002641 0.0204082,-0.001843 0.0204082,-0.001323 0.0204082,-8.0721e-4 M 0,0.72471772 0.02040816,0.7245058 l 0.02040817,-4.9705e-4 0.02040816,-5.367e-4 0.02040816,-2.5966e-4 0.02040817,3.5323e-4 0.0204082,0.001069 0.0204082,0.001781 0.0204082,0.00237 0.0204082,0.00276 0.0204082,0.00322 0.0204082,0.002866 0.0204082,0.002625 0.0204082,0.002251 0.0204082,0.001787 0.0204082,0.001388 0.0204082,7.4074e-4 0.0204082,3.2431e-4 0.0204082,1.398e-5 0.0204082,-1.4725e-4 0.0204082,-1.7229e-4 0.0204082,-2.14e-5 0.0204082,2.1179e-4 0.0204082,5.05e-4 0.0204082,8.3921e-4 0.0204082,0.001317 0.0204082,0.001521 0.0204082,0.001741 0.0204082,0.001809 0.0204082,0.001671 0.0204082,0.001404 0.0204082,6.5919e-4 0.0204082,-3.92e-5 0.0204082,-7.5952e-4 0.0204082,-0.001432 0.0204082,-0.002263 0.0204082,-0.002609 0.0204082,-0.003092 0.0204082,-0.003523 0.0204082,-0.003867 0.0204082,-0.004482 0.0204082,-0.004074 0.0204082,-0.003866 0.0204082,-0.003498 0.0204082,-0.003023 0.0204082,-0.002728 0.0204082,-0.001924 0.0204082,-0.001392 0.0204082,-8.5437e-4 M 0,0.73823984 0.02040816,0.73794793 0.04081633,0.73723774 0.06122449,0.7363904 l 0.02040816,-6.156e-4 0.02040817,-1.953e-5 0.0204082,8.0887e-4 0.0204082,0.001643 0.0204082,0.002376 0.0204082,0.002909 0.0204082,0.00352 0.0204082,0.003213 0.0204082,0.002983 0.0204082,0.002562 0.0204082,0.002004 0.0204082,0.001482 0.0204082,6.904e-4 0.0204082,1.6557e-4 0.0204082,-2.1672e-4 0.0204082,-4.0274e-4 0.0204082,-4.2823e-4 0.0204082,-1.928e-4 0.0204082,1.1996e-4 0.0204082,4.98e-4 0.0204082,9.1206e-4 0.0204082,0.001475 0.0204082,0.001716 0.0204082,0.001964 0.0204082,0.002032 0.0204082,0.00186 0.0204082,0.001532 0.0204082,6.7043e-4 0.0204082,-1.4199e-4 0.0204082,-9.6575e-4 0.0204082,-0.001708 0.0204082,-0.002588 0.0204082,-0.002867 0.0204082,-0.003278 0.0204082,-0.00362 0.0204082,-0.003884 0.0204082,-0.004438 0.0204082,-0.004013 0.0204082,-0.003814 0.0204082,-0.003474 0.0204082,-0.003032 0.0204082,-0.002767 0.0204082,-0.001973 0.0204082,-0.001438 0.0204082,-8.8795e-4 M 0,0.75250488 l 0.02040816,-3.7854e-4 0.02040817,-9.4188e-4 0.02040816,-0.001187 0.02040816,-0.001011 0.02040817,-4.4568e-4 0.0204082,4.9109e-4 0.0204082,0.001439 0.0204082,0.00231 0.0204082,0.002985 0.0204082,0.003742 0.0204082,0.003498 0.0204082,0.003296 0.0204082,0.002848 0.0204082,0.002218 0.0204082,0.001596 0.0204082,6.7207e-4 0.0204082,4.474e-5 0.0204082,-4.1212e-4 0.0204082,-6.3299e-4 0.0204082,-6.744e-4 0.0204082,-3.7357e-4 0.0204082,3.18e-6 0.0204082,4.5626e-4 0.0204082,9.487e-4 0.0204082,0.001602 0.0204082,0.001903 0.0204082,0.002204 0.0204082,0.002299 0.0204082,0.002116 0.0204082,0.001745 0.0204082,7.5467e-4 0.0204082,-1.8984e-4 0.0204082,-0.001145 0.0204082,-0.001988 0.0204082,-0.002946 0.0204082,-0.003172 0.0204082,-0.003509 0.0204082,-0.003749 0.0204082,-0.003913 0.0204082,-0.004383 0.0204082,-0.003924 0.0204082,-0.003727 0.0204082,-0.003413 0.0204082,-0.003008 0.0204082,-0.002779 0.0204082,-0.002005 0.0204082,-0.001475 0.0204082,-9.1613e-4 M 0,0.76753675 0.02040816,0.7670642 l 0.02040817,-0.001194 0.02040816,-0.001559 0.02040816,-0.001447 0.02040817,-9.2612e-4 0.0204082,1.1656e-4 0.0204082,0.001171 0.0204082,0.002175 0.0204082,0.002988 0.0204082,0.003886 0.0204082,0.00372 0.0204082,0.003558 0.0204082,0.003102 0.0204082,0.002419 0.0204082,0.001719 0.0204082,6.7941e-4 0.0204082,-4.015e-5 0.0204082,-5.693e-4 0.0204082,-8.3093e-4 0.0204082,-9.0025e-4 0.0204082,-5.5401e-4 0.0204082,-1.3084e-4 0.0204082,3.8395e-4 0.0204082,9.4907e-4 0.0204082,0.001695 0.0204082,0.002075 0.0204082,0.00245 0.0204082,0.002598 0.0204082,0.002425 0.0204082,0.002034 0.0204082,9.0907e-4 0.0204082,-1.7917e-4 0.0204082,-0.001288 0.0204082,-0.002257 0.0204082,-0.003319 0.0204082,-0.003505 0.0204082,-0.003772 0.0204082,-0.003904 0.0204082,-0.003955 0.0204082,-0.004326 0.0204082,-0.003822 0.0204082,-0.00362 0.0204082,-0.003332 0.0204082,-0.002968 0.0204082,-0.002779 0.0204082,-0.00203 0.0204082,-0.001508 0.0204082,-9.4338e-4 M 0,0.78290079 l 0.02040816,-5.5876e-4 0.02040817,-0.001425 0.02040816,-0.001901 0.02040816,-0.001851 0.02040817,-0.001377 0.0204082,-2.4453e-4 0.0204082,8.9814e-4 0.0204082,0.002012 0.0204082,0.002942 0.0204082,0.003955 0.0204082,0.003865 0.0204082,0.003745 0.0204082,0.003291 0.0204082,0.002577 0.0204082,0.001825 0.0204082,6.9933e-4 0.0204082,-9.013e-5 0.0204082,-6.773e-4 0.0204082,-9.7583e-4 0.0204082,-0.001076 0.0204082,-7.0438e-4 0.0204082,-2.5437e-4 0.0204082,3.0265e-4 0.0204082,9.244e-4 0.0204082,0.00175 0.0204082,0.002208 0.0204082,0.002663 0.0204082,0.002873 0.0204082,0.002726 0.0204082,0.002332 0.0204082,0.001091 0.0204082,-1.2559e-4 0.0204082,-0.001378 0.0204082,-0.002471 0.0204082,-0.003639 0.0204082,-0.003803 0.0204082,-0.004015 0.0204082,-0.004054 0.0204082,-0.004002 0.0204082,-0.004282 0.0204082,-0.003732 0.0204082,-0.003523 0.0204082,-0.003257 0.0204082,-0.00293 0.0204082,-0.002778 0.0204082,-0.002054 0.0204082,-0.001538 0.0204082,-9.6819e-4 M 0,0.79888858 l 0.02040816,-6.5703e-4 0.02040817,-0.001689 0.02040816,-0.002292 0.02040816,-0.002314 0.02040817,-0.001898 0.0204082,-6.6837e-4 0.0204082,5.6673e-4 0.0204082,0.001798 0.0204082,0.002852 0.0204082,0.003984 0.0204082,0.003981 0.0204082,0.00391 0.0204082,0.003468 0.0204082,0.00273 0.0204082,0.001933 0.0204082,7.2875e-4 0.0204082,-1.2666e-4 0.0204082,-7.7105e-4 0.0204082,-0.001109 0.0204082,-0.001246 0.0204082,-8.5941e-4 0.0204082,-3.92e-4 0.0204082,2.003e-4 0.0204082,8.7674e-4 0.0204082,0.001785 0.0204082,0.002337 0.0204082,0.002889 0.0204082,0.003181 0.0204082,0.003076 0.0204082,0.002696 0.0204082,0.00133 0.0204082,-2.771e-5 0.0204082,-0.001443 0.0204082,-0.002682 0.0204082,-0.003977 0.0204082,-0.004129 0.0204082,-0.004288 0.0204082,-0.004228 0.0204082,-0.004064 0.0204082,-0.004242 0.0204082,-0.003638 0.0204082,-0.00342 0.0204082,-0.003179 0.0204082,-0.002893 0.0204082,-0.002782 0.0204082,-0.002083 0.0204082,-0.001575 0.0204082,-9.9775e-4 M 0,0.81491247 l 0.02040816,-7.4721e-4 0.02040817,-0.001931 0.02040816,-0.002651 0.02040816,-0.00274 0.02040817,-0.00238 0.0204082,-0.001064 0.0204082,2.5097e-4 0.0204082,0.001584 0.0204082,0.002745 0.0204082,0.003978 0.0204082,0.004054 0.0204082,0.004029 0.0204082,0.003601 0.0204082,0.002849 0.0204082,0.002022 0.0204082,7.5699e-4 0.0204082,-1.488e-4 0.0204082,-8.384e-4 0.0204082,-0.00121 0.0204082,-0.00138 0.0204082,-9.8858e-4 0.0204082,-5.1408e-4 0.0204082,1.0136e-4 0.0204082,8.2045e-4 0.0204082,0.001798 0.0204082,0.002439 0.0204082,0.003084 0.0204082,0.003458 0.0204082,0.0034 0.0204082,0.003042 0.0204082,0.00157 0.0204082,8.807e-5 0.0204082,-0.001475 0.0204082,-0.002849 0.0204082,-0.004264 0.0204082,-0.004414 0.0204082,-0.004533 0.0204082,-0.004389 0.0204082,-0.004126 0.0204082,-0.004214 0.0204082,-0.00356 0.0204082,-0.003334 0.0204082,-0.003114 0.0204082,-0.002864 0.0204082,-0.002789 0.0204082,-0.002113 0.0204082,-0.001611 0.0204082,-0.001026 M 0,0.83057614 l 0.02040816,-8.2009e-4 0.02040817,-0.002127 0.02040816,-0.002941 0.02040816,-0.003085 0.02040817,-0.002771 0.0204082,-0.001387 0.0204082,-9.45e-6 0.0204082,0.001402 0.0204082,0.002647 0.0204082,0.003957 0.0204082,0.004097 0.0204082,0.004108 0.0204082,0.003694 0.0204082,0.002933 0.0204082,0.002086 0.0204082,7.7938e-4 0.0204082,-1.6152e-4 0.0204082,-8.8337e-4 0.0204082,-0.00128 0.0204082,-0.001477 0.0204082,-0.001085 0.0204082,-6.0946e-4 0.0204082,1.976e-5 0.0204082,7.6908e-4 0.0204082,0.001799 0.0204082,0.002512 0.0204082,0.003234 0.0204082,0.003677 0.0204082,0.003661 0.0204082,0.003327 0.0204082,0.001773 0.0204082,1.9543e-4 0.0204082,-0.001484 0.0204082,-0.002968 0.0204082,-0.004481 0.0204082,-0.004636 0.0204082,-0.004727 0.0204082,-0.004519 0.0204082,-0.004179 0.0204082,-0.004198 0.0204082,-0.003504 0.0204082,-0.003271 0.0204082,-0.003067 0.0204082,-0.002845 0.0204082,-0.002799 0.0204082,-0.00214 0.0204082,-0.001641 0.0204082,-0.001049 M 0,0.84552068 l 0.02040816,-8.669e-4 0.02040817,-0.002253 0.02040816,-0.003127 0.02040816,-0.003307 0.02040817,-0.003023 0.0204082,-0.001595 0.0204082,-1.7864e-4 0.0204082,0.001283 0.0204082,0.00258 0.0204082,0.003938 0.0204082,0.004118 0.0204082,0.004153 0.0204082,0.003747 0.0204082,0.002982 0.0204082,0.002124 0.0204082,7.9308e-4 0.0204082,-1.6803e-4 0.0204082,-9.0868e-4 0.0204082,-0.00132 0.0204082,-0.001534 0.0204082,-0.001143 0.0204082,-6.6856e-4 0.0204082,-3.247e-5 0.0204082,7.3442e-4 0.0204082,0.001797 0.0204082,0.002555 0.0204082,0.003327 0.0204082,0.003815 0.0204082,0.003829 0.0204082,0.003512 0.0204082,0.001907 0.0204082,2.6969e-4 0.0204082,-0.001484 0.0204082,-0.003039 0.0204082,-0.004615 0.0204082,-0.004775 0.0204082,-0.004849 0.0204082,-0.004602 0.0204082,-0.004215 0.0204082,-0.00419 0.0204082,-0.003471 0.0204082,-0.003234 0.0204082,-0.003039 0.0204082,-0.002835 0.0204082,-0.002808 0.0204082,-0.002158 0.0204082,-0.001661 0.0204082,-0.001065"
         inkscape:connector-curvature="0" />
    </g>
  </g>
  <g
     inkscape:label="Hershey Text"
     style="fill:none;stroke:#000000;stroke-linecap:round;stroke-linejoin:round"
     transform="matrix(2.5877397,0,0,2.5877397,578.19766,886.98668)"
     id="g5012" />
  <g
     id="g5057"
     transform="matrix(1.9985256,0,0,1.9985256,609.67726,877.65071)"
     style="fill:none;stroke:#000000;stroke-linecap:round;stroke-linejoin:round"
     inkscape:label="Hershey Text">
    <path
       id="path5059"
       transform="translate(11,0)"
       d="M -7,-12 -7,9 M -7,-12 7,9 M 7,-12 7,9"
       inkscape:connector-curvature="0" />
    <path
       id="path5061"
       transform="translate(38,0)"
       d="m -6,-7 0,-1 1,-2 1,-1 2,-1 4,0 2,1 1,1 1,2 0,2 L 5,-4 3,-1 -7,9 7,9"
       inkscape:connector-curvature="0" />
  </g>
</svg>
