<svg height="8.5in" viewBox="-0.21253404028499717 0.1953983956464388 1.4301881404878962 1.1051453812861016" width="11in" xmlns="http://www.w3.org/2000/svg" xmlns:inkscape="http://www.inkscape.org/namespaces/inkscape"><g inkscape:groupmode="layer" inkscape:label="0-layer"><path d="M 0.5 0.7537903085806354 L 0.4862308749316467 0.7595266772788711 L 0.5017991557821325 0.7314942981927666 L 0.4982766503779055 0.7802453365256599 L 0.5163000082965254 0.7272565190165499 L 0.4655941347381403 0.7568055861630284 L 0.527386277545729 0.7820720994052774 L 0.5165272160502934 0.715922253443803 L 0.455835018672115 0.7394726923520132 L 0.4987447737269133 0.8003379915284154 L 0.5500188380350176 0.7527143451280094 L 0.5010982636668974 0.7013431114605055 L 0.4456339072312619 0.7376115618189157 L 0.4836504453609563 0.8063747992401205 L 0.5516960090229871 0.7823237076508316 L 0.5428333666133168 0.7104102374206841 L 0.4703134486248468 0.6944239948661399 L 0.4354240078430418 0.7512906345835125 L 0.48394722934286194 0.816896969155908 L 0.5546102808016273 0.7955948979863094 L 0.5631145184702054 0.7204536966568656 L 0.5003124925235085 0.6813088836935188 L 0.43499920434601774 0.7063389655761722 L 0.43510709450812335 0.7814124824762957 L 0.4999233478170835 0.8303905046283233 L 0.5666900096532415 0.7949330441859281 L 0.5737662935514924 0.7183314141530882 L 0.515428336738625 0.673642689226216 L 0.4423970982223622 0.6837630944557745 L 0.41541384401535797 0.7468790910806293 L 0.4557004733964027 0.8210987278465494 L 0.5312956070973789 0.8369194257351213 L 0.5848873731211702 0.777476267074473 L 0.5774848495850184 0.7034885699143169 L 0.5149117256497617 0.6633545801066287 L 0.4408790413913645 0.6719515306927225 L 0.40521699964289487 0.7287917181005267 L 0.43090015249305136 0.8090722107067247 L 0.5010240740520302 0.85128679381547 L 0.5716535437518189 0.8189622874746495 L 0.6000005947408946 0.7412559056664364 L 0.5696665246014964 0.6788907322123494 L 0.4986614235153612 0.6504029879343378 L 0.42738598384207604 0.6654388563341531 L 0.395158593399476 0.7263361454806432 L 0.41905104697716095 0.8053676595076447 L 0.48599866611278525 0.8580938323354014 L 0.5610521898000626 0.8420318386402457 L 0.6061444889854364 0.7716975466653372 L 0.5991320309580802 0.6976271022923858 L 0.543821320095265 0.6513024083743504 L 0.4669581196735408 0.640571914052627 L 0.40467159137244474 0.6711657739498125 L 0.38546144176787683 0.7395136740710027 L 0.4176786439618499 0.8188243434277036 L 0.48669154884810445 0.8682798445996731 L 0.5622212784780259 0.8531017051251176 L 0.6119362628376133 0.7831061125844251 L 0.6151235902948209 0.7059584910594466 L 0.5707813052399092 0.6522101963962337 L 0.4972462192010739 0.6304132515819356 L 0.42410927422408423 0.6420252107954603 L 0.38014102507035524 0.6936111462147538 L 0.3821799195758494 0.7709086215514922 L 0.4291554825771309 0.8443559817839132 L 0.5031468680260496 0.8812677701439757 L 0.5766204823239618 0.8541204293460629 L 0.6228064979042464 0.7791857362699988 L 0.6252858731912767 0.7018065116588765 L 0.5834438262271939 0.6476572619676185 L 0.5121443434798131 0.6225887698817537 L 0.43609343293090247 0.625153343725754 L 0.381126853226674 0.6651700626344925 L 0.36552360947227136 0.7342607413754497 L 0.39421317390992977 0.8163163181184195 L 0.4575958507103305 0.8768931296177682 L 0.5350900014579008 0.887947868004584 L 0.6020106412843583 0.8385301236055206 L 0.637435398845023 0.7595780503670863 L 0.6305675444635734 0.6822978003052133 L 0.5837327161003806 0.6351133836587229 L 0.5112864991351169 0.6124600989813154 L 0.4349776785130444 0.6144898543561902 L 0.3773217077702553 0.6485228272039529 L 0.3550191094494949 0.7158894310079748 L 0.3743117270087153 0.7981207142243869 L 0.4294996227198762 0.8681369802303129 L 0.5048762897955361 0.9012362927727104 L 0.5793729739559308 0.8763256848885799 L 0.6325004642766624 0.8031234986738002 L 0.6499082040602888 0.7233158797120337 L 0.6270831017822474 0.6567718871887334 L 0.5702923075946154 0.6165065582758649 L 0.49465209858961195 0.6004605987752796 L 0.4199607637655068 0.6059436019952789 L 0.36547380141603364 0.6453536527198911 L 0.3450034516022965 0.7131945088927443 L 0.36356574351807447 0.7959058673537387 L 0.4163438766885672 0.8691223840947779 L 0.4901214017572612 0.909966207408095 L 0.5667250391774997 0.8958172806804104 L 0.627553873490577 0.8330209326988387 L 0.6580594854426505 0.7492681254687796 L 0.6511128362776957 0.6717553858864053 L 0.6085114616418356 0.6250334394871381 L 0.5403532174336239 0.5972326024274566 L 0.4625102950015346 0.5901157782918773 L 0.3928607792826498 0.6070590788365581 L 0.34718422635900803 0.6528937511592765 L 0.3356583427309495 0.7262398885805605 L 0.36071373060654854 0.810819950764286 L 0.41666666666666335 0.8810716607367091 L 0.4911401775330846 0.9200560591876192 L 0.5678949688673 0.9062293702246261 L 0.630406344441111 0.8417849900773331 L 0.6653953625521107 0.7589330282669858 L 0.6655691189018768 0.6810219908801847 L 0.6310253935212526 0.6244186344935398 L 0.5690796477779775 0.5950836462184381 L 0.49260870268879 0.5805158483846988 L 0.4173045126965762 0.5844922438022231 L 0.35843488744447916 0.6159622205459672 L 0.32778068719249653 0.676559406330663 L 0.33135429829578733 0.7581982730989809 L 0.36832310310199506 0.8376773238386515 L 0.43130665374546573 0.9050681111459677 L 0.5079413704373426 0.9311532608737207 L 0.5833661092128053 0.9067119187833177 L 0.6431200129925552 0.8378339200016043 L 0.6758869798128442 0.7527841004057555 L 0.6755736552835141 0.6747985036049159 L 0.6423540235209138 0.6185152806895098 L 0.5825209847493764 0.5872408710827363 L 0.5072120827955481 0.5715189184333884 L 0.4302801456076886 0.5728086660388879 L 0.36572426245700684 0.5951877883117402 L 0.325159333653299 0.6472149002193708 L 0.3157765632306067 0.7209022207612814 L 0.3391420921722139 0.8028792271341352 L 0.39101930656313894 0.8820551125448273 L 0.4622135589724108 0.9318831043800428 L 0.5402599771100892 0.9376576116103968 L 0.6116360488333239 0.8933352821958127 L 0.6641026150318423 0.815306690440339 L 0.6887699486170059 0.730683782290408 L 0.6815472874320527 0.6529681015177569 L 0.6437506507840599 0.6044165448272893 L 0.5817927724619022 0.5756947014174917 L 0.5060341586146383 0.5614594402934732 L 0.4290097297800932 0.559956317053854 L 0.3633400204353876 0.5833662769239781 L 0.3196761190819063 0.6297125339579391 L 0.30500958934884564 0.7026060241873926 L 0.321608222226316 0.7864591537085027 L 0.36672939333717636 0.8648033763726843 L 0.4331341852446009 0.9273351527720186 L 0.5102984755408346 0.9516497727630193 L 0.5861116832710155 0.9276605025015406 L 0.6487852132096128 0.8622838808981997 L 0.6886697303349242 0.7753858821687856 L 0.6997046304741701 0.692337097822628 L 0.6802885722716028 0.6224116380277874 L 0.6334548692006848 0.5837118261997429 L 0.5663442497187761 0.5616743818125873 L 0.48907305988190336 0.5494748356429937 L 0.41318181919529673 0.5530622131682645 L 0.3499051256480544 0.5756329227925774 L 0.30852235191698263 0.6269107164973361 L 0.2950283474788338 0.700075740062402 L 0.3113091044368858 0.784071691109739 L 0.3549283932295202 0.8637314567317331 L 0.4195401536060398 0.9273025110710729 L 0.4958515068235226 0.9602954887582347 L 0.5729853611934037 0.9457776565521023 L 0.6400398405766468 0.8850628346605075 L 0.6876204184833329 0.8033192636714207 L 0.7091313874173218 0.7164125117406699 L 0.7016532925781165 0.6386198840495501 L 0.666295462775774 0.5912636885837609 L 0.6079882573380846 0.5623961094897182 L 0.5347572661963439 0.5452550879359765 L 0.45659081729828593 0.5383200370260883 L 0.38406376866008207 0.5483562215267132 L 0.32690846491048176 0.5802489783219592 L 0.29272514940819183 0.6392047515345068 L 0.28599992055334933 0.7132709520573222 L 0.30755272966945174 0.7960180025059953 L 0.354477785450113 0.877174379222776 L 0.42057249933187124 0.9413116535541175 L 0.4971876369681298 0.9703285003832227 L 0.5743787420341124 0.9559028134329957 L 0.642203520531965 0.8964202451979068 L 0.6919955818049738 0.8106511174438058 L 0.7174527352169066 0.7243664582161681 L 0.7154061019192663 0.6462021730640601 L 0.6861803061525105 0.5917553232653013 L 0.6335088313383002 0.5577772277380704 L 0.5640251707713907 0.5398342283769835 L 0.486402542807359 0.5295872615996811 L 0.4102563946939619 0.5324695827921959 L 0.34494998582771397 0.5522496304994218 L 0.298451399418985 0.5963585154365622 L 0.2763800634788652 0.6638095962188904 L 0.28135418430345943 0.7456243193645111 L 0.3127112247396031 0.8286695258451409 L 0.366626866342605 0.9037187911503394 L 0.4366096246226142 0.9601007783397855 L 0.514304234499385 0.9814809584526409 L 0.5905021492619026 0.9563616926937685 L 0.6562357643635224 0.8929566055638105 L 0.7038263713385662 0.8037577133427967 L 0.7277646036022216 0.7164184280698116 L 0.725324698825079 0.6382301046307797 L 0.6968471824506569 0.5842777553464842 L 0.6456643737324275 0.5505894212141352 L 0.5776846483912043 0.5324277735034304 L 0.5006898687464025 0.521326767375097 L 0.42343155412782973 0.5194443736559095 L 0.35463194347558974 0.5343468421343368 L 0.30200414555692845 0.5736194894004671 L 0.2714006047753286 0.634262176621724 L 0.26618212388147044 0.7085895430840643 L 0.286872965581125 0.7915493862038907 L 0.33113437723920114 0.875007388097948 L 0.39405310697033347 0.9424261081396219 L 0.4687071050515302 0.9837695308597061 L 0.546941329324965 0.9873088307911366 L 0.6202654041112914 0.9438780439074783 L 0.6807738396201926 0.8667443233932193 L 0.7219894603841426 0.7755767535463742 L 0.7395412672653072 0.6925211229200585 L 0.7316076980623795 0.6146665175748462 L 0.6990827677881541 0.5691866056131591 L 0.6454528431962642 0.53766401104333 L 0.5764025326859673 0.5213794296226747 L 0.49919611923223456 0.5104324077841805 L 0.4219033031362669 0.5094100542024772 L 0.35255260908056774 0.5233410845347746 L 0.29830138202612644 0.5573490720638152 L 0.2647075563688739 0.6167262333694419 L 0.25517600526082984 0.690690793913464 L 0.27063279363767245 0.7748862525564337 L 0.3094562702382809 0.8542196069033555 L 0.3676672621179842 0.9287334432527891 L 0.439354440832408 0.9816242325821841 L 0.5172878303727779 1.001334752075612 L 0.5936556411205058 0.976688573125781 L 0.6608487540895062 0.9107580598338396 L 0.7122141155249956 0.823013832665672 L 0.7427031031168759 0.7306156506987883 L 0.7493528842577711 0.6526143104629805 L 0.7315565181686965 0.5833259956949208 L 0.6910991540546492 0.542002350234789 L 0.631960930508946 0.5202453533231579 L 0.5599097844672647 0.5086355914084708 L 0.4819271675218467 0.4998067497428996 L 0.40552482181560123 0.4990273594430563 L 0.338019969534454 0.5147341640094951 L 0.2858388129989372 0.5541824219823763 L 0.2539140764581875 0.614447955563772 L 0.24523203287920659 0.6886292295014748 L 0.26056919485574226 0.772767120227263 L 0.2984401845511714 0.8526171176630956 L 0.35525807734303594 0.9289187474664227 L 0.4256886676509813 0.9855242449139605 L 0.5031624670617554 1.0112476519565115 L 0.5804943853843632 0.9942442090407778 L 0.6505521374462846 0.9360600833074872 L 0.7069111430332955 0.8545736661296277 L 0.7444361880807637 0.75923314731527 L 0.7597380043879891 0.6752797568735149 L 0.7514653374963721 0.5974086282028667 L 0.7204087600454776 0.546405083115354 L 0.6694099461698757 0.5221929544527084 L 0.6030877338879567 0.5037202991173423 L 0.5274084855469533 0.4937998901062491 L 0.44914160571866235 0.4866840615996674 L 0.37525048085507495 0.4923254078035328 L 0.31227383812273624 0.5170519521171217 L 0.265752289221744 0.5611617872895802 L 0.23974978130648328 0.6240861651785965 L 0.23651039120668266 0.7023389393595871 L 0.2562782942768299 0.785350711448208 L 0.2972939999324517 0.8671204700434375 L 0.3559644066492659 0.9414337863157156 L 0.4271892538359926 0.9964093135972716 L 0.5048134115676473 1.0212313363543648 L 0.5821642313069268 1.0042056514490028 L 0.6526266797414324 0.9467929006142821 L 0.7102066518591896 0.8602560844154544 L 0.7500347985248682 0.7653516164736628 L 0.768769134595686 0.6820105289192839 L 0.7648640137161633 0.6037773208978572 L 0.7386848954807059 0.5513319635612909 L 0.6924616337132583 0.5137967780448112 L 0.6300866333153105 0.49595111806398157 L 0.5567770161464273 0.4873580392193992 L 0.4786308633881545 0.4785479105537144 L 0.4021158062547161 0.47890856406228915 L 0.3335331107502798 0.4928135638334623 L 0.27850162806719647 0.525882011572284 L 0.24150355028781978 0.5838394786345668 L 0.22552811006415718 0.6534251523255998 L 0.23184074753180356 0.7350231905342077 L 0.25989460513209883 0.8153969619918487 L 0.3073894126058351 0.8965366386060482 L 0.3704708677646428 0.9686447459163061 L 0.4440524670817273 1.0159168894406032 L 0.5222322661484837 1.031353096322384 L 0.5987699684528516 1.0068686370043585 L 0.6675855569393014 0.9436453707791765 L 0.7232396583159476 0.8532690199600501 L 0.7613579703907224 0.7566360010969463 L 0.7789671439049157 0.6729319634084903 L 0.7747170258363374 0.5946973628695512 L 0.7489734949860211 0.5424892309392981 L 0.7037764831679765 0.5050948733942213 L 0.6426683466352089 0.48757177077969144 L 0.570407708547849 0.47782617632619667 L 0.49259247973978837 0.4704978230453276 L 0.415222352605405 0.46681095931144617 L 0.34423519245955714 0.476749779978527 L 0.28505316322376933 0.5055219009012684 L 0.24217307481041772 0.5562497029950968 L 0.2188314943787224 0.6205149950284301 L 0.21676898144829093 0.6988464677741247 L 0.23610990616569855 0.7817184614493222 L 0.27536532538899106 0.8642331901017806 L 0.33155702229676565 0.9415518924111624 L 0.400451772344354 1.0028800765548336 L 0.4768868494116352 1.0366904803896102 L 0.5551613076829461 1.035925153436077 L 0.6294631126580785 0.9956272465747383 L 0.694300033691633 0.9183687034091701 L 0.7449024585826431 0.8258661257557223 L 0.777568876040936 0.7328334621617114 L 0.789929452803334 0.6480282493930937 L 0.7811095200573994 0.5701585580806154 L 0.7517823752395314 0.5195414953952681 L 0.7041090218794945 0.49110176316589027 L 0.641570702724678 0.475386523309118 L 0.5687077346224857 0.46852111568304333 L 0.49078468877485737 0.460538986276451 L 0.4134069318356471 0.45691086193524444 L 0.3421166296738293 0.46623416673174983 L 0.2819973368319497 0.493932378987731 L 0.23731522260895427 0.5398705508994496 L 0.21122194047848208 0.6068348033321659 L 0.20553938911119762 0.6816588915267897 L 0.2206405132864377 0.7653382251092611 L 0.25543330958048927 0.8463092799667691 L 0.30744784400842284 0.9237763254845894 L 0.373018879836493 0.9923640902848612 L 0.44755015370676765 1.0369954774949433 L 0.5258408700242883 1.0511285845110954 L 0.6024509638838278 1.0242513848265968 L 0.6720793595375705 0.9599402958944179 L 0.7299289494166454 0.8769341506840678 L 0.7720333345804957 0.7752743032178753 L 0.7955233730250364 0.6856052603743006 L 0.7988160367206951 0.6072917041020904 L 0.7817136474954534 0.5382619809180192 L 0.7454078437626237 0.49801176506453726 L 0.6923891834517484 0.4729297191023684 L 0.6262696640482834 0.46404460474275044 L 0.551531211527119 0.455738585113432 L 0.4732179799126691 0.4488880841330572 L 0.3965938105072861 0.44590192804165996 L 0.32678821563761445 0.45692723314688233 L 0.26845467162828174 0.4866373452913223 L 0.22546383387473612 0.5377259792107945 L 0.20065163325132362 0.6053130390940616 L 0.1956382832263182 0.6803133799267238 L 0.21072930620055447 0.7638119302413524 L 0.24490411982314786 0.8448965670992581 L 0.2958918882018998 0.923122426248276 L 0.36032862689037504 0.9937441442265514 L 0.43398432562851935 1.042044293210365 L 0.5120444500240359 1.0616465344086723 L 0.5894268728131385 1.0438090143593612 L 0.6611132602911396 0.9841100723396756 L 0.7224733057536232 0.9000825446277914 L 0.7695609730236523 0.8092141220386673 L 0.7993640123164503 0.7144546986945906 L 0.8099912772334474 0.6293133442225655 L 0.8007865737974811 0.5514581600726199 L 0.7723626236978012 0.5007457848010959 L 0.7265539027896184 0.47266133200771976 L 0.6662922870741882 0.4577247193477786 L 0.5954142743469919 0.44994731539004884 L 0.5184127512166757 0.4425526772139864 L 0.44014958951999955 0.4375087373441118 L 0.36554759178701823 0.43784672758223275 L 0.29928134263414186 0.4538020735475079 L 0.245486319613827 0.4921705252644327 L 0.20750420928427343 0.5468823993143226 L 0.18767987243836626 0.6163936481929417 L 0.18722198247615246 0.6947958988997798 L 0.20613525187477744 0.7772256911758475 L 0.24322763036372613 0.8601843731190217 L 0.29619119188981646 0.9366788051087584 L 0.3617509151386039 1.0056599511874058 L 0.4358714780961648 1.0526931169580835 L 0.5140087727790338 1.0715797048685616 L 0.591390297773823 1.0514640896432683 L 0.6633070427543428 0.9944485473474274 L 0.7253990158995907 0.9113340698154995 L 0.7739171903465758 0.8141905154536782 L 0.8059463017663226 0.7202628761025749 L 0.8195754972078577 0.6356512990796012 L 0.8140071444840725 0.557439185876008 L 0.7895979496177201 0.505252559884274 L 0.7478306579704401 0.468109229695269 L 0.6912187809900487 0.4465055747099177 L 0.6231507462551886 0.4407933661573296 L 0.5476833824807348 0.43554204920572037 L 0.4692975230688436 0.4274521763407848 L 0.3926305833716836 0.4260990231618368 L 0.32220213020682287 0.4359373365542669 L 0.2621486650830246 0.46370721183947916 L 0.2159830902343794 0.5092059977896582 L 0.18639267993781067 0.572136201386507 L 0.17508695073439084 0.6467242634945168 L 0.18270376846781688 0.7277781475110592 L 0.20877853621348968 0.8080743390117009 L 0.25177758557386676 0.8911679722486479 L 0.3091931638309663 0.9634187606794017 L 0.3776938865785991 1.027247639863514 L 0.4533214090104407 1.0705204138330477 L 0.5317215310326259 1.0806644798515372 L 0.6083961272583921 1.0539594807708579 L 0.6789612746934368 0.991428607796597 L 0.7393967826992995 0.904542323698537 L 0.7862730065347959 0.8054992819740968 L 0.8169422944298002 0.7109897043452135 L 0.8296845818934723 0.6262969286888345 L 0.8237993715339407 0.5480962594602394 L 0.799639458759446 0.49565519094371047 L 0.7585851008208337 0.4583747604669436 L 0.7029606876653789 0.43685084701617827 L 0.6358991692677687 0.431783557343157 L 0.5611623495879653 0.4259333506169714 L 0.4829275185625961 0.41964580065603885 L 0.40555263748577575 0.414576351739368 L 0.33333333333334664 0.4212060108016291 L 0.270265248216114 0.44514158195482606 L 0.219824827712706 0.4835701730632801 L 0.18478045442862873 0.5440465168124553 L 0.16704401748515169 0.6145464145197331 L 0.16757066508458923 0.692971740800261 L 0.18631175300380304 0.7750185140080937 L 0.22222303279229688 0.8578593663844167 L 0.2733270854377524 0.9355637167924679 L 0.3368260658013373 1.004302743620083 L 0.40925813830447433 1.058381961150217 L 0.48668869645621193 1.0888607583665477 L 0.5649256850480362 1.0838674505953618 L 0.6397471714994412 1.042364340199101 L 0.707128795209595 0.9666084065155112 L 0.7634588780012176 0.8709700892639165 L 0.8057297856453824 0.7751800493568627 L 0.8316955362898573 0.6792776613852716 L 0.8399875716574607 0.6012849423439555 L 0.8301829305797972 0.5234674731543163 L 0.8028216618017697 0.4718487017928438 L 0.7593730419031378 0.4435545535478601 L 0.7021528781326816 0.42366771189976377 L 0.6341967318820952 0.420091766207785 L 0.5590961643018175 0.4164685283214562 L 0.4808069666815262 0.40973940517292473 L 0.4034397034828794 0.4047790346555087 L 0.33104370171562386 0.4110154409884073 L 0.26739583345967366 0.43043428380859705 L 0.2158050570094991 0.4716317734160719 L 0.17894273557111762 0.528173872483579 L 0.15870729870535766 0.5983231555212403 L 0.15612993406059522 0.6767180850520429 L 0.17132579908106765 0.7592984563210603 L 0.20349284270107137 0.8401911047732181 L 0.2509578522242425 0.9201563924717151 L 0.3112669189452353 0.9929450882741434 L 0.38131527091912076 1.0534704223781897 L 0.457509464741488 1.0912867709912357 L 0.5359533556925896 1.1003471639979465 L 0.6126481513007338 1.0707007797944268 L 0.6836962468889611 1.0066075404176775 L 0.7454984659403532 0.9199017682411632 L 0.7949347788381572 0.8222979144915806 L 0.829519519866879 0.7297129296494542 L 0.8475235089977025 0.6391582952137219 L 0.8480572354259038 0.5607180015923778 L 0.831111280627183 0.4911412467985837 L 0.7975523444602115 0.449602493948661 L 0.7490754767333037 0.42462157425734676 L 0.6881152961074831 0.41363018769548954 L 0.6177209905502024 0.40982854876122077 L 0.5414016412537335 0.4043917572360307 L 0.46294981225760046 0.3979283323528374 L 0.38625233683629123 0.3933630264081936 L 0.31509776633752007 0.401207212259902 L 0.25299000800188975 0.4265175379552657 L 0.20297726944292643 0.46944760141467035 L 0.16750457599540142 0.5271819401640381 L 0.1482968813762761 0.5978966954861961 L 0.14627821884895992 0.6763174021817581 L 0.16153052101527954 0.7586071956600339 L 0.19329376376602092 0.8393459825500484 L 0.24000706201283045 0.9194834541494861 L 0.29938836085918563 0.9894324498590346 L 0.36854852132303034 1.0524437085689389 L 0.44413398174497665 1.0972901713391014 L 0.5224908593732202 1.111498551128565 L 0.5998424003240628 1.0906545980141977 L 0.6724711308938264 1.0301068926392702 L 0.7368969298476784 0.9484270749259991 L 0.7900425300924871 0.8470698507438447 L 0.8293786491350581 0.7570137513872598 L 0.853042002154522 0.661177639007893 L 0.8599208139314619 0.58302870938177 L 0.8497040471004152 0.5120772116515461 L 0.8228923248526587 0.452550565121828 L 0.780770360682693 0.41601272045700255 L 0.7253425283191158 0.40344659644616665 L 0.6592349259605025 0.4011777969194958 L 0.5855688307740039 0.39734626678860663 L 0.5078117324320964 0.39146320010577546 L 0.42961312118825257 0.3836439918154249 L 0.3546328447919238 0.38439711069609905 L 0.2863701145097385 0.39685337752080607 L 0.22800112652302112 0.42731842670954356 L 0.1822327816796832 0.4779301838332575 L 0.15117916163817252 0.5413404941669493 L 0.13626629589790012 0.6133041720824288 L 0.13816938824261255 0.6917364674248028 L 0.15678512921158932 0.7730085091654015 L 0.19124007689759082 0.8552500298047107 L 0.239934418738177 0.9302850447137264 L 0.3006188090513505 1.0060865355199464 L 0.37050048431683136 1.0674085861118323 L 0.4463735571857488 1.1077641773176787 L 0.5247673376806739 1.1213768702743434 L 0.6021057705686881 1.0978400777006156 L 0.6748706419702803 1.0401711709212458 L 0.7397611112463672 0.9591523515014482 L 0.7938423658265044 0.8586591816289624 L 0.8346767613189288 0.7622950942275302 L 0.8604316670466748 0.6677603851659903 L 0.8699593453983108 0.5898816099763956 L 0.8628454987694749 0.5117451690337799 L 0.8394245590746798 0.4572797558624698 L 0.8007613053512738 0.41090128010775107 L 0.7485999063049875 0.39644760006345836 L 0.6852829292208225 0.3884936841449347 L 0.613644170959557 0.38729580729131097 L 0.5368802940260082 0.3841458839110364 L 0.45840714335616933 0.37635064962312137 L 0.38170724108426163 0.37380094836623373 L 0.31017528323349425 0.38086131157768033 L 0.2469684835378252 0.4011090538828021 L 0.19486832859799952 0.44267562235542546 L 0.15615974171410446 0.49917575329822633 L 0.13253282875462974 0.5689365169143485 L 0.12501133790196667 0.6447400972839362 L 0.1339107545736522 0.7249957193562419 L 0.15882762843858828 0.8044554971428448 L 0.1986603505490276 0.8838139872570306 L 0.25166022600099125 0.9624219984567361 L 0.31551038084329874 1.0306675756487722 L 0.38742885705260105 1.0872717675875825 L 0.46429123603923483 1.124188801641593 L 0.5427673309446189 1.1294024305082027 L 0.6194659327089146 1.1000442993693744 L 0.6910813052671438 1.0313993348806816 L 0.754535110273554 0.9454150225134197 L 0.8071076985191532 0.8501484397444845 L 0.8465532191476036 0.7533938745039859 L 0.8711937435428311 0.6592210359097547 L 0.8799885434711687 0.5812484169842705 L 0.8725757599363078 0.5031320964584881 L 0.8492849015256851 0.44787038446004235 L 0.8111198663040964 0.4008311832734699 L 0.7597134355699708 0.38594534341304254 L 0.6972553878901442 0.378253381457796 L 0.6263974776898817 0.37774994026417674 L 0.5501394693492627 0.37456926766666987 L 0.4717011772355025 0.36878407633522825 L 0.3943860048070509 0.36268971619509016 L 0.32144178181669486 0.3669818480508438 L 0.25592475789957947 0.3837961587590658 L 0.20057242410692278 0.4219130670703577 L 0.15769041216602953 0.472651911752684 L 0.1290580849873023 0.5383566921332175 L 0.1158566104225035 0.6135326882447731 L 0.11862234001230315 0.6919546143460495 L 0.13722723761068945 0.7726578485980902 L 0.17088696531975894 0.8542356600158882 L 0.2181960839473422 0.9295441492385954 L 0.2771887098950362 1.002936432199086 L 0.3454219355632413 1.0680668750892222 L 0.42007840763028975 1.1182799666979573 L 0.4980837029258265 1.1403304349023315 L 0.5762335740776716 1.131149162608584 L 0.6513257775965894 1.0833401251777233 L 0.7202910576997054 1.00589564176015 L 0.7803179429256395 0.9123771565051281 L 0.8289663132880299 0.821145911482901 L 0.8642651984329089 0.7234409818019203 L 0.8847909490876974 0.635463205628959 L 0.8897227551522134 0.557144267284819 L 0.8788734285880409 0.4853886137349628 L 0.8526943882125064 0.42424668178108893 L 0.812254834552135 0.38534724125727315 L 0.7591961433022894 0.3719253052820527 L 0.6956634939400566 0.3656677881319127 L 0.6242176465904813 0.3664108600236308 L 0.5477305505076859 0.3648777753076461 L 0.4692690821871359 0.3572302642130265 L 0.3919716474912087 0.35298211875613056 L 0.3189226249849353 0.35326314931246344 L 0.25302966960778145 0.37327744166667964 L 0.19690873760464855 0.40740165566293834 L 0.15278134400313348 0.46054836340685623 L 0.12238803901968254 0.5255458977977555 L 0.10692141249689702 0.5983401374170796 L 0.10698113441595103 0.6768175292504126 L 0.12255264779160169 0.7578739105404212 L 0.15301018406569267 0.8375595277371235 L 0.19714380834293777 0.9142100688515039 L 0.2532092604765872 0.9898782043499688 L 0.3189984747723577 1.0553024531242103 L 0.3919278698309293 1.112739436380566 L 0.4691408306345506 1.1447061290616434 L 0.547620282086581 1.1489777370353298 L 0.6243068954815973 1.116173851255651 L 0.6962182887850783 1.051488888493659 L 0.7605645830672881 0.9594434013814888 L 0.8148558587635222 0.8656493104856893 L 0.8569974074905956 0.7710826268919495 L 0.8853691823210492 0.6790957279069918 L 0.8988864903061784 0.5961861866701699 L 0.8970397193823261 0.5177272699552913 L 0.8799117175352942 0.45270074167185304 L 0.8481723126074546 0.4006016054978282 L 0.8030503424907218 0.3653040499813931 L 0.7462844237707644 0.35527260026043106 L 0.6800544896127177 0.35153810988170053 L 0.606896844797193 0.35685762699847545 L 0.5296060909749135 0.35343112677077604 L 0.4511277466636502 0.34698787213516114 L 0.3744457078853849 0.34125736667772727 L 0.3024688561614518 0.34693234939889733 L 0.237921116606521 0.36553188764763556 L 0.18323910212377287 0.40521380812424057 L 0.14048115837292852 0.4597961445466078 L 0.11125116214659098 0.5257006419888561 L 0.09663984205868736 0.5990311335137508 L 0.09718570836121332 0.6775129473323074 L 0.11285692499356292 0.758192520866373 L 0.14305466070425682 0.8375711674995465 L 0.18663764755941786 0.914082112897889 L 0.24196688472538141 0.9899819127585627 L 0.3069686823790587 1.056442979005697 L 0.3792135721135993 1.112773019063617 L 0.4560080402991131 1.1515270333659458 L 0.5344955895929961 1.1607097687942982 L 0.6117633165763284 1.1337350165302307 L 0.6849500205667904 1.0745297131624 L 0.7513518347993271 0.9871280301766898 L 0.8085214955894464 0.8963351592301255 L 0.8543576315464515 0.7968668256842958 L 0.8871808519957052 0.7067583613857403 L 0.9057939254367491 0.6196810822646295 L 0.9095239450534466 0.5412831034669702 L 0.8982450557278051 0.46883819666681326 L 0.872381040105536 0.40629682854537535 L 0.8328878030844562 0.3651687624452749 L 0.7812165273667998 0.34293005556012457 L 0.7192589708075021 0.3442561766164697 L 0.6492770141896456 0.3465385876838914 L 0.5738191232513776 0.3454727202674348 L 0.4956268420462403 0.34047223220931655 L 0.4175347707363185 0.3323203821487224 L 0.3423676888323058 0.33169066699056937 L 0.272838558596038 0.34177056791453037 L 0.2114510816206408 0.3690613506465138 L 0.16041028820333403 0.4131141834874415 L 0.12154432241714413 0.47120536264462354 L 0.09624015848752282 0.5395504802572605 L 0.08539546271201875 0.6156258508014956 L 0.08938821941833913 0.6940138529763311 L 0.10806509144231058 0.7737191001251063 L 0.14074880902724307 0.8539853125453319 L 0.18626420032824642 0.9291713954953005 L 0.24298181612828718 1.0036649206843498 L 0.3088774842017346 1.0687867013777506 L 0.3816055764380441 1.1273297718307254 L 0.45858330324089086 1.1618618777369614 L 0.5370829805385444 1.1705275440463068 L 0.6143289569564261 1.143399754376384 L 0.6875957502242308 1.084385903465213 L 0.754303926317816 0.9974632507939349 L 0.8121103614096423 0.899951456737871 L 0.8589897503714956 0.8086347642235957 L 0.8933045572432636 0.7136185887913455 L 0.9138610299817589 0.6278345817771314 L 0.9199494079822229 0.5495787476567873 L 0.9113670177945645 0.4715568081260926 L 0.8884235597091308 0.4121251015180724 L 0.851928513876407 0.3614425250768407 L 0.8031612173711189 0.3356837159330609 L 0.7438247615075391 0.32846037604005823 L 0.675985411275569 0.33280906321648035 L 0.601999737324711 0.3348596953295262 L 0.5244320592423272 0.33302566042358994 L 0.44596511368740344 0.3253170462722166 L 0.3693070723626063 0.3184409840196868 L 0.2970981366388208 0.3232811679115086 L 0.23181992551848296 0.34461470921877546 L 0.1757107530614206 0.3798829234227351 L 0.13068966567721008 0.43349819387361427 L 0.09829178764757096 0.4967475168097599 L 0.07961711689229711 0.5698666351147909 L 0.07529443710013206 0.6482424928041679 L 0.08546148386514363 0.7275343926013347 L 0.10976193995628725 0.8056439451446543 L 0.147359257794747 0.8834551494204027 L 0.1969667353814305 0.9586438037809711 L 0.25689272465764074 1.0301000689587205 L 0.3250993468895397 1.0953572548388852 L 0.3992726447728986 1.1457376493406537 L 0.47690172998302477 1.1770194334716155 L 0.555364199612018 1.1775416427156231 L 0.6320149040796259 1.141526671680729 L 0.7042750581335773 1.0752381229850918 L 0.7697186975130574 0.9908215106216461 L 0.8261535953261339 0.891822942057729 L 0.8716939594288518 0.7939904973318284 L 0.904822527184866 0.7060243733008487 L 0.9244400461661453 0.6208916496782434 L 0.9299005654283441 0.542584244951412 L 0.9210314467679215 0.4645890935635635 L 0.8981375222117423 0.4038520998596141 L 0.8619893553934938 0.3520172250855711 L 0.8137960926421128 0.32497829651246146 L 0.755163897062578 0.31718628956627487 L 0.6880414290313599 0.32201081586931146 L 0.6146542541831687 0.32494490742809823 L 0.5374304118625504 0.32392738141681454 L 0.45891965220521835 0.316012935689467 L 0.38170904020045215 0.3111033422713617 L 0.30833772485962074 0.31004157408268507 L 0.24121367859975218 0.3282955046769523 L 0.18253512684040224 0.36022912248357647 L 0.1342192143093338 0.40840584747542963 L 0.09784019921557696 0.46972032790425966 L 0.07457913842918878 0.5415731523219732 L 0.06518663753441484 0.6181986132940656 L 0.0699598023869551 0.6965535016554575 L 0.08873405831460002 0.7755423085058474 L 0.12089001497525348 0.8547698289257508 L 0.1653750651480756 0.9295571525845546 L 0.2207389302757804 1.0042306953945643 L 0.2851819196552413 1.0710398802699623 L 0.356614267917883 1.12984902804479 L 0.43272456941516707 1.1740969245484705 L 0.5110550489371698 1.1917008419579165 L 0.5890812041839191 1.1777583268107774 L 0.6642932324085232 1.1272884718270015 L 0.7342766148205099 1.049686947885322 L 0.7967892781027373 0.9585465078799597 L 0.8498328804693605 0.8642811462346962 L 0.8917159751742554 0.7666297025041771 L 0.9211070799546893 0.6794768635750654 L 0.9370760170865609 0.5987477288031512 L 0.939122274232286 0.5202719637760138 L 0.9271895583318739 0.4465451568737079 L 0.9016661596475004 0.3814371418106085 L 0.863371196376717 0.33598019752869657 L 0.8135272575416741 0.3102619672430649 L 0.7537203890314123 0.30380438565971174 L 0.6858487614020454 0.3098802750329652 L 0.6120617062077367 0.31387560399898334 L 0.5346910996923073 0.3136550068935689 L 0.45617729995338474 0.30622778565030034 L 0.37899199966066566 0.298120432738582 L 0.3055604368468206 0.30027410198313403 L 0.23818540938692223 0.31452456558042996 L 0.17897546517929774 0.3464464045908494 L 0.12977949277039807 0.39464517398353527 L 0.09212972153257137 0.4575840257033008 L 0.06719486389131851 0.52759483269099 L 0.05574480370979884 0.6041394645352255 L 0.058127865497039244 0.6826080929986087 L 0.07426130049234614 0.7618633241591388 L 0.10363521055577202 0.8395974112983694 L 0.1453297122018084 0.915021868027922 L 0.19804473405957151 0.9875572772863077 L 0.2601414541014563 1.0600667191181874 L 0.32969402991109964 1.1191587398375717 L 0.404549966645081 1.1705942459327854 L 0.4823972122867616 1.1987604510415237 L 0.5608358756471343 1.195905029499756 L 0.637452334745415 1.1607822063898547 L 0.7098934450078169 1.0948983136665167 L 0.7759385692943006 1.0040265995950362 L 0.8335672340594549 0.9064457044343563 L 0.8810203648033059 0.8112310957644341 L 0.9168532642078353 0.7257331193409986 L 0.9399787609900565 0.6425184568088386 L 0.9496992679640267 0.5612626612627185 L 0.9457268342058273 0.4828561417420454 L 0.9281906476897781 0.41354855597638485 L 0.8976318297898707 0.355589466361359 L 0.8549857498076863 0.3140906849818667 L 0.8015524644563519 0.29232498248921523 L 0.738956242685225 0.2960411826944648 L 0.6690954598170394 0.3022177094199724 L 0.5940844272096631 0.30476330570834304 L 0.5161889564111953 0.30228378674107437 L 0.43775763348984326 0.29376313825502576 L 0.36115089508446535 0.2895575842817818 L 0.2886700498078697 0.28997511800917114 L 0.22248837596402815 0.3102547241308802 L 0.16458635007514022 0.34427454607153285 L 0.11669292333292558 0.3942151747219683 L 0.08023456944362095 0.4583086472386544 L 0.056293583728766916 0.5291901774092023 L 0.045576827492513794 0.606043263559452 L 0.04839579247115816 0.6845018703691144 L 0.06465851744512019 0.7633449961083519 L 0.09387353321823205 0.8406480191206488 L 0.1351656538401712 0.9156755335649691 L 0.18730308181460692 0.9880838180210318 L 0.2487349633953807 1.0572049561816979 L 0.3176382265735087 1.1211112028633206 L 0.39197226771352955 1.1748314371464241 L 0.469539830551964 1.2048992688356996 L 0.5480522495735889 1.2092767097348545 L 0.6251971132429773 1.178563337918919 L 0.69870634411923 1.1177291301340708 L 0.7664226937233019 1.0308798208046341 L 0.8263627096068793 0.9357333454640592 L 0.8767743481197865 0.8416480151856938 L 0.9161875749925885 0.7521349588993251 L 0.9434565116458038 0.6669617394941697 L 0.9577919413855447 0.5869507652992727 L 0.9587832785190488 0.5084457359251535 L 0.9464094162137443 0.4337306301255382 L 0.921038196321013 0.3666562327087133 L 0.8834145767438835 0.31770903620854224 L 0.8346378995552808 0.2888568927458234 L 0.7761289765115293 0.28075291106221617 L 0.7095879989010938 0.2874802789695837 L 0.6369445376269591 0.2932689987213061 L 0.5603011198345988 0.29413777537715946 L 0.48187204424164376 0.28960183089889424 L 0.4039192239218984 0.2811278418941552 L 0.3286869194300725 0.27588122880718813 L 0.2583372451501923 0.2843738490083978 L 0.1948882975063933 0.3098890205309882 L 0.14015666664684395 0.35184236415442627 L 0.09570595635123869 0.4058525013287322 L 0.06280275457061879 0.47271090429976537 L 0.042381274794153434 0.5464803988262947 L 0.03501763304286082 0.6239042226834594 L 0.04091444428753921 0.7029393884390094 L 0.05989612370641456 0.7800433090395764 L 0.09141497107975616 0.8575020085824667 L 0.1345678095696295 0.9313477758271846 L 0.18812265187297256 1.002471965142667 L 0.2505545856472542 1.0739493252247259 L 0.32008981400912284 1.136816363051772 L 0.39475656282621585 1.185786134644062 L 0.47244138052472195 1.2168169779718623 L 0.5509492131420726 1.2183174614323047 L 0.6280655410305729 1.1881431482830105 L 0.7016188162799706 1.1213680114708915 L 0.7695414424877474 1.040910965366983 L 0.8299275904655701 0.9462900280857834 L 0.8810862429550654 0.8468675225249619 L 0.9215880052336785 0.759636063727748 L 0.9503044022267542 0.6765083208485104 L 0.9664386009152441 0.5973837623303597 L 0.969546743060274 0.5189300124812408 L 0.9595493404371984 0.44333410680434954 L 0.9367324652607538 0.3743836430217592 L 0.9017387543626185 0.31709908471871606 L 0.8555485289547676 0.2832576675638678 L 0.7994516046269065 0.2715340806318416 L 0.7350106210984109 0.27030736728992066 L 0.6640169512595611 0.2787640099158898 L 0.5884404480317927 0.28538449965999924 L 0.5103744503062015 0.28208904609584395 L 0.43197759149379217 0.27437623253805105 L 0.355414032998854 0.2668527654591742 L 0.2827937784064486 0.2705002493920462 L 0.2161147118069286 0.2865788952207785 L 0.1572079461905586 0.3201738329810848 L 0.10768796719067797 0.36961681859513473 L 0.06890891675353766 0.4316522044436176 L 0.04192818476163562 0.5033508884269787 L 0.027478269365376562 0.579203778353071 L 0.025947634713687995 0.6577060587966903 L 0.037371044462588765 0.7359620700841647 L 0.061429587867898316 0.8134860378958265 L 0.09746034965853662 0.8876811937112035 L 0.14447541250916301 0.9612901676814718 L 0.20118962889591352 1.033177687894883 L 0.26605636419338907 1.0986699831160607 L 0.33731020128826184 1.1581108107303115 L 0.4130154142948362 1.2059005874758264 L 0.49111886986707626 1.2302171434642726 L 0.5695059028726492 1.2249852063141617 L 0.6460576415386297 1.1854493549580207 L 0.7187082272014098 1.117798800888397 L 0.7855003859656452 1.026982057004061 L 0.8446378632215399 0.9314569137951687 L 0.8945333253093661 0.8395724163455177 L 0.9338504628174074 0.7533713798506103 L 0.9615391932607213 0.6714273577529711 L 0.9768630525640869 0.5927153676349148 L 0.9794180794964682 0.5142378980086024 L 0.9691427290411896 0.4380923146731646 L 0.9463185933002629 0.36807737315706185 L 0.9115619553537634 0.3092153455554066 L 0.8658064459088068 0.27329164782782617 L 0.8102773080817727 0.2526982123244652 L 0.7464579960662399 0.2585007229380753 L 0.6760500330056358 0.2675725172809032 L 0.600927226984045 0.27298869350971916 L 0.523085487270515 0.2728644140315798 L 0.44458959225013744 0.26507023062053375 L 0.36751833323129657 0.2563385784689121 L 0.2939094928947932 0.25774101932031257 L 0.22570611294632442 0.2708824823084716 L 0.16470546296640004 0.3013261779585268 L 0.112512042952288 0.34772285262162383 L 0.07049583800310538 0.40716299094879754 L 0.03975689828832257 0.47532608686491684 L 0.021097144929792366 0.551018031581737 L 0.015000107463690349 0.628943546939707 L 0.021619086423205813 0.7075433475446529 L 0.040774010988791964 0.7850102104653053 L 0.07195703253296692 0.8604253506711816 L 0.11434666627455164 0.9334231519160897 L 0.1668300711188958 1.0041164626986911 L 0.228032847839663 1.0723275515148212 L 0.29635554342752934 1.1368277524159307 L 0.3700158795613589 1.1934807028626937 L 0.44709557998427907 1.2288618842697825 L 0.5255905586043789 1.2414981067908124 L 0.6034631500769856 1.2210672273316334 L 0.678695019281006 1.1702376523834488 L 0.7493393763765782 1.0920848104992837 L 0.8135711499991106 0.9953450492906224 L 0.8697338316529728 0.9055298353323475 L 0.9163817976915287 0.8144774217423999 L 0.9523170387362471 0.7302844207795098 L 0.9766193765885491 0.6516181516887803 L 0.9886694215433526 0.5728311649899889 L 0.988163713907187 0.49431020209543275 L 0.9751216974108133 0.41806825979156265 L 0.9498843837564217 0.3505332146573817 L 0.9131047812710147 0.29270214051197113 L 0.8657303710625314 0.2579660886449178 L 0.8089781158371536 0.24601332126588227 L 0.7443026745493915 0.2456322766139889 L 0.6733586656262245 0.25580250975561414 L 0.5979579684565981 0.26470480120651213 L 0.5200231735953338 0.262709085896274 L 0.4415383838309222 0.2553552797586572 L 0.3644986287978856 0.2468016462229837 L 0.2908591838852536 0.24813161203330866 L 0.2224860793362471 0.26098128586321195 L 0.1611090480291995 0.2909627280404893 L 0.10827809167338454 0.33481927966128666 L 0.06532474702200547 0.3943216482164865 L 0.033329008905925106 0.46325165550016584 L 0.013092718775346346 0.5381859172972979 L 0.005120059917901876 0.6161077451866787 L 0.009605617964866364 0.6945038677885046 L 0.02643027241169882 0.7717576937234817 L 0.05516498658944652 0.8470787721122374 L 0.09508236485061228 0.9202514676482871 L 0.1451756516612206 0.9914471555618393 L 0.20418466264878682 1.0608435610911777 L 0.2706279669920713 1.127685808123172 L 0.34284048801567374 1.1849139448188826 L 0.41901555814219016 1.2272841377700614 L 0.4972503585527464 1.2503098959649903 L 0.5755935954638323 1.2428526079539677 L 0.6520942155906095 1.2000990888809666 L 0.7248499441399034 1.1305435146694425 L 0.7920544398150839 1.0394719573848752 L 0.852041902310537 0.945567592879139 L 0.9033280373852433 0.8564497435814398 L 0.9446463808941732 0.7733126196163894 L 0.9749791035379259 0.6940571094632573 L 0.9935815594069626 0.6160099588152337" fill="none" style="stroke-width: 0.004290564421463689; stroke: black;" /></g></svg>