<svg height="8.5in" viewBox="-0.11564629949325389 -0.061049928145740166 1.2312925989865078 0.9514533719441196" width="11in" xmlns="http://www.w3.org/2000/svg" xmlns:inkscape="http://www.inkscape.org/namespaces/inkscape"><g inkscape:groupmode="layer" inkscape:label="0-layer"><path d="M 0.0 -0.0006319779290748967 L 0.02040816326530612 -0.007473746840892936 L 0.04081632653061224 -0.005777256614070762 L 0.061224489795918366 -0.007340453751828179 L 0.08163265306122448 -0.0030628815699279767 L 0.1020408163265306 -0.0058897703341590025 L 0.12244897959183673 -0.007974271582622322 L 0.14285714285714285 -0.000525915029774877 L 0.16326530612244897 -0.010625133971862396 L 0.18367346938775508 -0.008621777505457789 L 0.2040816326530612 -0.008448947123421266 L 0.22448979591836732 -0.001131981344999442 L 0.24489795918367346 -0.0008234311011783035 L 0.26530612244897955 -0.00737508163651988 L 0.2857142857142857 -0.001491119239090531 L 0.3061224489795918 -0.005091163836363118 L 0.32653061224489793 -0.005113923319536788 L 0.3469387755102041 -0.005646077803696941 L 0.36734693877551017 -0.0027234281522686018 L 0.3877551020408163 -0.0019748155806169217 L 0.4081632653061224 -0.007173448246384449 L 0.42857142857142855 -0.011870651734008277 L 0.44897959183673464 -0.0027965192614078024 L 0.4693877551020408 -0.014209688131642853 L 0.4897959183673469 -0.006618863220114444 L 0.5102040816326531 -0.00439522630896235 L 0.5306122448979591 -0.004696870237392206 L 0.5510204081632653 -0.017802047602825603 L 0.5714285714285714 -0.007075615934246329 L 0.5918367346938775 -0.014363780239797697 L 0.6122448979591836 -0.000925543902927574 L 0.6326530612244897 -0.007963069541946895 L 0.6530612244897959 -0.006294755519170558 L 0.673469387755102 -0.0006637772213724908 L 0.6938775510204082 -0.0014774380957116881 L 0.7142857142857142 -0.007885958041233971 L 0.7346938775510203 -0.0005823053512042201 L 0.7551020408163265 -0.005727208447132332 L 0.7755102040816326 -0.0052212943365543595 L 0.7959183673469387 -0.001083082768292216 L 0.8163265306122448 -0.0014768405288041774 L 0.836734693877551 -0.003354670993113616 L 0.8571428571428571 -0.002519155370588463 L 0.8775510204081632 -0.002904867052600705 L 0.8979591836734693 -0.0053403934656999765 L 0.9183673469387754 -0.009357124544427648 L 0.9387755102040816 -0.005858423215698607 L 0.9591836734693877 -0.007534749410448743 L 0.9795918367346939 -0.010952291140451483 M 0.0 0.01466992184771437 L 0.02040816326530612 0.014753020388137875 L 0.04081632653061224 0.009445053204139065 L 0.061224489795918366 0.004260370883481416 L 0.08163265306122448 0.006903461379870983 L 0.1020408163265306 0.01005746269717073 L 0.12244897959183673 0.01111164280506325 L 0.14285714285714285 0.014933448336833905 L 0.16326530612244897 0.00823571081183362 L 0.18367346938775508 0.004793487210169926 L 0.2040816326530612 0.007825812475892617 L 0.22448979591836732 0.011645591721504082 L 0.24489795918367346 0.011235360184353596 L 0.26530612244897955 0.011743795123848575 L 0.2857142857142857 0.015149984277358673 L 0.3061224489795918 0.013416130898181352 L 0.32653061224489793 0.009189661455210081 L 0.3469387755102041 0.015059207111903993 L 0.36734693877551017 0.011510696958712235 L 0.3877551020408163 0.015045069077739911 L 0.4081632653061224 0.008905192555139456 L 0.42857142857142855 0.012456889211436322 L 0.44897959183673464 0.014019753787025644 L 0.4693877551020408 0.0052295079562603795 L 0.4897959183673469 0.009839007324079187 L 0.5102040816326531 0.004580591470052327 L 0.5306122448979591 0.0013685616985456353 L 0.5510204081632653 0.0031771759261329437 L 0.5714285714285714 0.013724075970216795 L 0.5918367346938775 0.00972627618097104 L 0.6122448979591836 0.009985802114508387 L 0.6326530612244897 0.01477139340759232 L 0.6530612244897959 0.006967708051407022 L 0.673469387755102 0.010449578433011118 L 0.6938775510204082 0.011011537258584898 L 0.7142857142857142 0.01321611308617266 L 0.7346938775510203 0.013021159041110505 L 0.7551020408163265 0.011944401365767542 L 0.7755102040816326 0.014341869548635103 L 0.7959183673469387 0.014459311424075893 L 0.8163265306122448 0.015176116972679387 L 0.836734693877551 0.012456746341629002 L 0.8571428571428571 0.015342339108535205 L 0.8775510204081632 0.012756155067753502 L 0.8979591836734693 0.006487368023348242 L 0.9183673469387754 0.007703057942353734 L 0.9387755102040816 0.0044809746822674894 L 0.9591836734693877 0.015240257526889447 L 0.9795918367346939 0.009679657898468414 M 0.0 0.02287968851660572 L 0.02040816326530612 0.025982048579827652 L 0.04081632653061224 0.03109143104698559 L 0.061224489795918366 0.032862691524985714 L 0.08163265306122448 0.02385156302665025 L 0.1020408163265306 0.02574567473741663 L 0.12244897959183673 0.03266623742255959 L 0.14285714285714285 0.02540116168945078 L 0.16326530612244897 0.031462617439689 L 0.18367346938775508 0.026408055079034043 L 0.2040816326530612 0.0323251052199438 L 0.22448979591836732 0.02898999094362895 L 0.24489795918367346 0.03288541730747268 L 0.26530612244897955 0.03342680875760798 L 0.2857142857142857 0.02876906559294919 L 0.3061224489795918 0.030793115956504573 L 0.32653061224489793 0.028730335412924378 L 0.3469387755102041 0.027754063305375994 L 0.36734693877551017 0.028358783017766558 L 0.3877551020408163 0.025774898623647603 L 0.4081632653061224 0.031463511727445624 L 0.42857142857142855 0.03187180484468069 L 0.44897959183673464 0.02820620867169419 L 0.4693877551020408 0.028878601732091128 L 0.4897959183673469 0.02933456720270585 L 0.5102040816326531 0.026206724068937884 L 0.5306122448979591 0.027849707949035216 L 0.5510204081632653 0.03265058409785959 L 0.5714285714285714 0.024968092650714434 L 0.5918367346938775 0.02942745006069491 L 0.6122448979591836 0.03236849245527488 L 0.6326530612244897 0.025133049874118005 L 0.6530612244897959 0.02958934201284458 L 0.673469387755102 0.03317023666024382 L 0.6938775510204082 0.0331012179705246 L 0.7142857142857142 0.030521029320991534 L 0.7346938775510203 0.0264013179336854 L 0.7551020408163265 0.03214976279469615 L 0.7755102040816326 0.030875618453170765 L 0.7959183673469387 0.030760784132970447 L 0.8163265306122448 0.029980768902657638 L 0.836734693877551 0.034635357858709054 L 0.8571428571428571 0.030724550314123945 L 0.8775510204081632 0.032321139488524796 L 0.8979591836734693 0.02258161418421551 L 0.9183673469387754 0.02996323145484013 L 0.9387755102040816 0.025452980191247927 L 0.9591836734693877 0.030209321893359255 L 0.9795918367346939 0.03322619508577775 M 0.0 0.04833244922559346 L 0.02040816326530612 0.04296504690498912 L 0.04081632653061224 0.04577787927046955 L 0.061224489795918366 0.04403979231429776 L 0.08163265306122448 0.0458880320053091 L 0.1020408163265306 0.04462397502757839 L 0.12244897959183673 0.04675289292290411 L 0.14285714285714285 0.04319811229698647 L 0.16326530612244897 0.0463862126037695 L 0.18367346938775508 0.0419720284115569 L 0.2040816326530612 0.0478196123326214 L 0.22448979591836732 0.045361350963467356 L 0.24489795918367346 0.046317509558009194 L 0.26530612244897955 0.04767936479252854 L 0.2857142857142857 0.045303767282972224 L 0.3061224489795918 0.048854204395299576 L 0.32653061224489793 0.0457399803921877 L 0.3469387755102041 0.042552450013810736 L 0.36734693877551017 0.05071339918380958 L 0.3877551020408163 0.04383074931795634 L 0.4081632653061224 0.04943547094609978 L 0.42857142857142855 0.04999628908590071 L 0.44897959183673464 0.04689544942324867 L 0.4693877551020408 0.04362511477699429 L 0.4897959183673469 0.045626442970045776 L 0.5102040816326531 0.04308725892008504 L 0.5306122448979591 0.049418065974390225 L 0.5510204081632653 0.04651606819973191 L 0.5714285714285714 0.04147387665427549 L 0.5918367346938775 0.045249145491977116 L 0.6122448979591836 0.04580984048411792 L 0.6326530612244897 0.04765850153299063 L 0.6530612244897959 0.04603993477801503 L 0.673469387755102 0.04687481113537575 L 0.6938775510204082 0.05158095563145834 L 0.7142857142857142 0.04736671997146603 L 0.7346938775510203 0.04935662726340763 L 0.7551020408163265 0.04436337257351332 L 0.7755102040816326 0.047603643454902894 L 0.7959183673469387 0.048142439927958504 L 0.8163265306122448 0.04626462260490911 L 0.836734693877551 0.051623230569323296 L 0.8571428571428571 0.04845940456152235 L 0.8775510204081632 0.05198089588697838 L 0.8979591836734693 0.04465677126985835 L 0.9183673469387754 0.03896767440094633 L 0.9387755102040816 0.042185502955736545 L 0.9591836734693877 0.05013434298728925 L 0.9795918367346939 0.04801160388551117 M 0.0 0.06260243738947778 L 0.02040816326530612 0.06793923647397399 L 0.04081632653061224 0.06885970406356223 L 0.061224489795918366 0.06927260533888334 L 0.08163265306122448 0.0642038127453026 L 0.1020408163265306 0.06373727771421377 L 0.12244897959183673 0.06866363303204408 L 0.14285714285714285 0.06831508266544153 L 0.16326530612244897 0.06410140266213422 L 0.18367346938775508 0.0614815768817396 L 0.2040816326530612 0.0702020471906418 L 0.22448979591836732 0.06167204083722347 L 0.24489795918367346 0.0654960123072519 L 0.26530612244897955 0.06233555414706474 L 0.2857142857142857 0.06556517513745329 L 0.3061224489795918 0.06308537311642674 L 0.32653061224489793 0.06586251783738858 L 0.3469387755102041 0.06369908738686009 L 0.36734693877551017 0.06355722433128487 L 0.3877551020408163 0.06240763824654414 L 0.4081632653061224 0.06378193205466161 L 0.42857142857142855 0.06459765023677584 L 0.44897959183673464 0.06577208096363524 L 0.4693877551020408 0.06742034052420393 L 0.4897959183673469 0.0658479591618863 L 0.5102040816326531 0.058086739660892395 L 0.5306122448979591 0.05859517395170545 L 0.5510204081632653 0.06280857832721351 L 0.5714285714285714 0.06300204090746488 L 0.5918367346938775 0.062309096532385824 L 0.6122448979591836 0.0688437137033178 L 0.6326530612244897 0.06748232830947833 L 0.6530612244897959 0.06731914786811967 L 0.673469387755102 0.0635102505507941 L 0.6938775510204082 0.0665847412092478 L 0.7142857142857142 0.0671709039905213 L 0.7346938775510203 0.06840886214286891 L 0.7551020408163265 0.06577770653441212 L 0.7755102040816326 0.05762812953302451 L 0.7959183673469387 0.061260403213907376 L 0.8163265306122448 0.06550909689594685 L 0.836734693877551 0.0641519511162386 L 0.8571428571428571 0.0668368972382483 L 0.8775510204081632 0.06621436122701753 L 0.8979591836734693 0.06707117726864793 L 0.9183673469387754 0.06394702063473857 L 0.9387755102040816 0.061529835997124985 L 0.9591836734693877 0.0562718928479458 L 0.9795918367346939 0.06436826939102938 M 0.0 0.08673659082718874 L 0.02040816326530612 0.08059077645667044 L 0.04081632653061224 0.07864712402180554 L 0.061224489795918366 0.08250330032625625 L 0.08163265306122448 0.08676006045684338 L 0.1020408163265306 0.08496773471546737 L 0.12244897959183673 0.08653187958701071 L 0.14285714285714285 0.08450234323294152 L 0.16326530612244897 0.08263582838351818 L 0.18367346938775508 0.08316999730399621 L 0.2040816326530612 0.08371980808468382 L 0.22448979591836732 0.08140260616240262 L 0.24489795918367346 0.08050760793787604 L 0.26530612244897955 0.08375706467359977 L 0.2857142857142857 0.0813616831059507 L 0.3061224489795918 0.07767848996496135 L 0.32653061224489793 0.07937959988098016 L 0.3469387755102041 0.07922527836069301 L 0.36734693877551017 0.08155903666493151 L 0.3877551020408163 0.08262197877583245 L 0.4081632653061224 0.08690526400452141 L 0.42857142857142855 0.08512870868827532 L 0.44897959183673464 0.08252399906244588 L 0.4693877551020408 0.08249834358009416 L 0.4897959183673469 0.07903185638456733 L 0.5102040816326531 0.08158175557406565 L 0.5306122448979591 0.0820509393734614 L 0.5510204081632653 0.08201525445718792 L 0.5714285714285714 0.08654296767349941 L 0.5918367346938775 0.08192309286275257 L 0.6122448979591836 0.08554978418620454 L 0.6326530612244897 0.0853489782784816 L 0.6530612244897959 0.08579540478283403 L 0.673469387755102 0.08461055815552472 L 0.6938775510204082 0.08486133415484 L 0.7142857142857142 0.08605384598612108 L 0.7346938775510203 0.081967721939166 L 0.7551020408163265 0.07845801058283197 L 0.7755102040816326 0.0843586724487067 L 0.7959183673469387 0.07893769605337114 L 0.8163265306122448 0.08632080918637906 L 0.836734693877551 0.0789003090065052 L 0.8571428571428571 0.07855232841618351 L 0.8775510204081632 0.0823964937546419 L 0.8979591836734693 0.08256849295474031 L 0.9183673469387754 0.07743905122622766 L 0.9387755102040816 0.07549290446422874 L 0.9591836734693877 0.08080092711330793 L 0.9795918367346939 0.08259977037953936 M 0.0 0.10456281691508278 L 0.02040816326530612 0.09385813966288094 L 0.04081632653061224 0.1049636743671037 L 0.061224489795918366 0.09699957624943113 L 0.08163265306122448 0.09828660061101 L 0.1020408163265306 0.09745725551007721 L 0.12244897959183673 0.09782267204105814 L 0.14285714285714285 0.09941994826151217 L 0.16326530612244897 0.10346057952194539 L 0.18367346938775508 0.10160328345698927 L 0.2040816326530612 0.10366849288003135 L 0.22448979591836732 0.0992505308522819 L 0.24489795918367346 0.10029509180902633 L 0.26530612244897955 0.09854478235514397 L 0.2857142857142857 0.09381514035535746 L 0.3061224489795918 0.10405503251723214 L 0.32653061224489793 0.09082640598089078 L 0.3469387755102041 0.10073145979995787 L 0.36734693877551017 0.09939918212763864 L 0.3877551020408163 0.10307136881170945 L 0.4081632653061224 0.09648533465939416 L 0.42857142857142855 0.09874752258059856 L 0.44897959183673464 0.10215824759246654 L 0.4693877551020408 0.10080916761143205 L 0.4897959183673469 0.10306396768023954 L 0.5102040816326531 0.09865520923758003 L 0.5306122448979591 0.09846914540736305 L 0.5510204081632653 0.0965727424566973 L 0.5714285714285714 0.10007352129536304 L 0.5918367346938775 0.09632066845650333 L 0.6122448979591836 0.09613817034076831 L 0.6326530612244897 0.10103422970117237 L 0.6530612244897959 0.10255678758812674 L 0.673469387755102 0.10280925276383406 L 0.6938775510204082 0.10398641815891149 L 0.7142857142857142 0.10242376357617394 L 0.7346938775510203 0.10056642035289534 L 0.7551020408163265 0.10356655767020669 L 0.7755102040816326 0.1014731886649548 L 0.7959183673469387 0.10067772795105043 L 0.8163265306122448 0.09914886973320934 L 0.836734693877551 0.10360495390219378 L 0.8571428571428571 0.10277803791326022 L 0.8775510204081632 0.0961537829643587 L 0.8979591836734693 0.09380172458104852 L 0.9183673469387754 0.09994914940494525 L 0.9387755102040816 0.10183168970268588 L 0.9591836734693877 0.10184086707622977 L 0.9795918367346939 0.10474549982696553 M 0.0 0.11891828404310104 L 0.02040816326530612 0.11128371433562396 L 0.04081632653061224 0.11209534891059564 L 0.061224489795918366 0.11553610096129423 L 0.08163265306122448 0.11853407337125381 L 0.1020408163265306 0.11834674255955648 L 0.12244897959183673 0.11809644792776605 L 0.14285714285714285 0.11493002679551916 L 0.16326530612244897 0.11984984075997043 L 0.18367346938775508 0.11980971601499538 L 0.2040816326530612 0.1211549417972051 L 0.22448979591836732 0.10956427112427324 L 0.24489795918367346 0.1171308287338394 L 0.26530612244897955 0.12248960091974363 L 0.2857142857142857 0.11342991559069901 L 0.3061224489795918 0.11698250503047726 L 0.32653061224489793 0.11740608059648033 L 0.3469387755102041 0.11554631790219783 L 0.36734693877551017 0.12068157746995034 L 0.3877551020408163 0.11941194278873643 L 0.4081632653061224 0.1173595500399148 L 0.42857142857142855 0.11650881402555624 L 0.44897959183673464 0.1195936990733679 L 0.4693877551020408 0.11906252364523577 L 0.4897959183673469 0.1180195747405903 L 0.5102040816326531 0.11722136697259447 L 0.5306122448979591 0.1126083611806893 L 0.5510204081632653 0.11525112794884669 L 0.5714285714285714 0.10845551495552329 L 0.5918367346938775 0.11867251595883196 L 0.6122448979591836 0.11887980701056775 L 0.6326530612244897 0.11876547980334876 L 0.6530612244897959 0.11667468464081378 L 0.673469387755102 0.1119019295829774 L 0.6938775510204082 0.11106518321535575 L 0.7142857142857142 0.11817124110596845 L 0.7346938775510203 0.11720668012232432 L 0.7551020408163265 0.12096981520344494 L 0.7755102040816326 0.11867035685609797 L 0.7959183673469387 0.12327076821920607 L 0.8163265306122448 0.11662466392798759 L 0.836734693877551 0.10980843277378435 L 0.8571428571428571 0.10887031714109557 L 0.8775510204081632 0.10847402467233287 L 0.8979591836734693 0.12018218200389555 L 0.9183673469387754 0.1118623653020317 L 0.9387755102040816 0.11539093024874483 L 0.9591836734693877 0.12028849697253015 L 0.9795918367346939 0.12066411539860754 M 0.0 0.13756590921998063 L 0.02040816326530612 0.134268876750761 L 0.04081632653061224 0.13464610972737145 L 0.061224489795918366 0.13647889959316686 L 0.08163265306122448 0.137397521380852 L 0.1020408163265306 0.1373749235768919 L 0.12244897959183673 0.13695287162758618 L 0.14285714285714285 0.1361641615669285 L 0.16326530612244897 0.13798554947325645 L 0.18367346938775508 0.1311352766568021 L 0.2040816326530612 0.1290580169465882 L 0.22448979591836732 0.13206916768953317 L 0.24489795918367346 0.14032742486290017 L 0.26530612244897955 0.134572024828953 L 0.2857142857142857 0.13836081587705248 L 0.3061224489795918 0.13761577974389272 L 0.32653061224489793 0.13323536739404465 L 0.3469387755102041 0.13382595126832067 L 0.36734693877551017 0.13749453252235017 L 0.3877551020408163 0.1373066968065037 L 0.4081632653061224 0.13715836564998918 L 0.42857142857142855 0.13672494488833792 L 0.44897959183673464 0.1408452819294636 L 0.4693877551020408 0.1393863488404542 L 0.4897959183673469 0.13744440746640765 L 0.5102040816326531 0.1297365264815203 L 0.5306122448979591 0.13892366371508003 L 0.5510204081632653 0.13099875755736934 L 0.5714285714285714 0.12959091728733824 L 0.5918367346938775 0.13392206167505283 L 0.6122448979591836 0.13643886598535693 L 0.6326530612244897 0.13598855135834043 L 0.6530612244897959 0.1313081266755273 L 0.673469387755102 0.13357117927935921 L 0.6938775510204082 0.1323917799782377 L 0.7142857142857142 0.13075546893607737 L 0.7346938775510203 0.1408556144995918 L 0.7551020408163265 0.13591977264093313 L 0.7755102040816326 0.13504984160654107 L 0.7959183673469387 0.1363930308473325 L 0.8163265306122448 0.13154647749077847 L 0.836734693877551 0.13233576815413534 L 0.8571428571428571 0.13731338390366038 L 0.8775510204081632 0.13695873195593045 L 0.8979591836734693 0.13056469242053273 L 0.9183673469387754 0.12976366205315285 L 0.9387755102040816 0.13590693456877012 L 0.9591836734693877 0.1353569858734154 L 0.9795918367346939 0.13420358634397017 M 0.0 0.15707164536324794 L 0.02040816326530612 0.15057563457394385 L 0.04081632653061224 0.1567021127937764 L 0.061224489795918366 0.1513696167357468 L 0.08163265306122448 0.1514576955961944 L 0.1020408163265306 0.15299107233062312 L 0.12244897959183673 0.15508684546215284 L 0.14285714285714285 0.15482283899806962 L 0.16326530612244897 0.15231243524569266 L 0.18367346938775508 0.15263838315329484 L 0.2040816326530612 0.15600199382272195 L 0.22448979591836732 0.15799172111615786 L 0.24489795918367346 0.15605073321528648 L 0.26530612244897955 0.1570272526475744 L 0.2857142857142857 0.15162092736084837 L 0.3061224489795918 0.15278196813845307 L 0.32653061224489793 0.155903656194361 L 0.3469387755102041 0.14983983355751868 L 0.36734693877551017 0.156737204567601 L 0.3877551020408163 0.15475577751132177 L 0.4081632653061224 0.15284082960429055 L 0.42857142857142855 0.14955479798187712 L 0.44897959183673464 0.1551139638502462 L 0.4693877551020408 0.15659884038725153 L 0.4897959183673469 0.15693550476227458 L 0.5102040816326531 0.15394442427886482 L 0.5306122448979591 0.15154629361115307 L 0.5510204081632653 0.15058731246368587 L 0.5714285714285714 0.15285151570642902 L 0.5918367346938775 0.1549636787517447 L 0.6122448979591836 0.15185446966892702 L 0.6326530612244897 0.15800569705604817 L 0.6530612244897959 0.14931038269174032 L 0.673469387755102 0.1454009104241935 L 0.6938775510204082 0.14811789849352025 L 0.7142857142857142 0.15158643021234436 L 0.7346938775510203 0.15490772657059024 L 0.7551020408163265 0.15645947338919144 L 0.7755102040816326 0.152052733234768 L 0.7959183673469387 0.15059804623750148 L 0.8163265306122448 0.14638799897731192 L 0.836734693877551 0.15214344128026835 L 0.8571428571428571 0.15268840881249532 L 0.8775510204081632 0.15351634074389622 L 0.8979591836734693 0.1513259834817974 L 0.9183673469387754 0.15173452872737037 L 0.9387755102040816 0.15586444452401918 L 0.9591836734693877 0.15813954222652307 L 0.9795918367346939 0.15140619714192405 M 0.0 0.1737830671965095 L 0.02040816326530612 0.17161415805510735 L 0.04081632653061224 0.1742848620019735 L 0.061224489795918366 0.16919611493054376 L 0.08163265306122448 0.17025588111964673 L 0.1020408163265306 0.17032985988902244 L 0.12244897959183673 0.1720108307386335 L 0.14285714285714285 0.1729504311895447 L 0.16326530612244897 0.17294128170310152 L 0.18367346938775508 0.17437012723197737 L 0.2040816326530612 0.16687825652291116 L 0.22448979591836732 0.16906033746872584 L 0.24489795918367346 0.17193417209901862 L 0.26530612244897955 0.1699747622646407 L 0.2857142857142857 0.169729983966105 L 0.3061224489795918 0.1733527956063752 L 0.32653061224489793 0.16980804322982943 L 0.3469387755102041 0.17246549747795817 L 0.36734693877551017 0.17292448741523023 L 0.3877551020408163 0.17381276245554775 L 0.4081632653061224 0.1733080669145764 L 0.42857142857142855 0.17034474885862697 L 0.44897959183673464 0.17508243010618266 L 0.4693877551020408 0.1729055266140802 L 0.4897959183673469 0.17100414333812822 L 0.5102040816326531 0.17095182612082008 L 0.5306122448979591 0.17206605076326184 L 0.5510204081632653 0.1700697309851639 L 0.5714285714285714 0.1748889571325202 L 0.5918367346938775 0.1741551441409544 L 0.6122448979591836 0.17158168799525514 L 0.6326530612244897 0.16921219288470404 L 0.6530612244897959 0.174303783626 L 0.673469387755102 0.1685201202378797 L 0.6938775510204082 0.16582551108576402 L 0.7142857142857142 0.1735828690870476 L 0.7346938775510203 0.17205259175651136 L 0.7551020408163265 0.17277215237777602 L 0.7755102040816326 0.1660519470734263 L 0.7959183673469387 0.1724203038208202 L 0.8163265306122448 0.1682273986356657 L 0.836734693877551 0.16714684572332114 L 0.8571428571428571 0.16909484599419158 L 0.8775510204081632 0.16948973557258212 L 0.8979591836734693 0.17190496177019005 L 0.9183673469387754 0.17305293750210987 L 0.9387755102040816 0.16575842369816476 L 0.9591836734693877 0.16664652699042606 L 0.9795918367346939 0.16164442586648614 M 0.0 0.19214889441242045 L 0.02040816326530612 0.18961359121408894 L 0.04081632653061224 0.18851023397337094 L 0.061224489795918366 0.1851575478283135 L 0.08163265306122448 0.1804493869861268 L 0.1020408163265306 0.18691199685732474 L 0.12244897959183673 0.18696110076409495 L 0.14285714285714285 0.18937915858323032 L 0.16326530612244897 0.19107842539802683 L 0.18367346938775508 0.1907876895213191 L 0.2040816326530612 0.1877007231330462 L 0.22448979591836732 0.18888895085672447 L 0.24489795918367346 0.19128778332466584 L 0.26530612244897955 0.19368714624275316 L 0.2857142857142857 0.18726550445877316 L 0.3061224489795918 0.186491021010317 L 0.32653061224489793 0.18717042448686771 L 0.3469387755102041 0.18875407750486725 L 0.36734693877551017 0.19021542052177545 L 0.3877551020408163 0.1899617835473314 L 0.4081632653061224 0.18813810650640123 L 0.42857142857142855 0.18757651146100557 L 0.44897959183673464 0.19020794444547692 L 0.4693877551020408 0.19165375078852018 L 0.4897959183673469 0.1890270243785866 L 0.5102040816326531 0.1897182604711845 L 0.5306122448979591 0.18889738708071888 L 0.5510204081632653 0.19003055631539764 L 0.5714285714285714 0.19016284097430336 L 0.5918367346938775 0.19366934586518153 L 0.6122448979591836 0.18363976942333665 L 0.6326530612244897 0.19277480284265372 L 0.6530612244897959 0.18416221504461763 L 0.673469387755102 0.19002434354839207 L 0.6938775510204082 0.18583954416616544 L 0.7142857142857142 0.18567215221993544 L 0.7346938775510203 0.19043788120336208 L 0.7551020408163265 0.18954798636322706 L 0.7755102040816326 0.18908739051320586 L 0.7959183673469387 0.188696242367615 L 0.8163265306122448 0.1926648267873167 L 0.836734693877551 0.19188605407149442 L 0.8571428571428571 0.18848428556188765 L 0.8775510204081632 0.18634641398282284 L 0.8979591836734693 0.19069454065753372 L 0.9183673469387754 0.18795106512782433 L 0.9387755102040816 0.18945593708698077 L 0.9591836734693877 0.19146558809734762 L 0.9795918367346939 0.18769563124635802 M 0.0 0.2085462475707599 L 0.02040816326530612 0.20286817089341105 L 0.04081632653061224 0.20505013854030954 L 0.061224489795918366 0.20753189704264596 L 0.08163265306122448 0.20269532265226664 L 0.1020408163265306 0.20435818473086637 L 0.12244897959183673 0.20552903032434233 L 0.14285714285714285 0.20746365517331036 L 0.16326530612244897 0.2092034862005726 L 0.18367346938775508 0.21027234402014164 L 0.2040816326530612 0.20671365262981528 L 0.22448979591836732 0.20241780012727073 L 0.24489795918367346 0.20523635102934948 L 0.26530612244897955 0.20240374646813958 L 0.2857142857142857 0.20130214967293336 L 0.3061224489795918 0.21097473498901687 L 0.32653061224489793 0.20251645495281964 L 0.3469387755102041 0.2044406653223905 L 0.36734693877551017 0.2057620238003752 L 0.3877551020408163 0.20333381996296945 L 0.4081632653061224 0.2051621391905692 L 0.42857142857142855 0.2116166574393179 L 0.44897959183673464 0.2091406257730658 L 0.4693877551020408 0.20606181873503113 L 0.4897959183673469 0.2035909870692271 L 0.5102040816326531 0.2069240987055031 L 0.5306122448979591 0.2098371272576649 L 0.5510204081632653 0.20988859333869278 L 0.5714285714285714 0.2078173490209165 L 0.5918367346938775 0.20512616479110252 L 0.6122448979591836 0.20758070852765828 L 0.6326530612244897 0.20525621985887177 L 0.6530612244897959 0.20225966231547945 L 0.673469387755102 0.20658443127993173 L 0.6938775510204082 0.20818255271047545 L 0.7142857142857142 0.20413163416721 L 0.7346938775510203 0.20978863408946014 L 0.7551020408163265 0.2063142421258263 L 0.7755102040816326 0.20646813999536454 L 0.7959183673469387 0.2060304074299837 L 0.8163265306122448 0.2085926362880633 L 0.836734693877551 0.20776282179487923 L 0.8571428571428571 0.20006438966391116 L 0.8775510204081632 0.20701346079603242 L 0.8979591836734693 0.19983000661435105 L 0.9183673469387754 0.2082637322913112 L 0.9387755102040816 0.20535061866949103 L 0.9591836734693877 0.201821438307291 L 0.9795918367346939 0.2106738628092415 M 0.0 0.22606716679116662 L 0.02040816326530612 0.21893599844270883 L 0.04081632653061224 0.22183658437217513 L 0.061224489795918366 0.21998937237865612 L 0.08163265306122448 0.22141526600476785 L 0.1020408163265306 0.21971337364042798 L 0.12244897959183673 0.22409891940956717 L 0.14285714285714285 0.22179886623834483 L 0.16326530612244897 0.22526156974627798 L 0.18367346938775508 0.22706749538147103 L 0.2040816326530612 0.22256835263346703 L 0.22448979591836732 0.2276325524852535 L 0.24489795918367346 0.22806053346339794 L 0.26530612244897955 0.22716210534713638 L 0.2857142857142857 0.22835521322218913 L 0.3061224489795918 0.21731433916893364 L 0.32653061224489793 0.21872929979236852 L 0.3469387755102041 0.22350091084907386 L 0.36734693877551017 0.22526341962732166 L 0.3877551020408163 0.22824166313662825 L 0.4081632653061224 0.2280683399179299 L 0.42857142857142855 0.22515012159367864 L 0.44897959183673464 0.22277841340664986 L 0.4693877551020408 0.21960535914465393 L 0.4897959183673469 0.22573424860774866 L 0.5102040816326531 0.22192817419880004 L 0.5306122448979591 0.22010248254351736 L 0.5510204081632653 0.22269101159440646 L 0.5714285714285714 0.22632478792685873 L 0.5918367346938775 0.22547509770295834 L 0.6122448979591836 0.22444007666074026 L 0.6326530612244897 0.21895190045604934 L 0.6530612244897959 0.22847338175833273 L 0.673469387755102 0.22202021307341005 L 0.6938775510204082 0.2217267211905313 L 0.7142857142857142 0.224523006094792 L 0.7346938775510203 0.22577388601790213 L 0.7551020408163265 0.22336600929619638 L 0.7755102040816326 0.2239268114501152 L 0.7959183673469387 0.22235689887265211 L 0.8163265306122448 0.22657231571589959 L 0.836734693877551 0.2213102303993234 L 0.8571428571428571 0.22432702102327753 L 0.8775510204081632 0.22224395114314374 L 0.8979591836734693 0.21723034748288894 L 0.9183673469387754 0.2172688885302617 L 0.9387755102040816 0.22802808457577278 L 0.9591836734693877 0.21723178974798737 L 0.9795918367346939 0.22904322495933419 M 0.0 0.23991722382590416 L 0.02040816326530612 0.23651775889366267 L 0.04081632653061224 0.24016998459840516 L 0.061224489795918366 0.2370079711682368 L 0.08163265306122448 0.2416608181972091 L 0.1020408163265306 0.24097033402541443 L 0.12244897959183673 0.23991965015999198 L 0.14285714285714285 0.24228207674794625 L 0.16326530612244897 0.24405204507140515 L 0.18367346938775508 0.24485011416255775 L 0.2040816326530612 0.24272194722441848 L 0.22448979591836732 0.24440317584589613 L 0.24489795918367346 0.24374458860784048 L 0.26530612244897955 0.2435140203410044 L 0.2857142857142857 0.24372529232224086 L 0.3061224489795918 0.23628789227500868 L 0.32653061224489793 0.24516136452909912 L 0.3469387755102041 0.24023638565738054 L 0.36734693877551017 0.23906189046951043 L 0.3877551020408163 0.2361391876418628 L 0.4081632653061224 0.2382445417111813 L 0.42857142857142855 0.23742991980144018 L 0.44897959183673464 0.24361743313762213 L 0.4693877551020408 0.23409812183531725 L 0.4897959183673469 0.24533896987713674 L 0.5102040816326531 0.24248497360998583 L 0.5306122448979591 0.2397907380884668 L 0.5510204081632653 0.24089949147611908 L 0.5714285714285714 0.23822528914251856 L 0.5918367346938775 0.24094004097432295 L 0.6122448979591836 0.2442733330876104 L 0.6326530612244897 0.23736381281785024 L 0.6530612244897959 0.24399196029802478 L 0.673469387755102 0.24434364299834507 L 0.6938775510204082 0.24404758268693383 L 0.7142857142857142 0.24582573986291098 L 0.7346938775510203 0.24322081203827442 L 0.7551020408163265 0.24557540016875892 L 0.7755102040816326 0.24310767180326995 L 0.7959183673469387 0.23937583365721668 L 0.8163265306122448 0.24400569288384588 L 0.836734693877551 0.23763997415665977 L 0.8571428571428571 0.24437416085916752 L 0.8775510204081632 0.24273177855046724 L 0.8979591836734693 0.24010126640777552 L 0.9183673469387754 0.23496404226624176 L 0.9387755102040816 0.24440336078690725 L 0.9591836734693877 0.23870401542439207 L 0.9795918367346939 0.24087021705285958 M 0.0 0.2626310594125447 L 0.02040816326530612 0.25815768936745076 L 0.04081632653061224 0.2625866278696586 L 0.061224489795918366 0.25367920767378466 L 0.08163265306122448 0.2618584058976655 L 0.1020408163265306 0.2639857695400002 L 0.12244897959183673 0.25948873992554117 L 0.14285714285714285 0.2619324725621852 L 0.16326530612244897 0.25862641307990486 L 0.18367346938775508 0.2630255218789529 L 0.2040816326530612 0.2605051709110074 L 0.22448979591836732 0.26073216262335996 L 0.24489795918367346 0.2558876292992848 L 0.26530612244897955 0.25355803302504387 L 0.2857142857142857 0.25537358150321077 L 0.3061224489795918 0.2569432055526819 L 0.32653061224489793 0.26036283820222966 L 0.3469387755102041 0.2598493883751916 L 0.36734693877551017 0.2572671605746728 L 0.3877551020408163 0.26148269746522984 L 0.4081632653061224 0.261230950265254 L 0.42857142857142855 0.25636404152924375 L 0.44897959183673464 0.2547780178641074 L 0.4693877551020408 0.2539143655635386 L 0.4897959183673469 0.2566730260418052 L 0.5102040816326531 0.2567477750864749 L 0.5306122448979591 0.2501062293359824 L 0.5510204081632653 0.25659754864493095 L 0.5714285714285714 0.2578924030464719 L 0.5918367346938775 0.2581966471074394 L 0.6122448979591836 0.2589853842060603 L 0.6326530612244897 0.25385714877952376 L 0.6530612244897959 0.2602726463371354 L 0.673469387755102 0.2623247033677287 L 0.6938775510204082 0.2611118000074787 L 0.7142857142857142 0.25832417417972064 L 0.7346938775510203 0.2548933003453847 L 0.7551020408163265 0.2592162326206083 L 0.7755102040816326 0.2628474273103466 L 0.7959183673469387 0.25917314795736285 L 0.8163265306122448 0.2531597280055909 L 0.836734693877551 0.2517986145386382 L 0.8571428571428571 0.2550966586625573 L 0.8775510204081632 0.26392367228520136 L 0.8979591836734693 0.25919896841204393 L 0.9183673469387754 0.25751620137617365 L 0.9387755102040816 0.25945212492832104 L 0.9591836734693877 0.2549637585668401 L 0.9795918367346939 0.2534987578132736 M 0.0 0.27378824039189253 L 0.02040816326530612 0.27207841294657703 L 0.04081632653061224 0.27445462840330115 L 0.061224489795918366 0.278590130253038 L 0.08163265306122448 0.2785691304583035 L 0.1020408163265306 0.2775576043877503 L 0.12244897959183673 0.2743488145403128 L 0.14285714285714285 0.2748604154384492 L 0.16326530612244897 0.27623665570382344 L 0.18367346938775508 0.2793043496480946 L 0.2040816326530612 0.28153980323000777 L 0.22448979591836732 0.27522463396329666 L 0.24489795918367346 0.2753374847528627 L 0.26530612244897955 0.2783678462127398 L 0.2857142857142857 0.2732993785990425 L 0.3061224489795918 0.28051470190062017 L 0.32653061224489793 0.27711119608942325 L 0.3469387755102041 0.2795565913465051 L 0.36734693877551017 0.2762963547494956 L 0.3877551020408163 0.2772512506058588 L 0.4081632653061224 0.27411073214212095 L 0.42857142857142855 0.27066520857481774 L 0.44897959183673464 0.27108995419092247 L 0.4693877551020408 0.28218019916801 L 0.4897959183673469 0.2698179500777776 L 0.5102040816326531 0.2744338087593133 L 0.5306122448979591 0.2725993423711812 L 0.5510204081632653 0.27432675267454 L 0.5714285714285714 0.28103210874467344 L 0.5918367346938775 0.276790578264592 L 0.6122448979591836 0.2758509237835442 L 0.6326530612244897 0.27447266847900004 L 0.6530612244897959 0.2806307055060401 L 0.673469387755102 0.27915028493273686 L 0.6938775510204082 0.27701371086643545 L 0.7142857142857142 0.27827020007693276 L 0.7346938775510203 0.27629293346937384 L 0.7551020408163265 0.2765750342549224 L 0.7755102040816326 0.2759549860454903 L 0.7959183673469387 0.2798865765860769 L 0.8163265306122448 0.27828232677452985 L 0.836734693877551 0.28031144945003444 L 0.8571428571428571 0.2725198798059119 L 0.8775510204081632 0.2799080195249748 L 0.8979591836734693 0.27649424222473196 L 0.9183673469387754 0.27810412976966187 L 0.9387755102040816 0.27273931446784966 L 0.9591836734693877 0.27420992545552075 L 0.9795918367346939 0.2757548435601638 M 0.0 0.29763099819832844 L 0.02040816326530612 0.2965564410848428 L 0.04081632653061224 0.2946965130011577 L 0.061224489795918366 0.2976944636303117 L 0.08163265306122448 0.296343693496221 L 0.1020408163265306 0.2927994578661957 L 0.12244897959183673 0.28980167906072185 L 0.14285714285714285 0.2896193569000562 L 0.16326530612244897 0.290748359381992 L 0.18367346938775508 0.29020688981003023 L 0.2040816326530612 0.30029329698568946 L 0.22448979591836732 0.29534625628175865 L 0.24489795918367346 0.29240769257472243 L 0.26530612244897955 0.2915564569421362 L 0.2857142857142857 0.2914000838156918 L 0.3061224489795918 0.2977929866075504 L 0.32653061224489793 0.2926723146745605 L 0.3469387755102041 0.29307786425712334 L 0.36734693877551017 0.2954718233112474 L 0.3877551020408163 0.2956697886668968 L 0.4081632653061224 0.29250757826454016 L 0.42857142857142855 0.29194640549325473 L 0.44897959183673464 0.2945604447968154 L 0.4693877551020408 0.29033398142334166 L 0.4897959183673469 0.2905026228507586 L 0.5102040816326531 0.2967438894868021 L 0.5306122448979591 0.29503642119748036 L 0.5510204081632653 0.2900597351406777 L 0.5714285714285714 0.2944142592350177 L 0.5918367346938775 0.2961278086814774 L 0.6122448979591836 0.2920564299513298 L 0.6326530612244897 0.29595758844915343 L 0.6530612244897959 0.29790421599125827 L 0.673469387755102 0.2959323956870649 L 0.6938775510204082 0.2966058191164578 L 0.7142857142857142 0.29444262142923233 L 0.7346938775510203 0.29890191643712294 L 0.7551020408163265 0.29532827906112546 L 0.7755102040816326 0.2906301847953363 L 0.7959183673469387 0.2992756743152847 L 0.8163265306122448 0.2990206869492921 L 0.836734693877551 0.29365530880589646 L 0.8571428571428571 0.29207640741042085 L 0.8775510204081632 0.296099040782989 L 0.8979591836734693 0.29567315914572273 L 0.9183673469387754 0.2975886569432052 L 0.9387755102040816 0.2910183880225044 L 0.9591836734693877 0.2973801648346927 L 0.9795918367346939 0.29240812315203935 M 0.0 0.314686101289499 L 0.02040816326530612 0.3134994771467312 L 0.04081632653061224 0.3171388590375044 L 0.061224489795918366 0.3120559908173772 L 0.08163265306122448 0.3102738088487495 L 0.1020408163265306 0.3129911762428321 L 0.12244897959183673 0.3150574928594429 L 0.14285714285714285 0.3122594590788581 L 0.16326530612244897 0.3131777606751771 L 0.18367346938775508 0.30612766351715787 L 0.2040816326530612 0.3163094645279361 L 0.22448979591836732 0.3139082152580234 L 0.24489795918367346 0.31504109155498217 L 0.26530612244897955 0.31481479429942555 L 0.2857142857142857 0.3113727174048627 L 0.3061224489795918 0.3096323167830257 L 0.32653061224489793 0.30605508821597244 L 0.3469387755102041 0.31377935564038917 L 0.36734693877551017 0.3109437786382008 L 0.3877551020408163 0.3151117360476307 L 0.4081632653061224 0.31244941052831177 L 0.42857142857142855 0.3125097332676063 L 0.44897959183673464 0.30999589810589817 L 0.4693877551020408 0.31275042604998404 L 0.4897959183673469 0.3068286684513915 L 0.5102040816326531 0.3014208905719182 L 0.5306122448979591 0.30564984882270463 L 0.5510204081632653 0.31585791990613604 L 0.5714285714285714 0.31669960018383947 L 0.5918367346938775 0.30850598516711636 L 0.6122448979591836 0.3139608076125619 L 0.6326530612244897 0.3140546202905079 L 0.6530612244897959 0.31035791455049583 L 0.673469387755102 0.3122187287537377 L 0.6938775510204082 0.31396679252113535 L 0.7142857142857142 0.31353764231958225 L 0.7346938775510203 0.31712044333341016 L 0.7551020408163265 0.3152603803860974 L 0.7755102040816326 0.30818647850313374 L 0.7959183673469387 0.31431559893623096 L 0.8163265306122448 0.31240972206521145 L 0.836734693877551 0.312058259552917 L 0.8571428571428571 0.31508962179423566 L 0.8775510204081632 0.31478240600086294 L 0.8979591836734693 0.3122583602317673 L 0.9183673469387754 0.3126484511574957 L 0.9387755102040816 0.3052293555966574 L 0.9591836734693877 0.31130560269301316 L 0.9795918367346939 0.3105410217478599 M 0.0 0.32853589190843047 L 0.02040816326530612 0.32467278461046284 L 0.04081632653061224 0.322353705573912 L 0.061224489795918366 0.32820942229109823 L 0.08163265306122448 0.3281861661818116 L 0.1020408163265306 0.3321265601420894 L 0.12244897959183673 0.3313081746106066 L 0.14285714285714285 0.3292269150410489 L 0.16326530612244897 0.3248032817759596 L 0.18367346938775508 0.32792831421810403 L 0.2040816326530612 0.3327242905056622 L 0.22448979591836732 0.33234651218049355 L 0.24489795918367346 0.3308579184536047 L 0.26530612244897955 0.33140213354650244 L 0.2857142857142857 0.33120834904784924 L 0.3061224489795918 0.3326846077335205 L 0.32653061224489793 0.32315153705139343 L 0.3469387755102041 0.3287417486609829 L 0.36734693877551017 0.3333010358661766 L 0.3877551020408163 0.3321323115576935 L 0.4081632653061224 0.33119014998045715 L 0.42857142857142855 0.3263504301264238 L 0.44897959183673464 0.3319813208632294 L 0.4693877551020408 0.33142062818572715 L 0.4897959183673469 0.32941361549783565 L 0.5102040816326531 0.3306706533292359 L 0.5306122448979591 0.3264335494484201 L 0.5510204081632653 0.32878792145265584 L 0.5714285714285714 0.32997179435752766 L 0.5918367346938775 0.330518472617232 L 0.6122448979591836 0.331757852320487 L 0.6326530612244897 0.3285320103044165 L 0.6530612244897959 0.32512069937954396 L 0.673469387755102 0.3306225456604817 L 0.6938775510204082 0.3344285429160482 L 0.7142857142857142 0.3322038873766484 L 0.7346938775510203 0.33470539447007025 L 0.7551020408163265 0.32980613484369775 L 0.7755102040816326 0.32761401917875715 L 0.7959183673469387 0.3325786578266312 L 0.8163265306122448 0.32995431267251574 L 0.836734693877551 0.3306530519575648 L 0.8571428571428571 0.33152756477241035 L 0.8775510204081632 0.3286722196877976 L 0.8979591836734693 0.33071291928505664 L 0.9183673469387754 0.33128631836344063 L 0.9387755102040816 0.3314250769877555 L 0.9591836734693877 0.32827734356780397 L 0.9795918367346939 0.3305616632009796 M 0.0 0.3504731842523324 L 0.02040816326530612 0.35160433101607297 L 0.04081632653061224 0.34737985821695405 L 0.061224489795918366 0.34868486195443943 L 0.08163265306122448 0.34865750764624553 L 0.1020408163265306 0.3519506253649403 L 0.12244897959183673 0.35167367078038486 L 0.14285714285714285 0.34991904663101164 L 0.16326530612244897 0.35146124367651455 L 0.18367346938775508 0.34907977150296443 L 0.2040816326530612 0.350935354857664 L 0.22448979591836732 0.346317354407581 L 0.24489795918367346 0.3462709991901816 L 0.26530612244897955 0.34971680472928934 L 0.2857142857142857 0.3476152920844106 L 0.3061224489795918 0.34691437223282423 L 0.32653061224489793 0.34637128548668494 L 0.3469387755102041 0.34870371818876017 L 0.36734693877551017 0.34828456103830063 L 0.3877551020408163 0.34949171087554787 L 0.4081632653061224 0.34805496915398415 L 0.42857142857142855 0.3501393407789433 L 0.44897959183673464 0.3465097411568888 L 0.4693877551020408 0.3462594517268952 L 0.4897959183673469 0.3454181817302619 L 0.5102040816326531 0.3489392605595971 L 0.5306122448979591 0.349704134953898 L 0.5510204081632653 0.34704304314688655 L 0.5714285714285714 0.34873979325894977 L 0.5918367346938775 0.348331577871324 L 0.6122448979591836 0.3508508672462846 L 0.6326530612244897 0.34501290140958674 L 0.6530612244897959 0.3447053003467986 L 0.673469387755102 0.3471366400154863 L 0.6938775510204082 0.3505444707946874 L 0.7142857142857142 0.35114193359002943 L 0.7346938775510203 0.3460488615187959 L 0.7551020408163265 0.34663120533457387 L 0.7755102040816326 0.34790954886889824 L 0.7959183673469387 0.35116486265380165 L 0.8163265306122448 0.3440236039345239 L 0.836734693877551 0.3487758538422727 L 0.8571428571428571 0.3446153393888527 L 0.8775510204081632 0.3441826459127016 L 0.8979591836734693 0.34426498093188196 L 0.9183673469387754 0.346556610978249 L 0.9387755102040816 0.34687176935193 L 0.9591836734693877 0.351020118342015 L 0.9795918367346939 0.3399482653480955 M 0.0 0.370416934371304 L 0.02040816326530612 0.3652331317652592 L 0.04081632653061224 0.36589062463317645 L 0.061224489795918366 0.36983648986520234 L 0.08163265306122448 0.36777649986986816 L 0.1020408163265306 0.36788046414135694 L 0.12244897959183673 0.3684427428453949 L 0.14285714285714285 0.3670236139398399 L 0.16326530612244897 0.3645097394498758 L 0.18367346938775508 0.3627340602299558 L 0.2040816326530612 0.36667791879656514 L 0.22448979591836732 0.366865333806722 L 0.24489795918367346 0.3674264368482133 L 0.26530612244897955 0.3674530830894751 L 0.2857142857142857 0.36402641752996884 L 0.3061224489795918 0.35650338953789135 L 0.32653061224489793 0.3672613444477641 L 0.3469387755102041 0.3662725795537693 L 0.36734693877551017 0.36746423920138943 L 0.3877551020408163 0.3691114313342885 L 0.4081632653061224 0.3675028092611686 L 0.42857142857142855 0.36856294870056294 L 0.44897959183673464 0.3677614753642633 L 0.4693877551020408 0.3634151181149654 L 0.4897959183673469 0.36780395004372374 L 0.5102040816326531 0.36378666543473515 L 0.5306122448979591 0.3673301058237995 L 0.5510204081632653 0.36636093567794364 L 0.5714285714285714 0.36845427972416783 L 0.5918367346938775 0.36800724555397096 L 0.6122448979591836 0.3626973587558385 L 0.6326530612244897 0.3661210175176646 L 0.6530612244897959 0.36676205974105 L 0.673469387755102 0.36322602145008087 L 0.6938775510204082 0.3665648671816937 L 0.7142857142857142 0.36527875625038014 L 0.7346938775510203 0.3600484357387766 L 0.7551020408163265 0.362849574866434 L 0.7755102040816326 0.36569046545800415 L 0.7959183673469387 0.3580462967634801 L 0.8163265306122448 0.36557460040945106 L 0.836734693877551 0.3630194171384878 L 0.8571428571428571 0.3630594261814971 L 0.8775510204081632 0.36692586961982837 L 0.8979591836734693 0.3668185563488661 L 0.9183673469387754 0.3643788203207507 L 0.9387755102040816 0.36399456344470993 L 0.9591836734693877 0.36572429896273007 L 0.9795918367346939 0.3623040250866065 M 0.0 0.3856242920156497 L 0.02040816326530612 0.38030683422824924 L 0.04081632653061224 0.38305786167931477 L 0.061224489795918366 0.38292674449101755 L 0.08163265306122448 0.3839161367243564 L 0.1020408163265306 0.38679751227239967 L 0.12244897959183673 0.3855890927098143 L 0.14285714285714285 0.3851482397857921 L 0.16326530612244897 0.3872334562348564 L 0.18367346938775508 0.3777169734802546 L 0.2040816326530612 0.38209061969452435 L 0.22448979591836732 0.38569864373948193 L 0.24489795918367346 0.38644214295738305 L 0.26530612244897955 0.3831315827240866 L 0.2857142857142857 0.3792791824176545 L 0.3061224489795918 0.3729419937572306 L 0.32653061224489793 0.3826479386355044 L 0.3469387755102041 0.3861943006627191 L 0.36734693877551017 0.3821893088919372 L 0.3877551020408163 0.38095374234909196 L 0.4081632653061224 0.385138574219035 L 0.42857142857142855 0.38511697984108983 L 0.44897959183673464 0.3835480807417207 L 0.4693877551020408 0.3820789773860232 L 0.4897959183673469 0.38764039555201346 L 0.5102040816326531 0.38312221687303677 L 0.5306122448979591 0.3839827149064483 L 0.5510204081632653 0.384141587312484 L 0.5714285714285714 0.38415377788084376 L 0.5918367346938775 0.37886799639997065 L 0.6122448979591836 0.38219783067060303 L 0.6326530612244897 0.3859565120361059 L 0.6530612244897959 0.38373111415996125 L 0.673469387755102 0.3886149766332626 L 0.6938775510204082 0.3820650429737982 L 0.7142857142857142 0.3826902641867823 L 0.7346938775510203 0.3823327143496128 L 0.7551020408163265 0.38385069714244635 L 0.7755102040816326 0.3753114567505226 L 0.7959183673469387 0.38528380645041616 L 0.8163265306122448 0.3772711024083685 L 0.836734693877551 0.3794074769637174 L 0.8571428571428571 0.38037749560835005 L 0.8775510204081632 0.3826631193756594 L 0.8979591836734693 0.3804273670089152 L 0.9183673469387754 0.38236230705836655 L 0.9387755102040816 0.3831256747119658 L 0.9591836734693877 0.38152250297230333 L 0.9795918367346939 0.37912228444488427 M 0.0 0.39795212172887906 L 0.02040816326530612 0.3991212573459182 L 0.04081632653061224 0.40526569553095915 L 0.061224489795918366 0.40547486543228045 L 0.08163265306122448 0.3985003127942101 L 0.1020408163265306 0.4040552611971338 L 0.12244897959183673 0.4045710506394412 L 0.14285714285714285 0.4002934571553845 L 0.16326530612244897 0.40011971881704517 L 0.18367346938775508 0.4004103228692162 L 0.2040816326530612 0.393357948034567 L 0.22448979591836732 0.4021668438437327 L 0.24489795918367346 0.4001644088658023 L 0.26530612244897955 0.40446847533384017 L 0.2857142857142857 0.3971879819032745 L 0.3061224489795918 0.3926376096164451 L 0.32653061224489793 0.40427319023251734 L 0.3469387755102041 0.400849181377587 L 0.36734693877551017 0.40172478806949713 L 0.3877551020408163 0.40156674521082153 L 0.4081632653061224 0.39872411557876486 L 0.42857142857142855 0.40413326099045316 L 0.44897959183673464 0.39815203376932135 L 0.4693877551020408 0.3981056644919667 L 0.4897959183673469 0.4019268883482007 L 0.5102040816326531 0.3940233158015187 L 0.5306122448979591 0.3996585457700478 L 0.5510204081632653 0.3970210526595394 L 0.5714285714285714 0.39679906590204744 L 0.5918367346938775 0.40505460716514996 L 0.6122448979591836 0.39835485718723795 L 0.6326530612244897 0.40178950311059486 L 0.6530612244897959 0.4050651007531588 L 0.673469387755102 0.40140505013651995 L 0.6938775510204082 0.40492300979866064 L 0.7142857142857142 0.40409030284026 L 0.7346938775510203 0.40125875629256735 L 0.7551020408163265 0.40064137772346525 L 0.7755102040816326 0.3949562075744533 L 0.7959183673469387 0.3957713990484555 L 0.8163265306122448 0.3958917730040504 L 0.836734693877551 0.4044687427635957 L 0.8571428571428571 0.4018259318249929 L 0.8775510204081632 0.40486629935294915 L 0.8979591836734693 0.40488166641231077 L 0.9183673469387754 0.40041348054464765 L 0.9387755102040816 0.39668210679433824 L 0.9591836734693877 0.4056734942577915 L 0.9795918367346939 0.398283692808114 M 0.0 0.4162016802606547 L 0.02040816326530612 0.41544164937619094 L 0.04081632653061224 0.4174116798496607 L 0.061224489795918366 0.41791320459585496 L 0.08163265306122448 0.4180271150509835 L 0.1020408163265306 0.42209881952785006 L 0.12244897959183673 0.42092246221649243 L 0.14285714285714285 0.42195593850567276 L 0.16326530612244897 0.4183495114133621 L 0.18367346938775508 0.4187904373723638 L 0.2040816326530612 0.4161244627509785 L 0.22448979591836732 0.4157757923119965 L 0.24489795918367346 0.4160130817045649 L 0.26530612244897955 0.418687177256983 L 0.2857142857142857 0.41590973698995626 L 0.3061224489795918 0.4226658167339892 L 0.32653061224489793 0.4131331287959222 L 0.3469387755102041 0.4202056397120385 L 0.36734693877551017 0.4168431815587392 L 0.3877551020408163 0.4146732985144881 L 0.4081632653061224 0.41908700486380834 L 0.42857142857142855 0.41751432118236226 L 0.44897959183673464 0.41959259737096477 L 0.4693877551020408 0.42239036329320223 L 0.4897959183673469 0.4204322431971325 L 0.5102040816326531 0.41249612211646164 L 0.5306122448979591 0.4195110566603691 L 0.5510204081632653 0.40500634890531595 L 0.5714285714285714 0.41537318516762844 L 0.5918367346938775 0.41516642695799294 L 0.6122448979591836 0.41348612743427926 L 0.6326530612244897 0.4186077527099028 L 0.6530612244897959 0.4167540137906687 L 0.673469387755102 0.42026834316115197 L 0.6938775510204082 0.41649233741378805 L 0.7142857142857142 0.414171966620066 L 0.7346938775510203 0.4120939727596975 L 0.7551020408163265 0.41728613790776814 L 0.7755102040816326 0.4161195813167826 L 0.7959183673469387 0.41630231536956913 L 0.8163265306122448 0.41933920776322453 L 0.836734693877551 0.4219928559823912 L 0.8571428571428571 0.4152265418549848 L 0.8775510204081632 0.41533305082391586 L 0.8979591836734693 0.4168511670438014 L 0.9183673469387754 0.4163793391074938 L 0.9387755102040816 0.4177969571015159 L 0.9591836734693877 0.4163074688264736 L 0.9795918367346939 0.4206283884137777 M 0.0 0.4408463392270646 L 0.02040816326530612 0.43651133038782225 L 0.04081632653061224 0.4340464544340323 L 0.061224489795918366 0.43536487563106496 L 0.08163265306122448 0.43718566969320527 L 0.1020408163265306 0.43631609147841877 L 0.12244897959183673 0.43683812702797115 L 0.14285714285714285 0.4344002533080774 L 0.16326530612244897 0.43890547278345665 L 0.18367346938775508 0.4357440016143311 L 0.2040816326530612 0.438873033460024 L 0.22448979591836732 0.4390573869524865 L 0.24489795918367346 0.4396426500896338 L 0.26530612244897955 0.4373512288763626 L 0.2857142857142857 0.4354247701808557 L 0.3061224489795918 0.438021564710865 L 0.32653061224489793 0.4329367791221401 L 0.3469387755102041 0.432006305317702 L 0.36734693877551017 0.4366568741865418 L 0.3877551020408163 0.4343561828863268 L 0.4081632653061224 0.42994736988221005 L 0.42857142857142855 0.43670921178757205 L 0.44897959183673464 0.44022666449245723 L 0.4693877551020408 0.43523371872742206 L 0.4897959183673469 0.43874840472232196 L 0.5102040816326531 0.4360469676747135 L 0.5306122448979591 0.433306210159401 L 0.5510204081632653 0.4246045463846157 L 0.5714285714285714 0.4357108420380646 L 0.5918367346938775 0.42354651048123954 L 0.6122448979591836 0.4358123424010662 L 0.6326530612244897 0.4397616567772418 L 0.6530612244897959 0.4376183113722786 L 0.673469387755102 0.4320421166013158 L 0.6938775510204082 0.4300064422465054 L 0.7142857142857142 0.4372729217539035 L 0.7346938775510203 0.4252063124438169 L 0.7551020408163265 0.428152607623361 L 0.7755102040816326 0.43163418622993993 L 0.7959183673469387 0.436398022748131 L 0.8163265306122448 0.43827416572656375 L 0.836734693877551 0.43732563076326203 L 0.8571428571428571 0.4329877117910879 L 0.8775510204081632 0.43464406539203404 L 0.8979591836734693 0.43079335544453423 L 0.9183673469387754 0.4352012688098294 L 0.9387755102040816 0.4406526836146263 L 0.9591836734693877 0.43723318462456096 L 0.9795918367346939 0.44069900473028034 M 0.0 0.44808134174221753 L 0.02040816326530612 0.4531070669446865 L 0.04081632653061224 0.44844563746453514 L 0.061224489795918366 0.4565842936843874 L 0.08163265306122448 0.4525792366110505 L 0.1020408163265306 0.4507598156849587 L 0.12244897959183673 0.4556063674741203 L 0.14285714285714285 0.45533397705241363 L 0.16326530612244897 0.45036488181963424 L 0.18367346938775508 0.45620051643742765 L 0.2040816326530612 0.45609682723156475 L 0.22448979591836732 0.4552837773497706 L 0.24489795918367346 0.4525409862895918 L 0.26530612244897955 0.45345027739353533 L 0.2857142857142857 0.4524618041162563 L 0.3061224489795918 0.45442402796170833 L 0.32653061224489793 0.45437242613456924 L 0.3469387755102041 0.45643400271656015 L 0.36734693877551017 0.45606411122652957 L 0.3877551020408163 0.4544647617016012 L 0.4081632653061224 0.4560906994331844 L 0.42857142857142855 0.4539741349026422 L 0.44897959183673464 0.4519508146701812 L 0.4693877551020408 0.4541739601442669 L 0.4897959183673469 0.45322864439602345 L 0.5102040816326531 0.45654337107880705 L 0.5306122448979591 0.45347527625397194 L 0.5510204081632653 0.44769761448863704 L 0.5714285714285714 0.44979635939402607 L 0.5918367346938775 0.4461429919986867 L 0.6122448979591836 0.4517866249945364 L 0.6326530612244897 0.45224956980106423 L 0.6530612244897959 0.45319830669398914 L 0.673469387755102 0.45149804033429025 L 0.6938775510204082 0.45528834997986134 L 0.7142857142857142 0.45697982148410937 L 0.7346938775510203 0.4523830632663147 L 0.7551020408163265 0.4468191361858307 L 0.7755102040816326 0.4494834800851613 L 0.7959183673469387 0.45363095896340255 L 0.8163265306122448 0.452713804387669 L 0.836734693877551 0.4555991001593554 L 0.8571428571428571 0.45257804872797525 L 0.8775510204081632 0.4454848820491684 L 0.8979591836734693 0.4536082760669914 L 0.9183673469387754 0.4565442483810108 L 0.9387755102040816 0.45419154419504026 L 0.9591836734693877 0.45478922956588863 L 0.9795918367346939 0.45244097005325323 M 0.0 0.4746870147054485 L 0.02040816326530612 0.46934883311248254 L 0.04081632653061224 0.4676942581423819 L 0.061224489795918366 0.4661382911217304 L 0.08163265306122448 0.4719087142992669 L 0.1020408163265306 0.47304596183131437 L 0.12244897959183673 0.4673226209399454 L 0.14285714285714285 0.4704571562028341 L 0.16326530612244897 0.46954407452464936 L 0.18367346938775508 0.4683669647520713 L 0.2040816326530612 0.46858190864752985 L 0.22448979591836732 0.4711769146452061 L 0.24489795918367346 0.4751277729859832 L 0.26530612244897955 0.470952281922749 L 0.2857142857142857 0.4699048055598412 L 0.3061224489795918 0.469009283127736 L 0.32653061224489793 0.47357736629542024 L 0.3469387755102041 0.4697354805463886 L 0.36734693877551017 0.47251182757991717 L 0.3877551020408163 0.4711186712702368 L 0.4081632653061224 0.4703159304716388 L 0.42857142857142855 0.4728376407274923 L 0.44897959183673464 0.46919907464954785 L 0.4693877551020408 0.4747942547778272 L 0.4897959183673469 0.4700440838976687 L 0.5102040816326531 0.4733069118059578 L 0.5306122448979591 0.4698013350244055 L 0.5510204081632653 0.47164472530772106 L 0.5714285714285714 0.4687935508076218 L 0.5918367346938775 0.4740098257041666 L 0.6122448979591836 0.4706869218514483 L 0.6326530612244897 0.47581704262039026 L 0.6530612244897959 0.47401182284735915 L 0.673469387755102 0.47066840753064704 L 0.6938775510204082 0.4692269544215747 L 0.7142857142857142 0.4745606352717905 L 0.7346938775510203 0.47060556164123335 L 0.7551020408163265 0.4740767266629996 L 0.7755102040816326 0.47331185046994834 L 0.7959183673469387 0.475606863155228 L 0.8163265306122448 0.4712978821793727 L 0.836734693877551 0.46872958610087817 L 0.8571428571428571 0.4740620921625022 L 0.8775510204081632 0.465798247560934 L 0.8979591836734693 0.466309291622307 L 0.9183673469387754 0.47190946393434263 L 0.9387755102040816 0.47472837280669494 L 0.9591836734693877 0.47336538168161724 L 0.9795918367346939 0.4744076955318758 M 0.0 0.4923216319864262 L 0.02040816326530612 0.48622684643840214 L 0.04081632653061224 0.49317062816033846 L 0.061224489795918366 0.48547642482618697 L 0.08163265306122448 0.4930166745792706 L 0.1020408163265306 0.49010163594805417 L 0.12244897959183673 0.4884669742339964 L 0.14285714285714285 0.4802032688599462 L 0.16326530612244897 0.48808488389719107 L 0.18367346938775508 0.49226466249961626 L 0.2040816326530612 0.4887286119766277 L 0.22448979591836732 0.4870930364865856 L 0.24489795918367346 0.4868976892361362 L 0.26530612244897955 0.4910459224642781 L 0.2857142857142857 0.48655263164477447 L 0.3061224489795918 0.4857007542988104 L 0.32653061224489793 0.48563650062847774 L 0.3469387755102041 0.4892436275227288 L 0.36734693877551017 0.4899047078541666 L 0.3877551020408163 0.48470253111436795 L 0.4081632653061224 0.4902526719182402 L 0.42857142857142855 0.4906741741199028 L 0.44897959183673464 0.4906128246075011 L 0.4693877551020408 0.489026889497205 L 0.4897959183673469 0.4869772289547405 L 0.5102040816326531 0.4922906125399799 L 0.5306122448979591 0.4882670626135132 L 0.5510204081632653 0.4899787979798147 L 0.5714285714285714 0.4908949863391454 L 0.5918367346938775 0.48951766255886303 L 0.6122448979591836 0.48849246361044296 L 0.6326530612244897 0.49222535063397815 L 0.6530612244897959 0.4923630885178841 L 0.673469387755102 0.4920442481973289 L 0.6938775510204082 0.4880718723628348 L 0.7142857142857142 0.49073444845359226 L 0.7346938775510203 0.48995419898956294 L 0.7551020408163265 0.4927944308464848 L 0.7755102040816326 0.4914152394854681 L 0.7959183673469387 0.4882349045389153 L 0.8163265306122448 0.4867414254849052 L 0.836734693877551 0.48975331296185676 L 0.8571428571428571 0.49241478383281123 L 0.8775510204081632 0.4920672716193545 L 0.8979591836734693 0.48844521346827274 L 0.9183673469387754 0.487543769351232 L 0.9387755102040816 0.49116797270839724 L 0.9591836734693877 0.48991566270676207 L 0.9795918367346939 0.4894825623856224 M 0.0 0.5069575298046248 L 0.02040816326530612 0.503813600470664 L 0.04081632653061224 0.502534397615157 L 0.061224489795918366 0.5042601100109102 L 0.08163265306122448 0.5112583689815848 L 0.1020408163265306 0.5108795180300985 L 0.12244897959183673 0.5086778646884281 L 0.14285714285714285 0.5049813335860645 L 0.16326530612244897 0.5089668865766032 L 0.18367346938775508 0.5107636281504363 L 0.2040816326530612 0.5077913487238869 L 0.22448979591836732 0.5102371870126146 L 0.24489795918367346 0.5060612001282706 L 0.26530612244897955 0.5051453828377859 L 0.2857142857142857 0.5092262361853575 L 0.3061224489795918 0.5058961260323006 L 0.32653061224489793 0.5016243741760855 L 0.3469387755102041 0.5029009584336729 L 0.36734693877551017 0.5081130056974653 L 0.3877551020408163 0.5064222475560024 L 0.4081632653061224 0.5045623442130304 L 0.42857142857142855 0.506260329911708 L 0.44897959183673464 0.5102654128723101 L 0.4693877551020408 0.502061832680032 L 0.4897959183673469 0.5097785885327955 L 0.5102040816326531 0.5033833690607765 L 0.5306122448979591 0.5106335004744823 L 0.5510204081632653 0.5077735621823212 L 0.5714285714285714 0.5045168130254112 L 0.5918367346938775 0.506847185941717 L 0.6122448979591836 0.507365063987804 L 0.6326530612244897 0.5098785940590095 L 0.6530612244897959 0.5094372795000235 L 0.673469387755102 0.5086269398406232 L 0.6938775510204082 0.5064171457297468 L 0.7142857142857142 0.5075541198341252 L 0.7346938775510203 0.5064014903901184 L 0.7551020408163265 0.5067511456636622 L 0.7755102040816326 0.5118824279736182 L 0.7959183673469387 0.5005680213555619 L 0.8163265306122448 0.5073437878980599 L 0.836734693877551 0.5100235816519633 L 0.8571428571428571 0.5080808476972829 L 0.8775510204081632 0.5080349876926881 L 0.8979591836734693 0.5097629389366852 L 0.9183673469387754 0.5031548182873523 L 0.9387755102040816 0.5085920841418597 L 0.9591836734693877 0.5065707393681419 L 0.9795918367346939 0.5044746732150746 M 0.0 0.5293723608329497 L 0.02040816326530612 0.5251491422563915 L 0.04081632653061224 0.5252332567172571 L 0.061224489795918366 0.5203269048509376 L 0.08163265306122448 0.522864398872891 L 0.1020408163265306 0.5292822616076129 L 0.12244897959183673 0.5274660127204271 L 0.14285714285714285 0.5220625665970212 L 0.16326530612244897 0.5272241277746775 L 0.18367346938775508 0.5229409539763193 L 0.2040816326530612 0.5270007763190587 L 0.22448979591836732 0.5230936215233543 L 0.24489795918367346 0.5208158703443672 L 0.26530612244897955 0.5169676748017613 L 0.2857142857142857 0.5230901306865557 L 0.3061224489795918 0.5299534315570745 L 0.32653061224489793 0.5293728721628929 L 0.3469387755102041 0.5226841342366148 L 0.36734693877551017 0.5233380480203013 L 0.3877551020408163 0.5267893455455348 L 0.4081632653061224 0.520119531890143 L 0.42857142857142855 0.5245151384150094 L 0.44897959183673464 0.5213144710849961 L 0.4693877551020408 0.5230557794008008 L 0.4897959183673469 0.5277038068251566 L 0.5102040816326531 0.522724311163519 L 0.5306122448979591 0.5291024115168703 L 0.5510204081632653 0.5271086027302492 L 0.5714285714285714 0.5257853396963432 L 0.5918367346938775 0.5230842024524397 L 0.6122448979591836 0.5228175604251334 L 0.6326530612244897 0.5207854214931594 L 0.6530612244897959 0.5231285435810464 L 0.673469387755102 0.5205600846190026 L 0.6938775510204082 0.5218819687352615 L 0.7142857142857142 0.5274512359602815 L 0.7346938775510203 0.5253604574718382 L 0.7551020408163265 0.5228843335755773 L 0.7755102040816326 0.5213778757766857 L 0.7959183673469387 0.5215636816243225 L 0.8163265306122448 0.5240816380605648 L 0.836734693877551 0.5270197604822772 L 0.8571428571428571 0.5268222837356937 L 0.8775510204081632 0.5265940700312026 L 0.8979591836734693 0.5270062223623849 L 0.9183673469387754 0.5207941508290245 L 0.9387755102040816 0.5259859375070923 L 0.9591836734693877 0.5227521173269669 L 0.9795918367346939 0.5242054748395186 M 0.0 0.5452386386312502 L 0.02040816326530612 0.5396706801384822 L 0.04081632653061224 0.5420104159161875 L 0.061224489795918366 0.5454430679157466 L 0.08163265306122448 0.5380189430220208 L 0.1020408163265306 0.5430957102580865 L 0.12244897959183673 0.5420253309894738 L 0.14285714285714285 0.5407897558051277 L 0.16326530612244897 0.5405820152782571 L 0.18367346938775508 0.5422926175480101 L 0.2040816326530612 0.5467851824132223 L 0.22448979591836732 0.5397022281668468 L 0.24489795918367346 0.5367211458887167 L 0.26530612244897955 0.5383303687052734 L 0.2857142857142857 0.5364697011477902 L 0.3061224489795918 0.5433028161562404 L 0.32653061224489793 0.5411922448727375 L 0.3469387755102041 0.5404143109542925 L 0.36734693877551017 0.5456355644938794 L 0.3877551020408163 0.5427666004280606 L 0.4081632653061224 0.5425607164462424 L 0.42857142857142855 0.5458734911957485 L 0.44897959183673464 0.5440460126385439 L 0.4693877551020408 0.5466554925393956 L 0.4897959183673469 0.5463761801359581 L 0.5102040816326531 0.5417761077151522 L 0.5306122448979591 0.5450690273600329 L 0.5510204081632653 0.5453031298179039 L 0.5714285714285714 0.5423276278547724 L 0.5918367346938775 0.5455075477931361 L 0.6122448979591836 0.5442035195670523 L 0.6326530612244897 0.5424920094884891 L 0.6530612244897959 0.5433537579613821 L 0.673469387755102 0.5458840117975231 L 0.6938775510204082 0.5413663233196908 L 0.7142857142857142 0.5413180864418953 L 0.7346938775510203 0.5433433904381896 L 0.7551020408163265 0.5401089620041187 L 0.7755102040816326 0.5349874141764687 L 0.7959183673469387 0.5441148728085743 L 0.8163265306122448 0.5447253289026963 L 0.836734693877551 0.5471434691789996 L 0.8571428571428571 0.5407466702131821 L 0.8775510204081632 0.5426755271680809 L 0.8979591836734693 0.5419274695805817 L 0.9183673469387754 0.5433230648275145 L 0.9387755102040816 0.5400834776768649 L 0.9591836734693877 0.5419320288398812 L 0.9795918367346939 0.5457862487758117 M 0.0 0.5641827559677977 L 0.02040816326530612 0.5579560468212493 L 0.04081632653061224 0.5645524666785569 L 0.061224489795918366 0.5625247841426757 L 0.08163265306122448 0.5595492017287417 L 0.1020408163265306 0.5563231868309881 L 0.12244897959183673 0.5627996783612478 L 0.14285714285714285 0.5597425450122241 L 0.16326530612244897 0.5591703242645409 L 0.18367346938775508 0.5623747659355535 L 0.2040816326530612 0.5605957701606248 L 0.22448979591836732 0.563290987745905 L 0.24489795918367346 0.5553192713854703 L 0.26530612244897955 0.5603055227934242 L 0.2857142857142857 0.5565305998795397 L 0.3061224489795918 0.5627445392060958 L 0.32653061224489793 0.5569060683631621 L 0.3469387755102041 0.5601759056929136 L 0.36734693877551017 0.562497504767809 L 0.3877551020408163 0.5638506347819471 L 0.4081632653061224 0.5611607660954854 L 0.42857142857142855 0.5631115496048994 L 0.44897959183673464 0.56143211842895 L 0.4693877551020408 0.5634489255714761 L 0.4897959183673469 0.5605793579504506 L 0.5102040816326531 0.5580251586253011 L 0.5306122448979591 0.5567176091536434 L 0.5510204081632653 0.5631542928996195 L 0.5714285714285714 0.5585450357641857 L 0.5918367346938775 0.5540479141249182 L 0.6122448979591836 0.5596986964699389 L 0.6326530612244897 0.5644197565724531 L 0.6530612244897959 0.5615857463939032 L 0.673469387755102 0.5628888767473991 L 0.6938775510204082 0.5610909662969085 L 0.7142857142857142 0.5610928889710407 L 0.7346938775510203 0.5552465335182856 L 0.7551020408163265 0.5582516809391367 L 0.7755102040816326 0.5559616836007845 L 0.7959183673469387 0.5590485295470029 L 0.8163265306122448 0.5608740754133248 L 0.836734693877551 0.5580943303228741 L 0.8571428571428571 0.5568340341155501 L 0.8775510204081632 0.5608760622645975 L 0.8979591836734693 0.5639569528685695 L 0.9183673469387754 0.5628372950184617 L 0.9387755102040816 0.5620125879629825 L 0.9591836734693877 0.5600121222675979 L 0.9795918367346939 0.5584496330175035 M 0.0 0.5760347583821462 L 0.02040816326530612 0.572478037095021 L 0.04081632653061224 0.5763619802036112 L 0.061224489795918366 0.5814956951000588 L 0.08163265306122448 0.579312421132698 L 0.1020408163265306 0.5734545712761546 L 0.12244897959183673 0.5763786634992115 L 0.14285714285714285 0.5789627596121724 L 0.16326530612244897 0.5760574168788632 L 0.18367346938775508 0.5759552155077261 L 0.2040816326530612 0.5810379762230348 L 0.22448979591836732 0.5755957973358775 L 0.24489795918367346 0.5803756693159867 L 0.26530612244897955 0.575476174494017 L 0.2857142857142857 0.5815481762762488 L 0.3061224489795918 0.5750691214163045 L 0.32653061224489793 0.57895276306733 L 0.3469387755102041 0.5736519318038212 L 0.36734693877551017 0.5815707262197781 L 0.3877551020408163 0.5800203794790597 L 0.4081632653061224 0.5799623375230154 L 0.42857142857142855 0.5769634579172593 L 0.44897959183673464 0.575712580354443 L 0.4693877551020408 0.5773313982282288 L 0.4897959183673469 0.5799085668881717 L 0.5102040816326531 0.5778749357955363 L 0.5306122448979591 0.5753853313655601 L 0.5510204081632653 0.5810130996392937 L 0.5714285714285714 0.5771968502639236 L 0.5918367346938775 0.5787670137940032 L 0.6122448979591836 0.5742684434583567 L 0.6326530612244897 0.5795321394254704 L 0.6530612244897959 0.5812834790292158 L 0.673469387755102 0.5811288194140505 L 0.6938775510204082 0.5811766864570332 L 0.7142857142857142 0.5752425135845077 L 0.7346938775510203 0.5788341392844288 L 0.7551020408163265 0.5763259308151504 L 0.7755102040816326 0.5810143302248273 L 0.7959183673469387 0.5718908876102743 L 0.8163265306122448 0.5762034546015549 L 0.836734693877551 0.5737095950628391 L 0.8571428571428571 0.5803084597498905 L 0.8775510204081632 0.5779818758503255 L 0.8979591836734693 0.5783486149767803 L 0.9183673469387754 0.5814525420843454 L 0.9387755102040816 0.5812267093083656 L 0.9591836734693877 0.5821874750414698 L 0.9795918367346939 0.5805578753269626 M 0.0 0.5943500913152543 L 0.02040816326530612 0.5907217405539588 L 0.04081632653061224 0.5940101773616867 L 0.061224489795918366 0.594568537718406 L 0.08163265306122448 0.5928920729686983 L 0.1020408163265306 0.5942487718267578 L 0.12244897959183673 0.5922360152928159 L 0.14285714285714285 0.5975059840969209 L 0.16326530612244897 0.5934561632077114 L 0.18367346938775508 0.5935823999026218 L 0.2040816326530612 0.596284688380303 L 0.22448979591836732 0.5966059002430312 L 0.24489795918367346 0.5966662054559217 L 0.26530612244897955 0.5973683532815773 L 0.2857142857142857 0.5956634542437788 L 0.3061224489795918 0.5913610378341851 L 0.32653061224489793 0.5965995690854968 L 0.3469387755102041 0.5938364135092207 L 0.36734693877551017 0.5978144946523695 L 0.3877551020408163 0.598523836197974 L 0.4081632653061224 0.5952351749744496 L 0.42857142857142855 0.5970259013706106 L 0.44897959183673464 0.5946484567603874 L 0.4693877551020408 0.591743651865626 L 0.4897959183673469 0.5897260156406967 L 0.5102040816326531 0.5894051124097119 L 0.5306122448979591 0.5915077914572344 L 0.5510204081632653 0.594620530414778 L 0.5714285714285714 0.5942723153212925 L 0.5918367346938775 0.5985178628640826 L 0.6122448979591836 0.5951067825074168 L 0.6326530612244897 0.5967370100396838 L 0.6530612244897959 0.6002634119089609 L 0.673469387755102 0.6002355181329345 L 0.6938775510204082 0.5965838318859673 L 0.7142857142857142 0.5949552114667856 L 0.7346938775510203 0.5955710625522161 L 0.7551020408163265 0.5964999486120953 L 0.7755102040816326 0.5922944600028922 L 0.7959183673469387 0.5915694312879555 L 0.8163265306122448 0.5950860070012183 L 0.836734693877551 0.5972097975751067 L 0.8571428571428571 0.5956768459958768 L 0.8775510204081632 0.599743352569833 L 0.8979591836734693 0.5919452107657814 L 0.9183673469387754 0.5998328893733581 L 0.9387755102040816 0.5987609371398657 L 0.9591836734693877 0.5981989964080915 L 0.9795918367346939 0.5976205738067148 M 0.0 0.6172680718223662 L 0.02040816326530612 0.6094393901180329 L 0.04081632653061224 0.6112693886029402 L 0.061224489795918366 0.6156755089092857 L 0.08163265306122448 0.6148716535338018 L 0.1020408163265306 0.6175766717806124 L 0.12244897959183673 0.6093516409124504 L 0.14285714285714285 0.6169146418709159 L 0.16326530612244897 0.6169450334953152 L 0.18367346938775508 0.612989787790026 L 0.2040816326530612 0.6162507880231874 L 0.22448979591836732 0.6167495713892839 L 0.24489795918367346 0.6144744276358476 L 0.26530612244897955 0.6101085270415109 L 0.2857142857142857 0.6144792476491817 L 0.3061224489795918 0.6119917503421841 L 0.32653061224489793 0.6134133612354246 L 0.3469387755102041 0.6110660805627383 L 0.36734693877551017 0.6104742335438867 L 0.3877551020408163 0.6112566860142129 L 0.4081632653061224 0.6086114274669313 L 0.42857142857142855 0.6143118399347778 L 0.44897959183673464 0.6133150638207961 L 0.4693877551020408 0.6118705380758418 L 0.4897959183673469 0.6122583570873406 L 0.5102040816326531 0.6168471465092439 L 0.5306122448979591 0.6175754728778161 L 0.5510204081632653 0.6058015540376599 L 0.5714285714285714 0.6123947443774164 L 0.5918367346938775 0.6122891369869825 L 0.6122448979591836 0.6109556982224267 L 0.6326530612244897 0.6141879813621043 L 0.6530612244897959 0.6183885303242265 L 0.673469387755102 0.6155051835681878 L 0.6938775510204082 0.6151039838772346 L 0.7142857142857142 0.614440349622448 L 0.7346938775510203 0.6109234296985905 L 0.7551020408163265 0.6137233376816731 L 0.7755102040816326 0.6104026634288318 L 0.7959183673469387 0.612714259361615 L 0.8163265306122448 0.6139079712592155 L 0.836734693877551 0.6150574511179352 L 0.8571428571428571 0.6176424190459603 L 0.8775510204081632 0.6144932956073929 L 0.8979591836734693 0.6137691217614658 L 0.9183673469387754 0.6171316658593439 L 0.9387755102040816 0.6124891457242507 L 0.9591836734693877 0.6131627419307673 L 0.9795918367346939 0.6111955706777934 M 0.0 0.629054583343326 L 0.02040816326530612 0.6327579017057074 L 0.04081632653061224 0.6318691853821476 L 0.061224489795918366 0.6333422227254768 L 0.08163265306122448 0.6313018867079097 L 0.1020408163265306 0.6342395084702002 L 0.12244897959183673 0.6261779414162727 L 0.14285714285714285 0.6343406266953406 L 0.16326530612244897 0.6337581675976438 L 0.18367346938775508 0.6277550909536044 L 0.2040816326530612 0.6322425219804536 L 0.22448979591836732 0.6316901817011343 L 0.24489795918367346 0.6309206411954491 L 0.26530612244897955 0.6318816765155248 L 0.2857142857142857 0.6347376690378637 L 0.3061224489795918 0.6344858225876616 L 0.32653061224489793 0.6277862559091583 L 0.3469387755102041 0.6320881215041138 L 0.36734693877551017 0.624962569231847 L 0.3877551020408163 0.6246666385261406 L 0.4081632653061224 0.6180141281902064 L 0.42857142857142855 0.6261191978576566 L 0.44897959183673464 0.6284978519226828 L 0.4693877551020408 0.6313926969301223 L 0.4897959183673469 0.6334049777294446 L 0.5102040816326531 0.6335311856992473 L 0.5306122448979591 0.63176543577896 L 0.5510204081632653 0.6255052112190682 L 0.5714285714285714 0.6304389854923993 L 0.5918367346938775 0.6229322213236959 L 0.6122448979591836 0.630277709001606 L 0.6326530612244897 0.6339324138594791 L 0.6530612244897959 0.6342549796866581 L 0.673469387755102 0.6337936597091259 L 0.6938775510204082 0.6326829594886505 L 0.7142857142857142 0.6307370925133853 L 0.7346938775510203 0.6308799696022748 L 0.7551020408163265 0.6290241718771766 L 0.7755102040816326 0.63151156203141 L 0.7959183673469387 0.6320922745633374 L 0.8163265306122448 0.6301291192932291 L 0.836734693877551 0.6321600100688249 L 0.8571428571428571 0.6334389600907643 L 0.8775510204081632 0.6326859095835095 L 0.8979591836734693 0.6332640106315656 L 0.9183673469387754 0.629666316092939 L 0.9387755102040816 0.6325505005065419 L 0.9591836734693877 0.6251404278233768 L 0.9795918367346939 0.6332840864932202 M 0.0 0.6490120860756007 L 0.02040816326530612 0.6498417509141527 L 0.04081632653061224 0.6479220429334961 L 0.061224489795918366 0.65186670850689 L 0.08163265306122448 0.6523332006338808 L 0.1020408163265306 0.6414320520004718 L 0.12244897959183673 0.6442019294469719 L 0.14285714285714285 0.650200661097742 L 0.16326530612244897 0.6504516747595838 L 0.18367346938775508 0.6440778588722608 L 0.2040816326530612 0.6508425448836633 L 0.22448979591836732 0.6466379221188092 L 0.24489795918367346 0.6507470421825753 L 0.26530612244897955 0.6481809269485342 L 0.2857142857142857 0.6476950585651027 L 0.3061224489795918 0.6496822538359271 L 0.32653061224489793 0.6504999971354548 L 0.3469387755102041 0.6442178673664368 L 0.36734693877551017 0.6448839845072978 L 0.3877551020408163 0.6480483126188367 L 0.4081632653061224 0.6468171138917169 L 0.42857142857142855 0.644276006485211 L 0.44897959183673464 0.6524576035373325 L 0.4693877551020408 0.6511418648896324 L 0.4897959183673469 0.6466973712011206 L 0.5102040816326531 0.6478105085948634 L 0.5306122448979591 0.6473779674287652 L 0.5510204081632653 0.6504928727257085 L 0.5714285714285714 0.6469469238169753 L 0.5918367346938775 0.6451263969821075 L 0.6122448979591836 0.6501121136035235 L 0.6326530612244897 0.6500322885448845 L 0.6530612244897959 0.6525887335764992 L 0.673469387755102 0.6513752747735405 L 0.6938775510204082 0.6514831397774025 L 0.7142857142857142 0.6514123738567099 L 0.7346938775510203 0.6487531898916414 L 0.7551020408163265 0.6456505932232428 L 0.7755102040816326 0.65302859604678 L 0.7959183673469387 0.6491081291481002 L 0.8163265306122448 0.6509657030212642 L 0.836734693877551 0.6513816279360927 L 0.8571428571428571 0.651003276296454 L 0.8775510204081632 0.6519118085335888 L 0.8979591836734693 0.6509532572854586 L 0.9183673469387754 0.6435903410444962 L 0.9387755102040816 0.6473332896127284 L 0.9591836734693877 0.6444012038861567 L 0.9795918367346939 0.6473907205504806 M 0.0 0.6690025386670746 L 0.02040816326530612 0.6705773998016997 L 0.04081632653061224 0.6623491791621827 L 0.061224489795918366 0.6632372374634788 L 0.08163265306122448 0.6644055496213208 L 0.1020408163265306 0.662816265523251 L 0.12244897959183673 0.6697562572897751 L 0.14285714285714285 0.6696134199165784 L 0.16326530612244897 0.6703949506526122 L 0.18367346938775508 0.6642735541245951 L 0.2040816326530612 0.6654380560876809 L 0.22448979591836732 0.6668185198451222 L 0.24489795918367346 0.6697067007605148 L 0.26530612244897955 0.6702232015328714 L 0.2857142857142857 0.6702181721794249 L 0.3061224489795918 0.6677639149008587 L 0.32653061224489793 0.6683634505056909 L 0.3469387755102041 0.6665332546184707 L 0.36734693877551017 0.6643773095330866 L 0.3877551020408163 0.6605707850797136 L 0.4081632653061224 0.6641871512308468 L 0.42857142857142855 0.6655057842729257 L 0.44897959183673464 0.6657420392365778 L 0.4693877551020408 0.6664336628432131 L 0.4897959183673469 0.6642911488631933 L 0.5102040816326531 0.6659469588333299 L 0.5306122448979591 0.6607634382767149 L 0.5510204081632653 0.667545342548588 L 0.5714285714285714 0.6632549363614645 L 0.5918367346938775 0.6658124992273605 L 0.6122448979591836 0.6691809070838705 L 0.6326530612244897 0.6663622763323038 L 0.6530612244897959 0.6681152113934914 L 0.673469387755102 0.6690370579927343 L 0.6938775510204082 0.6689024757515128 L 0.7142857142857142 0.6683846801828457 L 0.7346938775510203 0.6678789067954225 L 0.7551020408163265 0.67131389494309 L 0.7755102040816326 0.6634491098135148 L 0.7959183673469387 0.6679020024198695 L 0.8163265306122448 0.6666170711731603 L 0.836734693877551 0.6669213846569416 L 0.8571428571428571 0.6697429746611419 L 0.8775510204081632 0.6692082160614223 L 0.8979591836734693 0.667908676282215 L 0.9183673469387754 0.6645158807605388 L 0.9387755102040816 0.6612032601098092 L 0.9591836734693877 0.6673557319766722 L 0.9795918367346939 0.6694467966565917 M 0.0 0.6849669527596189 L 0.02040816326530612 0.6811337343197816 L 0.04081632653061224 0.6874091861606446 L 0.061224489795918366 0.6821943901243143 L 0.08163265306122448 0.6883952603696638 L 0.1020408163265306 0.6784932779280962 L 0.12244897959183673 0.679980513190175 L 0.14285714285714285 0.6839874663123326 L 0.16326530612244897 0.6834771719195021 L 0.18367346938775508 0.6824210108661016 L 0.2040816326530612 0.6823766287311812 L 0.22448979591836732 0.6856587588888734 L 0.24489795918367346 0.6843702461922099 L 0.26530612244897955 0.6849787581910668 L 0.2857142857142857 0.6845361747881747 L 0.3061224489795918 0.6883985571091658 L 0.32653061224489793 0.6858701832878491 L 0.3469387755102041 0.6862780567735193 L 0.36734693877551017 0.6863722187320541 L 0.3877551020408163 0.6845545742572994 L 0.4081632653061224 0.6783937961058173 L 0.42857142857142855 0.6810326741115392 L 0.44897959183673464 0.6857554373633619 L 0.4693877551020408 0.6879645438921513 L 0.4897959183673469 0.6800540918746547 L 0.5102040816326531 0.6743661865606281 L 0.5306122448979591 0.6804125278549766 L 0.5510204081632653 0.688484800547247 L 0.5714285714285714 0.6811966420312291 L 0.5918367346938775 0.6865612443830534 L 0.6122448979591836 0.6865770232118077 L 0.6326530612244897 0.682777716096874 L 0.6530612244897959 0.6863950283109579 L 0.673469387755102 0.6873212957256729 L 0.6938775510204082 0.6878840531853683 L 0.7142857142857142 0.6833765924307639 L 0.7346938775510203 0.687662068579818 L 0.7551020408163265 0.6841836570776743 L 0.7755102040816326 0.6851634547492772 L 0.7959183673469387 0.683599949402658 L 0.8163265306122448 0.6865218563164398 L 0.836734693877551 0.6865492768946527 L 0.8571428571428571 0.6796732937374445 L 0.8775510204081632 0.6810937660771341 L 0.8979591836734693 0.6861021436344592 L 0.9183673469387754 0.6863209776282628 L 0.9387755102040816 0.6867899198844867 L 0.9591836734693877 0.6875920612067843 L 0.9795918367346939 0.6865628457573651 M 0.0 0.6947207474932044 L 0.02040816326530612 0.7033919740764807 L 0.04081632653061224 0.7017361365188516 L 0.061224489795918366 0.701968354677818 L 0.08163265306122448 0.6993284135001591 L 0.1020408163265306 0.6995413389435756 L 0.12244897959183673 0.6937500850885278 L 0.14285714285714285 0.6942922346580842 L 0.16326530612244897 0.699138818418606 L 0.18367346938775508 0.7032594427135367 L 0.2040816326530612 0.7018316527552583 L 0.22448979591836732 0.696011836304349 L 0.24489795918367346 0.7013647130839641 L 0.26530612244897955 0.6986655909809144 L 0.2857142857142857 0.7047660896190623 L 0.3061224489795918 0.7000052540895247 L 0.32653061224489793 0.7030306016117108 L 0.3469387755102041 0.7030387038078757 L 0.36734693877551017 0.6991715067325998 L 0.3877551020408163 0.7022423617647409 L 0.4081632653061224 0.7028133589167694 L 0.42857142857142855 0.7020186296600576 L 0.44897959183673464 0.7057856061774418 L 0.4693877551020408 0.7059291948964322 L 0.4897959183673469 0.6980001425214529 L 0.5102040816326531 0.7021190830195848 L 0.5306122448979591 0.7037830213220075 L 0.5510204081632653 0.7007181423668184 L 0.5714285714285714 0.6988962094884816 L 0.5918367346938775 0.7058504482620355 L 0.6122448979591836 0.7040135087461651 L 0.6326530612244897 0.7005068653129491 L 0.6530612244897959 0.7047212121002518 L 0.673469387755102 0.7035271360710332 L 0.6938775510204082 0.7050846224173024 L 0.7142857142857142 0.7019094959286591 L 0.7346938775510203 0.7017726411357064 L 0.7551020408163265 0.6991362177510347 L 0.7755102040816326 0.7019667619890274 L 0.7959183673469387 0.7031582724397486 L 0.8163265306122448 0.70017620451851 L 0.836734693877551 0.6990815817915661 L 0.8571428571428571 0.6962711354977372 L 0.8775510204081632 0.7019959130754441 L 0.8979591836734693 0.6980116731897449 L 0.9183673469387754 0.7005431776497243 L 0.9387755102040816 0.702914561741583 L 0.9591836734693877 0.7059877163329706 L 0.9795918367346939 0.7043861673402697 M 0.0 0.7220599823195243 L 0.02040816326530612 0.7181355080793385 L 0.04081632653061224 0.7181841263099286 L 0.061224489795918366 0.7159456866581709 L 0.08163265306122448 0.717672350247911 L 0.1020408163265306 0.7202175625809755 L 0.12244897959183673 0.7209986658585201 L 0.14285714285714285 0.7234264252276411 L 0.16326530612244897 0.7171478949264032 L 0.18367346938775508 0.7186876807217998 L 0.2040816326530612 0.7183700682905855 L 0.22448979591836732 0.7179836892863956 L 0.24489795918367346 0.719103143227864 L 0.26530612244897955 0.7189368793038722 L 0.2857142857142857 0.720304144480351 L 0.3061224489795918 0.719763928239723 L 0.32653061224489793 0.7212200069905551 L 0.3469387755102041 0.7191554521418237 L 0.36734693877551017 0.7216315820241929 L 0.3877551020408163 0.7222922150588549 L 0.4081632653061224 0.7196907150559082 L 0.42857142857142855 0.7178442167842239 L 0.44897959183673464 0.7235291737802607 L 0.4693877551020408 0.7236331042153129 L 0.4897959183673469 0.720184454936872 L 0.5102040816326531 0.7163441346495396 L 0.5306122448979591 0.716204426350649 L 0.5510204081632653 0.7208765057718118 L 0.5714285714285714 0.7156959234851089 L 0.5918367346938775 0.7188410054329619 L 0.6122448979591836 0.7194046363176465 L 0.6326530612244897 0.7155401355231901 L 0.6530612244897959 0.7153429111554199 L 0.673469387755102 0.7143114238074073 L 0.6938775510204082 0.7138881270081109 L 0.7142857142857142 0.7174688166333787 L 0.7346938775510203 0.7162571489774913 L 0.7551020408163265 0.7158642729037982 L 0.7755102040816326 0.7219112628750786 L 0.7959183673469387 0.7217413610413368 L 0.8163265306122448 0.721946570258669 L 0.836734693877551 0.7178708265969813 L 0.8571428571428571 0.720070597211112 L 0.8775510204081632 0.7189409543644552 L 0.8979591836734693 0.7150388152570414 L 0.9183673469387754 0.7162466933212097 L 0.9387755102040816 0.7165529043208572 L 0.9591836734693877 0.7218211471184014 L 0.9795918367346939 0.721070899791715 M 0.0 0.735520647205269 L 0.02040816326530612 0.7383631043968467 L 0.04081632653061224 0.7349467026770402 L 0.061224489795918366 0.7367232386371741 L 0.08163265306122448 0.7387812303195914 L 0.1020408163265306 0.7378765014193457 L 0.12244897959183673 0.7340375260427643 L 0.14285714285714285 0.7340360125903788 L 0.16326530612244897 0.7395802814434626 L 0.18367346938775508 0.73602537920041 L 0.2040816326530612 0.7397974453271233 L 0.22448979591836732 0.7361783172842606 L 0.24489795918367346 0.737880155839917 L 0.26530612244897955 0.7411465604453483 L 0.2857142857142857 0.7391010546771722 L 0.3061224489795918 0.7395593154851641 L 0.32653061224489793 0.7412635154440887 L 0.3469387755102041 0.7378281500589626 L 0.36734693877551017 0.7388676008320159 L 0.3877551020408163 0.7352999438609572 L 0.4081632653061224 0.7392361306455499 L 0.42857142857142855 0.7324386426653277 L 0.44897959183673464 0.7384360884299623 L 0.4693877551020408 0.7385488013739158 L 0.4897959183673469 0.7356533133341335 L 0.5102040816326531 0.7350980495775254 L 0.5306122448979591 0.7341966801386481 L 0.5510204081632653 0.7319599205282317 L 0.5714285714285714 0.7371925187275539 L 0.5918367346938775 0.7356620685617541 L 0.6122448979591836 0.7341054833498285 L 0.6326530612244897 0.7333794201812326 L 0.6530612244897959 0.7414909002109333 L 0.673469387755102 0.7399806727947816 L 0.6938775510204082 0.7351171815139449 L 0.7142857142857142 0.7310755343939295 L 0.7346938775510203 0.7346729123132169 L 0.7551020408163265 0.7367561985296349 L 0.7755102040816326 0.7333319808308689 L 0.7959183673469387 0.7337958498920603 L 0.8163265306122448 0.7293847061512483 L 0.836734693877551 0.7376000440108977 L 0.8571428571428571 0.7367136288446848 L 0.8775510204081632 0.735331578636657 L 0.8979591836734693 0.7401425656338976 L 0.9183673469387754 0.7363971312579265 L 0.9387755102040816 0.7380654213482145 L 0.9591836734693877 0.7350084266869716 L 0.9795918367346939 0.7384513791881316 M 0.0 0.7530354311733932 L 0.02040816326530612 0.7535509347819906 L 0.04081632653061224 0.7578872153814535 L 0.061224489795918366 0.7504566701643165 L 0.08163265306122448 0.7548807269705147 L 0.1020408163265306 0.7524459143365678 L 0.12244897959183673 0.7538672430123405 L 0.14285714285714285 0.7534586989856796 L 0.16326530612244897 0.7543671967555604 L 0.18367346938775508 0.7547409470634998 L 0.2040816326530612 0.7584132140066082 L 0.22448979591836732 0.7549378909993195 L 0.24489795918367346 0.7575713536813036 L 0.26530612244897955 0.7570051758770383 L 0.2857142857142857 0.7564446406047669 L 0.3061224489795918 0.7583593022926175 L 0.32653061224489793 0.7547899382186471 L 0.3469387755102041 0.7575082962067999 L 0.36734693877551017 0.7578748691458262 L 0.3877551020408163 0.7539627688770907 L 0.4081632653061224 0.7505897736550665 L 0.42857142857142855 0.751473622171606 L 0.44897959183673464 0.7575844972767791 L 0.4693877551020408 0.7578247772700645 L 0.4897959183673469 0.7523012432169345 L 0.5102040816326531 0.755016326561809 L 0.5306122448979591 0.7584412583185209 L 0.5510204081632653 0.7577551533876439 L 0.5714285714285714 0.7553354440567562 L 0.5918367346938775 0.7535028584611853 L 0.6122448979591836 0.7569527585954542 L 0.6326530612244897 0.7525472673489495 L 0.6530612244897959 0.7506474222010212 L 0.673469387755102 0.7518669412958721 L 0.6938775510204082 0.7558902647473349 L 0.7142857142857142 0.7517099615251055 L 0.7346938775510203 0.7533021706935995 L 0.7551020408163265 0.7534704010507274 L 0.7755102040816326 0.7562797819837519 L 0.7959183673469387 0.7527684438790275 L 0.8163265306122448 0.7523081840560606 L 0.836734693877551 0.7543457562828436 L 0.8571428571428571 0.7530729200537671 L 0.8775510204081632 0.7550688995154599 L 0.8979591836734693 0.7537673128396148 L 0.9183673469387754 0.7530788935402223 L 0.9387755102040816 0.7546742452933174 L 0.9591836734693877 0.7526333377377689 L 0.9795918367346939 0.7537668100565034 M 0.0 0.7738447249015635 L 0.02040816326530612 0.7715098939648377 L 0.04081632653061224 0.769741490384049 L 0.061224489795918366 0.7739632192470843 L 0.08163265306122448 0.7750125280133934 L 0.1020408163265306 0.7698667143301193 L 0.12244897959183673 0.7728752909757436 L 0.14285714285714285 0.774190360314179 L 0.16326530612244897 0.7669089414890273 L 0.18367346938775508 0.7766858638231818 L 0.2040816326530612 0.7727419271038316 L 0.22448979591836732 0.7719953696598658 L 0.24489795918367346 0.7745396488332025 L 0.26530612244897955 0.773618204400077 L 0.2857142857142857 0.7745518206701268 L 0.3061224489795918 0.7740748972155856 L 0.32653061224489793 0.7701225429277349 L 0.3469387755102041 0.7724742346623092 L 0.36734693877551017 0.7735640321502686 L 0.3877551020408163 0.7694313970446276 L 0.4081632653061224 0.7714932260163657 L 0.42857142857142855 0.7707009615629933 L 0.44897959183673464 0.7670357395251636 L 0.4693877551020408 0.7664461265561828 L 0.4897959183673469 0.7691563713044172 L 0.5102040816326531 0.7724215291873026 L 0.5306122448979591 0.7744518090307398 L 0.5510204081632653 0.7676974540722572 L 0.5714285714285714 0.769019873689627 L 0.5918367346938775 0.7694614841885534 L 0.6122448979591836 0.7726442479751744 L 0.6326530612244897 0.7737650521849176 L 0.6530612244897959 0.7741216114125701 L 0.673469387755102 0.7721496453137064 L 0.6938775510204082 0.7732769473355711 L 0.7142857142857142 0.7730640782464886 L 0.7346938775510203 0.7668675265887706 L 0.7551020408163265 0.767459231242514 L 0.7755102040816326 0.7690844721178963 L 0.7959183673469387 0.7732333170914855 L 0.8163265306122448 0.7716900579771144 L 0.836734693877551 0.7725847710275459 L 0.8571428571428571 0.7690765927218324 L 0.8775510204081632 0.769762110309558 L 0.8979591836734693 0.7722286379898691 L 0.9183673469387754 0.7702069829051381 L 0.9387755102040816 0.7739499370180116 L 0.9591836734693877 0.7708073914457383 L 0.9795918367346939 0.7699195764002539 M 0.0 0.7862268886486761 L 0.02040816326530612 0.7872855055323896 L 0.04081632653061224 0.7929337344258416 L 0.061224489795918366 0.7901408963095573 L 0.08163265306122448 0.7922923140097137 L 0.1020408163265306 0.7901787333690076 L 0.12244897959183673 0.7879196083295202 L 0.14285714285714285 0.7879056864626565 L 0.16326530612244897 0.7875677862130233 L 0.18367346938775508 0.7883194516888907 L 0.2040816326530612 0.7909562672814829 L 0.22448979591836732 0.7910043146080686 L 0.24489795918367346 0.7905327421690607 L 0.26530612244897955 0.7892031264329363 L 0.2857142857142857 0.7874252109985894 L 0.3061224489795918 0.7923054525041653 L 0.32653061224489793 0.7866394342977674 L 0.3469387755102041 0.7903289106688102 L 0.36734693877551017 0.7874516749784259 L 0.3877551020408163 0.7936831509474911 L 0.4081632653061224 0.7830035661205831 L 0.42857142857142855 0.7879847812208705 L 0.44897959183673464 0.7909899962784946 L 0.4693877551020408 0.7942417610022079 L 0.4897959183673469 0.7840828354735085 L 0.5102040816326531 0.7867888787438113 L 0.5306122448979591 0.7936789947501556 L 0.5510204081632653 0.7823217564083593 L 0.5714285714285714 0.7878268522576481 L 0.5918367346938775 0.7833887808156034 L 0.6122448979591836 0.7910902770109816 L 0.6326530612244897 0.7902801651980575 L 0.6530612244897959 0.7823546907918107 L 0.673469387755102 0.7815376712170191 L 0.6938775510204082 0.7870104633456616 L 0.7142857142857142 0.7906186963732219 L 0.7346938775510203 0.7812265085394179 L 0.7551020408163265 0.7872634834482349 L 0.7755102040816326 0.7858116382973034 L 0.7959183673469387 0.7889353903485479 L 0.8163265306122448 0.7926004194799499 L 0.836734693877551 0.7907114705757102 L 0.8571428571428571 0.7918290755298814 L 0.8775510204081632 0.7862779858456918 L 0.8979591836734693 0.7827138871015595 L 0.9183673469387754 0.7891747362674195 L 0.9387755102040816 0.7885319044735946 L 0.9591836734693877 0.7939696120423498 L 0.9795918367346939 0.7929129763262902 M 0.0 0.8027127187033398 L 0.02040816326530612 0.8029783552508324 L 0.04081632653061224 0.8041758190539394 L 0.061224489795918366 0.8040636085994186 L 0.08163265306122448 0.8049839321758565 L 0.1020408163265306 0.8076645269840956 L 0.12244897959183673 0.8108413796180277 L 0.14285714285714285 0.806764082726723 L 0.16326530612244897 0.802663425456154 L 0.18367346938775508 0.8058773905962501 L 0.2040816326530612 0.8047185067159278 L 0.22448979591836732 0.8050269863246824 L 0.24489795918367346 0.8073446272122449 L 0.26530612244897955 0.8078634157909486 L 0.2857142857142857 0.8026281443734897 L 0.3061224489795918 0.8057839588729141 L 0.32653061224489793 0.8023637680064398 L 0.3469387755102041 0.8046160603445612 L 0.36734693877551017 0.8095930654551772 L 0.3877551020408163 0.8053392090360995 L 0.4081632653061224 0.8043830886826028 L 0.42857142857142855 0.8090620970350214 L 0.44897959183673464 0.808904432384951 L 0.4693877551020408 0.8054635664601195 L 0.4897959183673469 0.8017201170518317 L 0.5102040816326531 0.8103182366133651 L 0.5306122448979591 0.8065370054168278 L 0.5510204081632653 0.8082811070374424 L 0.5714285714285714 0.8064335397204022 L 0.5918367346938775 0.8050790089791681 L 0.6122448979591836 0.8103430235600799 L 0.6326530612244897 0.8004430950768475 L 0.6530612244897959 0.8079014993441047 L 0.673469387755102 0.7928395688086173 L 0.6938775510204082 0.7990271181532546 L 0.7142857142857142 0.8067273071392165 L 0.7346938775510203 0.8027429536952527 L 0.7551020408163265 0.8086893601791889 L 0.7755102040816326 0.8064844607598899 L 0.7959183673469387 0.811544805649421 L 0.8163265306122448 0.8093899411998964 L 0.836734693877551 0.8049898950933823 L 0.8571428571428571 0.8009916875780508 L 0.8775510204081632 0.805893489747254 L 0.8979591836734693 0.8045696477011839 L 0.9183673469387754 0.8060711279846875 L 0.9387755102040816 0.8074898195549975 L 0.9591836734693877 0.8119658526340378 L 0.9795918367346939 0.8093308119882405 M 0.0 0.8271047459378132 L 0.02040816326530612 0.8246966842616412 L 0.04081632653061224 0.827137668974403 L 0.061224489795918366 0.8268134273055423 L 0.08163265306122448 0.8287214717620521 L 0.1020408163265306 0.8288033456011934 L 0.12244897959183673 0.828707376448771 L 0.14285714285714285 0.826170074519158 L 0.16326530612244897 0.8259683280709857 L 0.18367346938775508 0.8274480474574386 L 0.2040816326530612 0.8298907785662398 L 0.22448979591836732 0.8289012615563642 L 0.24489795918367346 0.8258002972985564 L 0.26530612244897955 0.8238057712253619 L 0.2857142857142857 0.8229964111980839 L 0.3061224489795918 0.8259059853719064 L 0.32653061224489793 0.8279209682581324 L 0.3469387755102041 0.8235777307845417 L 0.36734693877551017 0.8282297675321966 L 0.3877551020408163 0.8286505231390235 L 0.4081632653061224 0.8237631021436397 L 0.42857142857142855 0.821957398495883 L 0.44897959183673464 0.82334930406579 L 0.4693877551020408 0.8240840617849415 L 0.4897959183673469 0.8274053290148408 L 0.5102040816326531 0.8245123945542666 L 0.5306122448979591 0.8244246225324194 L 0.5510204081632653 0.8230925357854506 L 0.5714285714285714 0.822002092738609 L 0.5918367346938775 0.8214560674793064 L 0.6122448979591836 0.8287774041099556 L 0.6326530612244897 0.8234620810134936 L 0.6530612244897959 0.8240319770833981 L 0.673469387755102 0.81709471756462 L 0.6938775510204082 0.8205226967244408 L 0.7142857142857142 0.8211636598793247 L 0.7346938775510203 0.8246744611334856 L 0.7551020408163265 0.8298377327996018 L 0.7755102040816326 0.8271123475972513 L 0.7959183673469387 0.8264310187449219 L 0.8163265306122448 0.8273536177957213 L 0.836734693877551 0.8280224680590017 L 0.8571428571428571 0.8237831917461244 L 0.8775510204081632 0.8226153825991355 L 0.8979591836734693 0.8255355459890541 L 0.9183673469387754 0.8227358150630981 L 0.9387755102040816 0.8259249228799681 L 0.9591836734693877 0.821883337767325 L 0.9795918367346939 0.825362817453923 M 0.0 0.8402426249457627 L 0.02040816326530612 0.8381439208000269 L 0.04081632653061224 0.8407317610744913 L 0.061224489795918366 0.8397496214345207 L 0.08163265306122448 0.8470035616209785 L 0.1020408163265306 0.8467381578156384 L 0.12244897959183673 0.8456700098661935 L 0.14285714285714285 0.8455482727907087 L 0.16326530612244897 0.8384818243816288 L 0.18367346938775508 0.8368836664893077 L 0.2040816326530612 0.8371512513888056 L 0.22448979591836732 0.8351309501774019 L 0.24489795918367346 0.8380269342856972 L 0.26530612244897955 0.841092099583909 L 0.2857142857142857 0.8461931082180756 L 0.3061224489795918 0.8458051027491846 L 0.32653061224489793 0.8402557277308351 L 0.3469387755102041 0.8318605345558335 L 0.36734693877551017 0.8321097351110099 L 0.3877551020408163 0.8394968255683471 L 0.4081632653061224 0.8471555632554649 L 0.42857142857142855 0.8439121156914954 L 0.44897959183673464 0.8454967367451712 L 0.4693877551020408 0.8437877978158814 L 0.4897959183673469 0.8466208005776572 L 0.5102040816326531 0.8431929785623596 L 0.5306122448979591 0.8425427489661221 L 0.5510204081632653 0.8401142050302074 L 0.5714285714285714 0.8386484937737704 L 0.5918367346938775 0.835267002653972 L 0.6122448979591836 0.8394560740601347 L 0.6326530612244897 0.8430744640502452 L 0.6530612244897959 0.8457790705913724 L 0.673469387755102 0.8406167879610611 L 0.6938775510204082 0.8441324875953131 L 0.7142857142857142 0.8415501577200425 L 0.7346938775510203 0.8433254080238057 L 0.7551020408163265 0.8452228087551183 L 0.7755102040816326 0.8411902181614839 L 0.7959183673469387 0.8424161927508003 L 0.8163265306122448 0.8454582864601937 L 0.836734693877551 0.8392755846737069 L 0.8571428571428571 0.8414432869579318 L 0.8775510204081632 0.8458583769839928 L 0.8979591836734693 0.8407687460618911 L 0.9183673469387754 0.838826958996344 L 0.9387755102040816 0.8427950155882751 L 0.9591836734693877 0.8360884484910274 L 0.9795918367346939 0.8407497836013551" fill="none" style="stroke-width: 0.0036938777969595235; stroke: black;" /></g></svg>