<svg height="8.5in" viewBox="-0.054136068963135275 -0.04813992473335087 1.1082721379262706 0.8563921065793909" width="11in" xmlns="http://www.w3.org/2000/svg" xmlns:inkscape="http://www.inkscape.org/namespaces/inkscape"><g inkscape:groupmode="layer" inkscape:label="0-layer"><path d="M 0.0 0.0301556256806096 L 0.02040816326530612 0.02931460047883791 L 0.04081632653061224 0.02701194207928803 L 0.061224489795918366 0.02349303786887276 L 0.08163265306122448 0.01908045194857071 L 0.1020408163265306 0.013655890498603608 L 0.12244897959183673 0.008677085728545558 L 0.14285714285714285 0.004075754215515564 L 0.16326530612244897 0.0002783676425073341 L 0.18367346938775508 -0.0023203497161313744 L 0.2040816326530612 -0.003423298239868451 L 0.22448979591836732 -0.0026270801995740933 L 0.24489795918367346 -0.00012089075819170987 L 0.26530612244897955 0.0038701197176639873 L 0.2857142857142857 0.008900773535360479 L 0.3061224489795918 0.014908320122113471 L 0.32653061224489793 0.020069733251730275 L 0.3469387755102041 0.024314010283946336 L 0.36734693877551017 0.02723412741521475 L 0.3877551020408163 0.02866177005858193 L 0.4081632653061224 0.02865469184349717 L 0.42857142857142855 0.02754331439635617 L 0.44897959183673464 0.02580954248407479 L 0.4693877551020408 0.02384477518822442 L 0.4897959183673469 0.021996896532875492 L 0.5102040816326531 0.020436109161847 L 0.5306122448979591 0.01970670492180009 L 0.5510204081632653 0.019857301938598915 L 0.5714285714285714 0.021062932714631322 L 0.5918367346938775 0.023383177691947712 L 0.6122448979591836 0.02709143345539398 L 0.6326530612244897 0.03117978748327364 L 0.6530612244897959 0.03542553589090562 L 0.673469387755102 0.03922802219571793 L 0.6938775510204082 0.041972929135111206 L 0.7142857142857142 0.043221064973309756 L 0.7346938775510203 0.04245876404504513 L 0.7551020408163265 0.03987011141694423 L 0.7755102040816326 0.035657904032295594 L 0.7959183673469387 0.03020742329554204 L 0.8163265306122448 0.023347430567848253 L 0.836734693877551 0.01686874622738661 L 0.8571428571428571 0.01064474224960728 L 0.8775510204081632 0.005044365670652867 L 0.8979591836734693 0.00031286740098042924 L 0.9183673469387754 -0.0037541657352426643 L 0.9387755102040816 -0.006420765249832357 L 0.9591836734693877 -0.008199883774970964 L 0.9795918367346939 -0.009213010797923953 M 0.0 0.04823329369078207 L 0.02040816326530612 0.04742246249705874 L 0.04081632653061224 0.04520012459834105 L 0.061224489795918366 0.04179713423724931 L 0.08163265306122448 0.037518070664858794 L 0.1020408163265306 0.032242523799752815 L 0.12244897959183673 0.02738995124549936 L 0.14285714285714285 0.022903783354184384 L 0.16326530612244897 0.01921312122593948 L 0.18367346938775508 0.01671605877612207 L 0.2040816326530612 0.015720653266033783 L 0.22448979591836732 0.01660721859931896 L 0.24489795918367346 0.019190423222404357 L 0.26530612244897955 0.02323887783331479 L 0.2857142857142857 0.028304642201104756 L 0.3061224489795918 0.034327832715893555 L 0.32653061224489793 0.03949107245856595 L 0.3469387755102041 0.04373537433861387 L 0.36734693877551017 0.046661172697392214 L 0.3877551020408163 0.04810332390053918 L 0.4081632653061224 0.048119958911421734 L 0.42857142857142855 0.04703275755103071 L 0.44897959183673464 0.04532142673636497 L 0.4693877551020408 0.043376783483162054 L 0.4897959183673469 0.04154763721088038 L 0.5102040816326531 0.040005434780787795 L 0.5306122448979591 0.0392857288249813 L 0.5510204081632653 0.039427217077856624 L 0.5714285714285714 0.040588351398548356 L 0.5918367346938775 0.04281392399146533 L 0.6122448979591836 0.04635195920537796 L 0.6326530612244897 0.050231844974288994 L 0.6530612244897959 0.05423898866478763 L 0.673469387755102 0.05780292051330914 L 0.6938775510204082 0.0603424746650624 L 0.7142857142857142 0.061438060498710395 L 0.7346938775510203 0.060624350370095614 L 0.7551020408163265 0.05807504062900082 L 0.7755102040816326 0.05398825288876227 L 0.7959183673469387 0.04873560882333988 L 0.8163265306122448 0.04215438610890193 L 0.836734693877551 0.035961198609036585 L 0.8571428571428571 0.03003123243338545 L 0.8775510204081632 0.02471378255252635 L 0.8979591836734693 0.020238110629016842 L 0.9183673469387754 0.016407420231722376 L 0.9387755102040816 0.013907468877950548 L 0.9591836734693877 0.012246743430212348 L 0.9795918367346939 0.011304447692858212 M 0.0 0.06325059811415851 L 0.02040816326530612 0.06252818756605032 L 0.04081632653061224 0.060541580736351706 L 0.061224489795918366 0.057480307406071615 L 0.08163265306122448 0.05359778933159575 L 0.1020408163265306 0.04876975564975222 L 0.12244897959183673 0.04430175320239204 L 0.14285714285714285 0.04017143908014927 L 0.16326530612244897 0.03681390394528166 L 0.18367346938775508 0.03463492327211134 L 0.2040816326530612 0.03397416553794824 L 0.22448979591836732 0.035139046410560974 L 0.24489795918367346 0.03795665755363395 L 0.26530612244897955 0.04217723375269296 L 0.2857142857142857 0.0473453370078576 L 0.3061224489795918 0.053409732803101656 L 0.32653061224489793 0.058571400491231884 L 0.3469387755102041 0.06280697821295246 L 0.36734693877551017 0.06573914675574036 L 0.3877551020408163 0.0672123108222378 L 0.4081632653061224 0.06728478568383289 L 0.42857142857142855 0.06625587910859014 L 0.44897959183673464 0.06459864021650254 L 0.4693877551020408 0.06270342507117294 L 0.4897959183673469 0.060922716504086497 L 0.5102040816326531 0.05943172242518356 L 0.5306122448979591 0.05874022159861613 L 0.5510204081632653 0.058855636151702924 L 0.5714285714285714 0.05988558159834345 L 0.5918367346938775 0.061829265059395094 L 0.6122448979591836 0.0648576802080193 L 0.6326530612244897 0.06811125869153131 L 0.6530612244897959 0.07139966919352714 L 0.673469387755102 0.07424304561550696 L 0.6938775510204082 0.07615998880693471 L 0.7142857142857142 0.0767890335357571 L 0.7346938775510203 0.07581165706762663 L 0.7551020408163265 0.07336959396119458 L 0.7755102040816326 0.069646897528026 L 0.7959183673469387 0.06497422458173632 L 0.8163265306122448 0.05921319171810156 L 0.836734693877551 0.05386133635364673 L 0.8571428571428571 0.048798552933155215 L 0.8775510204081632 0.04431604738057356 L 0.8979591836734693 0.04059578666999139 L 0.9183673469387754 0.037463375642159756 L 0.9387755102040816 0.03545609619291825 L 0.9591836734693877 0.03414560210776947 L 0.9795918367346939 0.0334129219692556 M 0.0 0.07613973625642276 L 0.02040816326530612 0.0755448722793073 L 0.04081632653061224 0.07389986355721588 L 0.061224489795918366 0.07133839793057956 L 0.08163265306122448 0.06804460048309559 L 0.1020408163265306 0.06389537821296805 L 0.12244897959183673 0.06002606469264943 L 0.14285714285714285 0.05646291950712044 L 0.16326530612244897 0.053644047940670084 L 0.18367346938775508 0.0519795237408497 L 0.2040816326530612 0.05185258276515978 L 0.22448979591836732 0.05345171361075607 L 0.24489795918367346 0.05662549329359584 L 0.26530612244897955 0.061098212457902756 L 0.2857142857142857 0.0664059894832854 L 0.3061224489795918 0.07251069359145675 L 0.32653061224489793 0.07764597645660719 L 0.3469387755102041 0.08184023692398504 L 0.36734693877551017 0.08474902820497338 L 0.3877551020408163 0.08623101451003298 L 0.4081632653061224 0.08634172063187653 L 0.42857142857142855 0.08535809408030359 L 0.44897959183673464 0.08374280120273739 L 0.4693877551020408 0.08188925988466345 L 0.4897959183673469 0.08015823293765935 L 0.5102040816326531 0.07873092951472266 L 0.5306122448979591 0.07807996711621135 L 0.5510204081632653 0.07816152409629983 L 0.5714285714285714 0.07900369428423824 L 0.5918367346938775 0.08053348322690522 L 0.6122448979591836 0.08280354311047818 L 0.6326530612244897 0.08511740822771338 L 0.6530612244897959 0.08732096488015728 L 0.673469387755102 0.08907035184417975 L 0.6938775510204082 0.0900350000281257 L 0.7142857142857142 0.08993920353629622 L 0.7346938775510203 0.08869027376186116 L 0.7551020408163265 0.08638008615639 L 0.7755102040816326 0.08317148862672916 L 0.7959183673469387 0.07933335097004554 L 0.8163265306122448 0.07475987664895666 L 0.836734693877551 0.07062853783140387 L 0.8571428571428571 0.06682374091082005 L 0.8775510204081632 0.06355161827174402 L 0.8979591836734693 0.06092518360868492 L 0.9183673469387754 0.05880227085043804 L 0.9387755102040816 0.05750605222474221 L 0.9591836734693877 0.05670033786353041 L 0.9795918367346939 0.056269354100098035 M 0.0 0.08806586520917464 L 0.02040816326530612 0.0876163187615579 L 0.04081632653061224 0.086363438505147 L 0.061224489795918366 0.08438471108582311 L 0.08163265306122448 0.08179386455766266 L 0.1020408163265306 0.07848150121253747 L 0.12244897959183673 0.07537682949960195 L 0.14285714285714285 0.07255873493350218 L 0.16326530612244897 0.07045670048411751 L 0.18367346938775508 0.06947204724080533 L 0.2040816326530612 0.07003207624153279 L 0.22448979591836732 0.07216829162958124 L 0.24489795918367346 0.07576117860414985 L 0.26530612244897955 0.0805090777362411 L 0.2857142857142857 0.08594489957528778 L 0.3061224489795918 0.09204720258441465 L 0.32653061224489793 0.09710094494270663 L 0.3469387755102041 0.1011922642930327 L 0.36734693877551017 0.10401473626856202 L 0.3877551020408163 0.10544328217832692 L 0.4081632653061224 0.1055243161965653 L 0.42857142857142855 0.10452582271434356 L 0.44897959183673464 0.10289668643914379 L 0.4693877551020408 0.10103946934441539 L 0.4897959183673469 0.0993290003558957 L 0.5102040816326531 0.09795421289841488 L 0.5306122448979591 0.09734720278782809 L 0.5510204081632653 0.09739755267836198 L 0.5714285714285714 0.09803533193411226 L 0.5918367346938775 0.09909688651880287 L 0.6122448979591836 0.10049174419448176 L 0.6326530612244897 0.10170750834225108 L 0.6530612244897959 0.10263151912522814 L 0.673469387755102 0.10307853983876047 L 0.6938775510204082 0.10289632053580668 L 0.7142857142857142 0.10190728315821508 L 0.7346938775510203 0.10029423972151107 L 0.7551020408163265 0.09808853371769051 L 0.7755102040816326 0.095428957000422 L 0.7959183673469387 0.09251156583789408 L 0.8163265306122448 0.08926156317582874 L 0.836734693877551 0.08649306727286314 L 0.8571428571428571 0.0840896894595589 L 0.8775510204081632 0.08215964566539576 L 0.8979591836734693 0.08073787361997817 L 0.9183673469387754 0.07971685199173348 L 0.9387755102040816 0.07918898484623754 L 0.9591836734693877 0.07892368285278308 L 0.9795918367346939 0.07881304856896339 M 0.0 0.10008695015926429 L 0.02040816326530612 0.09978334657166095 L 0.04081632653061224 0.09892836293972368 L 0.061224489795918366 0.0975538213563163 L 0.08163265306122448 0.09571474959680251 L 0.1020408163265306 0.0933321779472663 L 0.12244897959183673 0.09110979224299964 L 0.14285714285714285 0.08917367073178702 L 0.16326530612244897 0.08792567487006003 L 0.18367346938775508 0.08773797847947663 L 0.2040816326530612 0.08907167475497392 L 0.22448979591836732 0.0917770972273222 L 0.24489795918367346 0.09577804822528538 L 0.26530612244897955 0.10075558052792659 L 0.2857142857142857 0.10625130738388479 L 0.3061224489795918 0.11226407165113063 L 0.32653061224489793 0.1171543682807217 L 0.3469387755102041 0.12106215991134102 L 0.36734693877551017 0.123719111332457 L 0.3877551020408163 0.125015361414096 L 0.4081632653061224 0.12498010100141478 L 0.42857142857142855 0.1238904842353347 L 0.44897959183673464 0.12217783044161659 L 0.4693877551020408 0.1202589240977283 L 0.4897959183673469 0.1185270191424275 L 0.5102040816326531 0.1171795079562175 L 0.5306122448979591 0.11661198746915422 L 0.5510204081632653 0.11664110655181065 L 0.5714285714285714 0.11709457253226843 L 0.5918367346938775 0.117711812083751 L 0.6122448979591836 0.11825472843153195 L 0.6326530612244897 0.11838404611952984 L 0.6530612244897959 0.11802585106172922 L 0.673469387755102 0.11715036933154911 L 0.6938775510204082 0.11578421130658624 L 0.7142857142857142 0.11384429111038975 L 0.7346938775510203 0.11180449555716329 L 0.7551020408163265 0.10963491390930324 L 0.7755102040816326 0.10745308725173534 L 0.7959183673469387 0.1053822868879621 L 0.8163265306122448 0.10336821982995786 L 0.836734693877551 0.10187370026195756 L 0.8571428571428571 0.1007705932754295 L 0.8775510204081632 0.1000691125828781 L 0.8979591836734693 0.09972901305417473 L 0.9183673469387754 0.09967207540612456 L 0.9387755102040816 0.09979627990342502 L 0.9591836734693877 0.09997627124062672 L 0.9795918367346939 0.10012271953625379 M 0.0 0.11338489702153269 L 0.02040816326530612 0.11320770790818104 L 0.04081632653061224 0.11270146124204145 L 0.061224489795918366 0.11186972902126184 L 0.08163265306122448 0.11072886017113255 L 0.1020408163265306 0.10924248885160362 L 0.12244897959183673 0.1078988240634467 L 0.14285714285714285 0.10685730526376523 L 0.16326530612244897 0.10647443787380988 L 0.18367346938775508 0.10707510779134034 L 0.2040816326530612 0.10913589065879536 L 0.22448979591836732 0.11233268969229682 L 0.24489795918367346 0.11663858747334455 L 0.26530612244897955 0.12173212629737154 L 0.2857142857142857 0.12717769090011877 L 0.3061224489795918 0.1329962833385435 L 0.32653061224489793 0.13764536170309563 L 0.3469387755102041 0.14130551424189297 L 0.36734693877551017 0.1437417556851074 L 0.3877551020408163 0.14485606043443464 L 0.4081632653061224 0.14465575231884378 L 0.42857142857142855 0.14343721242113563 L 0.44897959183673464 0.14161063487678027 L 0.4693877551020408 0.1396052945504733 L 0.4897959183673469 0.13783056864577992 L 0.5102040816326531 0.13649038206249964 L 0.5306122448979591 0.135952882470811 L 0.5510204081632653 0.1359724950348763 L 0.5714285714285714 0.13629239916498337 L 0.5918367346938775 0.13656998700905293 L 0.6122448979591836 0.13644485062191317 L 0.6326530612244897 0.13570735384389093 L 0.6530612244897959 0.13431051538174008 L 0.673469387755102 0.13234498058239433 L 0.6938775510204082 0.1299809543495441 L 0.7142857142857142 0.12720697674432502 L 0.7346938775510203 0.12475094977739765 L 0.7551020408163265 0.12253475263178154 L 0.7755102040816326 0.12066427784579734 L 0.7959183673469387 0.11920548410209691 L 0.8163265306122448 0.11811050138585878 L 0.836734693877551 0.11756611653039448 L 0.8571428571428571 0.11742083806724125 L 0.8775510204081632 0.11760247299145436 L 0.8979591836734693 0.11801101333431492 L 0.9183673469387754 0.11858579769869396 L 0.9387755102040816 0.11910796966990742 L 0.9591836734693877 0.11953970687559527 L 0.9795918367346939 0.11982094683833289 M 0.0 0.12719183469094764 L 0.02040816326530612 0.12713591066530025 L 0.04081632653061224 0.12696854821999237 L 0.061224489795918366 0.12667872231273802 L 0.08163265306122448 0.12625888522130121 L 0.1020408163265306 0.12573083724648673 L 0.12244897959183673 0.12535353207103272 L 0.14285714285714285 0.12530923648976505 L 0.16326530612244897 0.12588586830015938 L 0.18367346938775508 0.12733753259447503 L 0.2040816326530612 0.13013733205797695 L 0.22448979591836732 0.13377811411206397 L 0.24489795918367346 0.1382922275853987 L 0.26530612244897955 0.1433715384057029 L 0.2857142857142857 0.14862156709038116 L 0.3061224489795918 0.1540904615073896 L 0.32653061224489793 0.15837392836151265 L 0.3469387755102041 0.16168535994124048 L 0.36734693877551017 0.16382534160086654 L 0.3877551020408163 0.16470752551748713 L 0.4081632653061224 0.16431401669674428 L 0.42857142857142855 0.16296163455976115 L 0.44897959183673464 0.16103012106969117 L 0.4693877551020408 0.15895280931968078 L 0.4897959183673469 0.15714711388078473 L 0.5102040816326531 0.1558187992317972 L 0.5306122448979591 0.15530974190934982 L 0.5510204081632653 0.1553241053524216 L 0.5714285714285714 0.15553766044317743 L 0.5918367346938775 0.15554135131652652 L 0.6122448979591836 0.15487397621388846 L 0.6326530612244897 0.1534262075655087 L 0.6530612244897959 0.15116607727235287 L 0.673469387755102 0.14827455082463412 L 0.6938775510204082 0.14503580545175648 L 0.7142857142857142 0.14148855603796998 L 0.7346938775510203 0.1385940979495462 L 0.7551020408163265 0.13623815816826604 L 0.7755102040816326 0.13452788140696628 L 0.7959183673469387 0.13348798840254464 L 0.8163265306122448 0.1330682568762799 L 0.836734693877551 0.13323542926812193 L 0.8571428571428571 0.1338011905428287 L 0.8775510204081632 0.1346185579841964 L 0.8979591836734693 0.1355355893471223 L 0.9183673469387754 0.1364991642934683 L 0.9387755102040816 0.13723044952017394 L 0.9591836734693877 0.1377680970322072 L 0.9795918367346939 0.13809111593932955 M 0.0 0.14211423168815066 L 0.02040816326530612 0.14215486345605602 L 0.04081632653061224 0.14226185197771885 L 0.061224489795918366 0.14242557325476138 L 0.08163265306122448 0.14263353237510762 L 0.1020408163265306 0.14297307874833193 L 0.12244897959183673 0.14349811906521928 L 0.14285714285714285 0.14440090366047448 L 0.16326530612244897 0.14588828757217034 L 0.18367346938775508 0.1481299824745855 L 0.2040816326530612 0.15157500331638454 L 0.22448979591836732 0.15554705011186398 L 0.24489795918367346 0.16013564353573037 L 0.26530612244897955 0.1650576966614981 L 0.2857142857142857 0.16997229350325385 L 0.3061224489795918 0.17495578556181887 L 0.32653061224489793 0.17877499126982693 L 0.3469387755102041 0.18166781118880715 L 0.36734693877551017 0.1834742104691587 L 0.3877551020408163 0.18412243219750546 L 0.4081632653061224 0.18357534295331845 L 0.42857142857142855 0.18215731096637372 L 0.44897959183673464 0.18020760022695834 L 0.4693877551020408 0.17814418395671555 L 0.4897959183673469 0.17637275491670362 L 0.5102040816326531 0.17508974716129816 L 0.5306122448979591 0.17460679393457892 L 0.5510204081632653 0.1746042931488051 L 0.5714285714285714 0.17472542417558587 L 0.5918367346938775 0.174530635592779 L 0.6122448979591836 0.17350259651922556 L 0.6326530612244897 0.17159921024808725 L 0.6530612244897959 0.1687872515183616 L 0.673469387755102 0.16528978568537092 L 0.6938775510204082 0.161450586081335 L 0.7142857142857142 0.15732269532061094 L 0.7346938775510203 0.15403696116845184 L 0.7551020408163265 0.15146205148762917 L 0.7755102040816326 0.14972396155424306 L 0.7959183673469387 0.14883680446987765 L 0.8163265306122448 0.14875039502764578 L 0.836734693877551 0.149308916896404 L 0.8571428571428571 0.15028379830535693 L 0.8775510204081632 0.15147253003375935 L 0.8979591836734693 0.15268205422794676 L 0.9183673469387754 0.1538579469109876 L 0.9387755102040816 0.15469008491705624 L 0.9591836734693877 0.15526699489250348 L 0.9795918367346939 0.15559719662787166 M 0.0 0.15803946840098798 L 0.02040816326530612 0.15814121517058316 L 0.04081632653061224 0.15842771125874647 L 0.061224489795918366 0.15890640741837225 L 0.08163265306122448 0.15958035114350944 L 0.1020408163265306 0.1606062240385916 L 0.12244897959183673 0.16188288029265252 L 0.14285714285714285 0.16360309683103863 L 0.16326530612244897 0.1658910006254719 L 0.18367346938775508 0.16882604756810912 L 0.2040816326530612 0.1728153091463547 L 0.22448979591836732 0.17702472151616164 L 0.24489795918367346 0.1815886474189397 L 0.26530612244897955 0.18625048640013847 L 0.2857142857142857 0.1907268791414594 L 0.3061224489795918 0.1951198399803614 L 0.32653061224489793 0.19839415362993368 L 0.3469387755102041 0.20081048167735685 L 0.36734693877551017 0.2022578029154406 L 0.3877551020408163 0.2026875942816619 L 0.4081632653061224 0.20205649554411484 L 0.42857142857142855 0.20067804597426775 L 0.44897959183673464 0.19883959825460518 L 0.4693877551020408 0.1969181214749046 L 0.4897959183673469 0.19528054182956156 L 0.5102040816326531 0.1940974923840264 L 0.5306122448979591 0.19363854560213506 L 0.5510204081632653 0.1935895756625916 L 0.5714285714285714 0.19359927221691353 L 0.5918367346938775 0.19324050450425573 L 0.6122448979591836 0.1919893136602962 L 0.6326530612244897 0.1898548045545611 L 0.6530612244897959 0.1867883398215489 L 0.673469387755102 0.18300904404175294 L 0.6938775510204082 0.1788633513197114 L 0.7142857142857142 0.17438057061368667 L 0.7346938775510203 0.17078365548624508 L 0.7551020408163265 0.16794151814739497 L 0.7755102040816326 0.16601655634457008 L 0.7959183673469387 0.1650482361544133 L 0.8163265306122448 0.1650041290586224 L 0.836734693877551 0.16570636426009228 L 0.8571428571428571 0.16689508057804525 L 0.8775510204081632 0.16833397654226429 L 0.8979591836734693 0.1697944411253644 L 0.9183673469387754 0.17121742963333997 L 0.9387755102040816 0.17222947026255694 L 0.9591836734693877 0.17293694974992035 L 0.9795918367346939 0.17334659979921083 M 0.0 0.17472043758133537 L 0.02040816326530612 0.1748377717028213 L 0.04081632653061224 0.17518089379162588 L 0.061224489795918366 0.17579045107363556 L 0.08163265306122448 0.1767084300743542 L 0.1020408163265306 0.17816447217589537 L 0.12244897959183673 0.17997674156329296 L 0.14285714285714285 0.18233421121431828 L 0.16326530612244897 0.18528724738619728 L 0.18367346938775508 0.18882523603599938 L 0.2040816326530612 0.19330006396842128 L 0.22448979591836732 0.19771626478974372 L 0.24489795918367346 0.20223181777892354 L 0.26530612244897955 0.2066049704877076 L 0.2857142857142857 0.21060383588343778 L 0.3061224489795918 0.21434994529928186 L 0.32653061224489793 0.217023039476027 L 0.3469387755102041 0.2189130594863325 L 0.36734693877551017 0.21997297008673583 L 0.3877551020408163 0.22019158408088357 L 0.4081632653061224 0.21953584496340822 L 0.42857142857142855 0.21829446108226144 L 0.44897959183673464 0.21669113624712621 L 0.4693877551020408 0.2150359451681434 L 0.4897959183673469 0.21362887948201098 L 0.5102040816326531 0.2125958255188739 L 0.5306122448979591 0.21215083916541738 L 0.5510204081632653 0.21201093754413072 L 0.5714285714285714 0.21186531901551917 L 0.5918367346938775 0.21134142994152982 L 0.6122448979591836 0.20995561362058668 L 0.6326530612244897 0.20776706231615918 L 0.6530612244897959 0.20470191208488067 L 0.673469387755102 0.20093758534798714 L 0.6938775510204082 0.1967717582724346 L 0.7142857142857142 0.19217654834333495 L 0.7346938775510203 0.18838377863735087 L 0.7551020408163265 0.18527633990568704 L 0.7755102040816326 0.1830667870809452 L 0.7959183673469387 0.1818546035961442 L 0.8163265306122448 0.18165382015778853 L 0.836734693877551 0.18235266006546139 L 0.8571428571428571 0.18367969738145434 L 0.8775510204081632 0.18538609786674556 L 0.8979591836734693 0.1872085724701644 L 0.9183673469387754 0.18908510839639409 L 0.9387755102040816 0.19050084066673648 L 0.9591836734693877 0.19154827477083503 L 0.9795918367346939 0.1921877394824138 M 0.0 0.19179939928370293 L 0.02040816326530612 0.19188451863843423 L 0.04081632653061224 0.1921549568075891 L 0.061224489795918366 0.19269984005359858 L 0.08163265306122448 0.19362427695468054 L 0.1020408163265306 0.19523695634002725 L 0.12244897959183673 0.19735971054203996 L 0.14285714285714285 0.2001794914030064 L 0.16326530612244897 0.2036888835822666 L 0.18367346938775508 0.2077902612777712 L 0.2040816326530612 0.2127727391884651 L 0.22448979591836732 0.21745297587293808 L 0.24489795918367346 0.22198721632088333 L 0.26530612244897955 0.2261255187267998 L 0.2857142857142857 0.22967324656884347 L 0.3061224489795918 0.2327632860651665 L 0.32653061224489793 0.23479835401739188 L 0.3469387755102041 0.23611170058596082 L 0.36734693877551017 0.23673832401514205 L 0.3877551020408163 0.236721123872769 L 0.4081632653061224 0.23605118323452323 L 0.42857142857142855 0.23499020355740777 L 0.44897959183673464 0.2336867768790612 L 0.4693877551020408 0.23236460846774953 L 0.4897959183673469 0.23123576165571202 L 0.5102040816326531 0.23036552800900023 L 0.5306122448979591 0.22990817049742956 L 0.5510204081632653 0.22962925699052428 L 0.5714285714285714 0.2292849601026637 L 0.5918367346938775 0.22858976065591152 L 0.6122448979591836 0.2271372266584663 L 0.6326530612244897 0.22503759188060235 L 0.6530612244897959 0.22218682140864754 L 0.673469387755102 0.21869425315074104 L 0.6938775510204082 0.2147701841376201 L 0.7142857142857142 0.21030888272513615 L 0.7346938775510203 0.20647218806118758 L 0.7551020408163265 0.2031682222651407 L 0.7755102040816326 0.2006661546436374 L 0.7959183673469387 0.19914981355377903 L 0.8163265306122448 0.198707772029445 L 0.836734693877551 0.1993517648842952 L 0.8571428571428571 0.2008221504529791 L 0.8775510204081632 0.20287431571714754 L 0.8979591836734693 0.20521029154349554 L 0.9183673469387754 0.20776895781191104 L 0.9387755102040816 0.20981682922392358 L 0.9591836734693877 0.21140970824887667 L 0.9795918367346939 0.2124233121344112 M 0.0 0.20909468785307608 L 0.02040816326530612 0.20911462884052956 L 0.04081632653061224 0.20922197851226546 L 0.061224489795918366 0.20956105226629365 L 0.08163265306122448 0.21031339335981702 L 0.1020408163265306 0.21186789960355334 L 0.12244897959183673 0.21411700046882548 L 0.14285714285714285 0.2172521206027946 L 0.16326530612244897 0.22122868012557947 L 0.18367346938775508 0.22587199301668015 L 0.2040816326530612 0.23141140537727836 L 0.22448979591836732 0.2364501012590057 L 0.24489795918367346 0.24112170053681223 L 0.26530612244897955 0.24514356602424608 L 0.2857142857142857 0.24833996098023442 L 0.3061224489795918 0.25084810770888544 L 0.32653061224489793 0.2522780338511543 L 0.3469387755102041 0.2530190536523645 L 0.36734693877551017 0.2531967552991662 L 0.3877551020408163 0.2529164024021228 L 0.4081632653061224 0.2521961576101476 L 0.42857142857142855 0.25127961407113203 L 0.44897959183673464 0.25023709483667955 L 0.4693877551020408 0.24920492297800353 L 0.4897959183673469 0.24830765102665736 L 0.5102040816326531 0.24754853118598663 L 0.5306122448979591 0.24703886207113745 L 0.5510204081632653 0.2465959001648666 L 0.5714285714285714 0.2460508273345634 L 0.5918367346938775 0.24521260501514955 L 0.6122448979591836 0.24376450769638916 L 0.6326530612244897 0.24185550518235613 L 0.6530612244897959 0.2393527238710093 L 0.673469387755102 0.23629031150793436 L 0.6938775510204082 0.23277972407691225 L 0.7142857142857142 0.22864124364439053 L 0.7346938775510203 0.22491722005611237 L 0.7551020408163265 0.2215479763077115 L 0.7755102040816326 0.2188527400197111 L 0.7959183673469387 0.21709940468721772 L 0.8163265306122448 0.2164591401134545 L 0.836734693877551 0.2170702200108572 L 0.8571428571428571 0.21870040135758193 L 0.8775510204081632 0.2211169761910227 L 0.8979591836734693 0.2239926643539435 L 0.9183673469387754 0.22727010502030806 L 0.9387755102040816 0.22998660933916654 L 0.9591836734693877 0.23215758749929016 L 0.9795918367346939 0.233568108034838 M 0.0 0.22597533277770784 L 0.02040816326530612 0.22590401312472844 L 0.04081632653061224 0.2257782352385576 L 0.061224489795918366 0.22580628485686527 L 0.08163265306122448 0.22626242579425093 L 0.1020408163265306 0.22762834173923638 L 0.12244897959183673 0.22991888963587012 L 0.14285714285714285 0.23333971560975678 L 0.16326530612244897 0.2378209401385438 L 0.18367346938775508 0.24310802461328784 L 0.2040816326530612 0.24936731717620267 L 0.22448979591836732 0.2549271884307377 L 0.24489795918367346 0.2598808956996535 L 0.26530612244897955 0.2638876756929749 L 0.2857142857142857 0.2667794708700867 L 0.3061224489795918 0.26869645179833834 L 0.32653061224489793 0.26947272433086267 L 0.3469387755102041 0.26957369508530465 L 0.36734693877551017 0.269232310303574 L 0.3877551020408163 0.268625676822358 L 0.4081632653061224 0.2677951829819009 L 0.42857142857142855 0.2669708386998824 L 0.44897959183673464 0.26613146336344856 L 0.4693877551020408 0.2653215376212219 L 0.4897959183673469 0.26457950394143204 L 0.5102040816326531 0.2638466729903729 L 0.5306122448979591 0.26322017693915545 L 0.5510204081632653 0.26257268382169374 L 0.5714285714285714 0.26181906545369626 L 0.5918367346938775 0.26086758800637116 L 0.6122448979591836 0.25949940543373334 L 0.6326530612244897 0.25788408430148996 L 0.6530612244897959 0.2558586867751471 L 0.673469387755102 0.25337538915659064 L 0.6938775510204082 0.25043924963409725 L 0.7142857142857142 0.24680624466846085 L 0.7346938775510203 0.2433579928404435 L 0.7551020408163265 0.24007738885280117 L 0.7755102040816326 0.2373272201879021 L 0.7959183673469387 0.2354542573783814 L 0.8163265306122448 0.23471592778107178 L 0.836734693877551 0.23535703863659785 L 0.8571428571428571 0.2371831077987365 L 0.8775510204081632 0.23997416853269474 L 0.8979591836734693 0.24337837871353846 L 0.9183673469387754 0.2473438260070237 L 0.9387755102040816 0.2506929013401362 L 0.9591836734693877 0.2534068517141468 L 0.9795918367346939 0.255188475559679 M 0.0 0.24270692439110203 L 0.02040816326530612 0.24254523012987778 L 0.04081632653061224 0.24218692321441776 L 0.061224489795918366 0.24189843088824528 L 0.08163265306122448 0.2420421685069466 L 0.1020408163265306 0.24318985541333532 L 0.12244897959183673 0.24549085733223597 L 0.14285714285714285 0.2491729283952899 L 0.16326530612244897 0.2541515357416001 L 0.18367346938775508 0.26009841601762873 L 0.2040816326530612 0.26711998864195674 L 0.22448979591836732 0.2732536316988977 L 0.24489795918367346 0.27854542601378707 L 0.26530612244897955 0.2825877587078213 L 0.2857142857142857 0.285217419616229 L 0.3061224489795918 0.28658327398333333 L 0.32653061224489793 0.2867410943987033 L 0.3469387755102041 0.28623850785418414 L 0.36734693877551017 0.2854120837230189 L 0.3877551020408163 0.28449997585754305 L 0.4081632653061224 0.2835501586731984 L 0.42857142857142855 0.2827686141404997 L 0.44897959183673464 0.2820418502395183 L 0.4693877551020408 0.2813341323489778 L 0.4897959183673469 0.2806196924478558 L 0.5102040816326531 0.2797948704055201 L 0.5306122448979591 0.2789874429820071 L 0.5510204081632653 0.2781200716758501 L 0.5714285714285714 0.2771836032055075 L 0.5918367346938775 0.2761669797113761 L 0.6122448979591836 0.2749315730411901 L 0.6326530612244897 0.2736418054592616 L 0.6530612244897959 0.27210720001251604 L 0.673469387755102 0.27021004201164467 L 0.6938775510204082 0.2678685839657087 L 0.7142857142857142 0.26480311966469133 L 0.7346938775510203 0.26173639045553226 L 0.7551020408163265 0.2586972448400011 L 0.7755102040816326 0.2560756855567467 L 0.7959183673469387 0.2542706038588686 L 0.8163265306122448 0.25360697309236974 L 0.836734693877551 0.25437262898467383 L 0.8571428571428571 0.2564088070658726 L 0.8775510204081632 0.25950025713920305 L 0.8979591836734693 0.26327985117691627 L 0.9183673469387754 0.26770064630530643 L 0.9387755102040816 0.27145084019625426 L 0.9591836734693877 0.27449986900714285 L 0.9795918367346939 0.276506599303227 M 0.0 0.259741643986528 L 0.02040816326530612 0.25950966374323314 L 0.04081632653061224 0.2589697251959621 L 0.061224489795918366 0.2584304497096729 L 0.08163265306122448 0.25832227621594905 L 0.1020408163265306 0.2592897954146227 L 0.12244897959183673 0.26159646177825496 L 0.14285714285714285 0.26549322126710834 L 0.16326530612244897 0.2708859498071811 L 0.18367346938775508 0.2773834460757547 L 0.2040816326530612 0.28503324733460883 L 0.22448979591836732 0.29162136327321053 L 0.24489795918367346 0.29714922439244323 L 0.26530612244897955 0.3011556199320151 L 0.2857142857142857 0.3034934992575869 L 0.3061224489795918 0.30433348839513397 L 0.32653061224489793 0.3039482282912804 L 0.3469387755102041 0.3029576661630451 L 0.36734693877551017 0.3017819524011071 L 0.3877551020408163 0.3006931433693777 L 0.4081632653061224 0.29972527512867814 L 0.42857142857142855 0.2990218544298616 L 0.44897959183673464 0.2983851056697924 L 0.4693877551020408 0.29771344987248266 L 0.4897959183673469 0.296942865067203 L 0.5102040816326531 0.2959480362407378 L 0.5306122448979591 0.2949243571075808 L 0.5510204081632653 0.29383914623066604 L 0.5714285714285714 0.29274559394152183 L 0.5918367346938775 0.2916883003581052 L 0.6122448979591836 0.2905810074015869 L 0.6326530612244897 0.28956896556612305 L 0.6530612244897959 0.2884381982030702 L 0.673469387755102 0.28702252283196733 L 0.6938775510204082 0.2851838304525757 L 0.7142857142857142 0.2826354898072583 L 0.7346938775510203 0.27997162964777567 L 0.7551020408163265 0.27726321826224753 L 0.7755102040816326 0.2749110627525136 L 0.7959183673469387 0.2733366988215878 L 0.8163265306122448 0.27290887161026034 L 0.836734693877551 0.27389056159465086 L 0.8571428571428571 0.27615005962624284 L 0.8775510204081632 0.2794648996046482 L 0.8979591836734693 0.2834592930207882 L 0.9183673469387754 0.2880893168825783 L 0.9387755102040816 0.2919938267235987 L 0.9591836734693877 0.29515533785061715 L 0.9795918367346939 0.29723042602130245 M 0.0 0.27773950932969316 L 0.02040816326530612 0.2774669236278233 L 0.04081632653061224 0.2768205783610897 L 0.061224489795918366 0.2761284524576249 L 0.08163265306122448 0.2758575495652357 L 0.1020408163265306 0.27669253045807185 L 0.12244897959183673 0.2789724172593714 L 0.14285714285714285 0.282963190387561 L 0.16326530612244897 0.2885628788024672 L 0.18367346938775508 0.29533484141776833 L 0.2040816326530612 0.30326603952134895 L 0.22448979591836732 0.3099951571099393 L 0.24489795918367346 0.31548721591395185 L 0.26530612244897955 0.3192609500218345 L 0.2857142857142857 0.3212075184858216 L 0.3061224489795918 0.3215351248884374 L 0.32653061224489793 0.3207218526360877 L 0.3469387755102041 0.3194335567882789 L 0.36734693877551017 0.318140596265186 L 0.3877551020408163 0.3171116767234721 L 0.4081632653061224 0.31635191128561707 L 0.42857142857142855 0.315878675803756 L 0.44897959183673464 0.3154274767980988 L 0.4693877551020408 0.31484191091094105 L 0.4897959183673469 0.31403921938232854 L 0.5102040816326531 0.31289461605176144 L 0.5306122448979591 0.3116802353333557 L 0.5510204081632653 0.3104070856426965 L 0.5714285714285714 0.3091766557575719 L 0.5918367346938775 0.30806895294173153 L 0.6122448979591836 0.3070251253099917 L 0.6326530612244897 0.30617881821698245 L 0.6530612244897959 0.30529902394581176 L 0.673469387755102 0.3041949744062225 L 0.6938775510204082 0.30270079513013093 L 0.7142857142857142 0.3005389057704416 L 0.7346938775510203 0.29821532418875063 L 0.7551020408163265 0.29583194891466835 L 0.7755102040816326 0.29378912043002203 L 0.7959183673469387 0.2925116896181015 L 0.8163265306122448 0.2923949342818719 L 0.836734693877551 0.29363754023732996 L 0.8571428571428571 0.296125162192283 L 0.8775510204081632 0.2996180929758372 L 0.8979591836734693 0.303732680989215 L 0.9183673469387754 0.30842442224264516 L 0.9387755102040816 0.312332603879594 L 0.9591836734693877 0.3154690809048412 L 0.9795918367346939 0.31751478843322606 M 0.0 0.29717144741950174 L 0.02040816326530612 0.2968885234366023 L 0.04081632653061224 0.29621216898924263 L 0.061224489795918366 0.29546610113846333 L 0.08163265306122448 0.29511917755394107 L 0.1020408163265306 0.29585491683750625 L 0.12244897959183673 0.2980437158169148 L 0.14285714285714285 0.3019517587292262 L 0.16326530612244897 0.307470694582165 L 0.18367346938775508 0.31414269810411566 L 0.2040816326530612 0.3218971812820716 L 0.22448979591836732 0.3283686066023632 L 0.24489795918367346 0.33349731282384926 L 0.26530612244897955 0.33682209806559504 L 0.2857142857142857 0.3382906285878953 L 0.3061224489795918 0.33815603058274135 L 0.32653061224489793 0.33706719835497045 L 0.3469387755102041 0.33569992659172004 L 0.36734693877551017 0.33453722442666217 L 0.3877551020408163 0.3338128182719784 L 0.4081632653061224 0.33350244353393754 L 0.42857142857142855 0.33344576330386505 L 0.44897959183673464 0.3333380898582981 L 0.4693877551020408 0.33297714631530856 L 0.4897959183673469 0.332269455565061 L 0.5102040816326531 0.33110475626903196 L 0.5306122448979591 0.3298027797940213 L 0.5510204081632653 0.32841875993839564 L 0.5714285714285714 0.32708909916668505 L 0.5918367346938775 0.3259181857216426 L 0.6122448979591836 0.3248621512444831 L 0.6326530612244897 0.3240642453132504 L 0.6530612244897959 0.3232860163591486 L 0.673469387755102 0.3223301256439358 L 0.6938775510204082 0.32101912619333284 L 0.7142857142857142 0.3190809025637095 L 0.7346938775510203 0.31696759930462065 L 0.7551020408163265 0.31479630278354176 L 0.7755102040816326 0.31296404996104166 L 0.7959183673469387 0.311897193024778 L 0.8163265306122448 0.3120108401054278 L 0.836734693877551 0.31345388425148407 L 0.8571428571428571 0.31612183846974756 L 0.8775510204081632 0.31975646483251335 L 0.8979591836734693 0.3239630581199631 L 0.9183673469387754 0.32869140066907077 L 0.9387755102040816 0.3325835368723106 L 0.9591836734693877 0.33567885424482546 L 0.9795918367346939 0.3376840227976576 M 0.0 0.3181576278344034 L 0.02040816326530612 0.3178886524223745 L 0.04081632653061224 0.317242395275865 L 0.061224489795918366 0.3165160724957478 L 0.08163265306122448 0.31614782813928216 L 0.1020408163265306 0.3167768381110694 L 0.12244897959183673 0.3187699000197291 L 0.14285714285714285 0.3223762252092677 L 0.16326530612244897 0.32748314873393275 L 0.18367346938775508 0.3336361787958854 L 0.2040816326530612 0.3407052384539862 L 0.22448979591836732 0.3464726374888482 L 0.24489795918367346 0.35086044576299646 L 0.26530612244897955 0.3534670670476236 L 0.2857142857142857 0.3543156592390279 L 0.3061224489795918 0.35370822658594697 L 0.32653061224489793 0.3524457970373456 L 0.3469387755102041 0.3511791457117177 L 0.36734693877551017 0.3503737293800561 L 0.3877551020408163 0.35020330245992026 L 0.4081632653061224 0.35062215751811204 L 0.42857142857142855 0.35123188760095025 L 0.44897959183673464 0.35170917867459867 L 0.4693877551020408 0.3518034116830596 L 0.4897959183673469 0.35140536625142754 L 0.5102040816326531 0.35042801253245104 L 0.5306122448979591 0.3491892024871295 L 0.5510204081632653 0.34779911663003754 L 0.5714285714285714 0.346424858741519 L 0.5918367346938775 0.34519794551002153 L 0.6122448979591836 0.3440954197891421 L 0.6326530612244897 0.3432919698663344 L 0.6530612244897959 0.3425522377526444 L 0.673469387755102 0.3416783632959437 L 0.6938775510204082 0.34047913544595826 L 0.7142857142857142 0.3386681054442784 L 0.7346938775510203 0.33664963052007935 L 0.7551020408163265 0.33454334348783277 L 0.7755102040816326 0.3327473027610028 L 0.7959183673469387 0.3317044878291323 L 0.8163265306122448 0.331855957160112 L 0.836734693877551 0.33335946950856077 L 0.8571428571428571 0.3361178383347368 L 0.8775510204081632 0.3398595511513061 L 0.8979591836734693 0.34417262291192535 L 0.9183673469387754 0.3489927491840445 L 0.9387755102040816 0.3529344305612877 L 0.9591836734693877 0.3560505377107163 L 0.9795918367346939 0.35805908184150637 M 0.0 0.3404695845503092 L 0.02040816326530612 0.34023738789159474 L 0.04081632653061224 0.3396786270623324 L 0.061224489795918366 0.3390457014437509 L 0.08163265306122448 0.33871751705085495 L 0.1020408163265306 0.3392511429942143 L 0.12244897959183673 0.34097342562014354 L 0.14285714285714285 0.3441019508887613 L 0.16326530612244897 0.34852437123053326 L 0.18367346938775508 0.35381716604030206 L 0.2040816326530612 0.3598033623938042 L 0.22448979591836732 0.36454432210044674 L 0.24489795918367346 0.36795160389893433 L 0.26530612244897955 0.369707304179648 L 0.2857142857142857 0.36990825892957424 L 0.3061224489795918 0.3688908017830385 L 0.32653061224489793 0.36755956369413634 L 0.3469387755102041 0.3665107578889802 L 0.36734693877551017 0.3661720158717548 L 0.3877551020408163 0.3666537563604527 L 0.4081632653061224 0.3679092480514377 L 0.42857142857142855 0.3693011254918396 L 0.44897959183673464 0.3705108441284551 L 0.4693877551020408 0.37124280835879975 L 0.4897959183673469 0.37136288083273145 L 0.5102040816326531 0.3708094069276341 L 0.5306122448979591 0.36983094607516204 L 0.5510204081632653 0.36859700376959786 L 0.5714285714285714 0.3672977910377701 L 0.5918367346938775 0.3660948559756712 L 0.6122448979591836 0.3650009995852014 L 0.6326530612244897 0.36422465799721954 L 0.6530612244897959 0.3635460094480425 L 0.673469387755102 0.3627623077529898 L 0.6938775510204082 0.3616552029809583 L 0.7142857142857142 0.359894524396721 L 0.7346938775510203 0.3578331021052934 L 0.7551020408163265 0.35558287516165576 L 0.7755102040816326 0.35355308920411366 L 0.7959183673469387 0.35222854857908303 L 0.8163265306122448 0.3520834109180366 L 0.836734693877551 0.35338599416580707 L 0.8571428571428571 0.3560443702184049 L 0.8775510204081632 0.3597895489693067 L 0.8979591836734693 0.36418974133582044 L 0.9183673469387754 0.3691571533552963 L 0.9387755102040816 0.37323835853646564 L 0.9591836734693877 0.37647016044001314 L 0.9795918367346939 0.37855365392066886 M 0.0 0.363465146991626 L 0.02040816326530612 0.36329069151579624 L 0.04081632653061224 0.36287386688913226 L 0.061224489795918366 0.3624100241392953 L 0.08163265306122448 0.36219835695812436 L 0.1020408163265306 0.3626899880695461 L 0.12244897959183673 0.36413554557478156 L 0.14285714285714285 0.36671302920961646 L 0.16326530612244897 0.37031541306697124 L 0.18367346938775508 0.37457376605716625 L 0.2040816326530612 0.37928762592883875 L 0.22448979591836732 0.3828758797099448 L 0.24489795918367346 0.3852480294171483 L 0.26530612244897955 0.3861742027120502 L 0.2857142857142857 0.38580512567333664 L 0.3061224489795918 0.38448369532705207 L 0.32653061224489793 0.38315649098281745 L 0.3469387755102041 0.38234741640957476 L 0.36734693877551017 0.3824394801986262 L 0.3877551020408163 0.383495558872707 L 0.4081632653061224 0.3854908836953987 L 0.42857142857142855 0.3876054550330381 L 0.44897959183673464 0.3895440007772741 L 0.4693877551020408 0.3909770891512268 L 0.4897959183673469 0.39173986943033534 L 0.5102040816326531 0.39179618744886185 L 0.5306122448979591 0.39126596702468763 L 0.5510204081632653 0.3903738447878242 L 0.5714285714285714 0.38932107940755 L 0.5918367346938775 0.3882952079921332 L 0.6122448979591836 0.38735833710318657 L 0.6326530612244897 0.3867254331917424 L 0.6530612244897959 0.3862032457220189 L 0.673469387755102 0.3855731872166579 L 0.6938775510204082 0.3845746467401473 L 0.7142857142857142 0.38280827661541933 L 0.7346938775510203 0.38057281312159685 L 0.7551020408163265 0.3779684184269152 L 0.7755102040816326 0.37542794858151346 L 0.7959183673469387 0.3735025654463859 L 0.8163265306122448 0.37270228280967327 L 0.836734693877551 0.3735114411981417 L 0.8571428571428571 0.37583994588526276 L 0.8775510204081632 0.3794403573419715 L 0.8979591836734693 0.38386298710807226 L 0.9183673469387754 0.3889881615097292 L 0.9387755102040816 0.39326615346580374 L 0.9591836734693877 0.39668513710019576 L 0.9795918367346939 0.39890138098386263 M 0.0 0.38635098111382327 L 0.02040816326530612 0.3862563180083931 L 0.04081632653061224 0.3860411658507247 L 0.061224489795918366 0.3858376118162911 L 0.08163265306122448 0.3858526558909146 L 0.1020408163265306 0.3864242195129365 L 0.12244897959183673 0.3876849212320327 L 0.14285714285714285 0.3897720131874286 L 0.16326530612244897 0.39258537474977045 L 0.18367346938775508 0.39582566002918507 L 0.2040816326530612 0.3992991261650246 L 0.22448979591836732 0.4018029117462383 L 0.24489795918367346 0.4032571061081127 L 0.26530612244897955 0.40350985915587134 L 0.2857142857142857 0.40273563612014684 L 0.3061224489795918 0.40125065096807383 L 0.32653061224489793 0.3999750454006496 L 0.3469387755102041 0.399352698964038 L 0.36734693877551017 0.3997234570050508 L 0.3877551020408163 0.40112901055062194 L 0.4081632653061224 0.4035842130704981 L 0.42857142857142855 0.4061889712055254 L 0.44897959183673464 0.4086852384832266 L 0.4693877551020408 0.41073151973597866 L 0.4897959183673469 0.41213609480315283 L 0.5102040816326531 0.4128896423369062 L 0.5306122448979591 0.4129471420101648 L 0.5510204081632653 0.4125729888685553 L 0.5714285714285714 0.4119606906028323 L 0.5918367346938775 0.41130746058745665 L 0.6122448979591836 0.4107266845881322 L 0.6326530612244897 0.41038763188381794 L 0.6530612244897959 0.41013139254621445 L 0.673469387755102 0.4097134608216883 L 0.6938775510204082 0.4088251931777084 L 0.7142857142857142 0.40698763177888275 L 0.7346938775510203 0.4044599923614211 L 0.7551020408163265 0.4013326778152117 L 0.7755102040816326 0.3980732623087576 L 0.7959183673469387 0.395313166157586 L 0.8163265306122448 0.3935926258547728 L 0.836734693877551 0.3936828560748047 L 0.8571428571428571 0.3954887500423637 L 0.8775510204081632 0.3987988607635969 L 0.8979591836734693 0.4031507114601864 L 0.9183673469387754 0.4083879802628618 L 0.9387755102040816 0.41286039256510515 L 0.9591836734693877 0.4164837329742934 L 0.9795918367346939 0.4188525449994249 M 0.0 0.40845372943330305 L 0.02040816326530612 0.4084612841629258 L 0.04081632653061224 0.40851064738915766 L 0.061224489795918366 0.4086701747353748 L 0.08163265306122448 0.40904993107528353 L 0.1020408163265306 0.4098826436043122 L 0.12244897959183673 0.4111362921259075 L 0.14285714285714285 0.41291041944724927 L 0.16326530612244897 0.4151069020483464 L 0.18367346938775508 0.41749924323653315 L 0.2040816326530612 0.4199297620273347 L 0.22448979591836732 0.42154872105784424 L 0.24489795918367346 0.42230543922166175 L 0.26530612244897955 0.4221121273214271 L 0.2857142857142857 0.42113839879422166 L 0.3061224489795918 0.41964570885840896 L 0.32653061224489793 0.4184618437689837 L 0.3469387755102041 0.4179482055531001 L 0.36734693877551017 0.41840316640903236 L 0.3877551020408163 0.4198717792501842 L 0.4081632653061224 0.4224151367655571 L 0.42857142857142855 0.4251728745029295 L 0.44897959183673464 0.4279350453900784 L 0.4693877551020408 0.43037809055849063 L 0.4897959183673469 0.43229829928272323 L 0.5102040816326531 0.43371652712461556 L 0.5306122448979591 0.4344182498305331 L 0.5510204081632653 0.4346838712839939 L 0.5714285714285714 0.43467696157597546 L 0.5918367346938775 0.43457863266389024 L 0.6122448979591836 0.4345411329843298 L 0.6326530612244897 0.4346262003472702 L 0.6530612244897959 0.4347119041935503 L 0.673469387755102 0.43452350431495756 L 0.6938775510204082 0.43371241590646853 L 0.7142857142857142 0.43172954844983485 L 0.7346938775510203 0.428828261499241 L 0.7551020408163265 0.4250960312199104 L 0.7755102040816326 0.4210411725423523 L 0.7959183673469387 0.4173726534687701 L 0.8163265306122448 0.41464653539901974 L 0.836734693877551 0.41393194748685513 L 0.8571428571428571 0.41511932184443584 L 0.8775510204081632 0.4180381642195195 L 0.8979591836734693 0.42222022571965073 L 0.9183673469387754 0.42747315615815273 L 0.9387755102040816 0.43207043826918473 L 0.9591836734693877 0.4358485787398133 L 0.9795918367346939 0.4383408519689748 M 0.0 0.4293624691016537 L 0.02040816326530612 0.4294810928213768 L 0.04081632653061224 0.4298230577725447 L 0.061224489795918366 0.43040209628469384 L 0.08163265306122448 0.43124115371780636 L 0.1020408163265306 0.43249267478409975 L 0.12244897959183673 0.4339334615070882 L 0.14285714285714285 0.4356318381201439 L 0.16326530612244897 0.43748112310847037 L 0.18367346938775508 0.43931444995848323 L 0.2040816326530612 0.44102614011810937 L 0.22448979591836732 0.4420469425956788 L 0.24489795918367346 0.4423738543436536 L 0.26530612244897955 0.44197062604743054 L 0.2857142857142857 0.4409875558582512 L 0.3061224489795918 0.4396233798329694 L 0.32653061224489793 0.4385719774915616 L 0.3469387755102041 0.43811740364836743 L 0.36734693877551017 0.4385156222180962 L 0.3877551020408163 0.43982546831569497 L 0.4081632653061224 0.4421450997943191 L 0.42857142857142855 0.4447416154663794 L 0.44897959183673464 0.44745755432185425 L 0.4693877551020408 0.4500141993883264 L 0.4897959183673469 0.45221703798214424 L 0.5102040816326531 0.45411837425728313 L 0.5306122448979591 0.45537275099184216 L 0.5510204081632653 0.45625271674227524 L 0.5714285714285714 0.45687785815538134 L 0.5918367346938775 0.4573909090316088 L 0.6122448979591836 0.4579603902256131 L 0.6326530612244897 0.45850215902127894 L 0.6530612244897959 0.4589251959399908 L 0.673469387755102 0.45892870481422376 L 0.6938775510204082 0.45814379709442415 L 0.7142857142857142 0.45598011558242846 L 0.7346938775510203 0.4527213349151272 L 0.7551020408163265 0.44846036801271566 L 0.7755102040816326 0.4437412212580998 L 0.7959183673469387 0.43932702378504235 L 0.8163265306122448 0.4357698420324886 L 0.836734693877551 0.43436938050420915 L 0.8571428571428571 0.4349946552117801 L 0.8775510204081632 0.43750922632879063 L 0.8979591836734693 0.44144729143695166 L 0.9183673469387754 0.4465884741122164 L 0.9387755102040816 0.45118186629430124 L 0.9591836734693877 0.4550005585143454 L 0.9795918367346939 0.4575376000539213 M 0.0 0.4493705364948853 L 0.02040816326530612 0.44961753478759897 L 0.04081632653061224 0.4503023477129096 L 0.061224489795918366 0.4513886888935694 L 0.08163265306122448 0.45281499561901706 L 0.1020408163265306 0.4546702698817378 L 0.12244897959183673 0.4564973166292137 L 0.14285714285714285 0.4583335255845111 L 0.16326530612244897 0.4600483174614034 L 0.18367346938775508 0.4615226544792632 L 0.2040816326530612 0.4627151299786301 L 0.22448979591836732 0.4633029872426341 L 0.24489795918367346 0.4633568756775425 L 0.26530612244897955 0.462896889038686 L 0.2857142857142857 0.4620520088604969 L 0.3061224489795918 0.460958088238318 L 0.32653061224489793 0.460128170363314 L 0.3469387755102041 0.45976130561163325 L 0.36734693877551017 0.4600551196845104 L 0.3877551020408163 0.4610778784137439 L 0.4081632653061224 0.46295094161614375 L 0.42857142857142855 0.4651330728737955 L 0.44897959183673464 0.4675305426847734 L 0.4693877551020408 0.469938054928195 L 0.4897959183673469 0.47219531453546565 L 0.5102040816326531 0.4743911355784949 L 0.5306122448979591 0.4760943625789985 L 0.5510204081632653 0.47754993259980943 L 0.5714285714285714 0.4788228505780669 L 0.5918367346938775 0.479997572891113 L 0.6122448979591836 0.48123755529591206 L 0.6326530612244897 0.4822747012777122 L 0.6530612244897959 0.48304213120249273 L 0.673469387755102 0.4832171991067139 L 0.6938775510204082 0.48243011110980105 L 0.7142857142857142 0.48008006594885044 L 0.7346938775510203 0.4765096973004452 L 0.7551020408163265 0.47182508807477386 L 0.7755102040816326 0.4665961750099059 L 0.7959183673469387 0.4616124569552344 L 0.8163265306122448 0.45739719652752897 L 0.836734693877551 0.45541135441964 L 0.8571428571428571 0.45549627177520907 L 0.8775510204081632 0.4575447679062217 L 0.8979591836734693 0.4611057942627862 L 0.9183673469387754 0.46593807176483765 L 0.9387755102040816 0.4703381505794995 L 0.9591836734693877 0.4740326509414595 L 0.9795918367346939 0.47650185789907357 M 0.0 0.4688460938158771 L 0.02040816326530612 0.4692119756362798 L 0.04081632653061224 0.47021795246104836 L 0.061224489795918366 0.4717913910846396 L 0.08163265306122448 0.4738041857693257 L 0.1020408163265306 0.47630618051953183 L 0.12244897959183673 0.4786103586940032 L 0.14285714285714285 0.48072475588971114 L 0.16326530612244897 0.4824826248803249 L 0.18367346938775508 0.4837924967463464 L 0.2040816326530612 0.4846728183401336 L 0.22448979591836732 0.4849916981423685 L 0.24489795918367346 0.4849084023521536 L 0.26530612244897955 0.4845057614068764 L 0.2857142857142857 0.48390377779271787 L 0.3061224489795918 0.4831974142764726 L 0.32653061224489793 0.4827001108001268 L 0.3469387755102041 0.48252672358467896 L 0.36734693877551017 0.4827985382757 L 0.3877551020408163 0.48357200082558294 L 0.4081632653061224 0.4849679173825781 L 0.42857142857142855 0.4866337307141365 L 0.44897959183673464 0.4885438759461428 L 0.4693877551020408 0.4905804599334942 L 0.4897959183673469 0.4926394058179155 L 0.5102040816326531 0.49484580605305933 L 0.5306122448979591 0.4967597187351477 L 0.5510204081632653 0.4985887828253969 L 0.5714285714285714 0.5003500158272127 L 0.5918367346938775 0.502066319800707 L 0.6122448979591836 0.5038772069653964 L 0.6326530612244897 0.5053370781558851 L 0.6530612244897959 0.5063896669472783 L 0.673469387755102 0.5066997825317316 L 0.6938775510204082 0.5059156765017112 L 0.7142857142857142 0.5034613060142115 L 0.7346938775510203 0.4997402876728746 L 0.7551020408163265 0.4948734421304256 L 0.7755102040816326 0.48943219010335276 L 0.7959183673469387 0.4841907146631756 L 0.8163265306122448 0.47961535614064255 L 0.836734693877551 0.47722470182271354 L 0.8571428571428571 0.4768341183349867 L 0.8775510204081632 0.4783604705369088 L 0.8979591836734693 0.48138537011014165 L 0.9183673469387754 0.48565798413900074 L 0.9387755102040816 0.48961747829873103 L 0.9591836734693877 0.4929699698572699 L 0.9795918367346939 0.49522114955146257 M 0.0 0.48848522912106346 L 0.02040816326530612 0.4889378031654026 L 0.04081632653061224 0.49018116537608775 L 0.061224489795918366 0.4921240115385957 L 0.08163265306122448 0.49459778398785786 L 0.1020408163265306 0.4976344162819998 L 0.12244897959183673 0.5003640665680273 L 0.14285714285714285 0.5027666138743774 L 0.16326530612244897 0.5046354900687138 L 0.18367346938775508 0.5058887983970959 L 0.2040816326530612 0.5065908152634236 L 0.22448979591836732 0.5067500981761567 L 0.24489795918367346 0.5066148006592137 L 0.26530612244897955 0.5063347162341549 L 0.2857142857142857 0.5060373248235498 L 0.3061224489795918 0.5058075003666072 L 0.32653061224489793 0.5057590265943848 L 0.3469387755102041 0.505929466464185 L 0.36734693877551017 0.5063486813541941 L 0.3877551020408163 0.5070339331440773 L 0.4081632653061224 0.508082809794998 L 0.42857142857142855 0.509278832687102 L 0.44897959183673464 0.5106645574358286 L 0.4693877551020408 0.5122091388851435 L 0.4897959183673469 0.5138785299347873 L 0.5102040816326531 0.5158308617867486 L 0.5306122448979591 0.5176939283924908 L 0.5510204081632653 0.5196387783946179 L 0.5714285714285714 0.5216513148589688 L 0.5918367346938775 0.5237024913451459 L 0.6122448979591836 0.5258970181053124 L 0.6326530612244897 0.527649505970951 L 0.6530612244897959 0.5289015176400281 L 0.673469387755102 0.5293162519649663 L 0.6938775510204082 0.5285724124473077 L 0.7142857142857142 0.5261447103824094 L 0.7346938775510203 0.5224733744160215 L 0.7551020408163265 0.5176865044874299 L 0.7755102040816326 0.5123250084280644 L 0.7959183673469387 0.507106215193917 L 0.8163265306122448 0.5024119654295892 L 0.836734693877551 0.4997350581553041 L 0.8571428571428571 0.49887257251736444 L 0.8775510204081632 0.4997673785733141 L 0.8979591836734693 0.5020558468742309 L 0.9183673469387754 0.5054875993974232 L 0.9387755102040816 0.5087432040724075 L 0.9591836734693877 0.5115278069863954 L 0.9795918367346939 0.5134073979045163 M 0.0 0.5088145823285231 L 0.02040816326530612 0.5093008321045027 L 0.04081632653061224 0.5106408182970147 L 0.061224489795918366 0.5127458041428704 L 0.08163265306122448 0.5154402226563968 L 0.1020408163265306 0.5187566142281352 L 0.12244897959183673 0.5217294989417566 L 0.14285714285714285 0.5243130388925796 L 0.16326530612244897 0.526267729806233 L 0.18367346938775508 0.5275076996808222 L 0.2040816326530612 0.5281239452074232 L 0.22448979591836732 0.5282127331790101 L 0.24489795918367346 0.5280937613421992 L 0.26530612244897955 0.5279769059945262 L 0.2857142857142857 0.528007689093062 L 0.3061224489795918 0.5282886330620548 L 0.32653061224489793 0.5287545423056302 L 0.3469387755102041 0.529382275064052 L 0.36734693877551017 0.5301087387719745 L 0.3877551020408163 0.530892892751733 L 0.4081632653061224 0.531795249397865 L 0.42857142857142855 0.5326623162933719 L 0.44897959183673464 0.5335977093183792 L 0.4693877551020408 0.5346440923235998 L 0.4897959183673469 0.535839280492536 L 0.5102040816326531 0.5373689179344062 L 0.5306122448979591 0.5389804907673731 L 0.5510204081632653 0.5408158220741546 L 0.5714285714285714 0.5428479404565255 L 0.5918367346938775 0.5450111264725989 L 0.6122448979591836 0.5473718348145112 L 0.6326530612244897 0.5492604502196158 L 0.6530612244897959 0.5506097753416505 L 0.673469387755102 0.5510939728142905 L 0.6938775510204082 0.5504289121528935 L 0.7142857142857142 0.5481526347302387 L 0.7346938775510203 0.5447045728165102 L 0.7551020408163265 0.5402043466140044 L 0.7755102040816326 0.5351303895493335 L 0.7959183673469387 0.5301100799613017 L 0.8163265306122448 0.5254178101813056 L 0.836734693877551 0.5224763457873687 L 0.8571428571428571 0.5210746543624797 L 0.8775510204081632 0.5211901026625932 L 0.8979591836734693 0.5225355601944058 L 0.9183673469387754 0.5248674991170417 L 0.9387755102040816 0.5271909600032205 L 0.9591836734693877 0.5292184079034874 L 0.9795918367346939 0.5306002268823216 M 0.0 0.529685519681847 L 0.02040816326530612 0.5301466507859212 L 0.04081632653061224 0.5314257966215106 L 0.061224489795918366 0.5334569668093532 L 0.08163265306122448 0.5360912351437626 L 0.1020408163265306 0.5393778196150296 L 0.12244897959183673 0.5423594483730602 L 0.14285714285714285 0.5449714640106692 L 0.16326530612244897 0.5469570333876193 L 0.18367346938775508 0.5482178041795502 L 0.2040816326530612 0.5488526569301238 L 0.22448979591836732 0.5489802699927815 L 0.24489795918367346 0.5489585844205301 L 0.26530612244897955 0.5490326856944028 L 0.2857142857142857 0.549363135822351 L 0.3061224489795918 0.5500822201866397 L 0.32653061224489793 0.5509953562119351 L 0.3469387755102041 0.5520477511213641 L 0.36734693877551017 0.55310723034976 L 0.3877551020408163 0.5540795732656221 L 0.4081632653061224 0.554990844658886 L 0.42857142857142855 0.5556928105070754 L 0.44897959183673464 0.5563321086966599 L 0.4693877551020408 0.5569994052402785 L 0.4897959183673469 0.55778896007322 L 0.5102040816326531 0.5589052014260955 L 0.5306122448979591 0.5602153350589091 L 0.5510204081632653 0.5618416837458957 L 0.5714285714285714 0.5637551382281222 L 0.5918367346938775 0.5658678342134633 L 0.6122448979591836 0.568212212346972 L 0.6326530612244897 0.5700920980950333 L 0.6530612244897959 0.5714347407350232 L 0.673469387755102 0.5719371288975746 L 0.6938775510204082 0.5713529107604245 L 0.7142857142857142 0.5692787723556462 L 0.7346938775510203 0.5661236410516696 L 0.7551020408163265 0.5619814536137625 L 0.7755102040816326 0.5572513947499079 L 0.7959183673469387 0.5524606516423998 L 0.8163265306122448 0.5477720917457346 L 0.836734693877551 0.5445396017637105 L 0.8571428571428571 0.5425528630871641 L 0.8775510204081632 0.5418305810096563 L 0.8979591836734693 0.5421700834232898 L 0.9183673469387754 0.5433361497213093 L 0.9387755102040816 0.544676345788332 L 0.9591836734693877 0.5459079880651568 L 0.9795918367346939 0.5467676635424772 M 0.0 0.5507701650957938 L 0.02040816326530612 0.5511468176607837 L 0.04081632653061224 0.5522070957343025 L 0.061224489795918366 0.5539306144839949 L 0.08163265306122448 0.556231805132252 L 0.1020408163265306 0.559196659895165 L 0.12244897959183673 0.5619775155456033 L 0.14285714285714285 0.56449830440233 L 0.16326530612244897 0.5665000441305513 L 0.18367346938775508 0.5678629798495513 L 0.2040816326530612 0.5686805013038536 L 0.22448979591836732 0.569015467509911 L 0.24489795918367346 0.5692311824547366 L 0.26530612244897955 0.5695749661410763 L 0.2857142857142857 0.5702092005269142 L 0.3061224489795918 0.5712969515152956 L 0.32653061224489793 0.572556854672523 L 0.3469387755102041 0.5739345374591589 L 0.36734693877551017 0.5752608425911869 L 0.3877551020408163 0.5764077862765875 L 0.4081632653061224 0.5773777341017359 L 0.42857142857142855 0.5780058777740341 L 0.44897959183673464 0.57846415463527 L 0.4693877551020408 0.5788696419129015 L 0.4897959183673469 0.5793555889317333 L 0.5102040816326531 0.5801371929809893 L 0.5306122448979591 0.5811779697327947 L 0.5510204081632653 0.582584541264325 L 0.5714285714285714 0.5843256025784405 L 0.5918367346938775 0.58629621532006 L 0.6122448979591836 0.5884957884044437 L 0.6326530612244897 0.5902455904586169 L 0.6530612244897959 0.5914776774141168 L 0.673469387755102 0.5919280504728451 L 0.6938775510204082 0.591394630333084 L 0.7142857142857142 0.5895297834336576 L 0.7346938775510203 0.5866939525948941 L 0.7551020408163265 0.5829348815478335 L 0.7755102040816326 0.5785549328618872 L 0.7959183673469387 0.5739688742765994 L 0.8163265306122448 0.5692168989593149 L 0.836734693877551 0.5655992170160896 L 0.8571428571428571 0.5629120827941754 L 0.8775510204081632 0.5612263587508373 L 0.8979591836734693 0.5604356567096144 L 0.9183673469387754 0.5603128593403784 L 0.9387755102040816 0.5605783910330737 L 0.9591836734693877 0.5609468527488363 L 0.9795918367346939 0.5612427793269197 M 0.0 0.5711534864245652 L 0.02040816326530612 0.5714038079162396 L 0.04081632653061224 0.5721335933268804 L 0.061224489795918366 0.5733847274450481 L 0.08163265306122448 0.5751626399766223 L 0.1020408163265306 0.577609443336471 L 0.12244897959183673 0.5800630185076968 L 0.14285714285714285 0.5824481544040104 L 0.16326530612244897 0.5845183590686867 L 0.18367346938775508 0.5861255719152642 L 0.2040816326530612 0.5873505927611177 L 0.22448979591836732 0.5881090345853643 L 0.24489795918367346 0.588735821846387 L 0.26530612244897955 0.5894366445497768 L 0.2857142857142857 0.5903518806801368 L 0.3061224489795918 0.5916597858282389 L 0.32653061224489793 0.5930500917065448 L 0.3469387755102041 0.5945070787626531 L 0.36734693877551017 0.5958752821706884 L 0.3877551020408163 0.5970354811523855 L 0.4081632653061224 0.597990501771248 L 0.42857142857142855 0.5985770381148205 L 0.44897959183673464 0.5989676148908362 L 0.4693877551020408 0.5992806242830846 L 0.4897959183673469 0.5996586098481883 L 0.5102040816326531 0.6003152058922423 L 0.5306122448979591 0.6012439998315591 L 0.5510204081632653 0.6025370229698892 L 0.5714285714285714 0.6041518044055224 L 0.5918367346938775 0.605967405783412 L 0.6122448979591836 0.6079544257612568 L 0.6326530612244897 0.6094838277136035 L 0.6530612244897959 0.6105072841582354 L 0.673469387755102 0.6108129165031639 L 0.6938775510204082 0.6102471613010204 L 0.7142857142857142 0.6085072151651437 L 0.7346938775510203 0.6059121628026795 L 0.7551020408163265 0.6024506196272248 L 0.7755102040816326 0.5983307768889726 L 0.7959183673469387 0.5938636140586026 L 0.8163265306122448 0.588976889502464 L 0.836734693877551 0.5849447545005065 L 0.8571428571428571 0.5815722897897124 L 0.8775510204081632 0.5789829580739446 L 0.8979591836734693 0.5771594910399391 L 0.9183673469387754 0.5758808001841339 L 0.9387755102040816 0.5751956441090691 L 0.9591836734693877 0.5748075978799669 L 0.9795918367346939 0.5746122749821911 M 0.0 0.5902804290481112 L 0.02040816326530612 0.590386309480421 L 0.04081632653061224 0.5907371443844373 L 0.061224489795918366 0.591445503458813 L 0.08163265306122448 0.5926221684771906 L 0.1020408163265306 0.594479815675921 L 0.12244897959183673 0.5965785284788514 L 0.14285714285714285 0.5988566173688108 L 0.16326530612244897 0.6010902792952784 L 0.18367346938775508 0.6031001150273236 L 0.2040816326530612 0.6049562704593057 L 0.22448979591836732 0.6063494435149124 L 0.24489795918367346 0.6075633173179932 L 0.26530612244897955 0.6087221793270955 L 0.2857142857142857 0.6099181630273494 L 0.3061224489795918 0.6113219061593241 L 0.32653061224489793 0.6126352939306998 L 0.3469387755102041 0.6139129130148486 L 0.36734693877551017 0.615059737599408 L 0.3877551020408163 0.6160116269804443 L 0.4081632653061224 0.6167985545780396 L 0.42857142857142855 0.6173057530273064 L 0.44897959183673464 0.6176865234568328 L 0.4693877551020408 0.6180431859535781 L 0.4897959183673469 0.61849989526156 L 0.5102040816326531 0.6192568384862234 L 0.5306122448979591 0.6202638902132894 L 0.5510204081632653 0.6215957522579202 L 0.5714285714285714 0.6231852663403509 L 0.5918367346938775 0.6248914559576697 L 0.6122448979591836 0.6266578389411434 L 0.6326530612244897 0.6279167488555837 L 0.6530612244897959 0.6286512869715059 L 0.673469387755102 0.6287099895622658 L 0.6938775510204082 0.6279932269344755 L 0.7142857142857142 0.6262344899946962 L 0.7346938775510203 0.6237439553582242 L 0.7551020408163265 0.6204482607786115 L 0.7755102040816326 0.6164768573918147 L 0.7959183673469387 0.612053618800421 L 0.8163265306122448 0.6070127279439054 L 0.836734693877551 0.6026174503614439 L 0.8571428571428571 0.5986790798456368 L 0.8775510204081632 0.5953646478410684 L 0.8979591836734693 0.5927282496931346 L 0.9183673469387754 0.5905532965066973 L 0.9387755102040816 0.5891398207031368 L 0.9591836734693877 0.5881772480231228 L 0.9795918367346939 0.5876108335057469 M 0.0 0.6083223570656241 L 0.02040816326530612 0.6082841801314833 L 0.04081632653061224 0.6082562236031114 L 0.061224489795918366 0.6084221334553187 L 0.08163265306122448 0.6089992889970449 L 0.1020408163265306 0.6102757262317711 L 0.12244897959183673 0.6120391299225693 L 0.14285714285714285 0.6142504451323173 L 0.16326530612244897 0.616715151271012 L 0.18367346938775508 0.6192259716683591 L 0.2040816326530612 0.6218510196070601 L 0.22448979591836732 0.6240161721015112 L 0.24489795918367346 0.6259436391172876 L 0.26530612244897955 0.6276502943284665 L 0.2857142857142857 0.6291581933211478 L 0.3061224489795918 0.6306087289680699 L 0.32653061224489793 0.6317261891164758 L 0.3469387755102041 0.6326524890156684 L 0.36734693877551017 0.6333809365031093 L 0.3877551020408163 0.6339364653019223 L 0.4081632653061224 0.6343964831696557 L 0.42857142857142855 0.6347480701262459 L 0.44897959183673464 0.6351168237225877 L 0.4693877551020408 0.6355841171242358 L 0.4897959183673469 0.636239713821037 L 0.5102040816326531 0.6372643698956226 L 0.5306122448979591 0.6385093644714492 L 0.5510204081632653 0.6400279982877467 L 0.5714285714285714 0.6417152890436515 L 0.5918367346938775 0.6434015107309672 L 0.6122448979591836 0.6449998108132262 L 0.6326530612244897 0.645989258695179 L 0.6530612244897959 0.6463877025342751 L 0.673469387755102 0.6461043427731807 L 0.6938775510204082 0.6450995338150144 L 0.7142857142857142 0.6431398115213298 L 0.7346938775510203 0.6405822621622461 L 0.7551020408163265 0.6373010379589377 L 0.7755102040816326 0.6333725078914249 L 0.7959183673469387 0.6289536404543533 L 0.8163265306122448 0.6238065617629537 L 0.836734693877551 0.6191770171972183 L 0.8571428571428571 0.6148733380803783 L 0.8775510204081632 0.611087813938438 L 0.8979591836734693 0.607921493352955 L 0.9183673469387754 0.6051619413791574 L 0.9387755102040816 0.6032743923692176 L 0.9591836734693877 0.6019388865168837 L 0.9795918367346939 0.6011318731729478 M 0.0 0.6262481024738946 L 0.02040816326530612 0.6260702792962206 L 0.04081632653061224 0.6256734387894246 L 0.061224489795918366 0.6253089001065101 L 0.08163265306122448 0.6252951124125482 L 0.1020408163265306 0.62598960223111 L 0.12244897959183673 0.6274046606033911 L 0.14285714285714285 0.6295261507571763 L 0.16326530612244897 0.6321943298332336 L 0.18367346938775508 0.6351842436650857 L 0.2040816326530612 0.6385717309094243 L 0.22448979591836732 0.641526103563061 L 0.24489795918367346 0.644205938701668 L 0.26530612244897955 0.6465116133412776 L 0.2857142857142857 0.6483813823632337 L 0.3061224489795918 0.6499122463953588 L 0.32653061224489793 0.6508305656063305 L 0.3469387755102041 0.6513651166209833 L 0.36734693877551017 0.6516004441945663 L 0.3877551020408163 0.6516628449067331 L 0.4081632653061224 0.6516846325375955 L 0.42857142857142855 0.6517951731536775 L 0.44897959183673464 0.6520962888546127 L 0.4693877551020408 0.6526570526860388 L 0.4897959183673469 0.6535344982369985 L 0.5102040816326531 0.6548951220138319 L 0.5306122448979591 0.656473269591762 L 0.5510204081632653 0.6582986333424976 L 0.5714285714285714 0.6602191252668346 L 0.5918367346938775 0.6620227768876226 L 0.6122448979591836 0.6635837850882023 L 0.6326530612244897 0.6643800440419714 L 0.6530612244897959 0.6644567794736621 L 0.673469387755102 0.6637728997394928 L 0.6938775510204082 0.6623530465106849 L 0.7142857142857142 0.6599985889236935 L 0.7346938775510203 0.6571856393882484 L 0.7551020408163265 0.653758581907976 L 0.7755102040816326 0.6497744916219286 L 0.7959183673469387 0.6453452828014301 L 0.8163265306122448 0.6401800259551098 L 0.836734693877551 0.6354821759049684 L 0.8571428571428571 0.631039991020361 L 0.8775510204081632 0.6270459499493083 L 0.8979591836734693 0.6236215628520342 L 0.9183673469387754 0.6205586886489021 L 0.9387755102040816 0.6184153770563635 L 0.9591836734693877 0.6168740602268628 L 0.9795918367346939 0.6159321193673015 M 0.0 0.6453401259550701 L 0.02040816326530612 0.6450286766101495 L 0.04081632653061224 0.6442765028412358 L 0.061224489795918366 0.643395982603982 L 0.08163265306122448 0.6427954749576825 L 0.1020408163265306 0.6428854924320778 L 0.12244897959183673 0.6438945658824642 L 0.14285714285714285 0.6458268224565189 L 0.16326530612244897 0.648559758191595 L 0.18367346938775508 0.6518639333715933 L 0.2040816326530612 0.6558263989394437 L 0.22448979591836732 0.6594207523188267 L 0.24489795918367346 0.6627460807728321 L 0.26530612244897955 0.6655992465116959 L 0.2857142857142857 0.6678368584759786 L 0.3061224489795918 0.6695087379287585 L 0.32653061224489793 0.6703121649733211 L 0.3469387755102041 0.6705438747349072 L 0.36734693877551017 0.6703578967784569 L 0.3877551020408163 0.6699667171653613 L 0.4081632653061224 0.6695481548771351 L 0.42857142857142855 0.6693774946722085 L 0.44897959183673464 0.6695445077366317 L 0.4693877551020408 0.670121967304136 L 0.4897959183673469 0.6711517751281569 L 0.5102040816326531 0.6728022489672066 L 0.5306122448979591 0.674716420506965 L 0.5510204081632653 0.6769046703377919 L 0.5714285714285714 0.6791684903219051 L 0.5918367346938775 0.6812425078748424 L 0.6122448979591836 0.6829552867454582 L 0.6326530612244897 0.683714119881899 L 0.6530612244897959 0.6835752815194658 L 0.673469387755102 0.6825237648610908 L 0.6938775510204082 0.680643253030411 L 0.7142857142857142 0.6777708065997367 L 0.7346938775510203 0.6745592182878514 L 0.7551020408163265 0.6708548305880715 L 0.7755102040816326 0.6667310886594862 L 0.7959183673469387 0.6622786422290761 L 0.8163265306122448 0.6571699240334322 L 0.836734693877551 0.6525422744615288 L 0.8571428571428571 0.6481445452361089 L 0.8775510204081632 0.6441453574224064 L 0.8979591836734693 0.6406636197339605 L 0.9183673469387754 0.6374948434053762 L 0.9387755102040816 0.6352418095251781 L 0.9591836734693877 0.6336023718660345 L 0.9795918367346939 0.6325918556329896 M 0.0 0.6664442227377605 L 0.02040816326530612 0.6659701878264419 L 0.04081632653061224 0.6647831568135407 L 0.061224489795918366 0.6632644288063883 L 0.08163265306122448 0.6619219263448396 L 0.1020408163265306 0.6612103574093021 L 0.12244897959183673 0.6616199441425904 L 0.14285714285714285 0.6631641523350996 L 0.16326530612244897 0.6657661461531567 L 0.18367346938775508 0.6692028041400664 L 0.2040816326530612 0.6735697576827859 L 0.22448979591836732 0.6776892297230849 L 0.24489795918367346 0.6815924596008693 L 0.26530612244897955 0.6849758679787127 L 0.2857142857142857 0.6876104270617636 L 0.3061224489795918 0.6894949288072264 L 0.32653061224489793 0.6902666893583553 L 0.3469387755102041 0.6902771307259903 L 0.36734693877551017 0.689731527135619 L 0.3877551020408163 0.6889154268069194 L 0.4081632653061224 0.6880411691408278 L 0.42857142857142855 0.6875343302241506 L 0.44897959183673464 0.6874822264402076 L 0.4693877551020408 0.6879785452146054 L 0.4897959183673469 0.6890722283339135 L 0.5102040816326531 0.6909560162224037 L 0.5306122448979591 0.6932166452388626 L 0.5510204081632653 0.6958515057131828 L 0.5714285714285714 0.6986150270339752 L 0.5918367346938775 0.7011701276594212 L 0.6122448979591836 0.7032878577052911 L 0.6326530612244897 0.7042114348293822 L 0.6530612244897959 0.7039901673822118 L 0.673469387755102 0.7026089068935705 L 0.6938775510204082 0.700208518878714 L 0.7142857142857142 0.6966671843508244 L 0.7346938775510203 0.6928860308868455 L 0.7551020408163265 0.6887486421734513 L 0.7755102040816326 0.6843815828906136 L 0.7959183673469387 0.6798740979683929 L 0.8163265306122448 0.6748676887221815 L 0.836734693877551 0.6704065811028271 L 0.8571428571428571 0.6661737367709373 L 0.8775510204081632 0.6622899465726295 L 0.8979591836734693 0.6588537850827964 L 0.9183673469387754 0.6556634820711615 L 0.9387755102040816 0.6533514777269883 L 0.9591836734693877 0.6516447334080612 L 0.9795918367346939 0.650581651695765 M 0.0 0.6897017566524986 L 0.02040816326530612 0.6890461033655613 L 0.04081632653061224 0.6873718333631011 L 0.061224489795918366 0.6851332102844776 L 0.08163265306122448 0.6829418075809318 L 0.1020408163265306 0.6812855881840367 L 0.12244897959183673 0.6809438769272314 L 0.14285714285714285 0.6819275988731888 L 0.16326530612244897 0.6842078509609314 L 0.18367346938775508 0.687573888504961 L 0.2040816326530612 0.6921202367672964 L 0.22448979591836732 0.6965758461890205 L 0.24489795918367346 0.7009005761777216 L 0.26530612244897955 0.7047061501916099 L 0.2857142857142857 0.7076876070674983 L 0.3061224489795918 0.7097984665768498 L 0.32653061224489793 0.7106051960329777 L 0.3469387755102041 0.7104953917122827 L 0.36734693877551017 0.7097027772408523 L 0.3877551020408163 0.7085615716659963 L 0.4081632653061224 0.7073006045163363 L 0.42857142857142855 0.7064686390901995 L 0.44897959183673464 0.706156464429319 L 0.4693877551020408 0.7064895042873901 L 0.4897959183673469 0.7075447079352757 L 0.5102040816326531 0.7095595222624571 L 0.5306122448979591 0.7121141983891554 L 0.5510204081632653 0.7152044098258005 L 0.5714285714285714 0.7185467291462829 L 0.5918367346938775 0.7217261354857232 L 0.6122448979591836 0.7244549286314529 L 0.6326530612244897 0.725740522610792 L 0.6530612244897959 0.7256084410689915 L 0.673469387755102 0.7240154016689659 L 0.6938775510204082 0.7211462149681694 L 0.7142857142857142 0.7169183590676981 L 0.7346938775510203 0.712505063822396 L 0.7551020408163265 0.7078561423259744 L 0.7755102040816326 0.7031772424255022 L 0.7959183673469387 0.6985748369979327 L 0.8163265306122448 0.6936659950778118 L 0.836734693877551 0.6893968801667879 L 0.8571428571428571 0.6853685807971118 L 0.8775510204081632 0.68164137876412 L 0.8979591836734693 0.6782837027139643 L 0.9183673469387754 0.6750946413850089 L 0.9387755102040816 0.6727332699111811 L 0.9591836734693877 0.6709622121923835 L 0.9795918367346939 0.6698466708406331 M 0.0 0.7139931972184642 L 0.02040816326530612 0.7131599690818163 L 0.04081632653061224 0.7110088823520887 L 0.061224489795918366 0.7080638244127294 L 0.08163265306122448 0.7050342779894914 L 0.1020408163265306 0.7024330795801752 L 0.12244897959183673 0.7013194312427556 L 0.14285714285714285 0.7016939968724836 L 0.16326530612244897 0.7035712697877828 L 0.18367346938775508 0.7067527668625724 L 0.2040816326530612 0.7113228603752404 L 0.22448979591836732 0.7159592310318975 L 0.24489795918367346 0.7205543235315135 L 0.26530612244897955 0.7246540840336094 L 0.2857142857142857 0.7278936607155038 L 0.3061224489795918 0.7301913458526514 L 0.32653061224489793 0.7310524775517039 L 0.3469387755102041 0.7308867497104599 L 0.36734693877551017 0.7299411302340961 L 0.3877551020408163 0.7285777897491859 L 0.4081632653061224 0.7270280934957202 L 0.42857142857142855 0.7259272239153511 L 0.44897959183673464 0.7253698015153166 L 0.4693877551020408 0.7255132712588225 L 0.4897959183673469 0.7264712074914009 L 0.5102040816326531 0.7285328353365618 L 0.5306122448979591 0.7313063498452944 L 0.5510204081632653 0.734794743092752 L 0.5714285714285714 0.7386890820989168 L 0.5918367346938775 0.7425037066979322 L 0.6122448979591836 0.7459004933118902 L 0.6326530612244897 0.7476354922746715 L 0.6530612244897959 0.7477030378336015 L 0.673469387755102 0.7460166605729966 L 0.6938775510204082 0.7427893034392519 L 0.7142857142857142 0.7379706723393863 L 0.7346938775510203 0.7329799424016832 L 0.7551020408163265 0.7278426158331199 L 0.7755102040816326 0.7228484107424923 L 0.7959183673469387 0.7181302618472186 L 0.8163265306122448 0.7132868167643029 L 0.836734693877551 0.7091800629730431 L 0.8571428571428571 0.7053302995403183 L 0.8775510204081632 0.7017391264110002 L 0.8979591836734693 0.6984446726582842 L 0.9183673469387754 0.6952454005199534 L 0.9387755102040816 0.6928279550218741 L 0.9591836734693877 0.6909886760934482 L 0.9795918367346939 0.6898188665989999 M 0.0 0.7374992850298457 L 0.02040816326530612 0.7365338555853873 L 0.04081632653061224 0.7340277626633006 L 0.061224489795918366 0.7305562890539249 L 0.08163265306122448 0.7269008319958452 L 0.1020408163265306 0.7235904339084769 L 0.12244897959183673 0.7218913224071655 L 0.14285714285714285 0.7217935266160452 L 0.16326530612244897 0.7233420074276258 L 0.18367346938775508 0.7263465205562993 L 0.2040816326530612 0.7308795317892425 L 0.22448979591836732 0.7355941630345102 L 0.24489795918367346 0.7403334566058328 L 0.26530612244897955 0.7446010705010759 L 0.2857142857142857 0.7479938556314456 L 0.3061224489795918 0.7504079285981438 L 0.32653061224489793 0.751309725129058 L 0.3469387755102041 0.7511208589885235 L 0.36734693877551017 0.750093520896955 L 0.3877551020408163 0.7486032802658003 L 0.4081632653061224 0.746878132214438 L 0.42857142857142855 0.7456021969843172 L 0.44897959183673464 0.7448719768790569 L 0.4693877551020408 0.7448677366237896 L 0.4897959183673469 0.7457328443943669 L 0.5102040816326531 0.7477973740309735 L 0.5306122448979591 0.7507035767380139 L 0.5510204081632653 0.7544639138464119 L 0.5714285714285714 0.7587558843209118 L 0.5918367346938775 0.7630448764318875 L 0.6122448979591836 0.766959304524487 L 0.6326530612244897 0.7690632649404339 L 0.6530612244897959 0.7693252679106132 L 0.673469387755102 0.7676207665724479 L 0.6938775510204082 0.7641767525066478 L 0.7142857142857142 0.7589636218736718 L 0.7346938775510203 0.7535703850813946 L 0.7551020408163265 0.7480820289405145 L 0.7755102040816326 0.742852073561346 L 0.7959183673469387 0.7380366658989989 L 0.8163265306122448 0.7332229384002249 L 0.836734693877551 0.7292178175099769 L 0.8571428571428571 0.7254825499334019 L 0.8775510204081632 0.7219767376251921 L 0.8979591836734693 0.7187166351794353 L 0.9183673469387754 0.7154995870200774 L 0.9387755102040816 0.7130342002598528 L 0.9591836734693877 0.7111403784574677 L 0.9795918367346939 0.7099282839538983" fill="none" style="stroke-width: 0.0033248164137788115; stroke: black;" /></g></svg>